<svg width="36" height="37" viewBox="0 0 36 37" fill="none" xmlns="http://www.w3.org/2000/svg">
<g clip-path="url(#clip0_1012_144)">
<path d="M18 0.779785C14.4399 0.779785 10.9598 1.83547 7.99973 3.81333C5.03964 5.7912 2.73254 8.60241 1.37016 11.8915C0.00778389 15.1806 -0.348676 18.7998 0.345858 22.2914C1.04039 25.7831 2.75473 28.9904 5.27207 31.5077C7.78942 34.0251 10.9967 35.7394 14.4884 36.4339C17.98 37.1285 21.5992 36.772 24.8883 35.4096C28.1774 34.0472 30.9886 31.7401 32.9664 28.7801C34.9443 25.82 36 22.3398 36 18.7798C36 14.0059 34.1036 9.42752 30.7279 6.05186C27.3523 2.67621 22.7739 0.779785 18 0.779785V0.779785ZM18 33.5098C15.0867 33.5098 12.2388 32.6459 9.81644 31.0273C7.39411 29.4088 5.50613 27.1083 4.39125 24.4167C3.27637 21.7252 2.98467 18.7634 3.55303 15.9061C4.12139 13.0488 5.52428 10.4241 7.58431 8.3641C9.64434 6.30408 12.269 4.90118 15.1263 4.33282C17.9837 3.76446 20.9454 4.05616 23.6369 5.17104C26.3285 6.28592 28.629 8.1739 30.2475 10.5962C31.8661 13.0186 32.73 15.8665 32.73 18.7798C32.7247 22.6848 31.1711 26.4284 28.4098 29.1896C25.6486 31.9509 21.905 33.5045 18 33.5098ZM18 8.41979C17.5688 8.41979 17.1473 8.54764 16.7888 8.78718C16.4303 9.02672 16.1509 9.36719 15.9859 9.76554C15.8209 10.1639 15.7778 10.6022 15.8619 11.0251C15.946 11.448 16.1536 11.8364 16.4585 12.1413C16.7634 12.4462 17.1518 12.6538 17.5747 12.7379C17.9976 12.822 18.4359 12.7788 18.8342 12.6138C19.2326 12.4488 19.5731 12.1694 19.8126 11.8109C20.0521 11.4524 20.18 11.0309 20.18 10.5998C20.1774 10.0224 19.9468 9.46946 19.5386 9.0612C19.1303 8.65294 18.5774 8.42242 18 8.41979ZM18 16.0498C17.565 16.0498 17.1479 16.2226 16.8403 16.5301C16.5328 16.8377 16.36 17.2548 16.36 17.6898V27.5098C16.36 27.9447 16.5328 28.3619 16.8403 28.6694C17.1479 28.977 17.565 29.1498 18 29.1498C18.4349 29.1498 18.8521 28.977 19.1596 28.6694C19.4672 28.3619 19.64 27.9447 19.64 27.5098V17.6898C19.64 17.4744 19.5976 17.2612 19.5152 17.0622C19.4327 16.8632 19.3119 16.6824 19.1596 16.5301C19.0074 16.3778 18.8266 16.257 18.6276 16.1746C18.4286 16.0922 18.2154 16.0498 18 16.0498Z" fill="#89899A"/>
</g>
<defs>
<clipPath id="clip0_1012_144">
<rect width="36" height="36" fill="white" transform="translate(0 0.779785)"/>
</clipPath>
</defs>
</svg>
