<svg width="225" height="145" viewBox="0 0 225 145" fill="none" xmlns="http://www.w3.org/2000/svg">
<path d="M224.057 145H0.943298C1.08234 118.648 19.9471 95.3773 48.7262 81.3511C50.5691 80.4478 52.4544 79.5865 54.3821 78.7673C57.6892 77.3592 61.1119 76.0645 64.6499 74.8834C66.2446 74.3531 67.8604 73.8491 69.4975 73.3712C70.8534 72.9727 72.2194 72.5957 73.5957 72.2401C76.1094 71.5876 78.6616 70.997 81.2523 70.4683C81.4362 70.4278 81.6223 70.3921 81.8085 70.354C82.2539 70.2683 82.6993 70.1778 83.1471 70.0945C84.2767 69.8801 85.4118 69.6785 86.5524 69.4896C87.8093 69.28 89.0708 69.0871 90.3371 68.9109C95.8423 68.1348 101.384 67.6523 106.94 67.4654C108.778 67.4003 110.628 67.3678 112.489 67.3678C113.668 67.3678 114.841 67.3805 116.008 67.4059C121.068 67.5154 126.036 67.856 130.911 68.4275C131.48 68.491 132.045 68.5593 132.608 68.6323C133.19 68.7061 133.767 68.7823 134.345 68.8704C136.825 69.2165 139.276 69.6174 141.695 70.073C147.304 71.129 152.847 72.5158 158.295 74.2261C162.789 75.6363 167.205 77.2865 171.525 79.1698C173.448 80.008 175.334 80.8868 177.181 81.806C205.451 95.8726 223.918 118.927 224.057 145Z" fill="url(#paint0_linear_615_736)"/>
<path d="M177.186 19.474V101.831H48.7262V19.474C48.7293 18.6484 49.0554 17.8576 49.6333 17.2741C50.2112 16.6906 50.9941 16.3617 51.811 16.3592H174.103C174.92 16.3617 175.703 16.6907 176.28 17.2742C176.858 17.8578 177.183 18.6487 177.186 19.474Z" fill="#606060"/>
<path d="M171.532 21.7244H54.3774V97.792H171.532V21.7244Z" fill="#4C4C4C"/>
<path d="M81.2453 59.2307H64.6429V97.792H81.2453V59.2307Z" fill="#8BBEE8"/>
<path d="M106.933 45.9594H90.3301V97.7896H106.933V45.9594Z" fill="#8BBEE8"/>
<path d="M132.62 56.7255H116.017V97.7896H132.62V56.7255Z" fill="#8BBEE8"/>
<path d="M158.307 31.4379H141.704V97.792H158.307V31.4379Z" fill="#8BBEE8"/>
<path d="M182.422 109.518H43.4898L36.6343 106.663H189.278L182.422 109.518Z" fill="#7C828B"/>
<path d="M113.5 19.574C113.501 19.6838 113.47 19.7913 113.41 19.883C113.35 19.9746 113.265 20.0461 113.165 20.0885C113.064 20.1308 112.954 20.142 112.847 20.1206C112.741 20.0993 112.643 20.0463 112.566 19.9685C112.49 19.8907 112.438 19.7916 112.417 19.6839C112.396 19.5761 112.408 19.4646 112.45 19.3635C112.492 19.2624 112.564 19.1763 112.655 19.1162C112.746 19.0562 112.852 19.0249 112.961 19.0263C113.104 19.0269 113.241 19.0849 113.342 19.1876C113.444 19.2902 113.5 19.4291 113.5 19.574Z" fill="#808184"/>
<path d="M125.326 101.817H100.588V104.672H125.326V101.817Z" fill="#A6A8AB"/>
<path d="M123.313 101.816V102.85C123.313 103.564 122.8 104.148 122.173 104.148H103.661C103.035 104.148 102.521 103.564 102.521 102.85V101.812H36.6343V106.66H189.278V101.816H123.313Z" fill="#C5CED6"/>
<path d="M95.0503 19.2906C95.0502 20.1042 94.9998 20.9171 94.8995 21.7244C94.3146 26.3771 92.0706 30.6546 88.5879 33.7551C85.1053 36.8556 80.6232 38.5661 75.9817 38.5661C71.3403 38.5661 66.8581 36.8556 63.3755 33.7551C59.8928 30.6546 57.6488 26.3771 57.0639 21.7244C56.8421 19.9413 56.8651 18.1358 57.1323 16.3592C57.8214 11.8056 60.1017 7.65211 63.5602 4.65111C67.0187 1.65012 71.4266 0.000152588 75.9852 0.000152588C80.5439 0.000152588 84.9517 1.65012 88.4102 4.65111C91.8688 7.65211 94.1491 11.8056 94.8382 16.3592C94.9819 17.3295 95.0528 18.3095 95.0503 19.2906Z" fill="#33AED3"/>
<path style="mix-blend-mode:multiply" d="M224.057 145H0.943298C1.08234 118.648 19.9471 95.3772 48.7262 81.351V19.4738C48.7293 18.6483 49.0554 17.8575 49.6333 17.274C50.2112 16.6904 50.9941 16.3615 51.811 16.359H57.1346C57.8238 11.8055 60.1041 7.65196 63.5626 4.65096C67.0211 1.64996 71.429 0 75.9876 0C80.5463 0 84.9541 1.64996 88.4127 4.65096C91.8712 7.65196 94.1515 11.8055 94.8406 16.359H174.103C174.92 16.3615 175.703 16.6905 176.28 17.2741C176.858 17.8577 177.183 18.6485 177.186 19.4738V81.7987C205.451 95.8725 223.918 118.926 224.057 145Z" fill="url(#paint1_linear_615_736)"/>
<g style="mix-blend-mode:overlay">
<path d="M82.7229 23.4675C82.7229 17.4022 74.4323 17.6641 74.4323 14.6374C74.4323 13.2086 75.2524 12.5966 76.763 12.5966C78.0732 12.5966 79.0418 13.1491 80.1824 14.1993L82.4943 11.525C81.2806 10.2248 79.8219 9.23653 77.8352 8.93171V5.72165H74.7716V8.9984C71.814 9.59374 70.0136 11.7489 70.0136 14.8589C70.0136 20.5861 78.3042 20.5265 78.3042 23.7914C78.3042 25.2369 77.5218 25.9822 75.7402 25.9822C74.2555 25.9822 72.858 25.3535 71.2626 24.1176L69.2477 27.2729C70.7489 28.647 72.9334 29.4638 74.7716 29.6852V32.8596H77.8352V29.5376C81.0591 28.847 82.7229 26.5109 82.7229 23.4675Z" fill="white"/>
</g>
<defs>
<linearGradient id="paint0_linear_615_736" x1="112.499" y1="50.8055" x2="112.499" y2="188.026" gradientUnits="userSpaceOnUse">
<stop offset="0.07" stop-color="#FFFEFD"/>
<stop offset="0.22" stop-color="#C1C0C0" stop-opacity="0.76"/>
<stop offset="0.58" stop-color="#282828" stop-opacity="0.16"/>
<stop offset="0.68" stop-opacity="0"/>
</linearGradient>
<linearGradient id="paint1_linear_615_736" x1="112.499" y1="-30.9109" x2="112.499" y2="225.352" gradientUnits="userSpaceOnUse">
<stop offset="0.12" stop-color="#4053C1"/>
<stop offset="0.15" stop-color="#5747C9" stop-opacity="0.87"/>
<stop offset="0.21" stop-color="#7D33D6" stop-opacity="0.65"/>
<stop offset="0.26" stop-color="#773AD7" stop-opacity="0.67"/>
<stop offset="0.34" stop-color="#684FDB" stop-opacity="0.73"/>
<stop offset="0.43" stop-color="#4F70E1" stop-opacity="0.83"/>
<stop offset="0.5" stop-color="#398DE6" stop-opacity="0.92"/>
<stop offset="0.52" stop-color="#388DE6" stop-opacity="0.9"/>
<stop offset="0.54" stop-color="#348DE7" stop-opacity="0.83"/>
<stop offset="0.57" stop-color="#2D8DE8" stop-opacity="0.72"/>
<stop offset="0.6" stop-color="#238DE9" stop-opacity="0.57"/>
<stop offset="0.63" stop-color="#178EEB" stop-opacity="0.38"/>
<stop offset="0.66" stop-color="#098EEE" stop-opacity="0.14"/>
<stop offset="0.68" stop-color="#008EEF" stop-opacity="0"/>
</linearGradient>
</defs>
</svg>
