<svg width="171" height="145" viewBox="0 0 171 145" fill="none" xmlns="http://www.w3.org/2000/svg">
<path d="M170.395 145H24.9827C25.0979 124.047 43.5026 106.094 69.6576 98.4812C70.54 98.2236 71.4302 97.9789 72.328 97.7471C74.0813 97.2925 75.8654 96.8843 77.6802 96.5224C77.9699 96.4664 78.2557 96.4085 78.553 96.3544C79.2884 96.2153 80.0283 96.0865 80.7726 95.9681C90.3352 94.4023 100.066 94.1703 109.692 95.2784C110.443 95.3634 111.189 95.4581 111.931 95.5624C145.184 100.15 170.264 120.527 170.395 145Z" fill="url(#paint0_linear_615_702)"/>
<path d="M119.94 100.803L128.016 115.252H62.5174L70.5957 100.803H119.94Z" fill="#D6D6D6"/>
<path d="M119.696 108.346H70.8374L72.0671 105.744H118.465L119.696 108.346Z" fill="#2168A3"/>
<path d="M98.575 39.275C98.3218 39.1862 97.4086 39.982 96.3075 41.0715C95.732 41.6336 95.1219 42.2749 94.5177 42.9124C93.052 44.4577 91.6746 46.0031 91.3178 46.3527C91.3063 46.3662 91.2948 46.3759 91.2852 46.3856C91.1663 46.4995 91.0473 46.6154 90.9303 46.7333C90.4987 47.1544 90.0747 47.5832 89.6527 48.014C88.9256 48.7577 88.2101 49.5091 87.4811 50.247L87.4677 50.2605C87.0341 50.699 86.5987 51.1336 86.1555 51.5567C84.6093 53.0383 82.9672 54.4136 81.0546 55.505C77.4864 57.543 73.0723 58.4702 69.2202 57.1953H69.1972L69.1627 57.1837C68.8771 57.0877 68.6155 56.9307 68.3959 56.7234C68.1762 56.5161 68.0037 56.2634 67.8902 55.9826C67.7767 55.7019 67.7248 55.3997 67.7382 55.0969C67.7515 54.7941 67.8297 54.4977 67.9675 54.2282C67.9829 54.1973 67.9982 54.1702 68.0155 54.1413C68.4759 53.3416 69.2336 52.7678 69.9703 52.2193C72.9207 50.0191 75.8386 47.8131 78.718 45.5646L79.6081 44.8711C80.4497 44.2105 81.2886 43.546 82.125 42.8776C84.0523 41.3323 85.9637 39.7625 87.859 38.1682C88.6008 37.541 89.3413 36.9074 90.0805 36.2674L90.1783 36.3022L95.2006 38.0851L98.575 39.275Z" fill="#FCDBCA"/>
<g style="mix-blend-mode:multiply" opacity="0.49">
<path d="M89.6527 48.0217C88.9256 48.7654 88.2101 49.5168 87.4811 50.2547L87.4677 50.2683C87.0341 50.7067 86.5986 51.1414 86.1555 51.5644C84.6093 53.046 82.9672 54.4214 81.0546 55.5128C77.4864 57.5507 73.0723 58.4779 69.2202 57.203H69.1972L69.1626 57.1914C69.0079 57.1396 68.8598 57.0696 68.7214 56.9828C68.9133 56.4863 69.3928 55.7813 70.5208 54.9294C72.1553 53.6951 77.3713 52.7331 79.9208 51.8387C81.1064 51.4234 82.9518 50.3088 82.2766 49.2445C81.9818 48.7861 81.6425 48.3584 81.2637 47.9676C81.1217 47.8247 79.5372 46.3315 78.718 45.5646L79.6081 44.8711C80.4497 44.2105 81.2886 43.546 82.125 42.8776L83.7441 43.2118L88.7453 45.4564C88.7453 45.4564 89.2249 46.797 89.6527 48.0217Z" fill="#8E8E8E"/>
</g>
<path d="M90.3107 52.3545L89.5779 56.1077L89.129 58.3987L86.4068 61.6208C84.6902 62.3181 82.907 62.8359 81.0853 63.1661C81.0047 63.1796 80.9222 63.197 80.8397 63.2086H80.8186L80.6575 63.2357C79.5062 63.4271 78.3438 63.5426 77.1776 63.5814C76.6814 63.5995 76.1845 63.5995 75.687 63.5814C74.8723 63.5621 74.0602 63.5048 73.2507 63.4095C72.6617 63.34 72.0728 63.2492 71.4896 63.1371C70.1602 62.8841 68.6773 62.3645 67.9982 61.2615V61.248C67.8807 61.0561 67.7903 60.8487 67.7296 60.6317C67.3613 59.3259 68.1363 58.1206 69.2087 57.1837L69.2317 57.1644C69.6685 56.7897 70.1408 56.4591 70.6417 56.1773C74.0353 54.2456 77.9181 54.0737 81.2675 52.424C82.4827 51.8055 83.6659 51.1253 84.8127 50.3861C85.3114 50.0751 85.8044 49.7641 86.2994 49.4608H86.3128L87.4868 50.2625L89.5126 51.6378V51.7286L90.1188 52.2038L90.3107 52.3545Z" fill="#FCDBCA"/>
<g style="mix-blend-mode:multiply" opacity="0.49">
<path d="M90.3107 52.3545L89.5779 56.1077L89.129 58.3987L86.4068 61.6208C84.6902 62.3181 82.907 62.8359 81.0853 63.1661C81.0047 63.1796 80.9222 63.197 80.8397 63.2086H80.8186L80.6575 63.2357C79.5062 63.4271 78.3438 63.5426 77.1776 63.5814C78.3019 62.5809 79.3474 61.494 80.3045 60.3304C81.8392 58.3987 84.5249 55.6944 85.4841 54.7285C85.7047 54.5064 86.2092 54.0041 86.685 53.5251C86.7813 53.4278 86.8575 53.3123 86.909 53.1851C86.9606 53.0579 86.9865 52.9217 86.9852 52.7843C86.984 52.647 86.9556 52.5113 86.9018 52.3851C86.8479 52.2589 86.7697 52.1447 86.6716 52.0493C86.5047 51.887 86.332 51.7247 86.1555 51.5644C85.7143 51.1588 85.252 50.7589 84.8127 50.3861C85.3114 50.0751 85.8045 49.7641 86.2994 49.4608H86.3128L87.4869 50.2625L89.5127 51.6378V51.7286L90.1189 52.2038L90.3107 52.3545Z" fill="#8E8E8E"/>
</g>
<path d="M110.991 48.7576C110.799 49.4202 110.344 49.9553 109.853 50.4459L109.565 50.726C109.111 51.1645 108.65 51.5992 108.19 52.0319C106.655 53.4787 105.095 54.9139 103.586 56.3955C103.084 56.8888 102.59 57.3878 102.103 57.8926C100.919 59.125 99.7759 60.3613 98.6287 61.5628C97.6925 62.5499 96.7545 63.5157 95.7876 64.4449C95.3368 64.8776 94.8821 65.3006 94.4179 65.714C92.6567 67.3228 90.7217 68.7276 88.6494 69.9019C88.2312 70.1362 87.8021 70.3577 87.3621 70.5664H87.3468C87.0245 70.7248 86.6965 70.8735 86.3608 71.0184C86.1785 71.0976 85.9963 71.1729 85.8102 71.2483L85.7776 71.2618C84.3446 71.8413 82.8214 72.2585 81.3135 72.0113C80.9534 71.9504 80.6022 71.8447 80.268 71.6964L80.1529 71.6443C79.3536 71.2561 78.7384 70.5664 78.4407 69.7246C78.143 68.8828 78.1868 67.9568 78.5626 67.1473C79.1745 65.8357 79.8959 64.5789 80.7188 63.3902L80.8282 63.2318L80.8493 63.2008C82.9825 60.1314 85.6452 57.4309 88.1007 54.5875L88.5841 54.0215L89.3515 53.1194C89.3994 53.0614 89.4493 53.0016 89.505 52.9378L89.6968 52.7079L89.8886 52.4819C89.9654 52.3892 90.0459 52.2888 90.1303 52.196L90.1399 52.1845L90.8958 51.2939C91.2161 50.9173 91.3658 50.0036 91.3907 48.7132C91.4041 48.0255 91.3811 47.2316 91.3293 46.3527C91.1682 43.5865 90.7193 39.9897 90.1898 36.2944C88.9179 27.4203 87.1799 17.982 87.836 18.1366C87.8705 18.1366 87.9127 18.1791 87.9626 18.2428C87.9634 18.246 87.9634 18.2493 87.9626 18.2525L92.1235 23.696C92.3077 23.9381 92.4963 24.1763 92.6894 24.4107C95.1622 27.4396 98.3217 30.1362 101.009 32.9275C104.952 36.9744 108.723 40.7218 110.676 46.1885C110.971 47.0211 111.225 47.9174 110.991 48.7576Z" fill="#FCDBCA"/>
<g style="mix-blend-mode:multiply" opacity="0.52">
<path d="M109.853 50.4459L109.565 50.726C109.111 51.1645 108.65 51.5992 108.19 52.0319C106.655 53.4787 105.096 54.9139 103.586 56.3955L98.8167 47.844L96.3229 41.0831L95.216 38.089L93.4453 33.3447L87.8245 18.1385C87.859 18.1385 87.9012 18.181 87.9511 18.2448C87.9519 18.2479 87.9519 18.2513 87.9511 18.2544L92.112 23.6979C92.2962 23.94 92.4848 24.1783 92.678 24.4126C92.8967 24.7178 99.9159 34.5134 103.503 39.2673C107.148 44.0965 109.592 47.9753 109.809 50.0847C109.834 50.2103 109.843 50.3262 109.853 50.4459Z" fill="#8E8E8E"/>
</g>
<g style="mix-blend-mode:multiply" opacity="0.48">
<path d="M98.8167 57.4522L98.644 61.5686C97.7079 62.5557 96.7698 63.5215 95.8029 64.4507C95.3521 64.8834 94.8975 65.3064 94.4332 65.7198L93.0616 61.8757C92.301 59.7364 91.1141 57.7762 89.574 56.1155C89.411 55.9377 89.2441 55.7639 89.0733 55.592L88.0873 54.603L88.5707 54.037L89.3381 53.1349L89.4915 52.9533L89.6834 52.7234L89.8752 52.4974C89.9519 52.4047 90.0325 52.3042 90.1169 52.2115L90.1265 52.1999L90.8823 51.3094C91.2027 50.9327 91.3523 50.0191 91.3773 48.7287L97.8191 51.3056L98.8167 57.4522Z" fill="#8E8E8E"/>
</g>
<path d="M113.114 84.9903C112.924 85.182 112.711 85.3494 112.479 85.4886L112.245 85.6355C111.68 85.976 111.045 86.1843 110.389 86.2448C109.732 86.3053 109.071 86.2165 108.453 85.9851C107.977 85.8089 107.525 85.5713 107.11 85.2781C107.025 85.2201 106.943 85.1583 106.862 85.0946C106.543 84.8427 106.25 84.5586 105.988 84.2466C105.86 84.092 105.739 83.9317 105.625 83.7656L103.774 81.0342C101.468 77.6339 99.5227 73.9999 97.9689 70.1916L96.9809 67.7712C96.5359 66.6818 96.1394 65.5749 95.7915 64.4507C95.4366 63.3052 95.1316 62.1326 94.8803 60.9736L94.6328 59.8146C94.0144 56.9288 92.5 54.316 90.3089 52.3545C90.2494 52.2984 90.188 52.2443 90.1266 52.1922L90.0633 52.1381C89.883 51.9836 89.7007 51.8348 89.5108 51.6919C89.2141 51.4601 88.9059 51.2418 88.5862 51.037L87.4658 50.2644L86.3148 49.4724L86.2937 49.4569L79.6082 44.8769L70.9602 38.9389C70.359 38.5246 69.6393 38.3203 68.9117 38.3573C68.184 38.3942 67.4885 38.6705 66.9317 39.1437C66.0923 39.8559 65.482 40.8032 65.1783 41.8654L64.5318 44.1293C63.8973 46.3525 63.7966 48.6956 64.2383 50.9656L65.4411 57.147C65.6932 58.4446 66.1712 59.6871 66.853 60.8172L72.1074 69.5349C72.2666 69.7976 72.4374 70.0564 72.6158 70.3075L73.4388 71.4492C75.1947 73.8886 76.5192 76.615 77.3541 79.5081L78.3498 82.9311L79.19 91.417C79.2425 91.9351 79.2022 92.4585 79.0711 92.9623L78.6586 94.5482C78.5172 95.0971 78.2878 95.6191 77.9795 96.0936L77.6841 96.5437L77.5863 96.6943C76.8819 97.7695 75.9683 98.6895 74.9006 99.3987C74.6226 99.5827 74.327 99.738 74.0181 99.8623C73.8827 99.9193 73.7444 99.969 73.6037 100.011C73.2812 100.109 72.9495 100.174 72.6139 100.204C72.4719 100.218 72.3299 100.225 72.1861 100.225H72.1707C71.6513 100.225 71.1432 100.073 70.707 99.7893C70.2708 99.5053 69.9252 99.1007 69.7114 98.6241L69.6596 98.5063L66.5211 91.4827L64.7812 87.5671C64.5794 87.115 64.3481 86.6768 64.0887 86.2555L61.5545 82.1217C60.2813 80.0424 58.634 78.2206 56.6972 76.7497L51.2548 72.6159L40.4084 63.8074C39.8427 63.3477 39.2515 62.9208 38.6377 62.5286L34.6993 60.0174C28.5389 56.0847 22.9554 51.3031 18.1113 45.8118L10.8215 37.5442L0 30.5457L19.9586 0.0618153L19.9989 0L20.0929 0.0618153L24.1215 2.73527L28.5241 4.5781C28.7812 4.63798 35.9367 7.44858 41.4386 9.61593C45.5687 11.2425 50.0345 11.8139 54.4374 11.2791L74.772 8.80655L75.2209 8.7544C76.9033 8.54964 79.3895 8.4801 83.1572 12.2314C84.5691 13.6377 86.1633 15.579 87.9531 18.2525C87.9539 18.2557 87.9539 18.259 87.9531 18.2621C89.7908 21.0371 91.4863 23.9049 93.0329 26.8543C94.1934 29.1 95.5561 31.2338 97.1037 33.2288L104.119 42.0528C105.645 43.965 106.742 46.187 107.334 48.5664L108.19 52.0241L113.078 71.793C113.17 72.157 113.235 72.5277 113.27 72.9018L113.563 76.3634L114.085 82.3168C114.128 82.8069 114.064 83.3005 113.896 83.7626C113.728 84.2247 113.461 84.6439 113.114 84.9903Z" fill="url(#paint1_linear_615_702)"/>
<g style="mix-blend-mode:overlay">
<path d="M72.6157 100.179C72.4738 100.193 72.3318 100.2 72.1879 100.2H72.1726C71.6532 100.2 71.145 100.048 70.7088 99.7641C70.2727 99.4801 69.927 99.0756 69.7132 98.599L69.6614 98.4812L66.523 91.4576L68.5699 90.6327C68.6449 90.5997 68.7257 90.5819 68.8076 90.5804C68.8895 90.5788 68.9709 90.5935 69.0472 90.6237C69.1234 90.6538 69.193 90.6988 69.252 90.756C69.311 90.8132 69.3582 90.8816 69.3909 90.9572L72.3318 97.7471L72.7596 98.7342C72.861 98.9672 72.901 99.2226 72.8758 99.4756C72.8506 99.7287 72.761 99.971 72.6157 100.179Z" fill="white"/>
</g>
<g style="mix-blend-mode:overlay">
<path d="M113.114 84.9903C112.886 84.9285 112.681 84.7996 112.525 84.62C112.37 84.4404 112.271 84.2183 112.241 83.9819L111.399 77.1979C111.383 77.065 111.42 76.931 111.501 76.8252C111.583 76.7195 111.703 76.6507 111.835 76.6338L113.561 76.3634L114.083 82.3168C114.127 82.8067 114.062 83.3003 113.895 83.7624C113.727 84.2244 113.461 84.6437 113.114 84.9903Z" fill="white"/>
</g>
<g style="mix-blend-mode:overlay">
<path d="M88.6628 69.954C88.6628 69.954 88.1257 70.2148 87.3526 70.5664H87.3372C86.8845 70.7731 86.3531 71.0107 85.8025 71.2483L85.7699 71.2618C84.3369 71.8413 82.8137 72.2585 81.3059 72.0113C80.9458 71.9504 80.5946 71.8447 80.2604 71.6964C80.265 71.4646 80.3368 71.2393 80.467 71.0481C80.5972 70.8569 80.7801 70.7082 80.9932 70.6205L87.2701 68.0127C87.3309 67.9874 87.3961 67.9744 87.4619 67.9745C87.5277 67.9746 87.5929 67.9878 87.6536 68.0133C87.7144 68.0387 87.7696 68.076 87.816 68.123C87.8624 68.17 87.8992 68.2257 87.9242 68.287L88.6417 69.8941L88.6628 69.954Z" fill="white"/>
</g>
<g style="mix-blend-mode:overlay">
<path d="M75.7733 61.9182L75.687 63.593V63.6143C75.687 63.6143 74.5686 63.5602 73.2526 63.4481C72.6636 63.3786 72.0747 63.2878 71.4915 63.1758C70.1487 62.9208 68.6677 62.4031 67.9924 61.2866V61.2731C68.0958 61.0892 68.2506 60.9401 68.4375 60.8443C68.6244 60.7484 68.8353 60.7101 69.0437 60.7341L75.3436 61.3986C75.4683 61.4118 75.583 61.4735 75.6632 61.5705C75.7435 61.6676 75.783 61.7923 75.7733 61.9182Z" fill="white"/>
</g>
<path d="M112.005 96.6731C111.994 96.2971 111.97 95.9243 111.934 95.5547C111.563 91.6685 109.858 88.0343 107.112 85.2781C106.752 84.9149 106.378 84.5711 105.989 84.2466C103.6 82.2407 100.703 80.945 97.6232 80.5049C94.5433 80.0649 91.4026 80.4979 88.5535 81.7554C85.7044 83.0129 83.2598 85.045 81.494 87.6238C79.7282 90.2026 78.7111 93.2259 78.5569 96.3544C78.5339 96.8045 78.53 97.2565 78.5435 97.7066C78.5632 98.4182 78.6273 99.1279 78.7353 99.8314C78.7852 100.156 78.8466 100.479 78.9156 100.797C79.2932 102.53 79.9406 104.191 80.834 105.719V105.729C80.9312 105.896 81.0328 106.062 81.139 106.227C81.318 106.512 81.5054 106.79 81.7011 107.062C82.0183 107.502 82.3552 107.925 82.7121 108.331L82.7485 108.373H107.789C107.8 108.36 107.814 108.346 107.825 108.331C108.18 107.925 108.518 107.502 108.832 107.062C109.024 106.789 109.216 106.511 109.396 106.227C109.503 106.064 109.604 105.898 109.702 105.729V105.719C110.596 104.191 111.243 102.53 111.62 100.797C111.689 100.479 111.75 100.156 111.8 99.8314C111.967 98.7875 112.036 97.73 112.005 96.6731Z" fill="#EFEFEF"/>
<path d="M106.715 106.243C106.103 107.026 105.414 107.745 104.658 108.389H85.8908C83.725 106.548 82.139 104.111 81.327 101.377C81.2829 101.23 81.2426 101.079 81.2042 100.929C81.1658 100.778 81.1275 100.627 81.0929 100.475C81.022 100.171 80.9644 99.8643 80.9145 99.5513C80.8915 99.4064 80.8685 99.2596 80.8493 99.1128C80.8301 98.966 80.8148 98.825 80.7994 98.6821C80.7994 98.6202 80.7879 98.5584 80.7822 98.4889C80.7707 98.3672 80.763 98.2474 80.7572 98.1257C80.7438 97.9673 80.738 97.8051 80.7323 97.6428C80.6727 95.7196 80.9899 93.8034 81.6659 92.0037C82.342 90.204 83.3635 88.5561 84.6721 87.154C85.9808 85.7519 87.551 84.6232 89.293 83.8324C91.035 83.0415 92.9146 82.604 94.8246 82.5448C94.9013 82.5448 94.9761 82.5448 95.0529 82.5448C95.3752 82.5448 95.6936 82.5448 96.0121 82.5602H96.0792C98.7363 82.7083 101.302 83.5874 103.497 85.1018C105.693 86.6162 107.434 88.708 108.531 91.1494C109.627 93.5908 110.038 96.2883 109.718 98.9485C109.399 101.609 108.36 104.13 106.717 106.237L106.715 106.243Z" fill="#D8D8D8"/>
<g style="mix-blend-mode:multiply" opacity="0.52">
<path d="M108.832 107.077C108.518 107.518 108.18 107.941 107.825 108.346C107.814 108.362 107.8 108.375 107.789 108.389H82.76L82.7235 108.346C82.3667 107.941 82.0297 107.518 81.7126 107.077H108.832Z" fill="#8E8E8E"/>
</g>
<path d="M128.016 115.252H62.5174V119.884H128.016V115.252Z" fill="#7A7A7A"/>
<path d="M134.141 82.7708L129.511 90.0783L128.302 91.983C128.206 92.1864 128.082 92.375 127.934 92.5432L127.907 92.5721C127.841 92.6408 127.771 92.7053 127.698 92.7653L127.613 92.8329C127.318 93.0758 126.97 93.2431 126.597 93.3206C126.224 93.3981 125.837 93.3834 125.471 93.2779C125.105 93.1723 124.77 92.979 124.494 92.7145C124.218 92.4499 124.01 92.1221 123.888 91.7589L118.177 82.68C117.888 82.2206 117.764 81.6749 117.828 81.1346C117.828 81.1037 117.828 81.0709 117.841 81.04L117.858 80.9376C117.858 80.899 117.876 80.8603 117.885 80.8217C117.895 80.7831 117.906 80.7406 117.918 80.7L117.935 80.6498C117.946 80.6137 117.959 80.5782 117.973 80.5436C117.989 80.503 118.006 80.4644 118.023 80.4257C118.058 80.3485 118.096 80.2731 118.138 80.1978L118.19 80.1128C118.213 80.0761 118.238 80.0413 118.263 80.0065C118.344 79.8917 118.437 79.7855 118.539 79.6897C118.574 79.6569 118.608 79.6241 118.645 79.5932C118.681 79.5622 118.72 79.5333 118.758 79.5043L118.775 79.4908L118.806 79.4695C118.839 79.4444 118.871 79.4232 118.904 79.4019L118.935 79.3826H118.948C119.235 79.2085 119.555 79.0978 119.888 79.0581C120.332 79.0047 120.781 79.0786 121.185 79.2714C121.588 79.4642 121.929 79.7679 122.169 80.1476L123.775 82.6993V59.5191C123.775 59.465 123.775 59.4109 123.775 59.3568C123.78 59.2804 123.789 59.2044 123.801 59.1289C123.801 59.0864 123.817 59.0439 123.826 59.0014C123.836 58.9589 123.846 58.9203 123.857 58.8797C123.869 58.8391 123.882 58.7928 123.895 58.7522C123.975 58.5168 124.092 58.2958 124.241 58.0974C124.308 57.9987 124.383 57.9057 124.465 57.8192C124.5 57.7844 124.536 57.7497 124.575 57.7168C124.612 57.6824 124.652 57.6502 124.694 57.6202C124.802 57.5321 124.92 57.4557 125.045 57.3923C125.144 57.3397 125.247 57.2951 125.353 57.259C125.51 57.2027 125.672 57.1639 125.837 57.1431C125.934 57.1314 126.032 57.1256 126.13 57.1257C126.758 57.1273 127.359 57.3789 127.803 57.8256C128.246 58.2723 128.496 58.8777 128.498 59.5094V82.7998L129.48 81.2544L130.144 80.2094C130.176 80.1579 130.21 80.1076 130.247 80.0587C130.308 79.984 130.372 79.9125 130.439 79.8443C130.523 79.7539 130.614 79.6718 130.713 79.599C130.754 79.5661 130.794 79.5391 130.834 79.512L130.859 79.4946C130.909 79.4612 130.961 79.4303 131.015 79.4019C131.07 79.371 131.128 79.344 131.185 79.3189C131.241 79.2937 131.297 79.2706 131.354 79.2513C131.818 79.0862 132.322 79.0714 132.796 79.2088C133.269 79.3462 133.688 79.6291 133.993 80.0178C134.299 80.4066 134.477 80.8818 134.501 81.3771C134.526 81.8724 134.396 82.363 134.13 82.7804L134.141 82.7708Z" fill="#1180EF"/>
<path d="M120.009 78.6814L119.886 79.0677L119.727 79.57L119.132 79.5333L118.764 79.5101L118.785 79.4966L118.816 79.4753L118.944 79.3884H118.958L119.696 78.8977L119.711 78.8862L119.995 78.693L120.015 78.6814H120.009Z" fill="#1180EF"/>
<path d="M129.296 91.2972C129.177 91.5644 129.009 91.8064 128.801 92.01C128.735 92.08 128.664 92.1446 128.588 92.2032L128.544 92.238C128.534 92.2461 128.524 92.2532 128.513 92.2592L128.423 92.321C128.27 92.4188 128.105 92.498 127.934 92.5567C127.43 92.7333 126.882 92.734 126.378 92.5588C125.874 92.3836 125.444 92.0426 125.156 91.5908L124.864 91.1272L119.157 82.0483C118.921 81.6736 118.794 81.2402 118.789 80.7966C118.784 80.353 118.902 79.9168 119.13 79.5371C119.206 79.4083 119.294 79.2873 119.393 79.1759C119.483 79.0722 119.582 78.9777 119.69 78.8939L119.706 78.8823C119.775 78.8282 119.832 78.7876 119.898 78.7509C119.963 78.7142 119.965 78.7123 119.997 78.693C120.004 78.6913 120.01 78.6913 120.017 78.693L120.151 78.6254C120.284 78.5604 120.423 78.5099 120.567 78.4747H120.581C120.625 78.4747 120.671 78.4535 120.717 78.4457C120.763 78.438 120.811 78.4303 120.857 78.4225H120.874L121.006 78.4109H121.15H121.225C121.294 78.4109 121.363 78.411 121.43 78.4264H121.453C121.519 78.4264 121.584 78.4457 121.645 78.4592H121.664C121.733 78.4747 121.803 78.494 121.872 78.5153C122.012 78.5601 122.148 78.6176 122.278 78.6872C122.364 78.7339 122.448 78.7855 122.528 78.8417C122.777 79.0204 122.989 79.2461 123.153 79.5062L123.775 80.4952L124.757 82.056L127.143 85.8286L129.148 89.0159C129.235 89.1548 129.308 89.3024 129.365 89.4563C129.441 89.656 129.49 89.8653 129.511 90.0783C129.547 90.4966 129.473 90.9171 129.296 91.2972Z" fill="#10BFF1"/>
<path d="M125.845 56.8534V57.6685L125.05 57.7091L124.578 57.7323H124.59L125.041 57.4213L125.695 56.9693L125.758 56.9248L125.812 56.8881L125.827 56.8765L125.845 56.8534Z" fill="#1180EF"/>
<path d="M135.124 82.1101L129.296 91.2972L129.286 91.3127L129.094 91.6102C128.969 91.808 128.815 91.9858 128.638 92.1375L128.594 92.1742L128.549 92.209C128.511 92.2401 128.472 92.2691 128.43 92.2959C128.375 92.3326 128.317 92.3693 128.26 92.4022L128.171 92.4485C128.11 92.4814 128.046 92.5091 127.98 92.5316C127.951 92.5452 127.922 92.5568 127.891 92.5663H127.882C127.542 92.6884 127.18 92.7308 126.822 92.6903C126.464 92.6498 126.12 92.5274 125.816 92.3326C125.365 92.0365 125.027 91.5947 124.858 91.0798C124.689 90.5649 124.698 90.0074 124.885 89.4988C124.941 89.3487 125.013 89.205 125.098 89.07L127.143 85.8286L129.487 82.1352L131.135 79.5371C131.203 79.4296 131.28 79.3282 131.366 79.2339L131.377 79.2223C131.398 79.1971 131.423 79.172 131.446 79.1469L131.467 79.1276C131.492 79.101 131.518 79.0759 131.546 79.0523C131.638 78.9651 131.739 78.8874 131.847 78.8205C131.951 78.7511 132.061 78.6916 132.175 78.6428C132.622 78.4438 133.119 78.3891 133.599 78.4863C133.885 78.5425 134.158 78.6526 134.404 78.8108C134.934 79.1524 135.307 79.6919 135.442 80.3105C135.577 80.9292 135.462 81.5765 135.124 82.1101Z" fill="#10BFF1"/>
<path d="M129.488 58.8507V88.7088C129.486 89.2717 129.286 89.8159 128.924 90.2448C128.562 90.6738 128.061 90.9598 127.509 91.0524C126.958 91.1449 126.392 91.038 125.911 90.7505C125.431 90.4629 125.066 90.0134 124.883 89.4815C124.796 89.2333 124.752 88.972 124.751 88.7088V58.8507C124.75 58.4482 124.853 58.0523 125.048 57.7014C125.134 57.5427 125.239 57.3948 125.359 57.261C125.463 57.1434 125.579 57.0366 125.704 56.9422L125.768 56.8978L125.822 56.8611L125.837 56.8495C125.976 56.7585 126.124 56.6833 126.28 56.6254C126.332 56.6061 126.384 56.5868 126.437 56.5713C126.491 56.5559 126.547 56.5404 126.6 56.5288L126.754 56.4979H126.775C126.819 56.4979 126.863 56.4863 126.907 56.4825H126.986H127.113C127.739 56.4819 128.34 56.7306 128.784 57.1741C129.229 57.6177 129.482 58.2204 129.488 58.8507Z" fill="#10BFF1"/>
<path style="mix-blend-mode:multiply" d="M120.01 78.6742H120.007L120.01 78.6717V78.6742Z" fill="url(#paint2_linear_615_702)"/>
<path style="mix-blend-mode:multiply" d="M135.124 82.1101L129.292 91.3049L129.282 91.3204C129.163 91.5718 129.001 91.8005 128.805 91.9965C128.751 92.0491 128.695 92.0988 128.636 92.1452L128.592 92.1819L128.519 92.2379L128.438 92.2978C128.382 92.3345 128.325 92.3712 128.267 92.4041L128.179 92.4504C128.12 92.4813 128.058 92.5084 127.987 92.5335L127.903 92.5644H127.893C127.83 92.632 127.765 92.6977 127.701 92.7576L127.617 92.8252C127.322 93.068 126.973 93.2354 126.6 93.3129C126.227 93.3904 125.841 93.3757 125.475 93.2701C125.109 93.1646 124.774 92.9713 124.498 92.7067C124.222 92.4422 124.014 92.1143 123.892 91.7511L118.181 82.6722C117.891 82.2128 117.768 81.6671 117.832 81.1269C117.832 81.096 117.832 81.0631 117.845 81.0322L117.862 80.9299C117.862 80.8912 117.879 80.8526 117.889 80.8139C117.899 80.7753 117.91 80.7328 117.922 80.6923L117.939 80.642C117.95 80.6059 117.963 80.5704 117.977 80.5358C117.993 80.4952 118.01 80.4566 118.027 80.418C118.062 80.3407 118.1 80.2654 118.142 80.19L118.194 80.105C118.217 80.0683 118.242 80.0336 118.267 79.9988C118.349 79.8848 118.442 79.7788 118.543 79.682C118.578 79.6491 118.612 79.6163 118.649 79.5854C118.685 79.5545 118.724 79.5255 118.762 79.4965L118.783 79.483L118.814 79.4618C118.846 79.4367 118.879 79.4154 118.912 79.3942L118.942 79.3749H118.956L119.694 78.8842L119.71 78.8726C119.779 78.8185 119.836 78.778 119.901 78.7413C119.967 78.7046 119.969 78.7026 120.001 78.6833L120.02 78.6717L120.155 78.6041C120.288 78.5411 120.428 78.4907 120.571 78.4534H120.584C120.628 78.4534 120.675 78.4322 120.721 78.4245C120.767 78.4167 120.815 78.409 120.861 78.4013H120.878L121.01 78.3897C121.453 78.363 121.894 78.46 122.286 78.6698C122.372 78.7169 122.455 78.7685 122.535 78.8243C122.785 79.003 122.997 79.2287 123.161 79.4888L123.782 80.4778V59.5113C123.782 59.4573 123.782 59.4032 123.782 59.3491C123.787 59.2727 123.796 59.1966 123.809 59.1211C123.809 59.0786 123.824 59.0361 123.834 58.9936C123.844 58.9511 123.853 58.9125 123.865 58.872C123.876 58.8314 123.89 58.785 123.903 58.7445C123.985 58.5098 124.101 58.289 124.248 58.0896C124.348 57.9573 124.46 57.8356 124.584 57.7265H124.596L124.701 57.6395C124.809 57.5544 124.925 57.4794 125.046 57.4155L125.701 56.9634L125.764 56.919L125.818 56.8823L125.833 56.8707C125.972 56.7798 126.121 56.704 126.276 56.6447C126.328 56.6254 126.38 56.6061 126.433 56.5906C126.487 56.5752 126.543 56.5597 126.597 56.5481L126.75 56.5172H126.771C126.815 56.5172 126.859 56.5056 126.903 56.5018H126.982H127.109C127.736 56.5033 128.337 56.7549 128.781 57.2016C129.225 57.6483 129.474 58.2537 129.476 58.8855V81.293L130.14 80.248C130.172 80.1965 130.206 80.1462 130.243 80.0973C130.304 80.0226 130.368 79.9511 130.435 79.8829C130.519 79.7925 130.611 79.7104 130.709 79.6376C130.75 79.6047 130.79 79.5777 130.83 79.5506L130.855 79.5332C130.905 79.4998 130.957 79.4689 131.011 79.4405C131.066 79.4096 131.124 79.3826 131.181 79.3575C131.237 79.3324 131.293 79.3092 131.35 79.2899L131.362 79.2783C131.383 79.2532 131.408 79.228 131.431 79.2029L131.452 79.1836C131.477 79.157 131.503 79.1319 131.531 79.1083C131.624 79.0229 131.725 78.9453 131.832 78.8765C131.936 78.809 132.046 78.7496 132.16 78.6988C132.607 78.5008 133.104 78.4461 133.583 78.5423C133.87 78.5986 134.143 78.7086 134.389 78.8668C134.906 79.2053 135.272 79.7332 135.409 80.3386C135.546 80.944 135.444 81.5793 135.124 82.1101Z" fill="url(#paint3_linear_615_702)"/>
<path style="mix-blend-mode:multiply" opacity="0.45" d="M118.165 82.6955C117.876 82.2361 117.753 81.6903 117.816 81.1501C117.816 81.1192 117.816 81.0864 117.83 81.0554L117.847 80.9531C117.847 80.9144 117.864 80.8758 117.874 80.8372C117.883 80.7985 117.895 80.756 117.906 80.7155L117.924 80.6653C117.934 80.6291 117.947 80.5937 117.962 80.559C117.977 80.5184 117.995 80.4798 118.012 80.4412C118.046 80.3639 118.085 80.2886 118.127 80.2132L118.179 80.1282C118.202 80.0915 118.227 80.0568 118.252 80.022C118.333 79.9071 118.425 79.801 118.528 79.7052C118.562 79.6724 118.597 79.6395 118.633 79.6086C118.67 79.5777 118.708 79.5487 118.747 79.5198L118.768 79.5062L118.798 79.485C118.831 79.4599 118.864 79.4386 118.896 79.4174L118.927 79.3981H118.94L119.679 78.9074L119.694 78.8958C119.763 78.8417 119.821 78.8012 119.886 78.7645C119.951 78.7278 119.953 78.7258 119.986 78.7065L120.005 78.6949L120.139 78.6273C120.272 78.5623 120.412 78.5118 120.556 78.4767H120.569C120.613 78.4767 120.659 78.4554 120.705 78.4477C120.751 78.4399 120.799 78.4322 120.845 78.4245H120.863L120.995 78.4129H121.139H121.214C121.283 78.4129 121.352 78.4129 121.419 78.4284H121.453C121.519 78.4284 121.584 78.4477 121.645 78.4612H121.664C121.733 78.4766 121.803 78.496 121.872 78.5172C122.012 78.562 122.148 78.6195 122.278 78.6891C122.364 78.7358 122.448 78.7874 122.528 78.8437C122.777 79.0224 122.989 79.248 123.153 79.5082L123.775 80.4972V59.5114C123.775 59.4573 123.775 59.4032 123.775 59.3491C123.78 59.2727 123.789 59.1966 123.801 59.1212C123.801 59.0787 123.817 59.0362 123.826 58.9937C123.836 58.9512 123.846 58.9126 123.857 58.872C123.869 58.8314 123.882 58.7851 123.895 58.7445C123.975 58.5091 124.092 58.2881 124.241 58.0897C124.308 57.9936 124.383 57.9032 124.465 57.8192C124.5 57.7844 124.536 57.7497 124.575 57.7168C124.612 57.6824 124.652 57.6502 124.694 57.6203C124.802 57.5321 124.92 57.4557 125.045 57.3923L125.699 56.9403L125.762 56.8959L125.816 56.8592L125.831 56.8476C125.97 56.7565 126.119 56.6814 126.274 56.6235C126.326 56.6042 126.378 56.5849 126.432 56.5694C126.485 56.554 126.541 56.5385 126.595 56.5269L126.748 56.496H126.769C126.813 56.496 126.857 56.4844 126.902 56.4806H126.98H127.107C127.734 56.4821 128.335 56.7337 128.779 57.1804C129.223 57.6271 129.473 58.2325 129.474 58.8643V81.2718L130.138 80.2268C130.17 80.1752 130.204 80.125 130.241 80.0761C130.302 80.0014 130.366 79.9299 130.433 79.8617C130.517 79.7713 130.609 79.6892 130.708 79.6164C130.748 79.5835 130.788 79.5565 130.828 79.5294L130.853 79.512C130.903 79.4785 130.955 79.4476 131.009 79.4193C131.064 79.3884 131.122 79.3614 131.179 79.3363C131.235 79.3111 131.291 79.288 131.348 79.2686L131.36 79.257C131.381 79.2319 131.406 79.2068 131.429 79.1817L131.45 79.1624C131.475 79.1358 131.501 79.1107 131.529 79.0871C131.621 78.9999 131.722 78.9222 131.83 78.8553C131.933 78.7859 132.043 78.7264 132.158 78.6775C132.605 78.4786 133.102 78.4239 133.581 78.5211C133.868 78.5773 134.141 78.6874 134.387 78.8456C134.912 79.1871 135.283 79.7236 135.417 80.3385C135.552 80.9535 135.44 81.5971 135.106 82.1295L129.275 91.3243C129.16 91.5801 128.999 91.8126 128.801 92.01C128.735 92.0801 128.664 92.1446 128.588 92.2032L128.544 92.238C128.506 92.2691 128.466 92.2981 128.425 92.3249C128.369 92.3616 128.312 92.3983 128.254 92.4311L128.166 92.4775C128.104 92.5103 128.04 92.5381 127.974 92.5606C127.945 92.5741 127.916 92.5858 127.886 92.5953C127.82 92.664 127.75 92.7285 127.677 92.7885L127.592 92.8561C127.297 93.099 126.949 93.2663 126.576 93.3438C126.202 93.4213 125.816 93.4066 125.45 93.3011C125.084 93.1955 124.749 93.0022 124.473 92.7377C124.197 92.4731 123.989 92.1453 123.867 91.7821L118.165 82.6955Z" fill="url(#paint4_linear_615_702)"/>
<path style="mix-blend-mode:multiply" opacity="0.96" d="M24.9866 145H170.398C170.268 120.527 145.187 100.15 111.938 95.5489C111.567 91.6627 109.862 88.0285 107.116 85.2723C107.531 85.5655 107.982 85.8031 108.458 85.9793C109.075 86.2107 109.735 86.3 110.391 86.2404C111.046 86.1809 111.68 85.9742 112.245 85.6355L112.487 85.4887C112.718 85.3494 112.931 85.182 113.122 84.9903C113.469 84.6439 113.736 84.2247 113.904 83.7626C114.071 83.3005 114.136 82.8069 114.093 82.3168L113.563 76.3634L113.262 72.9115C113.227 72.5374 113.163 72.1667 113.07 71.8027L108.19 52.0242C108.65 51.5915 109.111 51.1568 109.565 50.7183L109.853 50.4382C110.344 49.9476 110.812 49.4125 110.991 48.7499C111.225 47.9097 110.971 47.0114 110.678 46.1905C108.725 40.7238 104.954 36.9763 101.011 32.9294C98.3256 30.1382 95.1641 27.4415 92.6914 24.4126C92.4983 24.177 92.3096 23.9387 92.1254 23.6979L87.9588 18.2544C87.9596 18.2513 87.9596 18.2479 87.9588 18.2448C86.1632 15.5713 84.569 13.63 83.1629 12.2237C79.3952 8.47818 76.909 8.55351 75.2266 8.74668L74.7854 8.80077L54.4507 11.2733C50.0479 11.8081 45.582 11.2367 41.4519 9.61014C35.95 7.44279 28.7907 4.63219 28.5375 4.57231L24.1348 2.72948L20.1063 0.0560303H19.972L0.0210075 30.5399L10.8367 37.5404L18.1265 45.808C22.9706 51.2993 28.5541 56.0809 34.7146 60.0136L38.653 62.5248C39.2668 62.9169 39.858 63.3439 40.4236 63.8036L51.2701 72.6043L56.6971 76.7497C58.6334 78.2189 60.2806 80.0388 61.5544 82.1159L64.0943 86.2459C64.3537 86.6672 64.5851 87.1053 64.7869 87.5575L66.5287 91.4576L69.6576 98.4812C43.5026 106.094 25.0978 124.047 24.9866 145ZM65.4487 57.1393L64.2459 50.9579C63.8042 48.6879 63.9048 46.3447 64.5394 44.1216L65.1859 41.8577C65.4896 40.7955 66.0998 39.8482 66.9393 39.1359C67.4961 38.6628 68.1916 38.3865 68.9193 38.3495C69.6469 38.3126 70.3665 38.5169 70.9678 38.9312L79.6081 44.8769L78.718 45.5704C75.8405 47.8189 72.9207 50.0249 69.9703 52.225C69.2336 52.7736 68.4759 53.3474 68.0155 54.1471C67.9982 54.176 67.9829 54.2031 67.9675 54.234C67.8297 54.5035 67.7515 54.7999 67.7381 55.1027C67.7248 55.4055 67.7767 55.7077 67.8902 55.9884C68.0037 56.2692 68.1762 56.5219 68.3959 56.7292C68.6155 56.9365 68.8771 57.0935 69.1626 57.1895L69.1972 57.2011C68.1248 58.1321 67.3498 59.3433 67.7181 60.6491C67.7788 60.8661 67.8692 61.0735 67.9867 61.2653V61.2788V61.2924C68.662 62.4031 70.1506 62.9266 71.4858 63.1816C72.0613 63.2936 72.6579 63.3747 73.2468 63.4539C74.5628 63.566 75.6812 63.6201 75.6812 63.6201V63.5988C76.1775 63.6104 76.6743 63.6104 77.1718 63.5988C78.338 63.56 79.5005 63.4445 80.6517 63.253L80.8129 63.226H80.834L80.8129 63.2569L80.7035 63.4153C79.8805 64.604 79.1592 65.8609 78.5473 67.1724C78.1715 67.9819 78.1277 68.9079 78.4254 69.7497C78.7231 70.5915 79.3383 71.2813 80.1376 71.6694L80.2527 71.7215C80.5869 71.8698 80.9381 71.9755 81.2982 72.0364C82.806 72.2837 84.3292 71.8587 85.7622 71.2869L85.7948 71.2734C85.9867 71.1981 86.1632 71.1227 86.3454 71.0435C86.6811 70.8986 87.0092 70.7499 87.3315 70.5915H87.3468C88.1142 70.2399 88.657 69.9792 88.657 69.9792L88.634 69.927C90.7147 68.748 92.6568 67.3367 94.4236 65.7198C94.8879 65.3064 95.3425 64.8834 95.7934 64.4507C96.1399 65.5749 96.5364 66.6818 96.9827 67.7712L97.9707 70.1916C99.5245 74 101.47 77.634 103.776 81.0342L105.627 83.7656C105.739 83.9317 105.86 84.092 105.989 84.2466C103.6 82.2407 100.703 80.945 97.6232 80.5049C94.5433 80.0649 91.4026 80.4979 88.5535 81.7554C85.7044 83.0129 83.2598 85.045 81.494 87.6238C79.7282 90.2026 78.7111 93.2259 78.5569 96.3544C78.2653 96.4085 77.9814 96.4664 77.684 96.5224L77.9794 96.0724C78.2877 95.5978 78.5171 95.0759 78.6585 94.527L79.071 92.9411C79.2021 92.4373 79.2424 91.9139 79.1899 91.3958L78.3497 82.9311L77.3617 79.5101C76.5268 76.6169 75.2022 73.8906 73.4464 71.4511L72.6234 70.3095C72.445 70.0603 72.2742 69.8014 72.115 69.5368L66.8606 60.8133C66.1784 59.6821 65.7004 58.4382 65.4487 57.1393Z" fill="url(#paint5_linear_615_702)"/>
<defs>
<linearGradient id="paint0_linear_615_702" x1="95.3752" y1="85.8866" x2="98.5534" y2="165.584" gradientUnits="userSpaceOnUse">
<stop stop-color="#FFFEFD"/>
<stop offset="0.873856" stop-color="#12152C" stop-opacity="0"/>
</linearGradient>
<linearGradient id="paint1_linear_615_702" x1="93.0406" y1="68.0919" x2="-3.53573" y2="-4.06149" gradientUnits="userSpaceOnUse">
<stop offset="0.266091" stop-color="#FCDBCA"/>
<stop offset="0.839271" stop-color="#12152C" stop-opacity="0"/>
</linearGradient>
<linearGradient id="paint2_linear_615_702" x1="120.007" y1="78.6717" x2="120.007" y2="78.6742" gradientUnits="userSpaceOnUse">
<stop stop-color="#4053C1"/>
<stop offset="0.1" stop-color="#3D57C3" stop-opacity="0.95"/>
<stop offset="0.27" stop-color="#3663C9" stop-opacity="0.82"/>
<stop offset="0.49" stop-color="#2A76D3" stop-opacity="0.61"/>
<stop offset="0.74" stop-color="#1A90E0" stop-opacity="0.33"/>
<stop offset="1" stop-color="#07ADEF" stop-opacity="0"/>
</linearGradient>
<linearGradient id="paint3_linear_615_702" x1="126.648" y1="56.467" x2="126.648" y2="93.3834" gradientUnits="userSpaceOnUse">
<stop stop-color="#4053C1"/>
<stop offset="0.1" stop-color="#3D57C3" stop-opacity="0.95"/>
<stop offset="0.27" stop-color="#3663C9" stop-opacity="0.82"/>
<stop offset="0.49" stop-color="#2A76D3" stop-opacity="0.61"/>
<stop offset="0.74" stop-color="#1A90E0" stop-opacity="0.33"/>
<stop offset="1" stop-color="#07ADEF" stop-opacity="0"/>
</linearGradient>
<linearGradient id="paint4_linear_615_702" x1="126.648" y1="21.6793" x2="126.648" y2="104.261" gradientUnits="userSpaceOnUse">
<stop offset="0.24" stop-color="#4053C1"/>
<stop offset="0.37" stop-color="#6C3CD0" stop-opacity="0.88"/>
<stop offset="0.45" stop-color="#7D33D6" stop-opacity="0.83"/>
<stop offset="0.53" stop-color="#5963DF" stop-opacity="0.88"/>
<stop offset="0.61" stop-color="#398DE6" stop-opacity="0.92"/>
<stop offset="0.71" stop-color="#108EEC" stop-opacity="0.98"/>
<stop offset="0.76" stop-color="#008EEF"/>
</linearGradient>
<linearGradient id="paint5_linear_615_702" x1="-17" y1="-56.8924" x2="72.1006" y2="206.555" gradientUnits="userSpaceOnUse">
<stop offset="0.228132" stop-color="#222A6D" stop-opacity="0"/>
<stop offset="0.332916" stop-color="#121A62" stop-opacity="0.57"/>
<stop offset="0.715142" stop-color="#3877A7"/>
<stop offset="0.799898" stop-color="#008EEF" stop-opacity="0.17"/>
</linearGradient>
</defs>
</svg>
