<svg width="192" height="127" viewBox="0 0 192 127" fill="none" xmlns="http://www.w3.org/2000/svg">
<path d="M191.827 127H0.172729C0.28398 105.617 14.122 86.5455 35.7198 74.0473L35.9095 73.9376C36.041 73.8619 36.175 73.7835 36.309 73.7103C36.443 73.6372 36.6048 73.5405 36.754 73.4491C37.0801 73.2662 37.4088 73.0833 37.7401 72.9031L37.7957 72.8717L38.2356 72.634L38.357 72.5687L38.534 72.472C38.8374 72.3083 39.1433 72.1463 39.4518 71.9861L39.7881 71.811L40.2129 71.5916L40.2407 71.5785L40.7135 71.3382L40.7539 71.3173C41.0068 71.1919 41.2596 71.0691 41.4948 70.9489C41.606 70.8914 41.7198 70.834 41.8361 70.7817L41.9145 70.7425C42.094 70.6511 42.2735 70.5649 42.4556 70.4813C43.0894 70.173 43.7307 69.8717 44.3797 69.5774C45.0725 69.2586 45.772 68.9469 46.4783 68.6421C46.9149 68.454 47.3548 68.2676 47.7981 68.083L47.8816 68.049L48.0586 67.9759L48.2254 67.908L48.5819 67.7617H48.6047L49.1104 67.5579C49.3632 67.4534 49.6388 67.3463 49.9043 67.2444C50.2305 67.1138 50.5592 66.9831 50.8879 66.863L52.0257 66.4345C52.946 66.0949 53.8731 65.7666 54.8069 65.4496C55.2772 65.2876 55.7517 65.1292 56.2304 64.9741C56.6451 64.8383 57.0623 64.7051 57.482 64.5744L58.2683 64.3289L58.9004 64.1381L59.0547 64.0911L59.9953 63.8142L60.7538 63.5974L61.8941 63.2812L62.5768 63.0984L63.2165 62.9312L64.0635 62.7143L64.6096 62.5759L65.7778 62.2937H65.8283L66.2354 62.1997L66.3542 62.1735L67.2518 61.9672L67.8966 61.8235H67.9522C68.5085 61.7007 69.0647 61.5831 69.626 61.4682L69.76 61.442L69.8384 61.4264L70.0053 61.3924H70.0508L70.3036 61.3428L70.7764 61.2513C71.1001 61.1886 71.4263 61.1259 71.7524 61.0685C71.9446 61.0293 72.1367 60.9953 72.3289 60.9613H72.3972L72.5615 60.9326C72.9408 60.8621 73.32 60.7968 73.7018 60.7315L74.3011 60.6322L74.4199 60.6139C74.5741 60.5852 74.7284 60.5616 74.8851 60.5355L75.0267 60.512H75.0874C75.4161 60.4597 75.7473 60.4075 76.0786 60.3605C76.8978 60.2351 77.7203 60.1184 78.5463 60.0104C79.191 59.9242 79.8383 59.8458 80.4881 59.7674C81.1379 59.6891 81.7852 59.6237 82.4375 59.5584C83.0899 59.4931 83.6841 59.4356 84.3111 59.3834C84.5766 59.3573 84.8421 59.3364 85.1101 59.3155C85.7068 59.2658 86.3035 59.2214 86.9053 59.1822C87.8812 59.1143 88.8623 59.0595 89.8484 59.0177C90.2757 58.9968 90.7055 58.9785 91.1353 58.9654C91.5652 58.9523 91.9899 58.9341 92.4172 58.9262C93.2921 58.9001 94.1694 58.887 95.0518 58.8818C95.3654 58.8818 95.6789 58.8818 95.9949 58.8818H96.7105C97.3847 58.8818 98.0522 58.8905 98.713 58.9079H98.9128H99.1656H99.2769L100.109 58.9288L100.561 58.9445H100.721L101.077 58.9576H101.15H101.325H101.456H101.674L102.066 58.9759H102.187H102.26L102.541 58.9889L103.224 59.0255L103.568 59.0438H103.616H103.868L104.374 59.0751C104.743 59.096 105.112 59.1222 105.479 59.1483L106.238 59.2031H106.379L106.766 59.2319C107.272 59.2737 107.777 59.3155 108.283 59.3625C109.193 59.4461 110.099 59.5384 111.001 59.6394L111.818 59.7335C112.458 59.8066 113.082 59.8876 113.727 59.9738C114.076 60.0182 114.422 60.0679 114.768 60.1175L114.956 60.1436L115.208 60.1802C116.41 60.3544 117.602 60.5451 118.784 60.7523C119.458 60.8673 120.125 60.9892 120.784 61.1181H120.822L121.706 61.2905L122.465 61.442L123.249 61.6066L124.114 61.7921L124.551 61.8888C124.892 61.9646 125.234 62.0403 125.562 62.1213C126.179 62.2624 126.794 62.4113 127.406 62.5628L127.676 62.6281L127.929 62.6934L128.885 62.939L129.514 63.1062L129.767 63.1741L129.921 63.2159L130.452 63.3596L130.551 63.3884C130.964 63.4998 131.374 63.6157 131.78 63.7358C131.863 63.7567 131.947 63.7802 132.033 63.8064L132.422 63.9187L132.675 63.9945C167.309 74.2668 191.681 98.5943 191.827 127Z" fill="url(#paint0_linear_637_662)"/>
<path d="M153.326 17.2448V90.1747H38.6741V17.2448C38.6769 16.5137 38.9679 15.8134 39.4837 15.2967C39.9995 14.78 40.6982 14.4887 41.4274 14.4865H150.575C151.304 14.4887 152.002 14.78 152.518 15.2968C153.033 15.8136 153.324 16.5139 153.326 17.2448Z" fill="#606060"/>
<path d="M148.283 19.2376H43.7207V86.5983H148.283V19.2376Z" fill="#4C4C4C"/>
<path d="M67.6983 52.4508H52.8804V86.5982H67.6983V52.4508Z" fill="#8BBEE8"/>
<path d="M90.6224 40.6985H75.8045V86.596H90.6224V40.6985Z" fill="#8BBEE8"/>
<path d="M113.551 50.2323H98.733V86.5961H113.551V50.2323Z" fill="#8BBEE8"/>
<path d="M136.479 27.8392H121.662V86.5981H136.479V27.8392Z" fill="#8BBEE8"/>
<path d="M158 96.9818H34.0004L27.8818 94.4533H164.118L158 96.9818Z" fill="#7C828B"/>
<path d="M96.4888 17.3334C96.4897 17.4306 96.4616 17.5258 96.4082 17.607C96.3548 17.6881 96.2785 17.7515 96.1891 17.789C96.0996 17.8264 96.001 17.8364 95.9059 17.8174C95.8108 17.7985 95.7235 17.7516 95.6551 17.6828C95.5867 17.6139 95.5403 17.5261 95.5218 17.4307C95.5034 17.3352 95.5137 17.2365 95.5515 17.1469C95.5892 17.0574 95.6528 16.9812 95.7339 16.928C95.8151 16.8748 95.9102 16.8471 96.0072 16.8484C96.1351 16.8489 96.2576 16.9003 96.3479 16.9912C96.4382 17.0821 96.4888 17.2051 96.4888 17.3334Z" fill="#808184"/>
<path d="M107.038 90.162H84.9597V92.6905H107.038V90.162Z" fill="#A6A8AB"/>
<path d="M105.244 90.1621V91.0773C105.244 91.71 104.786 92.2266 104.226 92.2266H87.7045C87.145 92.2266 86.6865 91.71 86.6865 91.0773V90.1579H27.8818V94.4514H164.118V90.1621H105.244Z" fill="#C5CED6"/>
<path d="M80.0226 17.0824C80.0225 17.8029 79.9775 18.5227 79.888 19.2375C79.366 23.3577 77.3631 27.1456 74.2548 29.8912C71.1465 32.6368 67.1461 34.1515 63.0036 34.1515C58.861 34.1515 54.8607 32.6368 51.7524 29.8912C48.644 27.1456 46.6412 23.3577 46.1192 19.2375C45.9212 17.6586 45.9417 16.0598 46.1802 14.4865C46.7952 10.4541 48.8305 6.77605 51.9172 4.11856C55.004 1.46107 58.9381 -3.05176e-05 63.0067 -3.05176e-05C67.0754 -3.05176e-05 71.0095 1.46107 74.0962 4.11856C77.183 6.77605 79.2183 10.4541 79.8333 14.4865C79.9615 15.3458 80.0248 16.2135 80.0226 17.0824Z" fill="#33AED3"/>
<g style="mix-blend-mode:overlay">
<path d="M69.0203 20.7812C69.0203 15.4102 61.6208 15.6421 61.6208 12.9619C61.6208 11.6966 62.3528 11.1547 63.701 11.1547C64.8704 11.1547 65.7349 11.6439 66.7529 12.5739L68.8163 10.2057C67.7331 9.05431 66.4311 8.17917 64.658 7.90925V5.06662H61.9237V7.9683C59.284 8.49549 57.6771 10.4039 57.6771 13.158C57.6771 18.2296 65.0766 18.1769 65.0766 21.068C65.0766 22.348 64.3783 23.0081 62.7881 23.0081C61.4631 23.0081 60.2158 22.4514 58.7918 21.3569L56.9935 24.151C58.3333 25.3678 60.2831 26.0911 61.9237 26.2872V29.0982H64.658V26.1565C67.5353 25.5449 69.0203 23.4762 69.0203 20.7812Z" fill="white"/>
</g>
<g style="mix-blend-mode:multiply">
<path d="M33.9965 96.9818H158.003L164.118 94.4466H27.8818L33.9965 96.9818Z" fill="url(#paint1_linear_637_662)" style="mix-blend-mode:multiply"/>
<path d="M153.325 90.1599V17.2391C153.325 16.5132 153.027 15.8102 152.521 15.2917C152.004 14.7731 151.303 14.485 150.578 14.485H79.8339C79.2133 10.4518 77.1788 6.77579 74.0985 4.11386C71.0067 1.45193 67.0758 -3.05176e-05 63.007 -3.05176e-05C58.9381 -3.05176e-05 55.0072 1.46345 51.9154 4.11386C48.8236 6.77579 46.7892 10.4518 46.18 14.485H41.433C40.7089 14.485 40.0078 14.7731 39.4906 15.2917C38.9734 15.8102 38.686 16.5132 38.686 17.2391V90.1484H27.8818V94.4466H164.118V90.1599H153.325Z" fill="url(#paint2_linear_637_662)" style="mix-blend-mode:multiply"/>
</g>
<defs>
<linearGradient id="paint0_linear_637_662" x1="96.6034" y1="-36.2388" x2="95.9804" y2="154.212" gradientUnits="userSpaceOnUse">
<stop offset="0.0318464" stop-color="#4053C1"/>
<stop offset="0.508717" stop-color="#634FE1" stop-opacity="0.62"/>
<stop offset="0.83737" stop-color="#0067AD" stop-opacity="0"/>
</linearGradient>
<linearGradient id="paint1_linear_637_662" x1="95.9908" y1="-91.3815" x2="95.9908" y2="125.552" gradientUnits="userSpaceOnUse">
<stop offset="0.429141" stop-color="#573CF0"/>
<stop offset="0.64926" stop-color="#5079B6"/>
<stop offset="0.876049" stop-color="#5977E1" stop-opacity="0.82"/>
</linearGradient>
<linearGradient id="paint2_linear_637_662" x1="95.9908" y1="-91.3815" x2="95.9908" y2="125.552" gradientUnits="userSpaceOnUse">
<stop offset="0.429141" stop-color="#573CF0"/>
<stop offset="0.64926" stop-color="#5079B6"/>
<stop offset="0.876049" stop-color="#5977E1" stop-opacity="0.82"/>
</linearGradient>
</defs>
</svg>
