<svg width="190" height="123" viewBox="0 0 190 123" fill="none" xmlns="http://www.w3.org/2000/svg">
<path d="M190 122H0C0.11029 101.282 13.8289 82.8035 35.2402 70.6939L35.4282 70.5876C35.5586 70.5142 35.6914 70.4383 35.8243 70.3674C35.9571 70.2965 36.1175 70.2029 36.2654 70.1143C36.5888 69.9371 36.9146 69.7599 37.243 69.5853L37.2982 69.5549L37.7343 69.3245L37.8546 69.2613L38.0301 69.1676C38.3309 69.009 38.6342 68.852 38.94 68.6968L39.2733 68.5272L39.6945 68.3146L39.722 68.3019L40.1908 68.069L40.2309 68.0488C40.4815 67.9273 40.7322 67.8083 40.9653 67.6919C41.0756 67.6362 41.1884 67.5805 41.3037 67.5299L41.3814 67.4919C41.5594 67.4033 41.7373 67.3198 41.9178 67.2388C42.5461 66.9401 43.182 66.6482 43.8253 66.363C44.5121 66.0542 45.2056 65.7521 45.9058 65.4568C46.3386 65.2745 46.7748 65.094 47.2142 64.9151L47.297 64.8822L47.4724 64.8113L47.6379 64.7455L47.9913 64.6037H48.0139L48.5152 64.4063C48.7658 64.305 49.0391 64.2013 49.3022 64.1026C49.6256 63.976 49.9515 63.8494 50.2773 63.733L51.4053 63.3179C52.3177 62.9888 53.2368 62.6707 54.1625 62.3636C54.6288 62.2066 55.0992 62.0531 55.5737 61.9029C55.9848 61.7713 56.3984 61.6422 56.8145 61.5156L57.5941 61.2777L58.2207 61.0929L58.3736 61.0473L59.3061 60.779L60.0581 60.5689L61.1885 60.2626L61.8653 60.0855L62.4995 59.9234L63.3392 59.7134L63.8806 59.5792L65.0387 59.3058H65.0888L65.4924 59.2147L65.6102 59.1894L66.5 58.9894L67.1392 58.8502H67.1943C67.7458 58.7312 68.2972 58.6173 68.8537 58.5059L68.9865 58.4806L69.0643 58.4654L69.2297 58.4325H69.2748L69.5255 58.3844L69.9942 58.2959C70.315 58.2351 70.6384 58.1743 70.9617 58.1187C71.1522 58.0807 71.3428 58.0478 71.5332 58.0149H71.6009L71.7639 57.987C72.1398 57.9187 72.5158 57.8554 72.8943 57.7921L73.4884 57.6959L73.6062 57.6782C73.7591 57.6504 73.912 57.6276 74.0674 57.6023L74.2078 57.5795H74.268C74.5938 57.5289 74.9222 57.4782 75.2505 57.4327C76.0627 57.3112 76.8782 57.1981 77.697 57.0935C78.3362 57.01 78.9778 56.934 79.622 56.8581C80.2662 56.7822 80.9079 56.7189 81.5546 56.6556C82.2013 56.5923 82.7904 56.5366 83.412 56.486C83.6752 56.4607 83.9384 56.4404 84.2041 56.4202C84.7956 56.3721 85.3872 56.3291 85.9838 56.2911C86.9513 56.2253 87.9239 56.1721 88.9015 56.1316C89.3251 56.1114 89.7512 56.0937 90.1773 56.081C90.6034 56.0683 91.0246 56.0506 91.4482 56.043C92.3154 56.0177 93.1852 56.0051 94.06 56C94.3708 56 94.6817 56 94.995 56H95.7044C96.3728 56 97.0345 56.0084 97.6896 56.0253H97.8876H98.1383H98.2486L99.0732 56.0456L99.5219 56.0607H99.6798L100.033 56.0734H100.106H100.279H100.409H100.625L101.013 56.0911H101.134H101.206L101.485 56.1038L102.161 56.1392L102.502 56.1569H102.55H102.801L103.302 56.1873C103.668 56.2076 104.034 56.2329 104.397 56.2582L105.149 56.3113H105.29L105.673 56.3392C106.174 56.3797 106.676 56.4202 107.177 56.4657C108.079 56.5467 108.978 56.6362 109.872 56.7341L110.681 56.8252C111.315 56.8961 111.935 56.9745 112.574 57.0581C112.92 57.1011 113.263 57.1492 113.606 57.1973L113.792 57.2226L114.043 57.258C115.234 57.4268 116.416 57.6116 117.587 57.8124C118.255 57.9237 118.916 58.0419 119.57 58.1668H119.607L120.485 58.3338L121.237 58.4806L122.014 58.6401L122.871 58.8198L123.304 58.9135C123.643 58.9869 123.981 59.0603 124.307 59.1387C124.919 59.2754 125.528 59.4197 126.134 59.5665L126.403 59.6298L126.653 59.6931L127.601 59.931L128.225 60.093L128.476 60.1589L128.628 60.1993L129.155 60.3386L129.253 60.3664C129.662 60.4744 130.068 60.5866 130.471 60.7031C130.554 60.7233 130.636 60.7461 130.722 60.7714L131.108 60.8803L131.358 60.9537C165.694 70.9066 189.855 94.4776 190 122Z" fill="url(#paint0_linear_632_1048)"/>
<path d="M149.866 16.3872V85.6904H40.6328V16.3872C40.6355 15.6925 40.9127 15.0271 41.4041 14.536C41.8956 14.045 42.5612 13.7682 43.2559 13.7661H147.245C147.939 13.7682 148.605 14.0451 149.096 14.5362C149.587 15.0273 149.864 15.6927 149.866 16.3872Z" fill="#606060"/>
<path d="M145.058 18.281H45.4375V82.2919H145.058V18.281Z" fill="#4C4C4C"/>
<path d="M68.2816 49.8425H54.1641V82.2918H68.2816V49.8425Z" fill="#8BBEE8"/>
<path d="M90.1254 38.6747H76.0078V82.2898H90.1254V38.6747Z" fill="#8BBEE8"/>
<path d="M111.969 47.7344H97.8516V82.2898H111.969V47.7344Z" fill="#8BBEE8"/>
<path d="M133.813 26.4548H119.695V82.2918H133.813V26.4548Z" fill="#8BBEE8"/>
<path d="M154.315 92.159H36.177L30.3477 89.7563H160.145L154.315 92.159Z" fill="#7C828B"/>
<path d="M95.711 16.4714C95.7118 16.5638 95.6851 16.6543 95.6342 16.7314C95.5833 16.8085 95.5107 16.8687 95.4254 16.9044C95.3402 16.94 95.2463 16.9494 95.1557 16.9314C95.0651 16.9134 94.9819 16.8689 94.9167 16.8034C94.8515 16.738 94.8073 16.6546 94.7897 16.5639C94.7722 16.4732 94.782 16.3793 94.818 16.2943C94.854 16.2092 94.9145 16.1368 94.9918 16.0862C95.0692 16.0357 95.1598 16.0093 95.2521 16.0105C95.374 16.0111 95.4908 16.0599 95.5768 16.1462C95.6628 16.2326 95.711 16.3495 95.711 16.4714Z" fill="#808184"/>
<path d="M105.766 85.6784H84.7305V88.0811H105.766V85.6784Z" fill="#A6A8AB"/>
<path d="M104.053 85.6784V86.5481C104.053 87.1493 103.617 87.6403 103.084 87.6403H87.3428C86.8098 87.6403 86.373 87.1493 86.373 86.5481V85.6744H30.3477V89.7544H160.145V85.6784H104.053Z" fill="#C5CED6"/>
<path d="M80.023 16.2329C80.0229 16.9176 79.9801 17.6016 79.8948 18.2809C79.3974 22.1962 77.4892 25.7957 74.5278 28.4048C71.5664 31.0138 67.7551 32.4532 63.8084 32.4532C59.8616 32.4532 56.0503 31.0138 53.0889 28.4048C50.1275 25.7957 48.2193 22.1962 47.722 18.2809C47.5333 16.7805 47.5529 15.2612 47.7801 13.7661C48.3661 9.9343 50.3052 6.43912 53.246 3.91378C56.1869 1.38844 59.935 0 63.8114 0C67.6877 0 71.4359 1.38844 74.3767 3.91378C77.3176 6.43912 79.2567 9.9343 79.8427 13.7661C79.9648 14.5827 80.0251 15.4073 80.023 16.2329Z" fill="#33AED3"/>
<path style="mix-blend-mode:multiply" d="M189.72 122.017H0C0.118231 99.842 16.1595 80.2598 40.6313 68.4568V16.3872C40.6339 15.6925 40.9112 15.0271 41.4026 14.536C41.894 14.045 42.5597 13.7682 43.2544 13.7661H47.7812C48.3672 9.9343 50.3063 6.43912 53.2471 3.91378C56.188 1.38844 59.9361 0 63.8125 0C67.6888 0 71.437 1.38844 74.3779 3.91378C77.3187 6.43912 79.2578 9.9343 79.8438 13.7661H147.243C147.938 13.7682 148.603 14.045 149.094 14.5361C149.585 15.0272 149.862 15.6927 149.864 16.3872V68.8335C173.899 80.6766 189.602 100.076 189.72 122.017Z" fill="url(#paint1_linear_632_1048)"/>
<g style="mix-blend-mode:overlay">
<path d="M69.5404 19.7478C69.5404 14.6439 62.4906 14.8643 62.4906 12.3173C62.4906 11.115 63.188 10.6 64.4725 10.6C65.5867 10.6 66.4103 11.0649 67.3802 11.9486L69.346 9.69822C68.314 8.60409 67.0736 7.77246 65.3843 7.51596V4.8147H62.7792V7.57208C60.2643 8.07306 58.7333 9.88659 58.7333 12.5037C58.7333 17.3231 65.7831 17.273 65.7831 20.0204C65.7831 21.2367 65.1178 21.864 63.6028 21.864C62.3403 21.864 61.152 21.3349 59.7954 20.2949L58.082 22.9501C59.3585 24.1063 61.2161 24.7937 62.7792 24.98V27.6512H65.3843V24.8558C68.1256 24.2747 69.5404 22.3088 69.5404 19.7478Z" fill="white"/>
</g>
<defs>
<linearGradient id="paint0_linear_632_1048" x1="95.5982" y1="-36.1628" x2="95.0083" y2="148.366" gradientUnits="userSpaceOnUse">
<stop offset="0.0318464" stop-color="#4053C1"/>
<stop offset="0.508717" stop-color="#634FE1" stop-opacity="0.62"/>
<stop offset="0.830744" stop-color="#0067AD" stop-opacity="0"/>
</linearGradient>
<linearGradient id="paint1_linear_632_1048" x1="94.8591" y1="-26.0115" x2="94.8591" y2="189.633" gradientUnits="userSpaceOnUse">
<stop offset="0.12" stop-color="#4053C1"/>
<stop offset="0.21" stop-color="#7D33D6" stop-opacity="0.65"/>
<stop offset="0.43" stop-color="#4F70E1" stop-opacity="0.83"/>
<stop offset="0.654636" stop-color="#008EEF" stop-opacity="0"/>
</linearGradient>
</defs>
</svg>
