<svg width="169" height="145" viewBox="0 0 169 145" fill="none" xmlns="http://www.w3.org/2000/svg">
<path d="M99.3337 39.313C99.0785 39.224 98.1583 40.0206 97.0487 41.1112C96.4688 41.6738 95.8541 42.3158 95.2452 42.9538C93.7683 44.5007 92.3803 46.0475 92.0208 46.3975C92.0092 46.411 91.9976 46.4207 91.9879 46.4304C91.868 46.5444 91.7482 46.6605 91.6303 46.7784C91.1953 47.1999 90.7681 47.6292 90.3428 48.0603C89.6102 48.8048 88.8891 49.5569 88.1546 50.2955L88.141 50.3091C87.7042 50.748 87.2653 51.183 86.8188 51.6065C85.2607 53.0895 83.606 54.4662 81.6787 55.5587C78.0831 57.5985 73.6351 58.5267 69.7534 57.2505H69.7302L69.6954 57.2389C69.4077 57.1429 69.1441 56.9857 68.9228 56.7782C68.7015 56.5707 68.5276 56.3177 68.4132 56.0367C68.2988 55.7557 68.2466 55.4532 68.26 55.1501C68.2734 54.847 68.3523 54.5504 68.4911 54.2806C68.5066 54.2496 68.5221 54.2226 68.5395 54.1936C69.0034 53.3931 69.767 52.8188 70.5093 52.2697C73.4824 50.0674 76.4226 47.8593 79.3242 45.6086L80.2211 44.9145C81.0691 44.2532 81.9145 43.588 82.7574 42.919C84.6995 41.3722 86.6255 39.8009 88.5354 38.205C89.2829 37.5773 90.029 36.9431 90.7739 36.3024L90.8725 36.3372L95.9333 38.1219L99.3337 39.313Z" fill="#E2C4B4"/>
<g style="mix-blend-mode:multiply" opacity="0.49">
<path d="M90.3388 48.068C89.6062 48.8124 88.8851 49.5646 88.1506 50.3032L88.137 50.3167C87.7002 50.7556 87.2613 51.1907 86.8148 51.6141C85.2567 53.0972 83.602 54.4738 81.6747 55.5663C78.0791 57.6062 73.6311 58.5343 69.7494 57.2582H69.7262L69.6914 57.2466C69.5355 57.1947 69.3863 57.1246 69.2468 57.0377C69.4401 56.5408 69.9234 55.8351 71.0601 54.9824C72.7071 53.7468 77.9632 52.7839 80.5322 51.8887C81.7269 51.473 83.5865 50.3573 82.9061 49.2919C82.609 48.8331 82.2671 48.405 81.8854 48.0139C81.7424 47.8708 80.1456 46.3761 79.3202 45.6085L80.2171 44.9144C81.0651 44.2531 81.9105 43.588 82.7534 42.9189L84.3849 43.2535L89.4245 45.5002C89.4245 45.5002 89.9077 46.8421 90.3388 48.068Z" fill="#E2C4B4"/>
</g>
<path d="M91.0048 52.405L90.2664 56.1619L89.814 58.4551L87.0709 61.6802C85.3412 62.3782 83.5443 62.8966 81.7085 63.2271C81.6274 63.2406 81.5442 63.258 81.4611 63.2696H81.4398L81.2775 63.2967C80.1174 63.4883 78.946 63.6039 77.7708 63.6428C77.2708 63.6608 76.7701 63.6608 76.2688 63.6428C75.4479 63.6235 74.6296 63.5661 73.8138 63.4707C73.2203 63.4011 72.6269 63.3102 72.0392 63.1981C70.6996 62.9448 69.2053 62.4247 68.521 61.3206V61.3071C68.4026 61.115 68.3115 60.9074 68.2503 60.6903C67.8792 59.3832 68.6602 58.1766 69.7408 57.2389L69.7639 57.2195C70.2041 56.8445 70.68 56.5136 71.1848 56.2315C74.6044 54.2979 78.517 54.1259 81.8922 52.4746C83.1167 51.8555 84.309 51.1746 85.4645 50.4347C85.9671 50.1234 86.464 49.8121 86.9627 49.5085H86.9762L88.1593 50.311L90.2006 51.6877V51.7785L90.8115 52.2542L91.0048 52.405Z" fill="#E2C4B4"/>
<g style="mix-blend-mode:multiply" opacity="0.49">
<path d="M91.0067 52.405L90.2682 56.1619L89.8159 58.4551L87.0728 61.6802C85.3431 62.3782 83.5461 62.8966 81.7104 63.2271C81.6292 63.2406 81.5461 63.258 81.463 63.2696H81.4417L81.2793 63.2967C80.1192 63.4883 78.9479 63.6039 77.7727 63.6428C78.9057 62.6413 79.9592 61.5533 80.9236 60.3886C82.4701 58.4551 85.1765 55.7481 86.143 54.7813C86.3653 54.559 86.8737 54.0562 87.3531 53.5767C87.4502 53.4794 87.5269 53.3637 87.5789 53.2364C87.6308 53.1091 87.6569 52.9728 87.6557 52.8353C87.6544 52.6978 87.6258 52.5619 87.5716 52.4356C87.5173 52.3093 87.4384 52.195 87.3396 52.0995C87.1714 51.9371 86.9974 51.7747 86.8196 51.6142C86.375 51.2081 85.9091 50.8079 85.4664 50.4347C85.969 50.1234 86.4658 49.8121 86.9646 49.5085H86.9781L88.1612 50.311L90.2025 51.6877V51.7785L90.8134 52.2542L91.0067 52.405Z" fill="#E2C4B4"/>
</g>
<path d="M111.844 48.8047C111.651 49.4679 111.193 50.0035 110.698 50.4946L110.408 50.775C109.95 51.2139 109.486 51.649 109.022 52.0821C107.475 53.5303 105.904 54.9669 104.382 56.45C103.877 56.9437 103.379 57.4432 102.888 57.9485C101.695 59.1821 100.543 60.4196 99.3872 61.6222C98.4438 62.6103 97.4986 63.577 96.5243 64.5071C96.07 64.9402 95.6118 65.3636 95.144 65.7774C93.3693 67.3878 91.4195 68.794 89.3312 69.9694C88.9098 70.204 88.4774 70.4257 88.0341 70.6345H88.0187C87.6939 70.7931 87.3633 70.9419 87.025 71.087C86.8414 71.1662 86.6578 71.2416 86.4702 71.3171L86.4374 71.3306C84.9934 71.9107 83.4585 72.3283 81.9391 72.0808C81.5762 72.0199 81.2223 71.914 80.8855 71.7656L80.7695 71.7134C79.9641 71.3249 79.3441 70.6345 79.0442 69.7919C78.7442 68.9493 78.7883 68.0224 79.167 67.2121C79.7836 65.8993 80.5105 64.6412 81.3398 63.4514L81.45 63.2928L81.4713 63.2619C83.6209 60.1895 86.304 57.4864 88.7784 54.6402L89.2655 54.0736L90.0387 53.1707C90.0871 53.1127 90.1373 53.0527 90.1934 52.9889L90.3867 52.7588L90.58 52.5326C90.6573 52.4398 90.7385 52.3393 90.8236 52.2464L90.8332 52.2348L91.5949 51.3435C91.9177 50.9664 92.0685 50.0519 92.0936 48.7603C92.1071 48.0719 92.0839 47.2772 92.0317 46.3975C91.8694 43.6286 91.417 40.0283 90.8835 36.3295C89.6019 27.4467 87.8505 17.9994 88.5116 18.1541C88.5464 18.1541 88.5889 18.1966 88.6392 18.2604C88.64 18.2636 88.64 18.2669 88.6392 18.2701L92.8321 23.7189C93.0176 23.9612 93.2077 24.1997 93.4023 24.4343C95.8941 27.4661 99.0779 30.1653 101.786 32.9593C105.759 37.0101 109.559 40.7612 111.527 46.2331C111.825 47.0665 112.08 47.9636 111.844 48.8047Z" fill="#E2C4B4"/>
<g style="mix-blend-mode:multiply" opacity="0.52">
<path d="M110.696 50.4946L110.406 50.775C109.948 51.2139 109.484 51.649 109.02 52.0821C107.473 53.5303 105.902 54.9669 104.381 56.45L99.5749 47.8901L97.0618 41.1227L95.9464 38.1257L94.1622 33.3769L88.4982 18.156C88.533 18.156 88.5755 18.1985 88.6258 18.2624C88.6266 18.2655 88.6266 18.2688 88.6258 18.272L92.8187 23.7208C93.0043 23.9631 93.1944 24.2016 93.389 24.4362C93.6093 24.7417 100.683 34.5467 104.297 39.3052C107.97 44.1391 110.433 48.0216 110.651 50.1331C110.677 50.2587 110.686 50.3747 110.696 50.4946Z" fill="#E2C4B4"/>
</g>
<g style="mix-blend-mode:multiply" opacity="0.48">
<path d="M99.5748 57.5077L99.4008 61.6281C98.4575 62.6161 97.5122 63.5829 96.5379 64.5129C96.0836 64.946 95.6255 65.3695 95.1577 65.7833L93.7755 61.9355C93.009 59.7941 91.8131 57.832 90.2611 56.1697C90.0968 55.9918 89.9287 55.8177 89.7566 55.6457L88.763 54.6557L89.2501 54.0892L90.0234 53.1862L90.178 53.0044L90.3713 52.7743L90.5646 52.5481C90.642 52.4553 90.7232 52.3548 90.8082 52.2619L90.8179 52.2503L91.5795 51.359C91.9023 50.9819 92.0531 50.0674 92.0783 48.7758L98.5696 51.3551L99.5748 57.5077Z" fill="#E2C4B4"/>
</g>
<g style="mix-blend-mode:overlay">
<path d="M89.3425 70.0216C89.3425 70.0216 88.8012 70.2826 88.0222 70.6345H88.0067C87.5505 70.8414 87.015 71.0792 86.4603 71.3171L86.4274 71.3306C84.9834 71.9107 83.4485 72.3283 81.9291 72.0808C81.5662 72.0199 81.2123 71.914 80.8755 71.7656C80.8802 71.5336 80.9525 71.3081 81.0837 71.1167C81.2149 70.9253 81.3993 70.7765 81.614 70.6887L87.9391 68.0784C88.0004 68.053 88.0661 68.0401 88.1324 68.0402C88.1987 68.0403 88.2644 68.0534 88.3256 68.0789C88.3868 68.1044 88.4424 68.1418 88.4892 68.1888C88.536 68.2358 88.573 68.2916 88.5983 68.3529L89.3212 69.9616L89.3425 70.0216Z" fill="#C5C5C5"/>
</g>
<g style="mix-blend-mode:overlay">
<path d="M76.3555 61.978L76.2685 63.6544V63.6757C76.2685 63.6757 75.1415 63.6215 73.8154 63.5094C73.222 63.4398 72.6285 63.3489 72.0409 63.2367C70.6877 62.9815 69.1953 62.4633 68.5149 61.3457V61.3322C68.619 61.1482 68.775 60.9989 68.9634 60.903C69.1518 60.8071 69.3642 60.7687 69.5742 60.7927L75.9225 61.4579C76.0482 61.4711 76.1638 61.5329 76.2446 61.63C76.3255 61.7271 76.3653 61.852 76.3555 61.978Z" fill="#C5C5C5"/>
</g>
<path d="M169 145H25C25.0836 128.99 35.4808 114.712 51.7084 105.354L51.8509 105.272C51.9497 105.216 52.0503 105.157 52.151 105.102C52.2517 105.047 52.3733 104.975 52.4854 104.906C52.7304 104.77 52.9774 104.633 53.2263 104.498L53.2681 104.474L53.5986 104.296L53.6898 104.247L53.8228 104.175C54.0508 104.052 54.2806 103.931 54.5124 103.811L54.7651 103.68L55.0842 103.516L55.1051 103.506L55.4604 103.326L55.4908 103.31C55.6807 103.217 55.8707 103.125 56.0474 103.035C56.131 102.992 56.2165 102.949 56.3039 102.909L56.3627 102.88C56.4976 102.812 56.6325 102.747 56.7693 102.685C57.2455 102.454 57.7274 102.228 58.215 102.008C58.7355 101.769 59.2611 101.536 59.7918 101.308C60.1198 101.167 60.4503 101.027 60.7834 100.889L60.8461 100.863L60.9791 100.809L61.1045 100.758L61.3723 100.648H61.3894L61.7694 100.496C61.9594 100.418 62.1664 100.337 62.3659 100.261C62.611 100.163 62.8579 100.065 63.1049 99.9755L63.9598 99.6547C64.6513 99.4004 65.3479 99.1546 66.0495 98.9173C66.4028 98.796 66.7594 98.6774 67.119 98.5613C67.4306 98.4596 67.7441 98.3599 68.0594 98.2621L68.6502 98.0782L69.1252 97.9354L69.2411 97.9002L69.9478 97.6929L70.5177 97.5305L71.3745 97.2938L71.8874 97.1569L72.368 97.0318L73.0044 96.8694L73.4148 96.7657L74.2925 96.5545H74.3304L74.6363 96.4841L74.7256 96.4645L75.4 96.31L75.8844 96.2024H75.9262C76.3442 96.1105 76.7621 96.0225 77.1839 95.9364L77.2845 95.9168L77.3434 95.9051L77.4688 95.8797H77.503L77.693 95.8425L78.0482 95.7741C78.2914 95.7271 78.5365 95.6802 78.7815 95.6371C78.9259 95.6078 79.0703 95.5824 79.2147 95.5569H79.266L79.3894 95.5354C79.6744 95.4826 79.9594 95.4337 80.2462 95.3848L80.6965 95.3105L80.7857 95.2968C80.9016 95.2753 81.0175 95.2577 81.1353 95.2381L81.2417 95.2205H81.2873C81.5342 95.1814 81.7831 95.1423 82.032 95.1071C82.6475 95.0132 83.2655 94.9258 83.8861 94.845C84.3706 94.7804 84.8569 94.7218 85.3451 94.6631C85.8333 94.6044 86.3197 94.5555 86.8098 94.5066C87.2999 94.4577 87.7464 94.4147 88.2175 94.3755C88.417 94.356 88.6165 94.3403 88.8178 94.3247C89.2662 94.2875 89.7145 94.2543 90.1666 94.2249C90.8999 94.1741 91.637 94.133 92.3779 94.1017C92.699 94.0861 93.022 94.0724 93.3449 94.0626C93.6679 94.0528 93.987 94.0391 94.3081 94.0332C94.9654 94.0137 95.6246 94.0039 96.2876 94C96.5232 94 96.7587 94 96.9962 94H97.5338C98.0404 94 98.5419 94.0065 99.0384 94.0196H99.1885H99.3785H99.4621L100.087 94.0352L100.427 94.0469H100.547L100.815 94.0567H100.87H101.001H101.1H101.263L101.557 94.0704H101.649H101.704L101.915 94.0802L102.428 94.1076L102.686 94.1213H102.722H102.912L103.292 94.1447C103.569 94.1604 103.847 94.18 104.122 94.1995L104.692 94.2406H104.798L105.089 94.2621C105.469 94.2934 105.849 94.3247 106.229 94.3599C106.913 94.4225 107.594 94.4916 108.271 94.5672L108.885 94.6376C109.365 94.6924 109.835 94.753 110.319 94.8176C110.581 94.8508 110.841 94.888 111.102 94.9252L111.242 94.9447L111.432 94.9721C112.335 95.1025 113.231 95.2453 114.119 95.4005C114.625 95.4865 115.126 95.5778 115.621 95.6743H115.65L116.315 95.8034L116.885 95.9168L117.473 96.0401L118.123 96.179L118.452 96.2513C118.708 96.308 118.965 96.3648 119.212 96.4254C119.675 96.531 120.137 96.6425 120.597 96.756L120.8 96.8049L120.99 96.8538L121.708 97.0376L122.181 97.1628L122.371 97.2137L122.487 97.245L122.886 97.3525L122.96 97.3741C123.27 97.4575 123.578 97.5442 123.883 97.6342C123.946 97.6498 124.009 97.6674 124.073 97.687L124.366 97.7711L124.556 97.8278C150.578 105.519 168.89 123.733 169 145Z" fill="url(#paint0_linear_640_794)"/>
<path d="M120.862 100.9L129 115.363H62.9984L71.1386 100.9H120.862Z" fill="#D6D6D6"/>
<path d="M120.614 108.451H71.3802L72.6194 105.846H119.373L120.614 108.451Z" fill="#2168A3"/>
<path d="M113.983 85.0723C113.791 85.2643 113.576 85.4318 113.343 85.5712L113.107 85.7181C112.537 86.0591 111.898 86.2675 111.236 86.3281C110.575 86.3886 109.908 86.2998 109.286 86.0681C108.806 85.8918 108.351 85.6539 107.932 85.3604C107.847 85.3024 107.764 85.2406 107.683 85.1768C107.361 84.9246 107.066 84.6402 106.802 84.3279C106.673 84.1732 106.551 84.0128 106.436 83.8465L104.571 81.1124C102.248 77.7089 100.287 74.0714 98.7212 70.2594L97.7257 67.8367C97.2772 66.7462 96.8777 65.6382 96.5271 64.5129C96.1695 63.3663 95.8622 62.1926 95.6089 61.0325L95.3596 59.8724C94.7363 56.9838 93.2103 54.3685 91.0024 52.405C90.9424 52.3489 90.8806 52.2948 90.8187 52.2426L90.7549 52.1885C90.5732 52.0338 90.3896 51.8849 90.1982 51.7418C89.8992 51.5098 89.5886 51.2913 89.2664 51.0863L88.1375 50.3129L86.9777 49.5202L86.9564 49.5047L80.2196 44.9202L71.5052 38.9765C70.8993 38.5618 70.1741 38.3573 69.4409 38.3943C68.7076 38.4313 68.0068 38.7078 67.4457 39.1815C66.5998 39.8944 65.9848 40.8426 65.6788 41.9058L65.0274 44.172C64.3879 46.3972 64.2866 48.7426 64.7316 51.0148L65.9437 57.2021C66.1977 58.501 66.6794 59.7448 67.3664 60.8759L72.6612 69.602C72.8216 69.865 72.9937 70.1241 73.1734 70.3754L74.0027 71.5182C75.7721 73.96 77.1068 76.689 77.9482 79.5849L78.9515 83.0112L79.7981 91.5053C79.851 92.0239 79.8104 92.5478 79.6783 93.0521L79.2627 94.6395C79.1202 95.1889 78.889 95.7114 78.5784 96.1864L78.2807 96.6369L78.1821 96.7877C77.4723 97.8639 76.5517 98.7848 75.4758 99.4947C75.1957 99.6788 74.8978 99.8343 74.5865 99.9587C74.4501 100.016 74.3107 100.066 74.169 100.108C73.8439 100.206 73.5097 100.271 73.1715 100.301C73.0285 100.315 72.8854 100.322 72.7404 100.322H72.725C72.2016 100.321 71.6895 100.17 71.25 99.8856C70.8105 99.6013 70.4622 99.1964 70.2467 98.7193L70.1945 98.6014L67.032 91.571L65.2787 87.6517C65.0754 87.1991 64.8422 86.7605 64.5808 86.3388L62.0272 82.201C60.7442 80.1197 59.0843 78.2962 57.1326 76.8238L51.6484 72.686L40.7187 63.869C40.1487 63.4089 39.553 62.9816 38.9345 62.589L34.9658 60.0754C28.758 56.1389 23.1317 51.3527 18.2503 45.8561L10.9046 37.5805L0 30.5752L20.1119 0.061875L20.1525 0L20.2472 0.061875L24.3067 2.73791L28.7432 4.58252C29.0022 4.64246 36.2127 7.45577 41.7568 9.62522C45.9186 11.2533 50.4188 11.8253 54.8554 11.29L75.3462 8.81506L75.7986 8.76285C77.4939 8.55789 79.9992 8.48829 83.7958 12.2432C85.2185 13.6509 86.8249 15.5941 88.6285 18.2701C88.6293 18.2733 88.6293 18.2766 88.6285 18.2798C90.4804 21.0574 92.1889 23.9279 93.7474 26.8802C94.9168 29.1281 96.2899 31.264 97.8494 33.2609L104.919 42.0934C106.456 44.0074 107.562 46.2316 108.159 48.6133L109.021 52.0744L113.946 71.8623C114.039 72.2267 114.104 72.5978 114.14 72.9722L114.435 76.4371L114.961 82.3963C115.005 82.8868 114.94 83.381 114.771 83.8435C114.602 84.306 114.333 84.7256 113.983 85.0723Z" fill="url(#paint1_linear_640_794)"/>
<g style="mix-blend-mode:overlay">
<path d="M73.1711 100.276C73.0281 100.289 72.885 100.297 72.74 100.297H72.7246C72.2012 100.296 71.6891 100.145 71.2496 99.8605C70.8101 99.5762 70.4618 99.1713 70.2464 98.6942L70.1942 98.5762L67.0316 91.5459L69.0942 90.7202C69.1699 90.6872 69.2513 90.6694 69.3338 90.6678C69.4163 90.6663 69.4984 90.681 69.5752 90.7112C69.652 90.7413 69.7222 90.7863 69.7816 90.8436C69.8411 90.9009 69.8886 90.9694 69.9216 91.0451L72.885 97.8415L73.3161 98.8295C73.4183 99.0628 73.4586 99.3184 73.4332 99.5717C73.4078 99.825 73.3175 100.068 73.1711 100.276Z" fill="#CCCCCC"/>
</g>
<g style="mix-blend-mode:overlay">
<path d="M113.982 85.0724C113.752 85.0105 113.545 84.8815 113.389 84.7017C113.232 84.522 113.132 84.2996 113.103 84.0631L112.254 77.2724C112.238 77.1394 112.274 77.0053 112.357 76.8995C112.439 76.7936 112.56 76.7247 112.693 76.7078L114.433 76.4371L114.958 82.3963C115.002 82.8867 114.937 83.3808 114.769 83.8433C114.6 84.3058 114.331 84.7254 113.982 85.0724Z" fill="#CCCCCC"/>
</g>
<path d="M112.866 96.7664C112.854 96.39 112.831 96.0168 112.794 95.6469C112.42 91.757 110.702 88.1193 107.935 85.3604C107.573 84.9969 107.196 84.6527 106.804 84.3279C104.396 82.3201 101.477 81.0231 98.3733 80.5826C95.2697 80.1422 92.1049 80.5756 89.2339 81.8343C86.363 83.093 83.8996 85.1271 82.1202 87.7084C80.3408 90.2896 79.3159 93.3159 79.1605 96.4474C79.1373 96.8979 79.1335 97.3504 79.147 97.8009C79.1669 98.5132 79.2315 99.2235 79.3403 99.9278C79.3906 100.253 79.4524 100.576 79.522 100.895C79.9025 102.629 80.5549 104.291 81.4551 105.821V105.831C81.5531 105.998 81.6555 106.165 81.7625 106.33C81.9429 106.615 82.1317 106.893 82.3289 107.165C82.6485 107.606 82.9881 108.029 83.3476 108.435L83.3843 108.478H108.617C108.629 108.464 108.642 108.451 108.654 108.435C109.011 108.029 109.352 107.606 109.669 107.165C109.862 106.892 110.055 106.614 110.237 106.33C110.344 106.166 110.446 106 110.544 105.831V105.821C111.445 104.292 112.098 102.629 112.477 100.895C112.547 100.576 112.609 100.253 112.659 99.9278C112.827 98.8828 112.897 97.8244 112.866 96.7664Z" fill="#EFEFEF"/>
<path d="M107.532 106.345C106.916 107.13 106.221 107.849 105.459 108.493H86.5479C84.3655 106.651 82.7674 104.212 81.9491 101.475C81.9047 101.328 81.8641 101.177 81.8254 101.026C81.7867 100.875 81.7481 100.724 81.7133 100.572C81.6417 100.268 81.5838 99.9607 81.5335 99.6474C81.5103 99.5024 81.4871 99.3555 81.4678 99.2085C81.4484 99.0616 81.433 98.9204 81.4175 98.7773C81.4175 98.7154 81.4059 98.6536 81.4001 98.584C81.3885 98.4622 81.3808 98.3423 81.375 98.2205C81.3614 98.0619 81.3556 97.8995 81.3498 97.7371C81.2898 95.812 81.6095 93.894 82.2907 92.0926C82.9719 90.2911 84.0012 88.6416 85.32 87.2381C86.6387 85.8347 88.2209 84.7049 89.9763 83.9133C91.7316 83.1217 93.6257 82.6837 95.5504 82.6245C95.6277 82.6245 95.7031 82.6245 95.7804 82.6245C96.1052 82.6245 96.4261 82.6245 96.747 82.6399H96.8146C99.4921 82.7882 102.078 83.6681 104.29 85.184C106.502 86.6999 108.256 88.7936 109.362 91.2374C110.467 93.6811 110.881 96.3813 110.559 99.044C110.236 101.707 109.19 104.23 107.534 106.339L107.532 106.345Z" fill="#D8D8D8"/>
<g style="mix-blend-mode:multiply" opacity="0.52">
<path d="M109.671 107.181C109.354 107.621 109.014 108.045 108.657 108.451C108.645 108.466 108.631 108.48 108.62 108.493H83.3987L83.362 108.451C83.0024 108.045 82.6629 107.621 82.3433 107.181H109.671Z" fill="#8E8E8E"/>
</g>
<path d="M129 115.363H62.9984V120H129V115.363Z" fill="#7A7A7A"/>
<path style="mix-blend-mode:multiply" d="M112.469 100.901C112.539 100.581 112.599 100.26 112.649 99.9299C112.819 98.8889 112.889 97.8278 112.859 96.7668C112.849 96.3864 112.819 96.016 112.789 95.6456C112.42 91.7618 110.693 88.1181 107.938 85.3654C108.357 85.6557 108.806 85.8959 109.285 86.0661C109.904 86.2963 110.573 86.3864 111.232 86.3263C111.891 86.2663 112.529 86.0561 113.108 85.7157L113.348 85.5656C113.578 85.4254 113.797 85.2553 113.987 85.0651C114.336 84.7147 114.606 84.2943 114.775 83.8338C114.945 83.3734 115.005 82.8729 114.965 82.3824L114.436 76.4264L114.137 72.963C114.097 72.5926 114.037 72.2222 113.947 71.8519L109.026 52.0721C109.495 51.6416 109.954 51.2012 110.413 50.7608L110.703 50.4805C111.202 49.99 111.661 49.4495 111.851 48.7888C112.09 47.9479 111.831 47.047 111.531 46.2162C109.565 40.7407 105.761 36.997 101.789 32.9429C99.0833 30.1502 95.899 27.4474 93.4035 24.4144C93.2138 24.1842 93.0142 23.9439 92.8345 23.7037L88.642 18.2583C88.612 18.2282 88.5921 18.1982 88.5721 18.1782C86.7953 15.5455 85.2081 13.6336 83.8006 12.2422C80.0074 8.48849 77.5018 8.55856 75.8048 8.75876L75.3556 8.80881L54.8622 11.2813C50.4301 11.8118 45.9281 11.2412 41.7655 9.61962C36.2254 7.44745 29.0083 4.63463 28.7487 4.57457L24.3166 2.73273L20.2439 0.0600601L20.1541 0L20.1141 0.0600601L0 30.5806L10.9006 37.5876L18.2475 45.8659C23.1288 51.3614 28.7587 56.1461 34.9577 60.0901L38.9306 62.6026C39.5495 62.993 40.1484 63.4234 40.7174 63.8839L51.6479 72.7027L57.1281 76.8368C59.0847 78.3083 60.7417 80.1301 62.0194 82.2122L64.5749 86.3463C64.8344 86.7668 65.074 87.2072 65.2736 87.6577L67.0305 91.5816L70.1948 98.6086L70.2448 98.7287C70.4644 99.2092 70.8038 99.6096 71.253 99.8999C71.6922 100.18 72.2013 100.34 72.7303 100.34H72.7503C72.9 100.34 73.0398 100.34 73.1795 100.32C73.5189 100.29 73.8483 100.23 74.1777 100.13C74.3175 100.09 74.4573 100.04 74.597 99.98C74.9065 99.8599 75.2059 99.6997 75.4854 99.5195C76.5635 98.8088 77.4819 97.8879 78.1906 96.8168L78.2904 96.6667L78.5899 96.2162C78.8993 95.7457 79.1289 95.2152 79.2787 94.6647L79.6979 93.0731C79.8277 92.5726 79.8676 92.042 79.8177 91.5215L78.9692 83.023L77.961 79.5996C77.1225 76.7067 75.7849 73.974 74.018 71.5315L73.1895 70.3904C73.0098 70.1401 72.8401 69.8799 72.6804 69.6196L67.3899 60.8909C66.7011 59.7598 66.2219 58.5185 65.9624 57.2172L64.7546 51.031C64.3054 48.7588 64.4152 46.4164 65.054 44.1842L65.7029 41.9219C66.0123 40.8609 66.6212 39.9099 67.4697 39.1992C68.0287 38.7287 68.7275 38.4484 69.4661 38.4084C70.1948 38.3684 70.9236 38.5786 71.5325 38.989L80.2369 44.9249L79.3386 45.6156C76.4337 47.8679 73.499 50.0701 70.5243 52.2723C69.7856 52.8228 69.0169 53.3934 68.5578 54.1942C68.5378 54.2242 68.5278 54.2543 68.5079 54.2843C68.3681 54.5546 68.2882 54.8549 68.2783 55.1552C68.2683 55.4555 68.3182 55.7558 68.428 56.046C68.5378 56.3263 68.7175 56.5766 68.9371 56.7868C69.0369 56.8769 69.1467 56.967 69.2665 57.037C69.2665 57.037 69.2665 57.037 69.2665 57.047C69.4063 57.1371 69.556 57.2072 69.7157 57.2573H69.7457C68.6776 58.1982 67.9089 59.3994 68.2783 60.7007C68.3382 60.9209 68.428 61.1211 68.5478 61.3213C68.5478 61.3213 68.5478 61.3313 68.5478 61.3413C69.2266 62.4725 70.7239 62.993 72.0715 63.2432C72.6605 63.3534 73.2494 63.4434 73.8483 63.5135C75.176 63.6236 76.304 63.6837 76.304 63.6837V63.6637C76.8031 63.6637 77.3022 63.6637 77.8013 63.6537C78.9792 63.6136 80.1471 63.5035 81.305 63.3033L81.4648 63.2733H81.4847L81.4648 63.2933L81.355 63.4535C80.5264 64.6446 79.7977 65.9059 79.1788 67.2172C78.7995 68.028 78.7596 68.959 79.059 69.7998C79.3585 70.6406 79.9774 71.3313 80.786 71.7217L80.8958 71.7718C81.2352 71.9219 81.5845 72.022 81.9539 72.0821C82.3332 72.1421 82.7125 72.1622 83.0919 72.1522C84.2398 72.1121 85.3678 71.7718 86.4559 71.3313H86.4858C86.6755 71.2412 86.8551 71.1712 87.0448 71.0911C87.3842 70.9509 87.7136 70.8008 88.043 70.6406H88.063C88.063 70.6406 88.1329 70.6006 88.1628 70.5906C88.8715 70.2703 89.3707 70.03 89.3707 70.03L89.3507 69.98C91.437 68.8088 93.3935 67.3974 95.1603 65.7858C95.6295 65.3854 96.0787 64.965 96.5279 64.5345C96.8773 65.6557 97.2766 66.7668 97.7258 67.8478L98.724 70.2703C100.291 74.0841 102.248 77.7177 104.574 81.1211L106.44 83.8539C106.55 84.014 106.67 84.1742 106.8 84.3243C104.394 82.3223 101.479 81.031 98.3746 80.5906C95.2701 80.1502 92.1058 80.5906 89.2309 81.8418C86.356 83.1031 83.9004 85.1351 82.1136 87.7177C80.3368 90.3003 79.3086 93.3233 79.1589 96.4565C79.1389 96.9069 79.1289 97.3574 79.1489 97.8078C79.1689 98.5185 79.2287 99.2292 79.3386 99.9299C79.3885 100.25 79.4484 100.581 79.5182 100.901H71.1332L62.9977 115.365V120H129V115.365L120.865 100.901H112.479H112.469ZM90.8081 52.2523L90.1992 51.7818V51.7518C90.3888 51.8919 90.5685 52.042 90.7482 52.1922L90.8081 52.2422V52.2523Z" fill="url(#paint2_linear_640_794)"/>
<path d="M134.628 83.8507L129.946 91.1653L128.724 93.0718C128.627 93.2754 128.502 93.4642 128.352 93.6325L128.324 93.6615C128.258 93.7303 128.187 93.7949 128.113 93.8549L128.028 93.9226C127.73 94.1657 127.377 94.3332 127 94.4107C126.623 94.4883 126.232 94.4736 125.862 94.368C125.492 94.2623 125.153 94.0688 124.874 93.804C124.595 93.5392 124.385 93.211 124.261 92.8475L118.487 83.7598C118.194 83.3 118.069 82.7537 118.134 82.213C118.134 82.1821 118.134 82.1492 118.147 82.1183L118.165 82.0158C118.165 81.9771 118.182 81.9384 118.192 81.8998C118.202 81.8611 118.213 81.8186 118.225 81.778L118.242 81.7277C118.253 81.6915 118.266 81.656 118.281 81.6213C118.297 81.5807 118.314 81.5421 118.331 81.5034C118.366 81.4261 118.405 81.3506 118.448 81.2752L118.5 81.1901C118.524 81.1534 118.549 81.1186 118.574 81.0838C118.656 80.9688 118.749 80.8626 118.853 80.7667C118.888 80.7338 118.923 80.701 118.96 80.67C118.997 80.6391 119.036 80.6101 119.074 80.5811L119.092 80.5675L119.123 80.5463C119.156 80.5211 119.189 80.4999 119.222 80.4786L119.253 80.4593H119.266C119.556 80.285 119.88 80.1742 120.217 80.1344C120.665 80.081 121.12 80.155 121.528 80.348C121.936 80.5409 122.281 80.8449 122.523 81.225L124.146 83.7792V60.5766C124.146 60.5224 124.146 60.4683 124.146 60.4142C124.152 60.3377 124.161 60.2615 124.174 60.186C124.174 60.1435 124.189 60.1009 124.199 60.0584C124.209 60.0158 124.218 59.9772 124.23 59.9366C124.242 59.896 124.255 59.8496 124.269 59.809C124.349 59.5734 124.467 59.3521 124.618 59.1535C124.686 59.0547 124.762 58.9616 124.845 58.8751C124.88 58.8402 124.917 58.8054 124.955 58.7726C124.994 58.7381 125.034 58.7059 125.076 58.6759C125.186 58.5876 125.304 58.5112 125.43 58.4477C125.531 58.3951 125.635 58.3505 125.743 58.3143C125.901 58.258 126.065 58.2191 126.232 58.1983C126.33 58.1866 126.429 58.1808 126.528 58.1809C127.163 58.1824 127.771 58.4343 128.219 58.8814C128.668 59.3286 128.92 59.9346 128.922 60.5669V83.8797L129.915 82.3329L130.586 81.2868C130.618 81.2353 130.653 81.185 130.691 81.136C130.752 81.0613 130.816 80.9897 130.885 80.9214C130.969 80.831 131.062 80.7487 131.162 80.6758C131.203 80.643 131.244 80.6159 131.284 80.5888L131.309 80.5714C131.36 80.5379 131.412 80.507 131.467 80.4786C131.523 80.4477 131.581 80.4206 131.639 80.3955C131.695 80.3703 131.752 80.3471 131.81 80.3278C132.279 80.1626 132.789 80.1477 133.267 80.2853C133.746 80.4229 134.169 80.706 134.478 81.0951C134.788 81.4842 134.967 81.9599 134.992 82.4557C135.017 82.9515 134.885 83.4426 134.617 83.8604L134.628 83.8507Z" fill="#1180EF"/>
<path d="M129.725 92.3853C129.605 92.6528 129.435 92.895 129.224 93.0988C129.158 93.1689 129.086 93.2336 129.009 93.2922L128.964 93.327C128.955 93.3352 128.945 93.3423 128.933 93.3483L128.842 93.4101C128.687 93.5081 128.521 93.5872 128.348 93.646C127.839 93.8228 127.285 93.8236 126.775 93.6482C126.266 93.4728 125.83 93.1315 125.539 92.6793L125.244 92.2152L119.474 83.1275C119.235 82.7525 119.106 82.3186 119.102 81.8746C119.097 81.4305 119.216 80.994 119.447 80.6139C119.523 80.485 119.612 80.3639 119.712 80.2523C119.803 80.1485 119.904 80.054 120.013 79.97L120.029 79.9584C120.098 79.9043 120.157 79.8637 120.223 79.8269C120.289 79.7902 120.29 79.7883 120.323 79.7689C120.33 79.7672 120.337 79.7672 120.343 79.7689L120.479 79.7013C120.613 79.6362 120.754 79.5856 120.9 79.5504H120.913C120.958 79.5504 121.004 79.5292 121.051 79.5214C121.097 79.5137 121.146 79.506 121.192 79.4982H121.21L121.344 79.4866H121.489H121.565C121.635 79.4866 121.704 79.4866 121.772 79.5021H121.796C121.862 79.5021 121.928 79.5214 121.99 79.535H122.009C122.079 79.5504 122.149 79.5698 122.218 79.5911C122.36 79.6359 122.498 79.6935 122.63 79.7631C122.717 79.8099 122.801 79.8615 122.882 79.9178C123.134 80.0967 123.349 80.3226 123.514 80.583L124.143 81.5729L125.136 83.1352L127.549 86.9115L129.575 90.1018C129.663 90.2409 129.737 90.3886 129.795 90.5427C129.872 90.7425 129.922 90.952 129.942 91.1653C129.979 91.584 129.904 92.0049 129.725 92.3853Z" fill="#10BFF1"/>
<path d="M135.622 83.1894L129.73 92.3854L129.72 92.4009L129.526 92.6986C129.4 92.8967 129.244 93.0746 129.064 93.2265L129.02 93.2632L128.975 93.298C128.937 93.3292 128.897 93.3582 128.855 93.385C128.799 93.4218 128.74 93.4585 128.682 93.4914L128.593 93.5378C128.531 93.5707 128.466 93.5985 128.399 93.6209C128.37 93.6345 128.34 93.6461 128.31 93.6557H128.3C127.957 93.7779 127.591 93.8204 127.229 93.7798C126.866 93.7393 126.519 93.6168 126.211 93.4218C125.755 93.1254 125.413 92.6832 125.242 92.1678C125.072 91.6524 125.081 91.0943 125.27 90.5853C125.327 90.435 125.399 90.2912 125.486 90.156L127.553 86.9115L129.924 83.2146L131.59 80.6139C131.659 80.5063 131.736 80.4048 131.823 80.3104L131.834 80.2988C131.855 80.2736 131.881 80.2485 131.904 80.2234L131.925 80.204C131.95 80.1774 131.977 80.1522 132.005 80.1286C132.098 80.0413 132.2 79.9636 132.309 79.8966C132.414 79.8272 132.525 79.7676 132.641 79.7187C133.093 79.5195 133.596 79.4648 134.08 79.5621C134.37 79.6184 134.646 79.7286 134.895 79.8869C135.43 80.2289 135.808 80.7688 135.944 81.3881C136.081 82.0073 135.965 82.6553 135.622 83.1894Z" fill="#10BFF1"/>
<path d="M129.922 59.9075V89.7944C129.92 90.3579 129.718 90.9026 129.352 91.3319C128.986 91.7613 128.479 92.0476 127.922 92.1403C127.364 92.2329 126.792 92.1259 126.306 91.838C125.82 91.5502 125.452 91.1003 125.267 90.5678C125.179 90.3194 125.133 90.0579 125.133 89.7944V59.9075C125.132 59.5046 125.236 59.1083 125.433 58.7571C125.52 58.5982 125.626 58.4502 125.748 58.3162C125.853 58.1985 125.97 58.0917 126.097 57.9972L126.161 57.9527L126.215 57.916L126.231 57.9044C126.371 57.8132 126.521 57.738 126.679 57.6801C126.731 57.6607 126.783 57.6414 126.838 57.6259C126.892 57.6105 126.948 57.595 127.003 57.5834L127.158 57.5525H127.179C127.224 57.5525 127.268 57.5409 127.313 57.537H127.392H127.52C128.153 57.5365 128.761 57.7853 129.211 58.2293C129.661 58.6733 129.916 59.2765 129.922 59.9075Z" fill="#10BFF1"/>
<path style="mix-blend-mode:multiply" d="M135.621 83.1895L129.725 92.3932L129.715 92.4086C129.594 92.6603 129.431 92.8892 129.232 93.0854C129.178 93.138 129.121 93.1878 129.061 93.2343L129.017 93.271L128.943 93.3271L128.862 93.387C128.805 93.4237 128.747 93.4605 128.689 93.4934L128.6 93.5398C128.54 93.5707 128.478 93.5978 128.406 93.6229L128.321 93.6538H128.311C128.247 93.7215 128.181 93.7873 128.117 93.8472L128.032 93.9149C127.734 94.158 127.381 94.3255 127.004 94.403C126.627 94.4806 126.236 94.4659 125.866 94.3603C125.496 94.2546 125.157 94.0611 124.878 93.7963C124.599 93.5315 124.389 93.2033 124.265 92.8398L118.491 83.7521C118.198 83.2923 118.073 82.746 118.138 82.2053C118.138 82.1744 118.138 82.1415 118.151 82.1105L118.169 82.0081C118.169 81.9694 118.186 81.9307 118.196 81.8921C118.205 81.8534 118.217 81.8108 118.229 81.7702L118.246 81.72C118.257 81.6838 118.27 81.6483 118.285 81.6136C118.3 81.573 118.318 81.5343 118.335 81.4957C118.37 81.4183 118.409 81.3429 118.452 81.2675L118.504 81.1824C118.527 81.1457 118.553 81.1109 118.578 81.0761C118.661 80.962 118.754 80.8559 118.857 80.759C118.892 80.7261 118.927 80.6933 118.964 80.6623C119.001 80.6314 119.039 80.6024 119.078 80.5734L119.1 80.5598L119.131 80.5386C119.164 80.5134 119.197 80.4922 119.23 80.4709L119.261 80.4516H119.274L120.021 79.9604L120.036 79.9488C120.106 79.8947 120.164 79.8541 120.23 79.8174C120.296 79.7806 120.298 79.7787 120.331 79.7594L120.351 79.7478L120.486 79.6801C120.622 79.617 120.763 79.5665 120.907 79.5293H120.921C120.966 79.5293 121.012 79.508 121.059 79.5003C121.105 79.4925 121.154 79.4848 121.2 79.4771H121.218L121.352 79.4655C121.799 79.4388 122.245 79.5358 122.641 79.7458C122.728 79.793 122.812 79.8446 122.894 79.9005C123.145 80.0794 123.36 80.3053 123.526 80.5656L124.154 81.5556V60.5689C124.154 60.5147 124.154 60.4606 124.154 60.4065C124.159 60.33 124.168 60.2538 124.181 60.1783C124.181 60.1358 124.197 60.0932 124.207 60.0507C124.216 60.0081 124.226 59.9695 124.238 59.9289C124.249 59.8883 124.263 59.8419 124.276 59.8013C124.359 59.5664 124.476 59.3453 124.626 59.1458C124.726 59.0133 124.84 58.8915 124.965 58.7823H124.977L125.083 58.6953C125.193 58.6101 125.309 58.535 125.432 58.471L126.094 58.0185L126.158 57.974L126.212 57.9373L126.228 57.9257C126.369 57.8347 126.519 57.7589 126.676 57.6995C126.728 57.6801 126.781 57.6608 126.835 57.6453C126.889 57.6299 126.945 57.6144 127 57.6028L127.155 57.5719H127.176C127.221 57.5719 127.265 57.5603 127.31 57.5564H127.39H127.518C128.152 57.5579 128.76 57.8098 129.208 58.2569C129.657 58.7041 129.91 59.3101 129.911 59.9424V82.3716L130.582 81.3255C130.614 81.274 130.649 81.2237 130.687 81.1747C130.748 81.1 130.813 81.0283 130.881 80.9601C130.965 80.8696 131.058 80.7874 131.158 80.7145C131.199 80.6817 131.24 80.6546 131.28 80.6275L131.306 80.6101C131.356 80.5766 131.408 80.5457 131.463 80.5173C131.519 80.4864 131.577 80.4593 131.635 80.4342C131.692 80.409 131.748 80.3858 131.806 80.3665L131.818 80.3549C131.839 80.3298 131.864 80.3046 131.888 80.2795L131.909 80.2601C131.934 80.2335 131.96 80.2084 131.988 80.1847C132.083 80.0992 132.185 80.0216 132.293 79.9527C132.399 79.8851 132.51 79.8257 132.625 79.7748C133.077 79.5766 133.579 79.522 134.064 79.6182C134.353 79.6745 134.63 79.7847 134.878 79.943C135.401 80.2819 135.771 80.8102 135.91 81.4162C136.048 82.0222 135.945 82.6582 135.621 83.1895Z" fill="url(#paint3_linear_640_794)"/>
<path style="mix-blend-mode:multiply" opacity="0.45" d="M118.475 83.7752C118.182 83.3154 118.058 82.7691 118.122 82.2284C118.122 82.1975 118.122 82.1646 118.136 82.1336L118.153 82.0312C118.153 81.9925 118.17 81.9538 118.18 81.9152C118.19 81.8765 118.201 81.834 118.213 81.7934L118.231 81.7431C118.241 81.7069 118.254 81.6714 118.269 81.6367C118.285 81.5961 118.302 81.5575 118.32 81.5188C118.355 81.4414 118.393 81.366 118.436 81.2906L118.489 81.2055C118.512 81.1688 118.537 81.134 118.562 81.0992C118.644 80.9842 118.738 80.878 118.842 80.7821C118.876 80.7492 118.911 80.7164 118.948 80.6854C118.985 80.6545 119.024 80.6255 119.063 80.5965L119.084 80.583L119.115 80.5617C119.148 80.5365 119.181 80.5153 119.214 80.494L119.245 80.4747H119.259L120.005 79.9835L120.021 79.9719C120.091 79.9178 120.149 79.8772 120.215 79.8405C120.281 79.8037 120.283 79.8018 120.316 79.7825L120.335 79.7709L120.471 79.7032C120.605 79.6381 120.746 79.5876 120.892 79.5524H120.905C120.95 79.5524 120.996 79.5311 121.043 79.5234C121.09 79.5156 121.138 79.5079 121.185 79.5002H121.202L121.336 79.4886H121.481H121.557C121.627 79.4886 121.697 79.4886 121.765 79.504H121.799C121.865 79.504 121.931 79.5234 121.993 79.5369H122.013C122.083 79.5524 122.152 79.5717 122.222 79.593C122.364 79.6378 122.502 79.6954 122.633 79.7651C122.72 79.8118 122.805 79.8634 122.886 79.9197C123.138 80.0986 123.352 80.3245 123.518 80.5849L124.146 81.5749V60.5688C124.146 60.5146 124.146 60.4605 124.146 60.4064C124.151 60.3299 124.161 60.2537 124.174 60.1782C124.174 60.1357 124.189 60.0931 124.199 60.0506C124.208 60.008 124.218 59.9694 124.23 59.9288C124.241 59.8882 124.255 59.8418 124.269 59.8012C124.349 59.5656 124.467 59.3443 124.618 59.1457C124.686 59.0496 124.762 58.9591 124.845 58.875C124.88 58.8402 124.916 58.8054 124.955 58.7725C124.993 58.7381 125.034 58.7058 125.075 58.6758C125.185 58.5876 125.304 58.5111 125.43 58.4477L126.092 57.9952L126.156 57.9507L126.21 57.914L126.226 57.9024C126.366 57.8113 126.516 57.736 126.674 57.6781C126.726 57.6588 126.778 57.6394 126.833 57.624C126.887 57.6085 126.943 57.593 126.998 57.5814L127.153 57.5505H127.174C127.219 57.5505 127.263 57.5389 127.308 57.535H127.387H127.516C128.15 57.5366 128.758 57.7884 129.206 58.2356C129.655 58.6827 129.907 59.2887 129.909 59.921V82.3502L130.58 81.3042C130.612 81.2526 130.647 81.2023 130.685 81.1533C130.746 81.0786 130.811 81.007 130.879 80.9387C130.963 80.8483 131.056 80.7661 131.156 80.6932C131.197 80.6603 131.238 80.6332 131.278 80.6062L131.304 80.5887C131.354 80.5552 131.406 80.5243 131.461 80.4959C131.517 80.465 131.575 80.4379 131.633 80.4128C131.69 80.3877 131.746 80.3645 131.804 80.3451L131.816 80.3335C131.837 80.3084 131.862 80.2833 131.885 80.2581L131.907 80.2388C131.932 80.2122 131.958 80.187 131.986 80.1634C132.08 80.0761 132.182 79.9984 132.291 79.9313C132.396 79.8619 132.507 79.8024 132.623 79.7534C133.074 79.5543 133.577 79.4996 134.062 79.5968C134.351 79.6531 134.628 79.7633 134.876 79.9217C135.408 80.2635 135.782 80.8005 135.918 81.416C136.054 82.0316 135.941 82.6758 135.604 83.2087L129.707 92.4124C129.591 92.6685 129.429 92.9012 129.228 93.0988C129.162 93.1689 129.09 93.2336 129.013 93.2922L128.968 93.327C128.93 93.3581 128.89 93.3872 128.848 93.414C128.792 93.4507 128.734 93.4875 128.675 93.5203L128.586 93.5667C128.524 93.5996 128.459 93.6274 128.392 93.6499C128.363 93.6635 128.333 93.6751 128.303 93.6847C128.237 93.7534 128.166 93.818 128.092 93.878L128.006 93.9457C127.708 94.1888 127.355 94.3563 126.978 94.4339C126.601 94.5114 126.211 94.4968 125.841 94.3911C125.47 94.2854 125.131 94.0919 124.852 93.8271C124.574 93.5624 124.363 93.2342 124.239 92.8707L118.475 83.7752Z" fill="url(#paint4_linear_640_794)"/>
<defs>
<linearGradient id="paint0_linear_640_794" x1="97.4533" y1="22.7833" x2="96.9886" y2="165.373" gradientUnits="userSpaceOnUse">
<stop offset="0.0318464" stop-color="#4053C1"/>
<stop offset="0.508717" stop-color="#634FE1" stop-opacity="0.62"/>
<stop offset="0.83737" stop-color="#0067AD" stop-opacity="0"/>
</linearGradient>
<linearGradient id="paint1_linear_640_794" x1="109" y1="85" x2="-70.8906" y2="-41.0199" gradientUnits="userSpaceOnUse">
<stop offset="0.209704" stop-color="#E2C4B4"/>
<stop offset="0.37594" stop-color="#E2C4B4" stop-opacity="0.51"/>
<stop offset="0.535443" stop-color="#E2C4B4" stop-opacity="0"/>
</linearGradient>
<linearGradient id="paint2_linear_640_794" x1="11.5" y1="11.5" x2="112.5" y2="116.5" gradientUnits="userSpaceOnUse">
<stop offset="0.100372" stop-color="#4053C1" stop-opacity="0.29"/>
<stop offset="0.332367" stop-color="#7193C7"/>
<stop offset="0.724022" stop-color="#4C6EC5" stop-opacity="0.87045"/>
<stop offset="0.955434" stop-color="#4B9ACF"/>
</linearGradient>
<linearGradient id="paint3_linear_640_794" x1="127.052" y1="57.5216" x2="127.052" y2="94.4737" gradientUnits="userSpaceOnUse">
<stop stop-color="#4053C1"/>
<stop offset="0.1" stop-color="#3D57C3" stop-opacity="0.95"/>
<stop offset="0.27" stop-color="#3663C9" stop-opacity="0.82"/>
<stop offset="0.49" stop-color="#2A76D3" stop-opacity="0.61"/>
<stop offset="0.74" stop-color="#1A90E0" stop-opacity="0.33"/>
<stop offset="1" stop-color="#07ADEF" stop-opacity="0"/>
</linearGradient>
<linearGradient id="paint4_linear_640_794" x1="127.052" y1="22.7002" x2="127.052" y2="105.361" gradientUnits="userSpaceOnUse">
<stop offset="0.24" stop-color="#4053C1"/>
<stop offset="0.37" stop-color="#6C3CD0" stop-opacity="0.88"/>
<stop offset="0.45" stop-color="#7D33D6" stop-opacity="0.83"/>
<stop offset="0.53" stop-color="#5963DF" stop-opacity="0.88"/>
<stop offset="0.61" stop-color="#398DE6" stop-opacity="0.92"/>
<stop offset="0.71" stop-color="#108EEC" stop-opacity="0.98"/>
<stop offset="0.76" stop-color="#008EEF"/>
</linearGradient>
</defs>
</svg>
