<svg width="173" height="145" viewBox="0 0 173 145" fill="none" xmlns="http://www.w3.org/2000/svg">
<path d="M172 145H26C26.0847 128.99 36.6264 114.712 53.0793 105.354L53.2238 105.272C53.324 105.216 53.426 105.157 53.5281 105.102C53.6302 105.047 53.7535 104.975 53.8671 104.906C54.1156 104.77 54.366 104.633 54.6183 104.498L54.6607 104.474L54.9958 104.296L55.0883 104.247L55.2231 104.175C55.4542 104.052 55.6873 103.931 55.9223 103.811L56.1785 103.68L56.5021 103.516L56.5232 103.506L56.8834 103.326L56.9142 103.31C57.1069 103.217 57.2995 103.125 57.4786 103.035C57.5634 102.992 57.65 102.949 57.7386 102.909L57.7983 102.88C57.9351 102.812 58.0718 102.747 58.2105 102.685C58.6933 102.454 59.1819 102.228 59.6763 102.008C60.2041 101.769 60.737 101.536 61.275 101.308C61.6076 101.167 61.9427 101.027 62.2804 100.889L62.344 100.863L62.4788 100.809L62.6059 100.758L62.8775 100.648H62.8949L63.2801 100.496C63.4727 100.418 63.6826 100.337 63.8849 100.261C64.1334 100.163 64.3837 100.065 64.6341 99.9755L65.5009 99.6547C66.202 99.4004 66.9082 99.1546 67.6196 98.9173C67.9779 98.796 68.3394 98.6774 68.704 98.5613C69.0199 98.4596 69.3377 98.3599 69.6575 98.2621L70.2565 98.0782L70.738 97.9354L70.8555 97.9002L71.572 97.6929L72.1499 97.5305L73.0185 97.2938L73.5386 97.1569L74.0259 97.0318L74.6712 96.8694L75.0872 96.7657L75.9771 96.5545H76.0156L76.3257 96.4841L76.4162 96.4645L77.1 96.31L77.5912 96.2024H77.6335C78.0573 96.1105 78.481 96.0225 78.9086 95.9364L79.0107 95.9168L79.0704 95.9051L79.1975 95.8797H79.2322L79.4248 95.8425L79.785 95.7741C80.0316 95.7271 80.28 95.6802 80.5285 95.6371C80.6749 95.6078 80.8213 95.5824 80.9677 95.5569H81.0197L81.1449 95.5354C81.4338 95.4826 81.7227 95.4337 82.0135 95.3848L82.47 95.3105L82.5606 95.2968C82.678 95.2753 82.7955 95.2577 82.915 95.2381L83.0228 95.2205H83.0691C83.3195 95.1814 83.5718 95.1423 83.8241 95.1071C84.4482 95.0132 85.0748 94.9258 85.704 94.845C86.1951 94.7804 86.6882 94.7218 87.1832 94.6631C87.6783 94.6044 88.1713 94.5555 88.6683 94.5066C89.1652 94.4577 89.6179 94.4147 90.0955 94.3755C90.2978 94.356 90.5 94.3403 90.7042 94.3247C91.1588 94.2875 91.6133 94.2543 92.0717 94.2249C92.8152 94.1741 93.5626 94.133 94.3137 94.1017C94.6393 94.0861 94.9667 94.0724 95.2941 94.0626C95.6216 94.0528 95.9452 94.0391 96.2707 94.0332C96.9371 94.0137 97.6055 94.0039 98.2777 94C98.5165 94 98.7554 94 98.9961 94H99.5412C100.055 94 100.563 94.0065 101.067 94.0196H101.219H101.412H101.496L102.13 94.0352L102.475 94.0469H102.596L102.868 94.0567H102.924H103.056H103.157H103.322L103.621 94.0704H103.713H103.769L103.983 94.0802L104.503 94.1076L104.765 94.1213H104.801H104.994L105.379 94.1447C105.661 94.1604 105.942 94.18 106.221 94.1995L106.799 94.2406H106.907L107.201 94.2621C107.587 94.2934 107.972 94.3247 108.357 94.3599C109.051 94.4225 109.741 94.4916 110.428 94.5672L111.05 94.6376C111.537 94.6924 112.013 94.753 112.504 94.8176C112.77 94.8508 113.034 94.888 113.298 94.9252L113.44 94.9447L113.633 94.9721C114.548 95.1025 115.456 95.2453 116.356 95.4005C116.87 95.4865 117.378 95.5778 117.88 95.6743H117.909L118.583 95.8034L119.161 95.9168L119.758 96.0401L120.417 96.179L120.75 96.2513C121.01 96.308 121.27 96.3648 121.52 96.4254C121.99 96.531 122.458 96.6425 122.924 96.756L123.13 96.8049L123.323 96.8538L124.051 97.0376L124.531 97.1628L124.723 97.2137L124.841 97.245L125.245 97.3525L125.32 97.3741C125.635 97.4575 125.947 97.5442 126.257 97.6342C126.32 97.6498 126.384 97.6674 126.449 97.687L126.746 97.7711L126.938 97.8278C153.322 105.519 171.888 123.733 172 145Z" fill="url(#paint0_linear_632_1051)"/>
<path d="M172 145H25.2181C25.3343 124.047 43.9125 106.094 70.3139 98.4812C71.2046 98.2236 72.1031 97.9789 73.0094 97.7471C74.7793 97.2925 76.5802 96.8843 78.412 96.5224C78.7044 96.4664 78.993 96.4085 79.2931 96.3544C80.0354 96.2153 80.7822 96.0865 81.5336 95.9681C91.1863 94.4023 101.009 94.1703 110.725 95.2784C111.483 95.3634 112.236 95.4581 112.985 95.5624C146.551 100.15 171.868 120.527 172 145Z" fill="url(#paint1_linear_632_1051)"/>
<path d="M121.07 100.803L129.222 115.252H63.1064L71.2608 100.803H121.07Z" fill="#D6D6D6"/>
<path d="M120.824 108.346H71.5048L72.746 105.744H119.581L120.824 108.346Z" fill="#2168A3"/>
<path d="M99.5037 39.275C99.2481 39.1862 98.3263 39.982 97.2148 41.0715C96.6339 41.6336 96.0181 42.2749 95.4081 42.9124C93.9287 44.4577 92.5383 46.0031 92.1782 46.3527C92.1665 46.3662 92.1549 46.3759 92.1452 46.3856C92.0252 46.4995 91.9051 46.6154 91.787 46.7333C91.3513 47.1544 90.9233 47.5832 90.4973 48.014C89.7634 48.7577 89.0411 49.5091 88.3053 50.247L88.2917 50.2605C87.8541 50.699 87.4145 51.1336 86.9672 51.5567C85.4064 53.0383 83.7488 54.4136 81.8182 55.505C78.2164 57.543 73.7607 58.4702 69.8724 57.1953H69.8491L69.8143 57.1837C69.526 57.0877 69.262 56.9307 69.0403 56.7234C68.8186 56.5161 68.6444 56.2634 68.5298 55.9826C68.4152 55.7019 68.3629 55.3997 68.3763 55.0969C68.3898 54.7941 68.4688 54.4977 68.6079 54.2282C68.6234 54.1973 68.6388 54.1702 68.6563 54.1413C69.121 53.3416 69.8859 52.7679 70.6295 52.2193C73.6077 50.0191 76.5531 47.8131 79.4596 45.5646L80.3582 44.8711C81.2076 44.2105 82.0545 43.546 82.8988 42.8776C84.8442 41.3323 86.7736 39.7625 88.6868 38.1682C89.4355 37.541 90.183 36.9074 90.9292 36.2674L91.0279 36.3022L96.0975 38.0851L99.5037 39.275Z" fill="#FCDBCA"/>
<g style="mix-blend-mode:multiply" opacity="0.49">
<path d="M90.4973 48.0216C89.7634 48.7653 89.0411 49.5168 88.3052 50.2547L88.2917 50.2682C87.8541 50.7067 87.4145 51.1413 86.9672 51.5644C85.4064 53.046 83.7488 54.4213 81.8182 55.5127C78.2164 57.5506 73.7607 58.4779 69.8723 57.2029H69.8491L69.8142 57.1913C69.658 57.1396 69.5085 57.0695 69.3688 56.9827C69.5625 56.4863 70.0466 55.7812 71.1852 54.9293C72.8351 53.695 78.1002 52.733 80.6737 51.8387C81.8705 51.4233 83.7333 50.3088 83.0517 49.2444C82.7541 48.786 82.4116 48.3583 82.0293 47.9676C81.886 47.8246 80.2865 46.3314 79.4596 45.5645L80.3581 44.8711C81.2076 44.2104 82.0544 43.5459 82.8987 42.8776L84.5331 43.2117L89.5814 45.4564C89.5814 45.4564 90.0655 46.797 90.4973 48.0216Z" fill="#8E8E8E"/>
</g>
<path d="M91.1615 52.3545L90.4218 56.1077L89.9686 58.3987L87.2208 61.6208C85.4881 62.3181 83.6881 62.8359 81.8492 63.1661C81.7678 63.1796 81.6845 63.197 81.6013 63.2086H81.58L81.4173 63.2357C80.2552 63.4271 79.0818 63.5426 77.9046 63.5814C77.4037 63.5995 76.9022 63.5995 76.4 63.5814C75.5777 63.5621 74.7579 63.5048 73.9407 63.4095C73.3463 63.34 72.7518 63.2492 72.1631 63.1371C70.8211 62.8841 69.3243 62.3645 68.6388 61.2615V61.248C68.5202 61.0561 68.4289 60.8487 68.3677 60.6317C67.9959 59.3259 68.7782 58.1206 69.8607 57.1837L69.8839 57.1644C70.3248 56.7897 70.8015 56.4591 71.3072 56.1773C74.7327 54.2456 78.6521 54.0737 82.0331 52.424C83.2597 51.8055 84.4541 51.1253 85.6116 50.3861C86.1151 50.0751 86.6128 49.7641 87.1124 49.4608H87.1259L88.311 50.2625L90.3559 51.6378V51.7286L90.9678 52.2038L91.1615 52.3545Z" fill="#FCDBCA"/>
<g style="mix-blend-mode:multiply" opacity="0.49">
<path d="M91.1615 52.3545L90.4218 56.1077L89.9687 58.3987L87.2209 61.6208C85.4881 62.3181 83.6881 62.8359 81.8492 63.1661C81.7679 63.1796 81.6846 63.197 81.6013 63.2086H81.58L81.4174 63.2357C80.2553 63.4271 79.0819 63.5426 77.9047 63.5814C79.0396 62.5809 80.0949 61.494 81.0611 60.3304C82.6102 58.3987 85.3212 55.6944 86.2894 54.7285C86.5121 54.5064 87.0214 54.0041 87.5016 53.5251C87.5989 53.4278 87.6758 53.3123 87.7278 53.1851C87.7798 53.0579 87.806 52.9217 87.8047 52.7843C87.8035 52.647 87.7748 52.5113 87.7204 52.3851C87.6661 52.2589 87.5871 52.1447 87.4881 52.0493C87.3196 51.887 87.1453 51.7247 86.9672 51.5644C86.5218 51.1588 86.0551 50.7589 85.6117 50.3861C86.1151 50.0751 86.6128 49.7641 87.1124 49.4608H87.126L88.3111 50.2625L90.3559 51.6378V51.7286L90.9678 52.2038L91.1615 52.3545Z" fill="#8E8E8E"/>
</g>
<path d="M112.036 48.7576C111.843 49.4202 111.384 49.9553 110.888 50.4459L110.597 50.726C110.139 51.1645 109.674 51.5992 109.209 52.0319C107.66 53.4787 106.086 54.9139 104.562 56.3955C104.056 56.8888 103.557 57.3878 103.065 57.8926C101.87 59.125 100.716 60.3613 99.5579 61.5628C98.6129 62.5499 97.666 63.5157 96.69 64.4449C96.2349 64.8776 95.776 65.3006 95.3074 65.714C93.5296 67.3228 91.5764 68.7276 89.4845 69.9019C89.0624 70.1362 88.6293 70.3577 88.1852 70.5664H88.1697C87.8444 70.7248 87.5132 70.8735 87.1744 71.0184C86.9904 71.0976 86.8064 71.1729 86.6186 71.2483L86.5857 71.2618C85.1392 71.8413 83.6016 72.2585 82.0796 72.0113C81.7161 71.9504 81.3616 71.8447 81.0242 71.6964L80.9081 71.6443C80.1012 71.2561 79.4802 70.5664 79.1797 69.7246C78.8792 68.8828 78.9234 67.9568 79.3028 67.1473C79.9204 65.8357 80.6486 64.5789 81.4793 63.3902L81.5897 63.2318L81.611 63.2008C83.7643 60.1314 86.4521 57.4309 88.9307 54.5875L89.4187 54.0215L90.1933 53.1194C90.2417 53.0614 90.292 53.0016 90.3482 52.9378L90.5418 52.7079L90.7355 52.4819C90.8129 52.3892 90.8942 52.2888 90.9795 52.196L90.9891 52.1845L91.7521 51.2939C92.0755 50.9173 92.2265 50.0036 92.2517 48.7132C92.2652 48.0255 92.242 47.2316 92.1897 46.3527C92.0271 43.5865 91.5739 39.9897 91.0395 36.2944C89.7556 27.4203 88.0012 17.982 88.6635 18.1366C88.6983 18.1366 88.7409 18.1791 88.7913 18.2428C88.7921 18.246 88.7921 18.2493 88.7913 18.2525L92.9914 23.696C93.1773 23.9381 93.3677 24.1763 93.5627 24.4107C96.0587 27.4396 99.248 30.1362 101.961 32.9275C105.94 36.9744 109.747 40.7218 111.719 46.1885C112.017 47.0211 112.273 47.9174 112.036 48.7576Z" fill="#FCDBCA"/>
<g style="mix-blend-mode:multiply" opacity="0.52">
<path d="M110.888 50.4459L110.597 50.726C110.139 51.1645 109.674 51.5991 109.209 52.0318C107.66 53.4787 106.086 54.9139 104.562 56.3955L99.7476 47.8439L97.2303 41.083L96.1129 38.0889L94.3256 33.3447L88.6519 18.1385C88.6867 18.1385 88.7293 18.181 88.7797 18.2447C88.7805 18.2479 88.7805 18.2512 88.7797 18.2544L92.9798 23.6979C93.1657 23.94 93.3561 24.1782 93.551 24.4126C93.7718 24.7178 100.857 34.5134 104.478 39.2673C108.158 44.0965 110.625 47.9753 110.843 50.0847C110.869 50.2103 110.878 50.3262 110.888 50.4459Z" fill="#8E8E8E"/>
</g>
<g style="mix-blend-mode:multiply" opacity="0.48">
<path d="M99.7476 57.4522L99.5733 61.5686C98.6283 62.5557 97.6814 63.5215 96.7055 64.4507C96.2504 64.8834 95.7915 65.3064 95.3228 65.7198L93.9383 61.8757C93.1705 59.7364 91.9725 57.7762 90.4179 56.1155C90.2533 55.9377 90.0848 55.7639 89.9124 55.592L88.9171 54.603L89.4051 54.037L90.1797 53.1349L90.3346 52.9533L90.5282 52.7234L90.7219 52.4974C90.7993 52.4047 90.8807 52.3042 90.9659 52.2115L90.9755 52.1999L91.7385 51.3094C92.0619 50.9327 92.2129 50.0191 92.2381 48.7287L98.7406 51.3056L99.7476 57.4522Z" fill="#8E8E8E"/>
</g>
<path d="M114.18 84.9903C113.988 85.182 113.772 85.3494 113.539 85.4887L113.303 85.6355C112.732 85.976 112.091 86.1843 111.428 86.2448C110.766 86.3053 110.098 86.2166 109.474 85.9851C108.994 85.8089 108.538 85.5713 108.119 85.2781C108.034 85.2202 107.95 85.1583 107.869 85.0946C107.547 84.8427 107.251 84.5586 106.986 84.2466C106.857 84.092 106.735 83.9317 106.62 83.7656L104.751 81.0342C102.424 77.634 100.46 74 98.8918 70.1916L97.8946 67.7712C97.4453 66.6818 97.0451 65.5749 96.694 64.4507C96.3357 63.3052 96.0278 62.1326 95.7742 60.9736L95.5244 59.8146C94.9 56.9288 93.3714 54.316 91.1596 52.3545C91.0996 52.2984 91.0376 52.2444 90.9757 52.1922L90.9118 52.1381C90.7297 51.9836 90.5458 51.8348 90.3541 51.6919C90.0546 51.4601 89.7434 51.2418 89.4207 51.0371L88.2898 50.2644L87.128 49.4724L87.1067 49.4569L80.3582 44.8769L71.6288 38.9389C71.0218 38.5246 70.2954 38.3203 69.5609 38.3573C68.8264 38.3942 68.1243 38.6705 67.5622 39.1437C66.7149 39.8559 66.0989 40.8032 65.7923 41.8654L65.1398 44.1293C64.4992 46.3525 64.3977 48.6956 64.8435 50.9656L66.0576 57.147C66.3121 58.4446 66.7946 59.6871 67.4828 60.8172L72.7867 69.5349C72.9475 69.7976 73.1198 70.0564 73.2999 70.3075L74.1306 71.4492C75.9031 73.8886 77.2401 76.615 78.0829 79.5082L79.0879 82.9311L79.9361 91.417C79.989 91.9351 79.9483 92.4585 79.816 92.9623L79.3997 94.5483C79.2569 95.0971 79.0254 95.6191 78.7142 96.0936L78.416 96.5437L78.3172 96.6944C77.6062 97.7695 76.684 98.6895 75.6062 99.3987C75.3256 99.5827 75.0272 99.738 74.7154 99.8623C74.5788 99.9193 74.4391 99.969 74.2971 100.011C73.9715 100.109 73.6367 100.174 73.298 100.204C73.1547 100.218 73.0114 100.225 72.8661 100.225H72.8506C72.3263 100.225 71.8134 100.073 71.3731 99.7893C70.9329 99.5053 70.5839 99.1008 70.3681 98.6241L70.3158 98.5063L67.1478 91.4827L65.3915 87.5671C65.1878 87.115 64.9543 86.6768 64.6924 86.2555L62.1344 82.1217C60.8492 80.0425 59.1864 78.2206 57.2313 76.7497L51.7377 72.6159L40.7891 63.8074C40.218 63.3478 39.6213 62.9208 39.0017 62.5286L35.0262 60.0175C28.8077 56.0847 23.1716 51.3031 18.2819 45.8118L10.9234 37.5442L0 30.5457L20.1467 0.0618153L20.1873 0L20.2822 0.0618153L24.3487 2.73527L28.7929 4.5781C29.0523 4.63798 36.2752 7.44858 41.8289 9.61593C45.998 11.2425 50.5059 11.8139 54.9502 11.2791L75.4764 8.80655L75.9296 8.7544C77.6278 8.54964 80.1374 8.4801 83.9406 12.2314C85.3658 13.6377 86.975 15.579 88.7817 18.2525C88.7825 18.2557 88.7825 18.259 88.7817 18.2622C90.6367 21.0371 92.3482 23.9049 93.9094 26.8543C95.0808 29.1 96.4563 31.2338 98.0185 33.2289L105.1 42.0528C106.64 43.965 107.747 46.1871 108.345 48.5664L109.209 52.0241L114.143 71.793C114.237 72.157 114.301 72.5277 114.337 72.9018L114.633 76.3634L115.16 82.3168C115.203 82.8069 115.138 83.3005 114.969 83.7626C114.8 84.2247 114.53 84.6439 114.18 84.9903Z" fill="url(#paint2_linear_632_1051)"/>
<g style="mix-blend-mode:overlay">
<path d="M73.2998 100.179C73.1565 100.193 73.0132 100.2 72.868 100.2H72.8525C72.3282 100.2 71.8153 100.048 71.375 99.7641C70.9347 99.4801 70.5858 99.0756 70.37 98.599L70.3177 98.4812L67.1497 91.4576L69.2159 90.6327C69.2917 90.5997 69.3732 90.5819 69.4559 90.5804C69.5386 90.5788 69.6207 90.5935 69.6977 90.6237C69.7747 90.6538 69.8449 90.6988 69.9045 90.756C69.964 90.8132 70.0117 90.8816 70.0447 90.9572L73.0132 97.7471L73.4451 98.7342C73.5474 98.9672 73.5878 99.2226 73.5624 99.4756C73.5369 99.7287 73.4465 99.971 73.2998 100.179Z" fill="white"/>
</g>
<g style="mix-blend-mode:overlay">
<path d="M114.18 84.9903C113.949 84.9285 113.742 84.7996 113.585 84.62C113.429 84.4404 113.329 84.2183 113.299 83.982L112.449 77.1979C112.432 77.065 112.469 76.931 112.552 76.8253C112.634 76.7196 112.755 76.6507 112.888 76.6338L114.631 76.3634L115.158 82.3169C115.202 82.8068 115.137 83.3003 114.968 83.7624C114.799 84.2245 114.53 84.6437 114.18 84.9903Z" fill="white"/>
</g>
<g style="mix-blend-mode:overlay">
<path d="M89.4981 69.9541C89.4981 69.9541 88.9559 70.2148 88.1755 70.5664H88.16C87.703 70.7731 87.1667 71.0107 86.6109 71.2483L86.578 71.2618C85.1315 71.8413 83.5939 72.2585 82.0719 72.0113C81.7084 71.9504 81.3539 71.8447 81.0165 71.6964C81.0212 71.4647 81.0936 71.2393 81.2251 71.0481C81.3565 70.8569 81.5412 70.7083 81.7563 70.6205L88.0923 68.0127C88.1537 67.9874 88.2195 67.9744 88.2859 67.9745C88.3523 67.9746 88.4181 67.9878 88.4794 68.0133C88.5408 68.0388 88.5965 68.0761 88.6433 68.123C88.6902 68.17 88.7273 68.2257 88.7526 68.287L89.4768 69.8942L89.4981 69.9541Z" fill="white"/>
</g>
<g style="mix-blend-mode:overlay">
<path d="M76.4872 61.9182L76.4 63.593V63.6142C76.4 63.6142 75.2711 63.5601 73.9427 63.4481C73.3482 63.3786 72.7537 63.2878 72.1651 63.1757C70.8095 62.9207 69.3146 62.4031 68.633 61.2865V61.273C68.7373 61.0892 68.8936 60.9401 69.0823 60.8442C69.271 60.7484 69.4838 60.7101 69.6942 60.7341L76.0534 61.3986C76.1793 61.4118 76.2951 61.4735 76.3761 61.5705C76.4571 61.6676 76.497 61.7923 76.4872 61.9182Z" fill="white"/>
</g>
<path d="M113.061 96.6731C113.049 96.297 113.025 95.9242 112.989 95.5546C112.614 91.6684 110.893 88.0343 108.121 85.2781C107.758 84.9149 107.38 84.5711 106.988 84.2465C104.576 82.2406 101.652 80.9449 98.5429 80.5049C95.434 80.0649 92.2637 80.4979 89.3878 81.7554C86.5119 83.0128 84.0442 85.045 82.2618 87.6238C80.4793 90.2026 79.4527 93.2259 79.297 96.3544C79.2738 96.8044 79.2699 97.2564 79.2834 97.7065C79.3034 98.4182 79.3681 99.1278 79.4771 99.8314C79.5274 100.156 79.5894 100.478 79.6591 100.797C80.0402 102.53 80.6938 104.191 81.5955 105.719V105.729C81.6936 105.896 81.7963 106.062 81.9034 106.227C82.0842 106.512 82.2733 106.79 82.4708 107.062C82.791 107.502 83.1311 107.925 83.4913 108.331L83.5281 108.373H108.804C108.816 108.36 108.83 108.346 108.841 108.331C109.199 107.925 109.54 107.502 109.858 107.062C110.051 106.789 110.245 106.511 110.427 106.227C110.534 106.064 110.637 105.898 110.735 105.729V105.719C111.638 104.191 112.291 102.53 112.671 100.797C112.741 100.478 112.803 100.156 112.853 99.8314C113.022 98.7875 113.091 97.73 113.061 96.6731Z" fill="#EFEFEF"/>
<path d="M107.72 106.243C107.103 107.026 106.407 107.745 105.644 108.389H86.6999C84.5137 106.548 82.9129 104.111 82.0932 101.377C82.0486 101.23 82.008 101.079 81.9692 100.929C81.9305 100.778 81.8918 100.627 81.8569 100.475C81.7853 100.171 81.7272 99.8642 81.6768 99.5513C81.6536 99.4064 81.6304 99.2596 81.611 99.1128C81.5916 98.966 81.5761 98.825 81.5606 98.682C81.5606 98.6202 81.549 98.5584 81.5432 98.4889C81.5316 98.3672 81.5239 98.2474 81.518 98.1257C81.5045 97.9673 81.4987 97.805 81.4929 97.6428C81.4327 95.7196 81.7529 93.8034 82.4353 92.0037C83.1177 90.204 84.1488 88.5561 85.4698 87.154C86.7908 85.7519 88.3758 84.6232 90.1342 83.8323C91.8926 83.0415 93.79 82.6039 95.7179 82.5447C95.7954 82.5447 95.8709 82.5447 95.9484 82.5447C96.2737 82.5447 96.5951 82.5447 96.9166 82.5602H96.9844C99.6664 82.7083 102.256 83.5874 104.473 85.1018C106.689 86.6162 108.446 88.7079 109.553 91.1493C110.66 93.5907 111.075 96.2883 110.752 98.9485C110.429 101.609 109.381 104.13 107.722 106.237L107.72 106.243Z" fill="#D8D8D8"/>
<g style="mix-blend-mode:multiply" opacity="0.52">
<path d="M109.858 107.077C109.54 107.518 109.199 107.941 108.841 108.346C108.83 108.362 108.816 108.375 108.804 108.389H83.5397L83.5029 108.346C83.1427 107.941 82.8026 107.518 82.4824 107.077H109.858Z" fill="#8E8E8E"/>
</g>
<path d="M129.222 115.252H63.1064V119.884H129.222V115.252Z" fill="#7A7A7A"/>
<path d="M135.405 82.7708L130.731 90.0783L129.511 91.983C129.414 92.1864 129.289 92.375 129.139 92.5432L129.112 92.5721C129.045 92.6408 128.975 92.7053 128.901 92.7653L128.815 92.8329C128.518 93.0758 128.166 93.2431 127.789 93.3206C127.413 93.3981 127.023 93.3834 126.653 93.2779C126.284 93.1723 125.945 92.979 125.667 92.7145C125.389 92.4499 125.179 92.1221 125.055 91.7589L119.29 82.68C118.998 82.2206 118.874 81.6749 118.938 81.1346C118.938 81.1037 118.938 81.0709 118.951 81.04L118.969 80.9376C118.969 80.899 118.986 80.8603 118.996 80.8217C119.005 80.7831 119.017 80.7406 119.029 80.7L119.046 80.6498C119.057 80.6137 119.07 80.5782 119.085 80.5436C119.1 80.503 119.118 80.4644 119.135 80.4257C119.17 80.3485 119.209 80.2731 119.251 80.1978L119.304 80.1128C119.327 80.0761 119.352 80.0413 119.377 80.0065C119.459 79.8917 119.553 79.7855 119.656 79.6897C119.691 79.6569 119.726 79.6241 119.763 79.5932C119.799 79.5622 119.838 79.5333 119.877 79.5043L119.894 79.4908L119.925 79.4695C119.958 79.4444 119.991 79.4232 120.024 79.4019L120.055 79.3826H120.069C120.358 79.2085 120.682 79.0978 121.017 79.0581C121.465 79.0047 121.919 79.0786 122.326 79.2714C122.734 79.4642 123.078 79.7679 123.32 80.1476L124.941 82.6993V59.5191C124.941 59.465 124.941 59.4109 124.941 59.3568C124.946 59.2804 124.955 59.2044 124.968 59.1289C124.968 59.0864 124.983 59.0439 124.993 59.0014C125.003 58.9589 125.012 58.9203 125.024 58.8797C125.036 58.8391 125.049 58.7928 125.063 58.7522C125.143 58.5168 125.261 58.2958 125.411 58.0974C125.479 57.9987 125.555 57.9057 125.638 57.8192C125.673 57.7844 125.709 57.7497 125.748 57.7168C125.786 57.6824 125.826 57.6502 125.868 57.6202C125.978 57.5321 126.097 57.4557 126.223 57.3923C126.323 57.3397 126.427 57.2951 126.534 57.259C126.692 57.2027 126.856 57.1639 127.022 57.1431C127.121 57.1314 127.22 57.1256 127.319 57.1257C127.952 57.1273 128.559 57.3789 129.007 57.8256C129.454 58.2723 129.707 58.8777 129.708 59.5094V82.7998L130.7 81.2544L131.37 80.2094C131.402 80.1579 131.437 80.1076 131.474 80.0587C131.535 79.984 131.6 79.9125 131.668 79.8443C131.752 79.7539 131.845 79.6718 131.945 79.599C131.985 79.5661 132.026 79.5391 132.067 79.512L132.092 79.4946C132.142 79.4612 132.195 79.4303 132.249 79.4019C132.305 79.371 132.363 79.344 132.421 79.3189C132.477 79.2937 132.533 79.2706 132.592 79.2513C133.06 79.0862 133.569 79.0714 134.047 79.2088C134.524 79.3462 134.947 79.6291 135.256 80.0178C135.564 80.4066 135.744 80.8818 135.768 81.3771C135.793 81.8724 135.662 82.363 135.394 82.7804L135.405 82.7708Z" fill="#1180EF"/>
<path d="M121.139 78.6814L121.016 79.0677L120.855 79.57L120.254 79.5333L119.883 79.5101L119.904 79.4966L119.935 79.4753L120.065 79.3884H120.078L120.824 78.8977L120.839 78.8862L121.126 78.693L121.145 78.6814H121.139Z" fill="#1180EF"/>
<path d="M130.514 91.2972C130.394 91.5644 130.225 91.8064 130.014 92.01C129.948 92.08 129.876 92.1446 129.799 92.2032L129.755 92.238C129.745 92.2461 129.735 92.2532 129.724 92.2592L129.633 92.321C129.478 92.4188 129.312 92.498 129.139 92.5567C128.631 92.7333 128.078 92.7341 127.569 92.5588C127.06 92.3836 126.626 92.0426 126.335 91.5908L126.041 91.1272L120.28 82.0483C120.042 81.6736 119.913 81.2402 119.908 80.7966C119.903 80.353 120.023 79.9168 120.253 79.5371C120.329 79.4083 120.418 79.2873 120.518 79.1759C120.608 79.0722 120.709 78.9777 120.818 78.8939L120.833 78.8823C120.903 78.8282 120.961 78.7876 121.027 78.7509C121.093 78.7142 121.095 78.7123 121.128 78.693C121.134 78.6913 121.141 78.6913 121.147 78.693L121.283 78.6254C121.417 78.5604 121.558 78.5099 121.703 78.4747H121.716C121.761 78.4747 121.807 78.4535 121.854 78.4457C121.9 78.438 121.949 78.4303 121.995 78.4225H122.013L122.146 78.4109H122.292H122.367C122.437 78.4109 122.507 78.411 122.574 78.4264H122.598C122.663 78.4264 122.729 78.4457 122.791 78.4592H122.811C122.88 78.4747 122.95 78.494 123.02 78.5153C123.161 78.5601 123.299 78.6176 123.43 78.6872C123.517 78.7339 123.601 78.7855 123.682 78.8417C123.933 79.0204 124.148 79.2461 124.313 79.5062L124.941 80.4952L125.932 82.056L128.341 85.8286L130.365 89.0159C130.452 89.1548 130.526 89.3024 130.583 89.4563C130.661 89.656 130.71 89.8653 130.731 90.0783C130.767 90.4966 130.693 90.9171 130.514 91.2972Z" fill="#10BFF1"/>
<path d="M127.03 56.8534V57.6686L126.228 57.7091L125.752 57.7323H125.764L126.219 57.4213L126.879 56.9693L126.943 56.9249L126.997 56.8882L127.013 56.8766L127.03 56.8534Z" fill="#1180EF"/>
<path d="M136.397 82.1101L130.514 91.2972L130.504 91.3127L130.31 91.6102C130.184 91.808 130.029 91.9858 129.85 92.1375L129.805 92.1742L129.76 92.209C129.722 92.2401 129.682 92.2691 129.64 92.2959C129.584 92.3326 129.526 92.3693 129.468 92.4022L129.379 92.4485C129.317 92.4814 129.252 92.5091 129.185 92.5316C129.156 92.5452 129.127 92.5568 129.096 92.5663H129.087C128.744 92.6884 128.378 92.7308 128.017 92.6903C127.655 92.6498 127.308 92.5275 127.001 92.3326C126.546 92.0365 126.205 91.5947 126.034 91.0798C125.863 90.5649 125.873 90.0074 126.062 89.4988C126.118 89.3487 126.19 89.205 126.277 89.07L128.341 85.8286L130.707 82.1352L132.371 79.5371C132.439 79.4296 132.517 79.3282 132.603 79.2339L132.615 79.2223C132.636 79.1971 132.661 79.172 132.684 79.1469L132.706 79.1276C132.731 79.101 132.757 79.0759 132.785 79.0523C132.878 78.9651 132.98 78.8874 133.089 78.8205C133.194 78.7511 133.305 78.6916 133.42 78.6428C133.872 78.4438 134.374 78.3891 134.857 78.4863C135.146 78.5425 135.422 78.6526 135.67 78.8108C136.205 79.1524 136.582 79.6919 136.718 80.3105C136.854 80.9292 136.739 81.5765 136.397 82.1101Z" fill="#10BFF1"/>
<path d="M130.707 58.8507V88.7088C130.706 89.2717 130.504 89.8159 130.139 90.2448C129.773 90.6738 129.267 90.9599 128.711 91.0524C128.154 91.1449 127.583 91.038 127.097 90.7505C126.612 90.4629 126.245 90.0134 126.06 89.4815C125.972 89.2333 125.927 88.972 125.926 88.7088V58.8507C125.926 58.4482 126.029 58.0523 126.226 57.7014C126.313 57.5427 126.418 57.3948 126.54 57.261C126.645 57.1434 126.762 57.0366 126.889 56.9422L126.953 56.8978L127.007 56.8611L127.022 56.8495C127.163 56.7585 127.313 56.6833 127.47 56.6254C127.522 56.6061 127.574 56.5868 127.628 56.5713C127.683 56.5559 127.739 56.5404 127.793 56.5288L127.948 56.4979H127.969C128.014 56.4979 128.058 56.4863 128.103 56.4825H128.182H128.31C128.942 56.4819 129.549 56.7306 129.998 57.1741C130.447 57.6177 130.702 58.2204 130.707 58.8507Z" fill="#10BFF1"/>
<path style="mix-blend-mode:multiply" d="M121.14 78.6743H121.138L121.14 78.6718V78.6743Z" fill="url(#paint3_linear_632_1051)"/>
<path style="mix-blend-mode:multiply" d="M136.397 82.1102L130.51 91.305L130.5 91.3205C130.38 91.5719 130.217 91.8006 130.018 91.9965C129.964 92.0492 129.907 92.0988 129.848 92.1453L129.803 92.182L129.729 92.238L129.648 92.2979C129.592 92.3346 129.534 92.3713 129.476 92.4041L129.387 92.4505C129.327 92.4814 129.265 92.5084 129.193 92.5336L129.108 92.5645H129.098C129.034 92.6321 128.968 92.6977 128.905 92.7576L128.819 92.8252C128.522 93.0681 128.17 93.2355 127.793 93.3129C127.417 93.3904 127.027 93.3758 126.657 93.2702C126.288 93.1646 125.949 92.9713 125.671 92.7068C125.392 92.4423 125.182 92.1144 125.059 91.7512L119.294 82.6723C119.002 82.2129 118.878 81.6672 118.942 81.1269C118.942 81.096 118.942 81.0632 118.955 81.0323L118.973 80.9299C118.973 80.8913 118.99 80.8526 119 80.814C119.009 80.7754 119.021 80.7329 119.033 80.6923L119.05 80.6421C119.061 80.606 119.074 80.5705 119.089 80.5359C119.104 80.4953 119.122 80.4567 119.139 80.418C119.174 80.3408 119.213 80.2654 119.255 80.1901L119.308 80.1051C119.331 80.0684 119.356 80.0336 119.381 79.9989C119.464 79.8849 119.557 79.7789 119.66 79.6821C119.695 79.6492 119.73 79.6164 119.767 79.5855C119.803 79.5546 119.842 79.5256 119.881 79.4966L119.902 79.4831L119.933 79.4618C119.966 79.4367 119.999 79.4155 120.032 79.3942L120.063 79.3749H120.076L120.822 78.8843L120.837 78.8727C120.907 78.8186 120.965 78.778 121.031 78.7413C121.097 78.7046 121.099 78.7027 121.132 78.6834L121.151 78.6718L121.287 78.6042C121.422 78.5412 121.562 78.4907 121.707 78.4535H121.72C121.765 78.4535 121.811 78.4322 121.858 78.4245C121.904 78.4168 121.953 78.4091 121.999 78.4013H122.017L122.15 78.3898C122.597 78.3631 123.043 78.46 123.438 78.6699C123.525 78.717 123.609 78.7685 123.69 78.8244C123.941 79.0031 124.156 79.2287 124.321 79.4889L124.948 80.4779V59.5114C124.948 59.4573 124.948 59.4032 124.948 59.3491C124.954 59.2727 124.963 59.1967 124.976 59.1212C124.976 59.0787 124.991 59.0362 125.001 58.9937C125.01 58.9512 125.02 58.9126 125.032 58.872C125.043 58.8314 125.057 58.7851 125.07 58.7445C125.153 58.5098 125.27 58.289 125.419 58.0897C125.519 57.9573 125.633 57.8356 125.758 57.7265H125.769L125.876 57.6396C125.985 57.5545 126.102 57.4795 126.225 57.4155L126.885 56.9635L126.949 56.9191L127.003 56.8824L127.018 56.8708C127.159 56.7799 127.309 56.7041 127.466 56.6448C127.518 56.6255 127.57 56.6061 127.625 56.5907C127.679 56.5752 127.735 56.5598 127.789 56.5482L127.944 56.5173H127.965C128.01 56.5173 128.054 56.5057 128.099 56.5018H128.178H128.306C128.939 56.5034 129.546 56.755 129.994 57.2017C130.442 57.6484 130.694 58.2538 130.696 58.8855V81.2931L131.366 80.248C131.398 80.1965 131.433 80.1463 131.47 80.0974C131.531 80.0227 131.596 79.9511 131.664 79.8829C131.748 79.7926 131.841 79.7105 131.941 79.6376C131.982 79.6048 132.022 79.5777 132.063 79.5507L132.088 79.5333C132.138 79.4998 132.191 79.4689 132.245 79.4406C132.301 79.4097 132.359 79.3826 132.417 79.3575C132.473 79.3324 132.53 79.3092 132.588 79.2899L132.599 79.2783C132.621 79.2532 132.646 79.2281 132.669 79.203L132.69 79.1837C132.715 79.1571 132.742 79.1319 132.77 79.1083C132.865 79.0229 132.966 78.9454 133.074 78.8765C133.179 78.809 133.29 78.7496 133.405 78.6988C133.856 78.5008 134.358 78.4462 134.842 78.5424C135.131 78.5986 135.407 78.7087 135.655 78.8669C136.177 79.2054 136.546 79.7332 136.684 80.3386C136.823 80.944 136.72 81.5794 136.397 82.1102Z" fill="url(#paint4_linear_632_1051)"/>
<path style="mix-blend-mode:multiply" opacity="0.45" d="M119.279 82.6954C118.986 82.236 118.862 81.6903 118.926 81.1501C118.926 81.1192 118.926 81.0863 118.94 81.0554L118.957 80.953C118.957 80.9144 118.975 80.8758 118.984 80.8371C118.994 80.7985 119.006 80.756 119.017 80.7155L119.035 80.6652C119.045 80.6291 119.058 80.5936 119.073 80.559C119.089 80.5184 119.106 80.4798 119.124 80.4411C119.158 80.3639 119.197 80.2885 119.24 80.2132L119.292 80.1282C119.315 80.0915 119.341 80.0567 119.366 80.022C119.447 79.9071 119.541 79.801 119.645 79.7052C119.679 79.6723 119.714 79.6395 119.751 79.6086C119.788 79.5777 119.827 79.5487 119.865 79.5197L119.887 79.5062L119.918 79.485C119.95 79.4598 119.983 79.4386 120.016 79.4174L120.047 79.398H120.061L120.806 78.9074L120.822 78.8958C120.892 78.8417 120.95 78.8011 121.016 78.7644C121.081 78.7277 121.083 78.7258 121.116 78.7065L121.136 78.6949L121.271 78.6273C121.405 78.5623 121.546 78.5118 121.691 78.4766H121.705C121.749 78.4766 121.796 78.4554 121.842 78.4476C121.889 78.4399 121.937 78.4322 121.984 78.4245H122.001L122.135 78.4129H122.28H122.356C122.425 78.4129 122.495 78.4129 122.563 78.4283H122.598C122.663 78.4283 122.729 78.4476 122.791 78.4612H122.811C122.88 78.4766 122.95 78.4959 123.02 78.5172C123.162 78.562 123.299 78.6195 123.43 78.6891C123.517 78.7358 123.601 78.7874 123.682 78.8436C123.934 79.0223 124.148 79.248 124.313 79.5081L124.941 80.4972V59.5113C124.941 59.4573 124.941 59.4032 124.941 59.3491C124.946 59.2727 124.955 59.1966 124.968 59.1211C124.968 59.0786 124.983 59.0361 124.993 58.9936C125.003 58.9512 125.012 58.9125 125.024 58.872C125.036 58.8314 125.049 58.785 125.063 58.7445C125.143 58.5091 125.261 58.288 125.411 58.0896C125.479 57.9936 125.555 57.9032 125.638 57.8192C125.673 57.7844 125.709 57.7496 125.748 57.7168C125.786 57.6824 125.826 57.6502 125.868 57.6202C125.978 57.5321 126.097 57.4557 126.223 57.3923L126.883 56.9403L126.947 56.8958L127.001 56.8591L127.017 56.8475C127.157 56.7565 127.307 56.6813 127.464 56.6235C127.516 56.6042 127.568 56.5848 127.623 56.5694C127.677 56.5539 127.733 56.5385 127.787 56.5269L127.942 56.496H127.963C128.008 56.496 128.053 56.4844 128.097 56.4805H128.176H128.304C128.938 56.4821 129.544 56.7337 129.992 57.1804C130.44 57.6271 130.692 58.2325 130.694 58.8642V81.2718L131.364 80.2267C131.396 80.1752 131.431 80.125 131.468 80.0761C131.529 80.0014 131.594 79.9298 131.662 79.8616C131.746 79.7713 131.839 79.6892 131.939 79.6163C131.98 79.5835 132.02 79.5564 132.061 79.5294L132.086 79.512C132.136 79.4785 132.189 79.4476 132.243 79.4193C132.299 79.3884 132.357 79.3613 132.415 79.3362C132.471 79.3111 132.528 79.2879 132.586 79.2686L132.597 79.257C132.619 79.2319 132.644 79.2068 132.667 79.1817L132.688 79.1624C132.713 79.1358 132.74 79.1106 132.768 79.087C132.861 78.9998 132.963 78.9222 133.072 78.8552C133.176 78.7859 133.287 78.7264 133.403 78.6775C133.854 78.4785 134.356 78.4239 134.84 78.521C135.129 78.5773 135.405 78.6874 135.653 78.8456C136.183 79.187 136.557 79.7236 136.693 80.3385C136.829 80.9534 136.716 81.5971 136.379 82.1294L130.492 91.3243C130.376 91.5801 130.214 91.8125 130.014 92.01C129.948 92.08 129.876 92.1446 129.799 92.2032L129.755 92.2379C129.716 92.2691 129.676 92.2981 129.635 92.3249C129.578 92.3616 129.52 92.3983 129.462 92.4311L129.373 92.4775C129.311 92.5103 129.246 92.5381 129.18 92.5605C129.151 92.5741 129.121 92.5857 129.09 92.5953C129.024 92.664 128.954 92.7285 128.879 92.7885L128.794 92.8561C128.497 93.099 128.145 93.2663 127.768 93.3438C127.391 93.4213 127.002 93.4066 126.632 93.301C126.262 93.1955 125.924 93.0022 125.646 92.7376C125.367 92.4731 125.157 92.1452 125.034 91.7821L119.279 82.6954Z" fill="url(#paint5_linear_632_1051)"/>
<path style="mix-blend-mode:multiply" opacity="0.96" d="M25.222 145H172.004C171.872 120.527 146.555 100.15 112.993 95.5489C112.618 91.6627 110.897 88.0285 108.125 85.2723C108.544 85.5655 109 85.8031 109.48 85.9793C110.103 86.2107 110.769 86.3 111.431 86.2404C112.092 86.1809 112.732 85.9742 113.303 85.6355L113.547 85.4887C113.78 85.3494 113.995 85.182 114.188 84.9903C114.538 84.6439 114.807 84.2247 114.977 83.7626C115.146 83.3005 115.211 82.8069 115.168 82.3168L114.633 76.3634L114.329 72.9115C114.293 72.5374 114.229 72.1667 114.135 71.8027L109.209 52.0242C109.674 51.5915 110.139 51.1568 110.598 50.7183L110.888 50.4382C111.384 49.9476 111.856 49.4125 112.036 48.7499C112.273 47.9097 112.017 47.0114 111.721 46.1905C109.749 40.7238 105.942 36.9763 101.963 32.9294C99.2519 30.1382 96.0607 27.4415 93.5646 24.4126C93.3697 24.177 93.1793 23.9387 92.9934 23.6979L88.7875 18.2544C88.7883 18.2513 88.7883 18.2479 88.7875 18.2448C86.9749 15.5713 85.3658 13.63 83.9464 12.2237C80.1432 8.47818 77.6336 8.55351 75.9353 8.74668L75.4899 8.80077L54.9637 11.2733C50.5194 11.8081 46.0115 11.2367 41.8424 9.61014C36.2887 7.44279 29.062 4.63219 28.8064 4.57231L24.3622 2.72948L20.2957 0.0560303H20.1602L0.0212402 30.5399L10.9389 37.5404L18.2973 45.808C23.1871 51.2993 28.8232 56.0809 35.0417 60.0136L39.0172 62.5248C39.6367 62.9169 40.2335 63.3439 40.8045 63.8036L51.7531 72.6043L57.2313 76.7497C59.1858 78.2189 60.8485 80.0388 62.1343 82.1159L64.6982 86.2459C64.96 86.6672 65.1936 87.1053 65.3972 87.5575L67.1555 91.4576L70.3139 98.4812C43.9125 106.094 25.3343 124.047 25.222 145ZM66.0653 57.1393L64.8512 50.9579C64.4054 48.6879 64.5069 46.3447 65.1474 44.1216L65.8 41.8577C66.1066 40.7955 66.7226 39.8482 67.5699 39.1359C68.132 38.6628 68.8341 38.3865 69.5686 38.3495C70.3031 38.3126 71.0295 38.5169 71.6364 38.9312L80.3581 44.8769L79.4596 45.5704C76.555 47.8189 73.6077 50.0249 70.6295 52.225C69.8859 52.7736 69.121 53.3474 68.6563 54.1471C68.6388 54.176 68.6233 54.2031 68.6078 54.234C68.4688 54.5035 68.3898 54.7999 68.3763 55.1027C68.3629 55.4055 68.4152 55.7077 68.5298 55.9884C68.6444 56.2692 68.8186 56.5219 69.0403 56.7292C69.262 56.9365 69.526 57.0935 69.8143 57.1895L69.8491 57.2011C68.7666 58.1321 67.9843 59.3433 68.3561 60.6491C68.4174 60.8661 68.5086 61.0735 68.6272 61.2653V61.2788V61.2924C69.3088 62.4031 70.8115 62.9266 72.1593 63.1816C72.7402 63.2936 73.3424 63.3747 73.9369 63.4539C75.2653 63.566 76.3943 63.6201 76.3943 63.6201V63.5988C76.8951 63.6104 77.3967 63.6104 77.8989 63.5988C79.0761 63.56 80.2495 63.4445 81.4116 63.253L81.5742 63.226H81.5955L81.5742 63.2569L81.4639 63.4153C80.6331 64.604 79.905 65.8609 79.2873 67.1724C78.9079 67.9819 78.8637 68.9079 79.1642 69.7497C79.4647 70.5915 80.0857 71.2813 80.8926 71.6694L81.0088 71.7215C81.3461 71.8698 81.7006 71.9755 82.0641 72.0364C83.5862 72.2837 85.1237 71.8587 86.5702 71.2869L86.6031 71.2734C86.7968 71.1981 86.9749 71.1227 87.1589 71.0435C87.4978 70.8986 87.8289 70.7499 88.1542 70.5915H88.1697C88.9443 70.2399 89.4923 69.9792 89.4923 69.9792L89.4691 69.927C91.5693 68.748 93.5298 67.3367 95.3132 65.7198C95.7818 65.3064 96.2408 64.8834 96.6958 64.4507C97.0457 65.5749 97.4459 66.6818 97.8964 67.7712L98.8937 70.1916C100.462 74 102.426 77.634 104.753 81.0342L106.622 83.7656C106.736 83.9317 106.858 84.092 106.988 84.2466C104.576 82.2407 101.652 80.945 98.5429 80.5049C95.434 80.0649 92.2637 80.4979 89.3878 81.7554C86.5119 83.0129 84.0442 85.045 82.2618 87.6238C80.4793 90.2026 79.4526 93.2259 79.297 96.3544C79.0026 96.4085 78.716 96.4664 78.4159 96.5224L78.7141 96.0724C79.0253 95.5978 79.2568 95.0759 79.3996 94.527L79.8159 92.9411C79.9483 92.4373 79.989 91.9139 79.936 91.3958L79.0878 82.9311L78.0906 79.5101C77.2478 76.6169 75.9107 73.8906 74.1383 71.4511L73.3076 70.3095C73.1275 70.0603 72.9551 69.8014 72.7944 69.5368L67.4905 60.8133C66.8019 59.6821 66.3194 58.4382 66.0653 57.1393Z" fill="url(#paint6_linear_632_1051)"/>
<defs>
<linearGradient id="paint0_linear_632_1051" x1="99.4596" y1="22.7833" x2="99.0013" y2="165.373" gradientUnits="userSpaceOnUse">
<stop offset="0.0318464" stop-color="#4053C1"/>
<stop offset="0.508717" stop-color="#634FE1" stop-opacity="0.62"/>
<stop offset="0.83737" stop-color="#0067AD" stop-opacity="0"/>
</linearGradient>
<linearGradient id="paint1_linear_632_1051" x1="96.2737" y1="85.8866" x2="99.4224" y2="165.587" gradientUnits="userSpaceOnUse">
<stop stop-color="#FFFEFD"/>
<stop offset="0.01" stop-color="#FBFAF9" stop-opacity="0.98"/>
<stop offset="0.13" stop-color="#B9B9B8" stop-opacity="0.73"/>
<stop offset="0.25" stop-color="#818080" stop-opacity="0.51"/>
<stop offset="0.37" stop-color="#535252" stop-opacity="0.32"/>
<stop offset="0.48" stop-color="#2F2F2E" stop-opacity="0.18"/>
<stop offset="0.58" stop-color="#151515" stop-opacity="0.08"/>
<stop offset="0.68" stop-color="#050505" stop-opacity="0.02"/>
<stop offset="0.75" stop-opacity="0"/>
</linearGradient>
<linearGradient id="paint2_linear_632_1051" x1="93.9171" y1="68.0919" x2="-70.7416" y2="-41.3886" gradientUnits="userSpaceOnUse">
<stop offset="0.28" stop-color="#FCDBCA"/>
<stop offset="0.570613" stop-color="#12152C"/>
</linearGradient>
<linearGradient id="paint3_linear_632_1051" x1="121.138" y1="78.6718" x2="121.138" y2="78.6743" gradientUnits="userSpaceOnUse">
<stop stop-color="#4053C1"/>
<stop offset="0.1" stop-color="#3D57C3" stop-opacity="0.95"/>
<stop offset="0.27" stop-color="#3663C9" stop-opacity="0.82"/>
<stop offset="0.49" stop-color="#2A76D3" stop-opacity="0.61"/>
<stop offset="0.74" stop-color="#1A90E0" stop-opacity="0.33"/>
<stop offset="1" stop-color="#07ADEF" stop-opacity="0"/>
</linearGradient>
<linearGradient id="paint4_linear_632_1051" x1="127.841" y1="56.4671" x2="127.841" y2="93.3835" gradientUnits="userSpaceOnUse">
<stop stop-color="#4053C1"/>
<stop offset="0.1" stop-color="#3D57C3" stop-opacity="0.95"/>
<stop offset="0.27" stop-color="#3663C9" stop-opacity="0.82"/>
<stop offset="0.49" stop-color="#2A76D3" stop-opacity="0.61"/>
<stop offset="0.74" stop-color="#1A90E0" stop-opacity="0.33"/>
<stop offset="1" stop-color="#07ADEF" stop-opacity="0"/>
</linearGradient>
<linearGradient id="paint5_linear_632_1051" x1="127.841" y1="21.6793" x2="127.841" y2="104.261" gradientUnits="userSpaceOnUse">
<stop offset="0.24" stop-color="#4053C1"/>
<stop offset="0.37" stop-color="#6C3CD0" stop-opacity="0.88"/>
<stop offset="0.45" stop-color="#7D33D6" stop-opacity="0.83"/>
<stop offset="0.53" stop-color="#5963DF" stop-opacity="0.88"/>
<stop offset="0.61" stop-color="#398DE6" stop-opacity="0.92"/>
<stop offset="0.71" stop-color="#108EEC" stop-opacity="0.98"/>
<stop offset="0.76" stop-color="#008EEF"/>
</linearGradient>
<linearGradient id="paint6_linear_632_1051" x1="86.0009" y1="-136.518" x2="86.0009" y2="187.7" gradientUnits="userSpaceOnUse">
<stop offset="0.141296" stop-color="#4053C1" stop-opacity="0"/>
<stop offset="0.373072" stop-color="#40357F"/>
<stop offset="0.556905" stop-color="#4C5788"/>
<stop offset="0.693387" stop-color="#577891"/>
<stop offset="0.768568" stop-color="#008EEF"/>
<stop offset="0.833171" stop-color="#008EEF" stop-opacity="0"/>
</linearGradient>
</defs>
</svg>
