<?xml version="1.0" encoding="UTF-8"?><svg id="Camada_2" xmlns="http://www.w3.org/2000/svg" viewBox="0 0 500.33 378.11"><defs><style>.cls-1{fill:#fff;stroke-width:0px;}</style></defs><g id="Camada_1-2"><g id="Layer_2-2"><path class="cls-1" d="m428.94,244.47c-2.02,0-3.93.86-5.28,2.37-6.79,7.57-16.55,12.03-26.98,12.03h-47.98c-22.9,0-44.79,8.81-61.92,24.02-15.35,13.58-41,27.89-81,27.89-2.04,0-4.06-.07-6.08-.16v.31c-62.65-3.93-112.27-55.95-112.27-119.6s49.87-115.94,112.74-119.64c28.46.27,55.91,10.6,77.47,29.17,17.02,14.67,38.54,22.74,60.58,22.74h40.84l-5.72-12.27C342.04,43.9,273.95.27,199.71,0h0c0,17.21-13.95,31.17-31.17,31.17h-57.15c-17.32,0-31.33,14.04-31.33,31.33v44.59c0,17.01-13.78,30.79-30.79,30.79h-18.39C13.82,137.88,0,151.7,0,168.76v44.5C0,230.58,14.04,244.59,31.33,244.59h17.93c17.01,0,30.79,13.78,30.79,30.79v44.59c0,17.32,14.04,31.33,31.33,31.33h67.31c14.73,0,26.67,11.94,26.67,26.67,2.02.07-1.62.13.4.13,60.21,0,116.42-28.88,151.92-75.98,14.33-19.04,36.65-30.35,60.47-30.35h21.98c23.51,0,45.26-10.31,60.19-27.33h-71.39v.02h.01Z"/></g></g></svg>