<?xml version="1.0" encoding="UTF-8"?><svg id="Layer_2" xmlns="http://www.w3.org/2000/svg" viewBox="0 0 963.53 207.67"><defs><style>.cls-1{fill:#fff;stroke-width:0px;}</style></defs><g id="Layer_2-2"><path class="cls-1" d="m235.59,134.27c-1.11,0-2.16.47-2.9,1.3-3.73,4.16-9.09,6.61-14.82,6.61h-26.35c-12.58,0-24.6,4.84-34.01,13.19-8.43,7.46-22.52,15.32-44.49,15.32-1.12,0-2.23-.04-3.34-.09v.17c-34.41-2.16-61.66-30.73-61.66-65.69s27.39-63.68,61.92-65.71c15.63.15,30.71,5.82,42.55,16.02,9.35,8.06,21.17,12.49,33.27,12.49h22.43l-3.14-6.74C187.86,24.11,150.46.15,109.69,0h0c0,9.45-7.66,17.12-17.12,17.12h-31.39c-9.51,0-17.21,7.71-17.21,17.21v24.49c0,9.34-7.57,16.91-16.91,16.91h-10.1C7.59,75.73,0,83.32,0,92.69v24.44C0,126.64,7.71,134.34,17.21,134.34h9.85c9.34,0,16.91,7.57,16.91,16.91v24.49c0,9.51,7.71,17.21,17.21,17.21h36.97c8.09,0,14.65,6.56,14.65,14.65,1.11.04-.89.07.22.07,33.07,0,63.94-15.86,83.44-41.73,7.87-10.46,20.13-16.67,33.21-16.67h12.07c12.91,0,24.86-5.66,33.06-15.01h-39.21Z"/><path class="cls-1" d="m235.59,95.58c0-15.27,11.65-26.83,27.13-26.83,12.86,0,23.21,8.14,26.12,19.69h-6.23c-2.81-8.24-10.45-14.07-19.89-14.07-12.06,0-21.1,9.14-21.1,21.2s9.04,21.2,21.1,21.2c9.44,0,17.08-5.83,19.89-14.07h6.23c-2.91,11.56-13.26,19.69-26.12,19.69-15.47,0-27.13-11.56-27.13-26.83"/><path class="cls-1" d="m325.02,69.15v6.03c-11.05,0-18.09,7.64-18.09,19.39v26.63h-5.83v-51.24h5.83v11.05c3.52-7.44,9.95-11.86,18.09-11.86"/><path class="cls-1" d="m335.06,53.68c0-2.31,1.91-4.12,4.22-4.12s4.32,1.81,4.32,4.12-1.91,4.22-4.32,4.22-4.22-1.81-4.22-4.22m1.31,16.28h5.83v51.24h-5.83s0-51.24,0-51.24Z"/><path class="cls-1" d="m412.23,95.58c0,15.27-11.15,26.83-26.12,26.83-9.95,0-17.99-5.33-22.1-13.56v31.45h-5.83v-70.34h5.83v12.36c4.12-8.24,12.16-13.56,22.1-13.56,14.97,0,26.12,11.56,26.12,26.83m-6.03,0c0-12.06-9.04-21.2-21.1-21.2s-21.1,9.14-21.1,21.2,9.04,21.2,21.1,21.2,21.1-9.14,21.1-21.2"/><polygon class="cls-1" points="433.03 75.28 433.03 115.77 448.4 115.77 448.4 121.2 427.2 121.2 427.2 75.28 416.75 75.28 416.75 69.95 427.2 69.95 427.2 54.88 433.03 54.88 433.03 69.95 448.4 69.95 448.4 75.28 433.03 75.28"/><path class="cls-1" d="m453.53,95.58c0-15.27,11.66-26.83,27.13-26.83s27.03,11.56,27.03,26.83-11.65,26.83-27.03,26.83-27.13-11.56-27.13-26.83m48.13,0c0-12.06-8.94-21.2-21-21.2s-21.1,9.14-21.1,21.2,9.04,21.2,21.1,21.2,21-9.14,21-21.2"/><path class="cls-1" d="m600.8,87.84v33.36h-13.06v-29.44c0-6.23-3.92-10.35-10.05-10.35-6.43,0-10.75,4.22-10.75,10.55v29.24h-13.06v-29.44c0-6.23-4.02-10.35-10.05-10.35-6.43,0-10.85,4.22-10.85,10.55v29.24h-13.06v-51.24h13.06v5.93c3.72-4.72,8.94-7.13,15.17-7.13,7.64,0,13.46,3.42,16.48,9.24,3.92-6.03,9.85-9.24,17.38-9.24,11.25,0,18.79,7.54,18.79,19.09"/><path class="cls-1" d="m658.88,109.34v11.86h-17.48v-5.22c-3.31,4.02-8.44,6.43-14.67,6.43-10.35,0-18.19-7.33-18.19-16.88s7.84-16.78,18.19-16.78h13.16v-6.63h-27.73v-12.16h40.79v39.39h5.93Zm-18.99-4.62v-5.93h-10.15c-4.42,0-7.74,2.81-7.74,6.53s3.32,6.63,7.74,6.63c6.03,0,10.15-2.91,10.15-7.24"/><path class="cls-1" d="m715.55,88.64v32.56h-13.06v-28.33c0-6.93-4.42-11.46-11.15-11.46-7.23,0-12.06,4.62-12.06,11.65v28.13h-13.06v-51.24h13.06v6.33c3.92-4.92,9.55-7.54,16.28-7.54,12.06,0,20,7.84,20,19.89"/><path class="cls-1" d="m736.35,49.96h16.48l-12.86,14.37h-13.77s10.15-14.37,10.15-14.37Zm-9.14,20h13.06v51.24h-13.06s0-51.24,0-51.24Z"/><path class="cls-1" d="m799.45,109.34v11.86h-17.48v-5.22c-3.31,4.02-8.44,6.43-14.67,6.43-10.35,0-18.19-7.33-18.19-16.88s7.84-16.78,18.19-16.78h13.16v-6.63h-27.73v-12.16h40.79v39.39h5.93Zm-18.99-4.62v-5.93h-10.15c-4.42,0-7.74,2.81-7.74,6.53s3.31,6.63,7.74,6.63c6.03,0,10.15-2.91,10.15-7.24"/><path class="cls-1" d="m803.67,95.58c0-15.27,11.86-26.83,27.53-26.83,13.76,0,24.52,8.84,26.93,21.2h-13.87c-2.11-5.12-7.03-8.54-13.06-8.54-8.04,0-14.07,6.13-14.07,14.17s6.03,14.17,14.07,14.17c6.03,0,10.95-3.42,13.06-8.54h13.87c-2.41,12.36-13.16,21.2-26.93,21.2-15.68,0-27.53-11.56-27.53-26.83"/><path class="cls-1" d="m864.06,95.58c0-15.27,11.86-26.83,27.53-26.83s27.53,11.56,27.53,26.83-11.86,26.83-27.53,26.83-27.53-11.56-27.53-26.83m41.6,0c0-8.04-5.93-14.17-14.07-14.17s-14.07,6.13-14.07,14.17,6.03,14.17,14.07,14.17,14.07-6.13,14.07-14.17"/><path class="cls-1" d="m925.25,105.83h13.16c0,3.22,2.71,5.83,6.13,5.83,3.22,0,5.73-2.01,5.73-4.62,0-3.52-3.92-5.22-8.54-6.43-7.64-1.81-15.77-5.73-15.77-16.08s8.54-15.77,18.39-15.77c10.55,0,18.49,7.03,18.49,15.77h-13.16c0-2.71-2.31-5.02-5.43-5.02-2.81,0-5.12,1.91-5.12,4.22,0,3.22,3.62,5.12,8.94,6.43,7.94,2.01,15.47,5.93,15.47,15.77,0,10.45-8.64,16.48-19.09,16.48-11.05,0-19.19-7.44-19.19-16.58"/></g></svg>