<?xml version="1.0" standalone="no"?>
<!DOCTYPE svg PUBLIC "-//W3C//DTD SVG 20010904//EN"
 "http://www.w3.org/TR/2001/REC-SVG-20010904/DTD/svg10.dtd">
<svg version="1.0" xmlns="http://www.w3.org/2000/svg"
 width="256.000000pt" height="256.000000pt" viewBox="0 0 256.000000 256.000000"
 preserveAspectRatio="xMidYMid meet">

<g transform="translate(0.000000,256.000000) scale(0.100000,-0.100000)"
fill="#000000" stroke="none">
<path d="M1212 1823 c-152 -263 -290 -508 -316 -563 -29 -60 -31 -73 -31 -170
0 -97 2 -110 32 -173 167 -351 657 -328 783 37 25 73 27 193 4 263 -8 27 -95
188 -192 358 -170 297 -178 310 -209 313 -29 3 -34 -1 -71 -65z m228 -343 c78
-137 148 -267 156 -287 14 -39 18 -141 8 -180 -5 -19 -11 -13 -36 37 -39 79
-100 131 -223 190 -55 26 -112 61 -127 76 -54 58 -71 141 -47 229 17 61 90
185 110 185 11 0 62 -79 159 -250z m-294 -219 c35 -39 70 -62 159 -106 131
-64 176 -107 201 -192 27 -94 -2 -145 -105 -184 -45 -17 -71 -20 -136 -17 -97
6 -161 34 -223 102 -64 70 -85 125 -86 226 -1 91 7 114 86 250 l31 55 14 -42
c8 -23 35 -65 59 -92z"/>
</g>
</svg>
