<svg width="20" height="20" viewBox="0 0 20 20" fill="none" xmlns="http://www.w3.org/2000/svg">
<path fill-rule="evenodd" clip-rule="evenodd" d="M10 20C15.5229 20 20 15.5229 20 10C20 4.47715 15.5229 0 10 0C4.47715 0 0 4.47715 0 10C0 15.5229 4.47715 20 10 20ZM14.5825 7.50061C14.0769 6.64659 13.3552 5.92442 12.5 5.41809L15.4175 2.50061C16.0774 2.99027 17.0103 3.92324 17.5 4.58313L14.5825 7.50061ZM5.41553 7.50061L2.49805 4.58313C2.9877 3.92324 3.92068 2.99027 4.58056 2.50061L7.49805 5.41809C6.64403 5.9237 5.92186 6.64538 5.41553 7.50061ZM10 13.7506C7.92896 13.7506 6.25 12.0716 6.25 10.0006C6.25 7.92957 7.92896 6.25061 10 6.25061C12.071 6.25061 13.75 7.92957 13.75 10.0006C13.75 12.0716 12.071 13.7506 10 13.7506ZM4.58056 17.4994C3.92068 17.0097 2.9877 16.0768 2.49805 15.4169L5.41553 12.4994C5.92114 13.3534 6.64281 14.0756 7.49805 14.5819L4.58056 17.4994ZM15.4175 17.4994L12.5 14.5819C13.354 14.0763 14.0762 13.3546 14.5825 12.4994L17.5 15.4169C17.0103 16.0768 16.0774 17.0097 15.4175 17.4994Z" fill="#65647E"/>
</svg>
