<svg width="796" height="338" viewBox="0 0 796 338" fill="none"
  xmlns="http://www.w3.org/2000/svg">
  <path d="M4.31228 247.491C10.8947 250.164 29.3245 251.5 53.5 251.5C73.3789 251.5 87.6395 246.624 98.104 251.317C98.3576 251.431 98.6393 251.445 98.8971 251.341C109.023 247.256 128.709 236.823 132.973 225.269L163.063 66.3062C163.227 65.4404 164.35 65.1944 164.861 65.9125L200.031 115.342C200.305 115.726 200.809 115.867 201.242 115.68L229.311 103.582C229.436 103.528 229.57 103.5 229.706 103.5H246.169C246.384 103.5 246.593 103.431 246.765 103.303L312.285 54.66C312.426 54.5552 312.592 54.4894 312.767 54.4694L342.532 51.0537C342.828 51.0197 343.094 50.855 343.257 50.6046L372.757 5.14502C373.125 4.57792 373.938 4.53182 374.368 5.05368L401.2 37.6357C401.39 37.8664 401.673 38 401.972 38H435.709C435.899 38 436.085 38.054 436.245 38.1557L461.817 54.3837C461.938 54.4603 462.073 54.5102 462.215 54.5299L497.744 59.4644C497.912 59.4877 498.083 59.4679 498.242 59.4067L519.865 51.0521C519.955 51.0175 520.048 50.996 520.144 50.9882L550.1 48.5328C550.357 48.5118 550.612 48.5908 550.812 48.7534L582.256 74.3018C582.415 74.4308 582.609 74.508 582.813 74.523L616.137 76.9733C616.371 76.9905 616.605 76.9245 616.795 76.7867L625.238 70.6893C625.408 70.5662 625.613 70.5 625.823 70.5H631.951C632.293 70.5 632.611 70.3253 632.795 70.0369L635.519 65.7559C635.793 65.3257 636.346 65.1704 636.804 65.3954L665.932 79.7207C666.279 79.8913 666.693 79.8467 666.995 79.6063L702.748 51.2001C702.912 51.07 703.112 50.9945 703.321 50.9843L753.742 48.5127C753.911 48.5044 754.076 48.4531 754.22 48.3637L791.973 24.9472C792.639 24.534 793.5 25.0131 793.5 25.797V337C793.5 337.552 793.052 338 792.5 338H3.5C2.94772 338 2.5 337.552 2.5 337V248.581C2.5 247.742 3.53536 247.176 4.31228 247.491Z" fill="url(#paint0_linear_988_17)"/>
  <path d="M2.5 246.5C6.66667 249.833 26.5 251.5 53.5 251.5C73.3789 251.5 87.6395 246.624 98.104 251.317C98.3576 251.431 98.6393 251.445 98.8971 251.341C109.023 247.256 128.709 236.823 132.973 225.269M132.973 225.269C133.189 224.682 133.366 224.092 133.5 223.5C136.3 211.1 134.315 219.513 132.973 225.269ZM132.973 225.269L163.063 66.3062C163.227 65.4404 164.35 65.1944 164.861 65.9125L200.031 115.342C200.305 115.726 200.809 115.867 201.242 115.68L229.311 103.582C229.436 103.528 229.57 103.5 229.706 103.5H246.169C246.384 103.5 246.593 103.431 246.765 103.303L312.285 54.66C312.426 54.5552 312.592 54.4894 312.767 54.4694L342.532 51.0537C342.828 51.0197 343.094 50.855 343.257 50.6046L372.757 5.14502C373.125 4.57792 373.938 4.53182 374.368 5.05368L401.2 37.6357C401.39 37.8664 401.673 38 401.972 38H435.709C435.899 38 436.085 38.054 436.245 38.1557L461.817 54.3837C461.938 54.4603 462.073 54.5102 462.215 54.5299L497.744 59.4644C497.912 59.4877 498.083 59.4679 498.242 59.4067L519.865 51.0521C519.955 51.0175 520.048 50.996 520.144 50.9882L550.1 48.5328C550.357 48.5118 550.612 48.5908 550.812 48.7534L582.256 74.3018C582.415 74.4308 582.609 74.508 582.813 74.523L616.137 76.9733C616.371 76.9905 616.605 76.9245 616.795 76.7866L625.238 70.6893C625.408 70.5662 625.613 70.5 625.823 70.5H631.951C632.293 70.5 632.611 70.3253 632.795 70.0369L635.519 65.7559C635.793 65.3257 636.346 65.1704 636.804 65.3954L665.932 79.7207C666.279 79.8913 666.693 79.8467 666.996 79.6063L702.748 51.2001C702.912 51.07 703.112 50.9945 703.321 50.9843L753.742 48.5127C753.911 48.5044 754.076 48.4531 754.22 48.3637L793.5 24" stroke="#28E59E" stroke-width="8" stroke-linejoin="round"/>
  <defs>
    <linearGradient id="paint0_linear_988_17" x1="398" y1="4" x2="398" y2="338" gradientUnits="userSpaceOnUse">
      <stop offset="0" stop-color="#38b19c"></stop>
      <stop stop-color="#193454" offset="0.57"></stop>
      <stop stop-color="#0f0e29" offset="1"></stop>
    </linearGradient>
  </defs>
</svg>
