<svg width="48" height="48" viewBox="0 0 48 48" fill="none" xmlns="http://www.w3.org/2000/svg">
<path d="M44 24C44 21.0547 42.1484 18.5391 39.5391 17.5625C40.6875 15.0312 40.2266 11.9453 38.1406 9.85938C36.0547 7.77344 32.9688 7.3125 30.4375 8.46094C29.4609 5.85156 26.9453 4 24 4C21.0547 4 18.5391 5.85156 17.5625 8.46094C15.0312 7.3125 11.9375 7.77344 9.85938 9.85938C7.77344 11.9453 7.3125 15.0312 8.46094 17.5625C5.85156 18.5391 4 21.0547 4 24C4 26.9453 5.85156 29.4609 8.46094 30.4375C7.3125 32.9688 7.77344 36.0625 9.85938 38.1406C11.9375 40.2188 15.0234 40.6953 17.5625 39.5391C18.5391 42.1406 21.0547 44 24 44C26.9453 44 29.4609 42.1484 30.4375 39.5391C32.9844 40.6953 36.0625 40.2188 38.1406 38.1406C40.2266 36.0547 40.6875 32.9688 39.5391 30.4375C42.1484 29.4609 44 26.9453 44 24ZM32.6875 20.543L22.45 30.6984C22.1133 31.0328 21.5688 31.0305 21.2352 30.6937L15.3195 24.7305C14.9852 24.3938 14.9875 23.8492 15.3242 23.5148L17.3578 21.4977C17.6945 21.1633 18.2391 21.1656 18.5734 21.5023L21.8664 24.8219L29.4602 17.2891C29.7969 16.9547 30.3414 16.957 30.675 17.2938L32.6922 19.3273C33.0266 19.6648 33.025 20.2094 32.6875 20.543Z" fill="#26C496"/>
</svg>
