<svg width="52" height="56" viewBox="0 0 52 56" fill="none" xmlns="http://www.w3.org/2000/svg">
    <path fill-rule="evenodd" clip-rule="evenodd" d="M50.36 7.85C46.42 7.14 44.3 3.26 43.45 1.24C43.14 0.49 42.42 0 41.61 0H10.39C9.58 0 8.86 0.49 8.55 1.24C7.7 3.26 5.58 7.14 1.64 7.85C0.69 8.02 0 8.85 0 9.81V20.9C0 36.85 10.26 50.95 25.37 55.9C25.58 55.96 25.79 56 26 56C26.21 56 26.42 55.96 26.63 55.9C41.74 50.95 52 36.85 52 20.9V9.81C52 8.85 51.31 8.02 50.36 7.85ZM49 20.9C49 35.26 39.89 48.1 26.33 52.83C26.22 52.87 26.11 52.8901 26 52.8901C25.89 52.8901 25.78 52.8701 25.67 52.83C12.11 48.1 3 35.2601 3 20.9V11.36C3 10.93 3.27 10.55 3.67 10.41C7.36 9.15 9.57 5.98 10.79 3.55C10.96 3.21 11.3 3 11.68 3H40.32C40.7 3 41.04 3.21 41.21 3.55C42.43 5.99 44.65 9.15 48.33 10.41C48.73 10.55 49 10.93 49 11.36V20.9ZM39.71 5H12.29C10.94 7.52 8.64 10.55 5 12.05V20.9C5 34.3 13.42 46.28 26 50.83C38.58 46.28 47 34.3 47 20.9V12.05C43.36 10.55 41.07 7.52 39.71 5ZM26 39C18.27 39 12 32.73 12 25C12 17.27 18.27 11 26 11C33.73 11 40 17.27 40 25C40 32.73 33.73 39 26 39ZM24.2324 26.8033L31.3036 19.7324C32.0846 18.9514 33.3511 18.9514 34.132 19.7324C34.9129 20.5133 34.913 21.7796 34.132 22.5605L25.6468 31.0461C24.8657 31.8272 23.5994 31.8272 22.8183 31.0461L17.8682 26.0957C17.0872 25.3147 17.0872 24.0485 17.8682 23.2675C18.6491 22.4866 19.9153 22.4866 20.6963 23.2675L24.2324 26.8033Z" fill="#26C496"/>
    <path fill-rule="evenodd" clip-rule="evenodd" d="M26 56C26.21 56 26.42 55.96 26.63 55.9C41.74 50.95 52 36.85 52 20.9V9.81C52 8.85 51.31 8.02 50.36 7.85C46.42 7.14 44.3 3.26 43.45 1.24C43.14 0.489998 42.42 0 41.61 0H26V3H40.32C40.7 3 41.04 3.21 41.21 3.55C42.43 5.99 44.65 9.15 48.33 10.41C48.73 10.55 49 10.93 49 11.36V20.9C49 35.26 39.89 48.1 26.33 52.83C26.22 52.87 26.11 52.8901 26 52.8901V56ZM26 50.83C38.58 46.28 47 34.3 47 20.9V12.05C43.36 10.55 41.07 7.52 39.71 5H26V11C33.73 11 40 17.27 40 25C40 32.73 33.73 39 26 39V50.83ZM26 30.6929L34.132 22.5605C34.913 21.7796 34.9129 20.5133 34.132 19.7324C33.3511 18.9514 32.0846 18.9514 31.3036 19.7324L26 25.0358V30.6929Z" fill="#169570"/>
</svg>
