<?xml version="1.0" encoding="utf-8"?>
<!-- Generator: Adobe Illustrator 25.0.0, SVG Export Plug-In . SVG Version: 6.00 Build 0)  -->
<svg version="1.1" id="Isolation_Mode"
	xmlns="http://www.w3.org/2000/svg"
	xmlns:xlink="http://www.w3.org/1999/xlink" x="0px" y="0px" viewBox="0 0 32 32" style="enable-background:new 0 0 32 32;" xml:space="preserve">
	<style type="text/css">
	.st0{fill:#08081D;}
	.st1{fill:#003F73;}
	.st2{fill:currentColor;}
	.st3{display:none;opacity:0.73;fill:#FFFFFF;}
	.st4{display:none;opacity:0.66;fill:#B9006E;}
	.st5{fill:#D4FF00;}
	</style>
	<path class="st2" d="M6.2128,17.4341c-0.1616-0.2256-0.1006-0.5684,0.1392-0.7402l5.8496-4.1787
	c0.1436-0.1064,0.3457-0.1309,0.5117-0.0664l5.3911,2.2441l4.1729-3.3232c0.2529-0.1807,0.6152-0.1289,0.7803,0.1045
	c0.1758,0.2461,0.1255,0.6084-0.1074,0.7744l-4.4087,3.4951c-0.146,0.1104-0.373,0.1387-0.541,0.0713l-5.4224-2.2471l-5.6104,4.0078
	c-0.1016,0.0684-0.2041,0.1016-0.3081,0.1016C6.4681,17.6773,6.3051,17.5884,6.2128,17.4341z M29.4921,26.53
	c0.1016,0.1143,0.1475,0.2617,0.1304,0.417c0.001,0.3076-0.2554,0.5635-0.582,0.5635H2.1937c-0.3267,0-0.5825-0.2559-0.5825-0.582
	c0-0.3271,0.2559-0.583,0.5825-0.583h1.7939v-5.9199c0-0.3271,0.2563-0.583,0.583-0.583h3.8647c0.3267,0,0.583,0.2559,0.583,0.583
	v5.9199h1.0801v-8.375c0-0.3271,0.2563-0.583,0.583-0.583h3.8389c0.3267,0,0.583,0.2559,0.583,0.583v8.375h1.0801v-7.748
	c0-0.3271,0.2563-0.583,0.583-0.583h3.8647c0.3267,0,0.583,0.2559,0.583,0.583v7.748h1.0801V14.4187
	c0-0.3271,0.2563-0.583,0.583-0.583h3.8389c0.3267,0,0.583,0.2559,0.583,0.583v11.9268h1.7676
	C29.2318,26.3455,29.3871,26.4129,29.4921,26.53z M7.8265,21.0086H5.1532v5.3369h2.6733V21.0086z M13.9374,18.5535h-2.6729v7.792
	h2.6729V18.5535z M20.0223,19.1804h-2.6729v7.165h2.6729V19.1804z M26.1337,15.0017h-2.6733v11.3438h2.6733V15.0017z M26.3097,9.455
	c-0.3716,0-0.709-0.1219-0.9492-0.2555l-0.1714,0.6794c0.2173,0.1277,0.5889,0.2322,0.972,0.2496v0.5516h0.5603v-0.5922
	c0.6576-0.1161,1.0178-0.5574,1.0178-1.0742c0-0.5225-0.2745-0.8419-0.955-1.0857c-0.486-0.1858-0.686-0.3078-0.686-0.4994
	c0-0.1625,0.12-0.3251,0.4917-0.3251c0.4116,0,0.6747,0.1335,0.8234,0.1974l0.1658-0.6561
	c-0.1886-0.0929-0.4459-0.1742-0.829-0.1916v-0.511h-0.5604v0.5516c-0.6119,0.1219-0.9664,0.5226-0.9664,1.0334
	c0,0.5632,0.4175,0.8536,1.0293,1.0626c0.4231,0.1451,0.6062,0.2845,0.6062,0.5051C26.8588,9.3273,26.6357,9.455,26.3097,9.455z
	 M22.5392,8.343c0-2.208,1.7183-3.9375,3.9121-3.9375c2.208,0,3.9375,1.7178,3.9375,3.9111c0,2.1719-1.7661,3.9385-3.9375,3.9385
	C24.2941,12.2551,22.5392,10.5002,22.5392,8.343z M23.5988,8.3166c0,1.5732,1.2798,2.8525,2.8525,2.8525
	s2.8521-1.2676,2.8521-2.8262c0-1.5732-1.2793-2.8525-2.8521-2.8525S23.5988,6.758,23.5988,8.3166z"/>
</svg>
