<svg xmlns="http://www.w3.org/2000/svg" viewBox="0 0 32 32">
  <defs>
    <style>
      .a {
        fill: currentColor;
      }
    </style>
  </defs>
  <path class="a" d="M10.17,10A12.45,12.45,0,0,1,8.8,8.45a2.84,2.84,0,0,1,.45-3.31,3.06,3.06,0,0,1,3.48-.66A5.48,5.48,0,0,1,15.3,7.05c.24.42.45.86.7,1.33.45-.77.82-1.49,1.27-2.16a4.25,4.25,0,0,1,2.56-1.9,3,3,0,0,1,3.45,1.51,2.92,2.92,0,0,1-.83,3.61l-.75.6h3.13c.4,0,.8,0,1.19,0a1.67,1.67,0,0,1,1.6,1.64c0,1.21,0,2.42,0,3.64a1.53,1.53,0,0,1-1.13,1.56c-.51.14-.58.39-.58.84q0,4.34,0,8.67c0,1-.1,1.08-1.05,1.09H7.21c-1,0-1.07-.12-1.07-1.06q0-4.35,0-8.68c0-.44,0-.71-.57-.85a1.59,1.59,0,0,1-1.18-1.62c0-1.16,0-2.32,0-3.48a1.71,1.71,0,0,1,1.89-1.75C7.56,10,8.83,10,10.17,10Zm14.6,16.31c0-3.06,0-6,0-8.93a.63.63,0,0,0-.45-.4c-1.65,0-3.31,0-5,0a.64.64,0,0,0-.42.44q0,4.21,0,8.43a.61.61,0,0,0,.41.44C21.11,26.36,22.88,26.35,24.77,26.35ZM13.11,21.7c0-1.36,0-2.71,0-4.07,0-.49-.16-.64-.64-.64q-2.3,0-4.59,0c-.51,0-.62.21-.61.67,0,2.69,0,5.37,0,8.06,0,.49.15.65.64.64,1.5,0,3,0,4.51,0,.58,0,.71-.21.7-.74C13.09,24.32,13.11,23,13.11,21.7Zm1.14-10.48V25.37a1.93,1.93,0,0,0,0,.59c.05.15.22.36.34.37,1,0,2.05,0,3.09,0V11.22Zm4.66,0c0,1.49,0,2.87,0,4.25a.59.59,0,0,0,.42.42c2.15,0,4.29,0,6.44,0a.62.62,0,0,0,.69-.69c0-1.11,0-2.23,0-3.33a.91.91,0,0,0-.62-.63C23.56,11.18,21.29,11.19,18.91,11.19Zm-5.81,0H6.18c-.51,0-.66.37-.66.82v3c0,.5.22.81.74.81,2.13,0,4.26,0,6.38,0a.59.59,0,0,0,.44-.41C13.12,14.07,13.1,12.69,13.1,11.2ZM15.16,10A6.89,6.89,0,0,0,13,6a3.51,3.51,0,0,0-1.27-.55,1.75,1.75,0,0,0-1.44,3.06,3.91,3.91,0,0,0,.85.59A10.48,10.48,0,0,0,15.16,10Zm1.61.12c1.15-.23,2.17-.36,3.14-.65a5.66,5.66,0,0,0,1.83-.93,1.69,1.69,0,0,0,.5-2.18,1.8,1.8,0,0,0-2.15-.87,3.13,3.13,0,0,0-1.15.62A7.92,7.92,0,0,0,16.77,10.08Z"/>
</svg>
