<svg xmlns="http://www.w3.org/2000/svg" viewBox="0 0 32 32">
  <defs>
    <style>
      .tab-balance {
        fill: currentColor;
      }
    </style>
  </defs>
  <path class="tab-balance" d="M31,17.3a5.3,5.3,0,0,0-.83-.41,13.39,13.39,0,0,0-3.69-.82L25.23,16l-.56,0h-.05V13.77c0-1.4,0-2.86,0-4.29a1.9,1.9,0,0,0-.89-1.7,7.47,7.47,0,0,0-1.3-.64A14.73,14.73,0,0,0,18,6.36,19.2,19.2,0,0,0,11.66,7,5.17,5.17,0,0,0,9.57,8,1.48,1.48,0,0,0,9,9.18l.06,2.06v.65a1.33,1.33,0,0,1,0,.2v.17H8.89a7.61,7.61,0,0,0-5.21,1A7.7,7.7,0,0,0,.05,19.76,7.47,7.47,0,0,0,2.19,25a7.6,7.6,0,0,0,10.05.73.55.55,0,0,1,.3-.11h.05a21.14,21.14,0,0,0,3.74.42.33.33,0,0,1,.26.18,2,2,0,0,0,1,1.08,9.84,9.84,0,0,0,1.77.72,20.19,20.19,0,0,0,9.53.06,6.15,6.15,0,0,0,2.2-.9A1.84,1.84,0,0,0,32,25.51c0-2.32,0-4.43,0-6.43A1.88,1.88,0,0,0,31,17.3Zm-7.48-6.57v.07c0,.16,0,.31,0,.47,0,.43,0,.88-.08,1.32a.81.81,0,0,1-.43.48l-.31.13a9.22,9.22,0,0,1-1.62.59,19.88,19.88,0,0,1-4.27.47,19.64,19.64,0,0,1-4.1-.44,2.21,2.21,0,0,1-.5-.21l0,0-.61-.34-1-.53c-.17-.09-.26-.17-.25-.37V10.83l.06,0a20,20,0,0,0,13-.1Zm-13-1.93A8.18,8.18,0,0,1,12,8.11a16.78,16.78,0,0,1,4.8-.61A16.41,16.41,0,0,1,22,8.24a6.87,6.87,0,0,1,1,.5l.17.1a.32.32,0,0,1,.19.28.29.29,0,0,1-.19.25l-.26.14a6.51,6.51,0,0,1-1.2.55,16.18,16.18,0,0,1-4.83.65c-.49,0-1,0-1.52-.05A13.06,13.06,0,0,1,11.64,10a6,6,0,0,1-1.2-.59c-.17-.11-.25-.21-.25-.32A.43.43,0,0,1,10.43,8.8ZM7.63,26.11h0a6.36,6.36,0,0,1-4.52-1.92,6.29,6.29,0,0,1-1.83-4.5,6.44,6.44,0,0,1,2-4.58,6.21,6.21,0,0,1,4.36-1.8h.09a6.4,6.4,0,1,1,0,12.8Zm8.86-1.22h-.06l-1.64-.14-1.29-.12,0-.07,1.23-2.12,0,0h0l1.62.08h0Zm-1.38-3.64.12-2.35h.23l.92,0h0v2.35Zm2.2-3.85-.36.24,0,0a.54.54,0,0,1-.26.11h0c-.57,0-1,0-1.47-.05a.4.4,0,0,1-.3-.22c-.26-.55-.51-1.12-.75-1.67l-.25-.56H14a19.38,19.38,0,0,0,9.36-1l.07,0V16h0l-.47,0-1,.07A12.14,12.14,0,0,0,18,17,4.82,4.82,0,0,0,17.31,17.4Zm.52,1a5.35,5.35,0,0,1,2.05-.83,18.36,18.36,0,0,1,4.36-.44,16.49,16.49,0,0,1,5.2.75,5.23,5.23,0,0,1,1.06.53c.18.11.27.22.26.33s-.1.18-.26.28a4.94,4.94,0,0,1-1.84.77,18.91,18.91,0,0,1-4.57.55,16.42,16.42,0,0,1-5-.69A4.75,4.75,0,0,1,17.83,19c-.15-.1-.23-.18-.23-.28S17.67,18.55,17.83,18.43Zm13,7.24a.77.77,0,0,1-.4.6,8.07,8.07,0,0,1-1.8.66,18,18,0,0,1-4.46.52,21.8,21.8,0,0,1-2.94-.27,13.38,13.38,0,0,1-2.91-.8c-.49-.22-.64-.47-.64-1.09,0-.29,0-1.14,0-1.25V24l.12.06a19.63,19.63,0,0,0,12.93-.09l.06,0V24C30.76,24.14,30.78,25.22,30.78,25.67Zm0-3.63a.78.78,0,0,1-.44.66,6.17,6.17,0,0,1-2.14.77,22,22,0,0,1-4.17.42,17.2,17.2,0,0,1-4.94-.7,3.64,3.64,0,0,1-1.16-.54.63.63,0,0,1-.25-.47c0-.41,0-1.59,0-1.64v-.1l.1,0a19.94,19.94,0,0,0,13,0l.07,0v.51C30.78,21.27,30.78,21.65,30.77,22Z"/>
</svg>
