<svg xmlns="http://www.w3.org/2000/svg" viewBox="0 0 32 32">
  <defs>
    <style>
      .tab-portfolio {
        fill: currentColor;
      }
    </style>
  </defs>
  <path class="tab-portfolio" d="M28.51,17.73v7.74a1.76,1.76,0,0,1-1.8,1.79H5.29a1.76,1.76,0,0,1-1.8-1.79V17.73a.57.57,0,0,1,.61-.6.57.57,0,0,1,.6.6v7.74a.55.55,0,0,0,.59.58H26.71a.55.55,0,0,0,.59-.58V17.73a.57.57,0,0,1,.6-.6A.57.57,0,0,1,28.51,17.73Zm.59-7.14V14.4a1.79,1.79,0,0,1-1.37,1.73l-9.34,2.09v1.89a.57.57,0,0,1-.6.61H14.22a.58.58,0,0,1-.61-.61V18.22L4.28,16.13A1.79,1.79,0,0,1,2.9,14.4V10.59A1.75,1.75,0,0,1,4.69,8.8H27.31A1.75,1.75,0,0,1,29.1,10.59ZM14.82,17.15v2.36h2.36V17.15Zm3.57-.61V17l9-2a.57.57,0,0,0,.47-.59V10.59a.55.55,0,0,0-.58-.58H4.69a.55.55,0,0,0-.58.58V14.4a.57.57,0,0,0,.47.59l9,2v-.47a.57.57,0,0,1,.61-.6h3.57A.57.57,0,0,1,18.39,16.54ZM11.83,7.63A.58.58,0,0,0,12.44,7V6.43A.55.55,0,0,1,13,5.84h6a.55.55,0,0,1,.58.59V7a.61.61,0,1,0,1.21,0V6.43A1.75,1.75,0,0,0,19,4.63H13a1.75,1.75,0,0,0-1.79,1.8V7A.57.57,0,0,0,11.83,7.63Z"/>
</svg>
