<svg xmlns="http://www.w3.org/2000/svg" viewBox="0 0 32 32">
  <defs>
    <style>
      .a {
        fill: #a9a9ba;
      }
    </style>
  </defs>
  <path class="a" d="M16,27.25H6.85A2.07,2.07,0,0,1,4.56,25V13.87A1,1,0,0,1,5,13L15.42,4.79c.48-.37.68-.37,1.17,0l10.35,8.13a1.17,1.17,0,0,1,.5,1.05c0,3.63,0,7.27,0,10.9a2.11,2.11,0,0,1-2.37,2.36ZM6.26,13.61c.07.1.09.14.11.15l6.7,5.41c.23.18.36.08.53-.06l2.08-1.69c.49-.4.69-.39,1.16,0s1.18,1,1.75,1.56a.52.52,0,0,0,.83,0c2-1.66,4.06-3.3,6.08-5l.41-.37a2.19,2.19,0,0,1-.28-.19L16.31,6.18c-.26-.21-.42-.16-.65,0C13.4,8,11.12,9.78,8.86,11.56ZM25.13,26c-.1-.1-.33-.28-.38-.32-2.69-2.28-5.38-4.54-8.06-6.83a.62.62,0,0,0-.92,0c-2.81,2.28-5.63,4.54-8.45,6.81-.09.08-.22.19-.37.34ZM12.34,20.1,5.86,14.92V25.31C8.05,23.55,10.15,21.85,12.34,20.1Zm13.82-5L20,20.1l6.21,5.2ZM16.6,16.26v-1a1.87,1.87,0,0,0,1.78-1.76c0-.86-.48-1.38-1.67-1.78-.85-.3-1.2-.5-1.2-.82s.21-.53.86-.53a3.35,3.35,0,0,1,1.44.33l.29-1.08a3.83,3.83,0,0,0-1.45-.31V8.5h-1v.91A1.78,1.78,0,0,0,14,11.1c0,.92.73,1.39,1.8,1.73.74.24,1.06.47,1.06.83s-.39.59-1,.59a3.66,3.66,0,0,1-1.66-.42l-.3,1.11a4.2,4.2,0,0,0,1.7.41v.91Z"/>
</svg>
