<?xml version="1.0" encoding="utf-8"?>
<!-- Generator: Adobe Illustrator 25.0.0, SVG Export Plug-In . SVG Version: 6.00 Build 0)  -->
<svg version="1.1" id="aaf1aad0-ee15-4813-a500-26b514b169b3"
	 xmlns="http://www.w3.org/2000/svg" xmlns:xlink="http://www.w3.org/1999/xlink" x="0px" y="0px" viewBox="0 0 36 36"
	 style="enable-background:new 0 0 36 36;" xml:space="preserve">
<style type="text/css">
	.st0{fill:#89899A;}
</style>
<path class="st0" d="M15.9,8.2c0,1.5,0,2.9,0,4.4c0,1.9-1.4,3.3-3.3,3.3c-3,0-6,0-8.9,0c-1.8,0-3.2-1.4-3.2-3.2c0-3,0-6,0-9
	c0-1.8,1.4-3.2,3.2-3.2c3,0,5.9,0,8.9,0c2,0,3.3,1.4,3.3,3.4C15.9,5.2,15.9,6.7,15.9,8.2z M13.2,8.1c0-1.3,0-2.7,0-4
	c0-0.7-0.3-1-1-1c-2.7,0-5.3,0-8,0c-0.7,0-1,0.3-1,1c0,2.7,0,5.4,0,8.1c0,0.7,0.3,0.9,1,0.9c2.7,0,5.4,0,8.2,0
	c0.6,0,0.9-0.2,0.9-0.9C13.2,10.9,13.2,9.5,13.2,8.1z M35.5,8.1c0,1.5,0,2.9,0,4.4c0,1.9-1.4,3.3-3.3,3.3c-3,0-6,0-8.9,0
	c-1.8,0-3.2-1.4-3.2-3.2c0-3,0-6,0-9c0-1.8,1.4-3.2,3.2-3.2c3,0,5.9,0,8.9,0c2,0,3.3,1.4,3.3,3.4C35.6,5.2,35.5,6.7,35.5,8.1z
	 M32.8,8.2c0-1.3,0-2.7,0-4c0-0.9-0.1-1.1-1-1.1c-2.6,0-5.3,0-7.9,0c-0.7,0-1.1,0.3-1,1c0,2.7,0,5.3,0,8c0,0.6,0.3,1,0.9,1
	c2.7,0,5.5,0,8.2,0c0.6,0,0.9-0.2,0.8-0.8C32.8,10.9,32.8,9.5,32.8,8.2z M15.9,27.8c0,1.4,0,2.9,0,4.3c0,1.9-1.4,3.3-3.3,3.3
	c-3,0-5.9,0-8.9,0c-1.9,0-3.3-1.4-3.3-3.3c0-3,0-5.9,0-8.9c0-1.9,1.4-3.3,3.3-3.3c2.9,0,5.9,0,8.8,0c2,0,3.3,1.4,3.3,3.4
	C15.9,24.9,15.9,26.3,15.9,27.8z M13.2,27.7c0-1.3,0-2.7,0-4c0-0.7-0.3-1-1-1c-2.7,0-5.4,0-8.1,0c-0.6,0-1,0.3-1,0.9
	c0,2.7,0,5.4,0,8.2c0,0.6,0.3,0.9,0.9,0.9c2.7,0,5.5,0,8.2,0c0.7,0,0.9-0.3,0.8-0.9C13.2,30.4,13.2,29.1,13.2,27.7z M35.1,22.2
	c0-1-0.5-1.6-1.5-1.6c-1.9,0-3.7,0-5.6,0c-0.8,0-1.4,0.4-1.5,1.2c-0.1,0.6-0.1,1.2-0.1,1.8c0,0.5-0.1,0.8-0.7,0.7
	c-0.5,0-1.1,0-1.6,0c-0.5,0-0.8-0.2-0.8-0.7c0-0.5,0-1,0-1.5c0-0.9-0.6-1.6-1.3-1.5c-0.8,0-1.4,0.6-1.4,1.6c0,1.1,0,2.2,0,3.4
	c0,1,0.5,1.5,1.6,1.5c1.8,0,3.6,0,5.4,0c1.1,0,1.6-0.4,1.6-1.6c0.1-2.3,0.1-2.2,2.4-2.2c0.7,0,0.9,0.2,0.9,0.9c0,1.1,0,2.2,0,3.4
	c0,0.9,0.6,1.5,1.4,1.5c0.8,0,1.3-0.6,1.3-1.5c0-0.9,0-1.8,0-2.7C35.1,24,35.1,23.1,35.1,22.2z M27.8,35c2,0,3.9,0,5.9,0
	c0.8,0,1.3-0.6,1.4-1.2c0-0.7-0.5-1.3-1.2-1.5c-0.2,0-0.5,0-0.7,0c-2.9,0-5.8,0-8.7,0c-1.1,0-1.1,0-1.1-1.1c0-0.4,0-0.8,0-1.2
	c0-1-0.6-1.6-1.3-1.6c-0.8,0-1.4,0.6-1.4,1.6c0,1.1,0,2.2,0,3.4c0,1.2,0.5,1.7,1.7,1.7C24.1,35,26,35,27.8,35
	C27.8,35,27.8,35,27.8,35z M6.4,8.1c0,1,0.8,1.9,1.8,1.9c1,0,1.9-0.9,1.9-1.9c0-1-0.8-1.8-1.9-1.8C7.2,6.3,6.4,7.1,6.4,8.1z M28,6.3
	c-1.1,0-1.9,0.7-2,1.8c0,1,0.8,1.9,1.8,1.9c1,0,1.9-0.8,1.9-1.9C29.7,7.2,28.9,6.3,28,6.3z M6.4,27.8c0,1,0.9,1.9,1.9,1.9
	c1,0,1.9-0.9,1.9-1.9c0-1-0.9-1.8-1.9-1.8C7.2,25.9,6.3,26.7,6.4,27.8z"/>
</svg>
