<?xml version="1.0" encoding="utf-8"?>
<!-- Generator: Adobe Illustrator 25.0.0, SVG Export Plug-In . SVG Version: 6.00 Build 0)  -->
<svg version="1.1" id="Layer_1" xmlns="http://www.w3.org/2000/svg" xmlns:xlink="http://www.w3.org/1999/xlink" x="0px" y="0px"
	 viewBox="0 0 39.7 74.1" style="enable-background:new 0 0 39.7 74.1;" xml:space="preserve">
<style type="text/css">
	.st0{fill:#FED932;}
	.st1{fill:#F5C22D;}
	.st2{fill:#EAAC28;}
	.st3{fill:#FDDC4E;}
	.st4{fill:#FCE788;}
	.st5{fill:#FFFFFF;}
</style>
<path class="st0" d="M38,35.9c-0.8-0.3-10.1-3-13.8-4.1c-1.5-0.4-2.2-1.7-1.8-3.2c2.2-8,4.5-15.9,6.8-23.9c0.3-0.8,0.4-1.6,0.7-2.4
	c0-0.1,0.3-1.3-0.4-1.6s-1.3-0.1-1.7,0.2c-0.4,0.4-0.8,0.8-1.1,1.3c-0.7,1-7.9,10.4-7.9,10.4c-3.8,4.9-7.7,9.7-11.5,14.6
	c-1.2,1.4-6.1,7.1-6.7,9c-0.1,0.3-0.1,0.5-0.1,0.9c0.1,0.8,0.9,1.8,2,2.1c4.4,1.4,8.9,2.7,13.3,4.1c0.9,0.2,1.6,0.7,1.7,1.7
	c0,0.8,0,1.6-0.2,2.3c-1.2,4.6-2.5,9.2-3.8,13.8c-1,3.5-2,7.1-3,10.7c-0.3,1.2,0.3,1.6,0.8,1.8c0.9,0.3,1.7-0.3,2.2-0.9
	c1.4-1.8,2.7-3.7,4.1-5.5c1.1-1.4,3.1-4.2,3.2-4.3c0,0,5.4-7,8-10.4c1.1-1.4,3.3-4.4,3.4-4.5c1.8-2.3,3.4-4.5,5.2-6.8
	c0.7-0.9,1.7-1.7,1.8-2.9c0-0.2,0-0.3,0-0.5C39.1,37,38.7,36.2,38,35.9z"/>
<g>
	<path class="st0" d="M32,48.3c-1.1,1.4-2.1,2.8-3.2,4.2c-2.6,3.4-5.3,6.9-7.9,10.3l-0.1,0.1c-0.1,0.1-0.8,0.9-1.2,1.4
		c-0.4,0.5-1.6,1.6-2.8,2.8c-0.9,0.9-1.3,1.1-1.6,1.3c-0.3,0.2-1.4,0.7-1.2-0.6s0.4-1.9,0.7-2.9c0.6-1.9,1-3.8,1.5-5.8
		c0.2-0.9,0.5-1.8,0.8-2.6c0.6-2.1,1.2-4.1,1.7-6.2c0.3-1.1,0.6-2.3,0.7-3.5c0.1-0.7,0.1-1.5,0-2.2c-0.1-0.4-0.2-0.7-0.3-1
		c-0.2-0.4-0.4-0.7-0.8-0.9c-0.7-0.5-1.1-0.7-1.8-1c-0.4-0.2-0.9-0.4-1.2-0.5c-1-0.3-2-0.7-3-1c-0.2,0-0.3-0.1-0.4-0.1
		c-0.5-0.2-1.1-0.3-1.6-0.4c-1.7-0.3-3.3-0.8-4.9-1.4c-0.3-0.1-0.6-0.2-0.9-0.4c-0.6-0.3-1-0.9-1-1.6c0-0.1-0.1-0.3,0-0.4
		c0.1,0,0.1,0.1,0.1,0.1c0,0.1,0,0.1,0,0.2c0,0.5,0.4,1.1,1,1.3c1.1,0.5,2.2,0.8,3.3,0.9c0.4,0.1,0.8,0.2,1.2,0.2c0.3,0,0.5,0,0.8,0
		c0.2,0,1-0.1,1.1-0.2c0.1,0,0.1-0.1,0-0.2c-0.1-0.1-0.1-0.1-0.2-0.1c-0.6-0.3-1.1-0.7-1.6-1.1c-0.6-0.6-1-1.3-1-2.1
		c0-1,0.2-2,0.6-2.9c0.4-1,0.9-2,1.5-3c0.8-1.4,1.7-2.8,2.6-4.2c0.6-0.9,1.3-1.8,1.8-2.8c0.5-0.8,0.9-1.6,1.3-2.4
		c0.5-0.9,1-1.9,1.5-2.8c0.4-0.7,0.7-1.3,1.1-2c0.6-1.2,1.2-2.3,1.8-3.5c0.2-0.4,0.4-0.8,0.5-1.2c0-0.2,0.2-0.4,0.3-0.5
		c0.1-0.1,0.2-0.2,0.2-0.4c0-0.1,0-0.1,0.1-0.2c1-1.3,2-2.5,3-3.8c0.8-1,1.5-2,2.2-3c0.3-0.5,0.7-0.9,1.1-1.3
		c0.4-0.3,0.6-0.4,0.9-0.4c0,0,0.1,0,0.2,0s0.2,0,0.4,0.1c0,0.1,0,0.1,0,0.2c-0.6,1.6-1.2,3.3-1.8,4.9c-0.4,1.2-0.9,2.4-1.4,3.6
		c-0.5,1.3-1,2.6-1.6,3.9c-0.2,0.5-0.5,0.9-0.7,1.4c-0.2,0.4-0.4,0.7-0.5,1.1c-0.1,0.1-0.1,0.3-0.1,0.4c-0.3,1-0.7,2-1,3
		c-0.5,1.4-1,2.7-1.5,4.1c-0.4,1.2-0.8,2.4-1.1,3.7c-0.2,0.8-0.4,1.6-0.4,2.4c0,0.6,0,1.3,0.2,1.9c0.2,0.5,0.4,0.9,0.8,1.3
		c0.8,0.7,1.7,1.1,2.7,1.4c1.3,0.4,2.7,0.6,4,0.8c1.5,0.2,3,0.3,4.5,0.5c1.1,0.2,2.3,0.5,3.3,0.9c0.7,0.3,1.4,0.5,1.9,1.1
		c0.6,0.6,0.6,1.8,0.4,2.3c-0.1,0.5-0.3,0.9-0.6,1.4c0,0.1-0.2,0-0.1-0.1c0.1-0.3,0.3-0.6,0.3-0.9c0.1-0.4,0-0.8-0.2-1.2
		c-0.2-0.2-0.2-0.5-0.3-0.7s-0.2-0.4-0.3-0.6c-0.3-0.3-0.4-0.5-0.7-0.7c-0.9-0.6-1.8-0.9-2.8-1.2s-2.1-0.4-3.2-0.5
		c-0.7-0.1-1.5-0.1-2.2-0.2c-0.8,0-1.6-0.1-2.4-0.1c-0.3,0-0.7-0.1-1-0.1c-0.7,0-1.3-0.1-2-0.1c-0.1,0-0.2,0-0.3,0.1
		c-0.1,0.1-0.2,0.2-0.3,0.2c-0.1,0.1-0.1,0.1,0,0.2c0.1,0.1,0.3,0.1,0.4,0.2c1.2,0.4,2.5,0.7,3.8,1c1.4,0.4,2.8,0.7,4.2,1.3
		c0.4,0.2,0.8,0.4,1.2,0.6c0.7,0.4,1,1,1.1,1.7c0.1,0.8,0,1.6-0.2,2.4c-0.3,1.1-0.7,2.2-1.2,3.2c-0.8,1.8-1.9,3.4-2.9,5.1
		c-0.7,1.1-1.3,2.1-1.9,3.3c-0.6,1.1-1.3,2.2-1.9,3.4c-0.4,0.7-0.8,1.4-1.2,2.1c-0.3,0.6-0.6,1.2-0.8,1.8v0.1v0.1c0,0,0.1,0,0.1-0.1
		c0.3-0.3,0.5-0.6,0.7-0.9c1.3-1.8,2.5-3.5,3.8-5.3c0.8-1.1,1.7-2.2,2.5-3.3c1.2-1.6,2.4-3.2,3.7-4.8c1-1.4,2.1-2.8,3-4.2
		c0.2-0.4,0.5-0.7,0.7-1.1c0-0.1,0.1-0.2,0.2-0.1c0.1,0.1,0,0.1,0,0.2c-0.2,0.3-0.4,0.6-0.6,0.9c-0.7,1.1-1.3,2.2-2,3.3
		C32.9,46.6,32.4,47.7,32,48.3z"/>
	<path class="st1" d="M38,35.9c0.7,0.3,1.1,1.1,1.2,1.9c0,0.2,0,0.3,0,0.5c-0.1,1.2-1.1,2-1.8,2.9c-1.8,2.3-3.5,4.6-5.3,6.9
		c0,0-0.8,1.1-0.9,1.1c0.3-0.4,0.6-1.3,0.8-1.4c0.6-0.9,1-1.7,1.6-2.6c0.8-1.2,1.6-2.4,2.3-3.5c0-0.1,0.8-1.5,1-1.9
		c0.2-0.7,0.4-1.9-0.5-2.5c-2-1.4-3.5-1.8-5.5-2.1c-2.1-0.3-4.3-0.3-6.4-0.6c-1.6-0.2-3.2-0.8-4.5-1.8c-0.7-0.5-1-1.2-1-2
		c-0.2-1.8,0.3-3.5,0.8-5.2c1-3,2.1-5.9,3.1-8.9c0.3-0.9,0.8-1.8,1.2-2.7c0.7-1.7,1.4-3.3,2.1-5c1-2.7,2.9-7.7,3-7.9
		c0.1-0.2,0-0.4-0.2-0.5c1,0.3,1.1,0.9,1,1.5c-0.1,0.3-0.2,0.5-0.3,0.8c-0.2,0.8-0.5,1.7-0.8,2.6c-0.4,1.3-0.8,2.5-1.2,3.8
		c-0.7,2.1-1.5,4.2-2.2,6.3c-0.4,1.1-0.7,2.1-1.1,3.2c-0.5,1.2-0.9,2.4-1.4,3.6c-0.6,1.6-1.2,3.2-1.6,4.8c-0.2,0.7-0.3,1.4-0.4,2
		c-0.1,1.1,0.3,2,1.2,2.6c0.1,0.1,0.3,0.2,0.4,0.3c0.1,0.1,0.2,0.1,0.3,0.2c1,0.5,2,0.9,3.1,1.2c1.3,0.4,1.9,0.4,3.6,0.7
		C30.7,34.3,36,35.1,38,35.9z"/>
	<path class="st2" d="M1.1,34.8c0.5-0.8,3-4,4.4-5.6c-0.1,0.2-1.4,2.1-1.6,2.4c-0.2,0.3-0.4,0.7-0.6,1C3.2,33,3,33.4,2.8,33.8
		c-0.2,0.5-0.4,1.1-0.5,1.7c-0.1,0.4,0,0.8,0.1,1.2c0.2,0.5,0.5,0.9,1,1.1c1.3,0.5,2.6,1,3.9,1.4c2.2,0.7,4.4,1.4,6.6,2.2
		c0.1,0,2.5,1.1,3.1,1.5c0.7,0.4,1.2,0.9,1.3,1.6c0.1,0.7,0,1.3-0.1,2c-0.2,1.4-0.6,2.8-0.9,4.2c-0.4,1.5-0.7,2.9-1.2,4.4
		c-0.3,1.1-0.6,2.2-0.8,3.3c-0.5,2-1,4-1.5,5.9c-0.4,1.7-0.8,3.4-1.2,5.1c-0.3,1.3-0.4,2.3-0.8,3.6c0,0.1,0.6,0.8,0.5,0.8
		c-0.9,0.1-2.2-0.2-1.8-2c1-3.6,2-7.2,3-10.7c1.3-4.6,2.6-9.2,3.8-13.8c0.2-0.7,0.2-1.5,0.2-2.3c-0.1-1-0.8-1.5-1.7-1.7
		c-4.4-1.4-8.9-2.7-13.3-4.1c-1.1-0.3-1.9-1.3-2-2.1C0.3,36.2,0.7,35.5,1.1,34.8z"/>
	<path class="st1" d="M11.8,73.5c-0.1-0.2-0.2-0.4-0.1-0.7c0.1-0.5,0.2-0.9,0.3-1.3c0.8-3.4,1.6-6.8,2.5-10.2c1-4,2.1-8,3.1-12.1
		c0.3-1.2,0.6-2.4,0.7-3.6c0.1-1.3,0.2-1.8-1.7-3c-0.9-0.5-1.6-0.7-2.4-1c-0.8-0.4-1.7-0.7-2.6-0.9c-2.1-0.7-4.3-1.4-6.4-2.1
		c-0.6-0.2-1.2-0.5-1.8-0.7c-0.8-0.4-1.4-1.4-1.3-2.2c0.1-2.4,4.3-7.5,5.2-8.6s7.8-9.6,11.6-14.5l0.2-0.2c0.1,0.1-0.1,0.3-0.1,0.3
		c-0.3,0.4-0.5,0.8-0.8,1.2C18,14,18,14.2,17.8,14.2c-0.2,0.1-0.2,0.2-0.4,0.4c-1,1.3-1.9,2.5-2.9,3.8c-1.7,2.3-3.5,4.7-5.2,7
		c-0.8,1-1.5,2-2.2,3c-0.4,0.7-1,1.3-1.3,2.1C5.6,31,5.3,31.4,5,31.9c-0.5,0.8-0.9,1.5-1.2,2.4c-0.1,0.2-0.4,1.2-0.4,1.2
		c-0.1,0.6,0.4,2,1.2,2.4c2,0.9,4,1.3,6.1,1.8c1.9,0.5,3.7,1.1,5.5,1.8c0.9,0.3,1.7,0.9,2.5,1.4c0.6,0.4,0.7,1.1,0.8,1.8
		c0.2,1.4,0.1,2.8-0.3,4.2c-0.7,2.7-1.5,5.3-2.2,8c-0.5,1.8-0.9,3.5-1.4,5.3c-0.4,1.6-0.9,3.2-1.3,4.8c-0.1,0.5-0.3,1.2-0.2,1.4
		c0.1,0.2,0.3,0.3,0.6,0.2c0.3-0.1,1.1-0.5,1.7-1.1c0.7-0.7,4-4.2,4.4-4.6c-1.1,1.4-2.1,2.9-3.2,4.3c-1.4,1.8-2.7,3.7-4.1,5.5
		c-0.4,0.5-0.9,1.1-1.3,1.1C11.8,73.7,11.9,73.7,11.8,73.5z"/>
	<path class="st3" d="M35.9,41.7c-0.2,0.3-0.4,0.6-0.6,0.8c-1.2,1.7-2.4,3.5-3.7,5.1c-1.4,1.9-2.8,3.7-4.2,5.5
		c-1.9,2.6-3.8,5.2-5.7,7.8c-0.1,0.1-0.2,0.3-0.3,0.4c-0.1,0.1-0.1,0.1-0.2,0.1c0-0.1,0-0.2,0-0.2c0.4-0.9,0.8-1.8,1.3-2.6
		c1-1.8,1.9-3.5,2.9-5.2c0.9-1.5,1.8-3,2.7-4.5c1.2-1.9,2.3-3.9,2.9-6.1c0.3-0.9,0.5-1.9,0.4-2.9c-0.1-1.2-1-1.7-1.9-2.1
		c-2.1-0.9-4.4-1.4-6.6-2c-0.7-0.2-1.4-0.4-2.1-0.6c-0.1,0-0.2-0.1-0.3-0.2c0.1-0.1,0.1-0.1,0.2-0.2c0.5-0.5,1.1-0.4,1.7-0.4
		s1.3,0.1,1.9,0.2c1.9,0.1,3.7,0.2,5.6,0.4c1.4,0.1,2.8,0.5,4.1,1c1.1,0.5,1.9,1.3,2.3,2.2c0.2,0.5,0.4,1,0.2,1.7
		C36.4,40.5,35.9,41.7,35.9,41.7z"/>
	<path class="st3" d="M3.5,35.4c0-0.1,0.1-0.7,0.2-1c0.3-0.8,0.7-1.5,1.1-2.3c0.5-0.9,1.2-1.7,1.8-2.6c1-1.4,2-2.7,3-4.1
		c0.5-0.7,1-1.3,1.5-2c0.9-1.2,1.8-2.4,2.6-3.6c0.7-1,1.4-2,2.2-3c0.6-0.8,1.2-1.7,1.8-2.5l0.1-0.1c0.4-0.5,0.8-1.1,1.1-1.6
		c0,0,0.1-0.1,0.1-0.2c0.7-0.9,1.3-1.7,2-2.6c0.2-0.3,0.4-0.6,0.6-0.9c0,0.1,0,0.2-0.1,0.3c-1.6,3.1-3.2,6.2-4.8,9.2
		c-1.1,2.1-2.1,3.9-3.4,5.9c-1.3,2.2-2.7,4.4-3.9,6.6c-0.6,1.1-1,2.3-1.1,3.6c-0.1,1.3,0.5,2.2,1.6,2.9c0.4,0.3,0.8,0.5,1.2,0.8
		l0.1,0.1c0,0-0.1,0-0.1,0.1c-1.4,0.7-2.7,0.2-4.1-0.1c-0.8-0.2-1.7-0.5-2.5-0.8c-0.6-0.2-0.9-0.8-1-1.5C3.5,35.9,3.5,35.4,3.5,35.4
		z"/>
	<path class="st2" d="M37.4,35.7c-1.1-0.3-2.9-0.6-3.4-0.7c-2.7-0.4-4.5-0.8-6.9-1.3c-1.5-0.3-3.2-0.7-4.5-1.5
		c-1.1-0.7-1.9-1.9-1.7-3.3c0.1-1.1,0.5-2.5,0.9-3.5c0.8-2.4,1.5-4.2,2.4-6.6c0.6-1.6,1.3-3.3,1.8-5c0.7-2.1,1.5-4.3,2.2-6.4
		c0.6-1.9,0.9-2.6,1.4-4.4c0-0.2,0.2-0.6,0.4-1c-0.2,0.9-0.4,1.3-0.8,2.7c-2.3,8-4.6,15.9-6.8,23.9c-0.4,1.5,0.3,2.8,1.8,3.2
		c3.7,1.1,7.4,2.1,11.1,3.2C35.6,35.1,37.7,35.8,37.4,35.7z"/>
	<path class="st0" d="M18.3,13.3c-0.6,0.8-1.7,2.4-2.2,3.2c-1.2,1.6-2.3,3.3-3.5,4.9c-1.7,2.3-3.4,4.6-5.1,6.9
		c-1.2,1.6-2.5,3.2-3.3,5.1c-0.2,0.5-0.4,1-0.6,1.5c0,0.1-0.2,0.4-0.2,0.5c0.2-1.2,0.9-2.5,1.4-3.5c0.8-1.4,1.7-2.8,2.6-4.1
		c1.6-2.1,3.1-4.1,4.6-6.1s2.9-4,4.4-6c0.4-0.5,0.8-1,1.3-1.6C17.8,14,18.2,13.5,18.3,13.3z"/>
	<path class="st4" d="M27.7,35.6c1.9,0.1,3.8,0.2,5.6,1c0.5,0.2,1.1,0.5,1.5,0.9c0.6,0.6,0.5,1.4,0.4,2.2c-0.2,1.6-1,3-1.9,4.3
		c-1.8,2.7-3.7,5.5-5.7,8.3c-1,1.4-2,2.8-3,4.2c-0.1,0.2-0.2,0.3-0.4,0.5c0,0-0.1,0.1-0.2,0.1c0-0.1,0-0.1,0-0.2
		c0.2-0.5,0.4-1,0.7-1.4c0.7-1.3,1.4-2.6,2.2-3.9c0.7-1.2,1.5-2.3,2.2-3.5c1.2-2,2.3-4,3-6.2c0.2-0.7,0.4-1.4,0.4-2.1
		c0.1-1.5-0.4-1.7-1.5-2.2c-1.3-0.5-2.6-0.9-3.9-1.3c-0.1,0-0.4-0.1-0.5-0.2c-0.1,0-1.4-0.4-1.5-0.5c0.1-0.1,1.4,0,1.5,0
		C26.9,35.7,27.4,35.6,27.7,35.6z"/>
	<path class="st4" d="M4.5,34.7c0-1.2,0.5-2.1,1-2.9c1.2-2.2,2.9-4.1,4.5-6.1c0.8-1.1,1.5-2.2,2.3-3.3c1.2-1.7,2.4-3.5,3.6-5.2
		c1.1-1.6,2.2-3.2,3.4-4.8c0.1-0.2,0.3-0.3,0.4-0.5l0.1-0.1v0.1c-0.5,0.9-0.9,1.9-1.4,2.8c-0.8,1.6-1.8,3.1-2.6,4.7
		c-1.3,2.5-2.9,4.9-4.5,7.2c-1.4,1.9-2.6,4-3.7,6c-0.5,0.9-0.7,1.9-1.2,2.8C6.3,35.7,5.9,36,5.7,36C5.2,36.1,4.5,34.9,4.5,34.7z"/>
	<path class="st5" d="M15.5,18.3c-0.2,0.3-0.3,0.6-0.5,0.9c-1,1.7-2,3.5-3.1,5.1c-0.9,1.3-1.5,2-2.5,3.2L8.8,28c0-0.1,0-0.1,0.1-0.2
		c0.6-0.9,1.3-1.7,1.9-2.6c1.3-1.9,2.5-3.8,3.8-5.7C14.9,19.1,15.2,18.7,15.5,18.3C15.4,18.3,15.4,18.2,15.5,18.3
		C15.5,18.2,15.5,18.2,15.5,18.3z"/>
</g>
</svg>
