<svg width="665" height="577" viewBox="0 0 665 577" fill="none" xmlns="http://www.w3.org/2000/svg">
<path fill-rule="evenodd" clip-rule="evenodd" d="M377.837 44.9536C377.837 60.2653 370.182 73.7891 358.49 81.9063V93.3215H394.908V119.497H571.309V149.087H563.145C563.52 149.489 563.85 149.956 564.121 150.488L664.414 347.517C664.556 347.795 664.631 348.102 664.631 348.414L664.631 348.492L664.631 348.572C664.587 406.854 617.218 454.089 558.791 454.089C500.364 454.089 452.994 406.855 452.951 348.573L452.951 348.498V348.492L452.951 348.414C452.951 348.102 453.026 347.795 453.167 347.517L553.426 150.489C553.697 149.957 554.028 149.489 554.403 149.087H347.11L347.11 529.201H520.096V547.41H541.719V577H122.91V547.41H144.534V529.201H317.52V149.087H110.194C110.569 149.489 110.9 149.956 111.17 150.488L211.463 347.517C211.605 347.795 211.68 348.102 211.68 348.414L211.68 348.492L211.68 348.572C211.636 406.854 164.267 454.089 105.84 454.089C47.4131 454.089 0.0435598 406.855 3.00109e-05 348.573L1.49012e-07 348.498L0 348.492L2.85804e-05 348.414C0.000255823 348.102 0.075061 347.795 0.216464 347.517L100.476 150.489C100.747 149.957 101.077 149.489 101.452 149.087H93.3207V119.497H269.721V93.3215H306.139V81.0897C295.091 72.8994 287.93 59.7628 287.93 44.9536C287.93 20.1264 308.057 0 332.884 0C357.711 0 377.837 20.1264 377.837 44.9536ZM21.8927 347.94L105.822 182.196L189.752 347.94H21.8927ZM474.843 347.94L558.773 182.196L642.703 347.94H474.843Z" fill="#A2B88D"/>
</svg>
