<svg width="581" height="417" viewBox="0 0 581 417" fill="none"
  xmlns="http://www.w3.org/2000/svg">
  <path fill-rule="evenodd" clip-rule="evenodd" d="M419.985 24.0892L419.972 24.0818L419.959 24.0744C393.166 8.89792 349.179 0.100018 299.26 0L299.25 5.24521e-06C261.201 0.0200536 226.559 5.30737 200.552 14.3134L200.544 14.3158C187.518 18.8543 176.427 24.3523 167.855 31.3546L167.845 31.3626L167.835 31.3707C163.567 34.9025 159.811 38.9172 156.962 43.7235L156.96 43.7276C154.113 48.5444 152.242 54.3106 152.262 60.4191V116.9C147.09 116.306 141.831 116 136.5 116C61.1131 116 0 177.113 0 252.5C0 327.887 61.1131 389 136.5 389C171.633 389 203.667 375.727 227.858 353.921C248.905 358.287 273.137 360.676 299.036 360.73C299.302 366.042 301.026 371.007 303.533 375.21L303.538 375.218C308.338 383.222 315.672 389.063 324.265 393.992L324.278 393.999L324.291 394.006C349.993 408.495 392.146 416.905 439.965 417H439.975C476.458 416.981 509.665 411.938 534.619 403.324L534.626 403.322C547.092 398.993 557.739 393.763 565.974 387.068L565.98 387.063L565.987 387.057C570.108 383.679 573.724 379.835 576.467 375.229C579.213 370.625 581.019 365.091 581 359.225L581 359.216L581 303.407C581 303.348 581 303.289 581 303.23V303.225L581 303.216V246.822L581 246.813C581.019 240.929 579.213 235.397 576.471 230.778L576.462 230.763C571.662 222.759 564.327 216.918 555.735 211.99L555.722 211.982L555.709 211.975C531.123 198.115 491.474 189.839 446.227 189.06V180H446.153C446.204 179.281 446.229 178.556 446.227 177.826L446.227 177.817L446.227 121.14C446.251 120.63 446.263 120.118 446.261 119.602L446.261 119.593V60.4463L446.261 60.4372C446.281 54.3109 444.41 48.5453 441.563 43.7276L441.559 43.7201L441.554 43.7126C436.568 35.3581 428.942 29.2514 419.985 24.0892ZM250.157 176.88C256.676 186.659 261.967 197.327 265.809 208.663C276.407 209.641 287.576 210.168 299.102 210.161H299.112C309.821 210.184 320.234 209.73 330.171 208.874C334.849 206.605 339.931 204.546 345.375 202.658L345.382 202.656C362.156 196.875 382.65 192.708 405.327 190.589C405.945 190.258 406.543 189.925 407.123 189.59L407.143 189.579L407.163 189.568C413.519 186 417.197 182.392 418.595 180.193L419.554 177.171V156.15C413.176 159.759 405.94 162.886 397.98 165.664L397.973 165.666C371.947 174.693 337.304 179.98 299.236 180H299.226C281.977 179.965 265.471 178.89 250.157 176.88ZM272.327 238.856C272.772 243.343 273 247.895 273 252.5C273 258.395 272.626 264.203 271.901 269.901C280.626 270.55 289.697 270.894 299 270.892V246.803V246.798C298.992 244.384 299.293 242.027 299.84 239.768C299.733 239.769 299.626 239.769 299.52 239.769C299.382 239.769 299.244 239.769 299.106 239.77H299.096C289.939 239.751 280.994 239.441 272.327 238.856ZM264.419 300.239C275.489 301.221 287.065 301.743 299 301.769V303.197V303.202V303.211C299 303.272 299 303.333 299 303.394V332.892C281.315 332.897 264.48 331.648 249.266 329.44C255.429 320.424 260.539 310.631 264.419 300.239ZM181.575 123.618C180.737 122.744 180.115 121.96 179.688 121.305L178.938 118.931V96.9109C205.763 111.964 249.562 120.705 299.244 120.805L299.254 120.805C337.322 120.785 371.965 115.497 397.992 106.471L398.001 106.468C406.165 103.614 413.294 100.305 419.604 96.5743V118.951L419.159 120.36L418.66 121.169C417.29 123.39 413.575 127.047 407.163 130.647L407.143 130.658L407.123 130.669C387.014 142.26 346.155 151.339 299.112 151.24H299.102C266.045 151.258 236.01 146.897 213.989 140.112C204.058 133.252 193.174 127.674 181.575 123.618ZM407.217 72.2539L407.197 72.2651L407.177 72.2765C387.087 83.9116 346.264 93.026 299.261 92.9273L299.25 92.9273C263.512 92.947 231.309 87.8186 208.961 80.0309L208.954 80.0285C197.777 76.1565 189.314 71.6399 184.357 67.5302L184.348 67.5234C182.087 65.6586 180.66 64.0032 179.897 62.8086L179.131 60.3726L179.9 57.9255C181.299 55.7152 184.976 52.0923 191.325 48.5112L191.346 48.4996L191.366 48.4878C211.437 36.8533 252.26 27.7193 299.242 27.8378L299.254 27.8378C335.011 27.8181 367.214 32.9465 389.563 40.7342L389.569 40.7365C400.749 44.6095 409.229 49.1264 414.185 53.2349L414.193 53.2417C416.455 55.1065 417.882 56.7618 418.645 57.9565L419.411 60.3925L418.642 62.8395C417.242 65.0499 413.566 68.6727 407.217 72.2539ZM555.125 302.573L554.484 304.591L554.294 304.9C553.004 306.991 549.475 310.475 543.35 313.913L543.33 313.924L543.31 313.936C524.098 325.009 485.019 333.699 439.999 333.605H439.989C405.762 333.624 374.928 328.735 353.537 321.317L353.53 321.315C342.831 317.626 334.744 313.327 330.016 309.426L330.008 309.419C327.808 307.614 326.435 306.014 325.725 304.879L325.533 304.572L324.892 302.554V281.891C350.647 296.18 392.524 304.463 439.983 304.558H439.993C476.476 304.539 509.682 299.496 534.637 290.883L534.646 290.879C542.371 288.192 549.13 285.082 555.125 281.577V302.573ZM330.009 365.825L330.002 365.818L329.994 365.812C327.867 364.082 326.517 362.515 325.793 361.39L324.892 358.554V338.343C350.648 352.626 392.517 360.905 439.965 361H439.975C476.458 360.981 509.665 355.938 534.619 347.324L534.626 347.322C542.177 344.7 549.052 341.75 555.125 338.35V358.573L554.222 361.419C552.896 363.491 549.406 366.918 543.35 370.317L543.33 370.328L543.31 370.34C524.098 381.413 485.019 390.103 439.999 390.009H439.989C405.762 390.028 374.928 385.139 353.537 377.721L353.53 377.719C342.838 374.032 334.744 369.714 330.009 365.825ZM330.008 253.419C327.864 251.66 326.515 250.103 325.794 248.987L325.087 246.751L325.797 244.503C327.124 242.431 330.614 239.005 336.668 235.607L336.688 235.595L336.708 235.584C355.903 224.51 394.981 215.802 439.981 215.915H439.993C474.238 215.896 505.072 220.785 526.462 228.203L526.469 228.206C537.171 231.895 545.275 236.194 550.001 240.094L550.01 240.101C552.154 241.861 553.503 243.417 554.224 244.533L554.93 246.77L554.22 249.017C552.894 251.089 549.403 254.515 543.35 257.913L543.33 257.924L543.31 257.936C524.098 269.009 485.019 277.699 439.999 277.605H439.989C405.762 277.624 374.928 272.735 353.537 265.317L353.53 265.315C342.831 261.626 334.744 257.327 330.016 253.426L330.008 253.419ZM136.5 362C196.975 362 246 312.975 246 252.5C246 192.025 196.975 143 136.5 143C76.0248 143 27 192.025 27 252.5C27 312.975 76.0248 362 136.5 362Z" fill="currentColor"/>
</svg>
