<svg width="515" height="455" viewBox="0 0 515 455" fill="none"
  xmlns="http://www.w3.org/2000/svg">
  <mask id="path-1-outside-1_65_453" maskUnits="userSpaceOnUse" x="0" y="0" width="515" height="455" fill="black">
    <rect fill="white" width="515" height="455"/>
    <path fill-rule="evenodd" clip-rule="evenodd" d="M426.366 4H59.2043C44.574 3.99999 30.5419 10.2884 20.1908 21.4837C9.83979 32.679 4.01642 47.8655 4 63.707V390.418C4.01642 406.26 9.83979 421.446 20.1908 432.641C30.5419 443.837 44.574 450.125 59.2043 450.125H426.366C440.996 450.125 455.028 443.837 465.379 432.641C475.73 421.446 481.554 406.26 481.57 390.418V316.623H498.608C501.895 316.623 505.047 315.209 507.371 312.693C509.694 310.177 511 306.764 511 303.206V150.919C511 147.361 509.694 143.948 507.371 141.432C505.047 138.916 501.895 137.502 498.608 137.502H481.57V63.707C481.554 47.8655 475.73 32.679 465.379 21.4837C455.028 10.2884 440.996 3.99999 426.366 4ZM380.889 164.471H486.217V289.923H380.889C365.525 289.923 350.79 283.314 339.926 271.551C329.062 259.787 322.958 243.833 322.958 227.197C322.958 210.561 329.062 194.606 339.926 182.843C350.79 171.079 365.525 164.471 380.889 164.471ZM31.0605 403.287C29.5242 399.294 28.7293 395.012 28.7211 390.687L28.7831 63.9753C28.7995 55.2509 32.0118 46.8898 37.7152 40.727C43.4185 34.5641 51.1469 31.1029 59.2043 31.1029H426.366C434.423 31.1029 442.152 34.5641 447.855 40.727C453.558 46.8898 456.771 55.2509 456.787 63.9753V137.77H380.889C358.952 137.77 337.913 147.206 322.402 164.002C306.89 180.798 298.175 203.578 298.175 227.331C298.175 251.084 306.89 273.864 322.402 290.66C337.913 307.456 358.952 316.891 380.889 316.891H456.787V390.687C456.771 399.411 453.558 407.772 447.855 413.935C442.152 420.098 434.423 423.559 426.366 423.559H59.2043C55.2094 423.568 51.2519 422.724 47.5579 421.077C43.8639 419.43 40.5058 417.011 37.6751 413.959C34.8445 410.906 32.5968 407.28 31.0605 403.287ZM367.509 227.497C367.509 231.453 368.682 235.32 370.88 238.61C373.078 241.899 376.202 244.462 379.856 245.976C383.511 247.49 387.533 247.886 391.413 247.115C395.293 246.343 398.857 244.438 401.654 241.64C404.451 238.843 406.356 235.279 407.128 231.399C407.9 227.519 407.504 223.498 405.99 219.843C404.476 216.188 401.912 213.064 398.623 210.866C395.334 208.669 391.467 207.495 387.511 207.495C382.206 207.495 377.119 209.603 373.367 213.354C369.616 217.105 367.509 222.192 367.509 227.497Z"/>
  </mask>
  <path fill-rule="evenodd" clip-rule="evenodd" d="M426.366 4H59.2043C44.574 3.99999 30.5419 10.2884 20.1908 21.4837C9.83979 32.679 4.01642 47.8655 4 63.707V390.418C4.01642 406.26 9.83979 421.446 20.1908 432.641C30.5419 443.837 44.574 450.125 59.2043 450.125H426.366C440.996 450.125 455.028 443.837 465.379 432.641C475.73 421.446 481.554 406.26 481.57 390.418V316.623H498.608C501.895 316.623 505.047 315.209 507.371 312.693C509.694 310.177 511 306.764 511 303.206V150.919C511 147.361 509.694 143.948 507.371 141.432C505.047 138.916 501.895 137.502 498.608 137.502H481.57V63.707C481.554 47.8655 475.73 32.679 465.379 21.4837C455.028 10.2884 440.996 3.99999 426.366 4ZM380.889 164.471H486.217V289.923H380.889C365.525 289.923 350.79 283.314 339.926 271.551C329.062 259.787 322.958 243.833 322.958 227.197C322.958 210.561 329.062 194.606 339.926 182.843C350.79 171.079 365.525 164.471 380.889 164.471ZM31.0605 403.287C29.5242 399.294 28.7293 395.012 28.7211 390.687L28.7831 63.9753C28.7995 55.2509 32.0118 46.8898 37.7152 40.727C43.4185 34.5641 51.1469 31.1029 59.2043 31.1029H426.366C434.423 31.1029 442.152 34.5641 447.855 40.727C453.558 46.8898 456.771 55.2509 456.787 63.9753V137.77H380.889C358.952 137.77 337.913 147.206 322.402 164.002C306.89 180.798 298.175 203.578 298.175 227.331C298.175 251.084 306.89 273.864 322.402 290.66C337.913 307.456 358.952 316.891 380.889 316.891H456.787V390.687C456.771 399.411 453.558 407.772 447.855 413.935C442.152 420.098 434.423 423.559 426.366 423.559H59.2043C55.2094 423.568 51.2519 422.724 47.5579 421.077C43.8639 419.43 40.5058 417.011 37.6751 413.959C34.8445 410.906 32.5968 407.28 31.0605 403.287ZM367.509 227.497C367.509 231.453 368.682 235.32 370.88 238.61C373.078 241.899 376.202 244.462 379.856 245.976C383.511 247.49 387.533 247.886 391.413 247.115C395.293 246.343 398.857 244.438 401.654 241.64C404.451 238.843 406.356 235.279 407.128 231.399C407.9 227.519 407.504 223.498 405.99 219.843C404.476 216.188 401.912 213.064 398.623 210.866C395.334 208.669 391.467 207.495 387.511 207.495C382.206 207.495 377.119 209.603 373.367 213.354C369.616 217.105 367.509 222.192 367.509 227.497Z" fill="#734C9A"/>
  <path d="M59.2043 4L59.2043 8H59.2043V4ZM426.366 4L426.366 8L426.366 8L426.366 4ZM20.1908 21.4837L17.2538 18.7682L20.1908 21.4837ZM4 63.707L0 63.7028V63.707H4ZM4 390.418H-2.14879e-06L2.14879e-06 390.422L4 390.418ZM20.1908 432.641L23.1278 429.926L23.1278 429.926L20.1908 432.641ZM59.2043 450.125L59.2043 446.125L59.2043 446.125L59.2043 450.125ZM426.366 450.125L426.366 446.125H426.366V450.125ZM481.57 390.418L485.57 390.422V390.418H481.57ZM481.57 316.623V312.623H477.57V316.623H481.57ZM507.371 312.693L510.309 315.407L510.309 315.407L507.371 312.693ZM507.371 141.432L510.309 138.718L510.309 138.718L507.371 141.432ZM481.57 137.502H477.57V141.502H481.57V137.502ZM481.57 63.707L485.57 63.707L485.57 63.7028L481.57 63.707ZM465.379 21.4837L468.316 18.7682L468.316 18.7682L465.379 21.4837ZM486.217 164.471H490.217V160.471H486.217V164.471ZM486.217 289.923V293.923H490.217V289.923H486.217ZM339.926 271.551L342.864 268.837L342.864 268.837L339.926 271.551ZM339.926 182.843L342.864 185.557L342.864 185.557L339.926 182.843ZM28.7211 390.687L24.7211 390.686L24.7212 390.694L28.7211 390.687ZM31.0605 403.287L34.7937 401.85L34.7937 401.85L31.0605 403.287ZM28.7831 63.9753L24.7831 63.9678L24.7831 63.9746L28.7831 63.9753ZM37.7152 40.727L40.6509 43.4438L40.6509 43.4438L37.7152 40.727ZM59.2043 31.1029L59.2043 35.1029H59.2043V31.1029ZM426.366 31.1029L426.366 35.1029L426.366 35.1029L426.366 31.1029ZM447.855 40.727L444.919 43.4438L444.919 43.4438L447.855 40.727ZM456.787 63.9753L460.787 63.9753L460.787 63.9678L456.787 63.9753ZM456.787 137.77V141.77H460.787V137.77H456.787ZM322.402 164.002L325.34 166.716L325.34 166.716L322.402 164.002ZM322.402 290.66L325.34 287.946L325.34 287.946L322.402 290.66ZM456.787 316.891H460.787V312.891H456.787V316.891ZM456.787 390.687L460.787 390.694V390.687H456.787ZM426.366 423.559L426.366 419.559H426.366V423.559ZM59.2043 423.559L59.2043 419.559L59.1955 419.559L59.2043 423.559ZM37.6751 413.959L34.7421 416.678L34.7421 416.678L37.6751 413.959ZM379.856 245.976L381.387 242.281L381.387 242.281L379.856 245.976ZM407.128 231.399L403.205 230.619L403.205 230.619L407.128 231.399ZM405.99 219.843L409.685 218.312L409.685 218.312L405.99 219.843ZM398.623 210.866L396.401 214.192L396.401 214.192L398.623 210.866ZM373.367 213.354L376.196 216.182L376.196 216.182L373.367 213.354ZM59.2043 8H426.366V0H59.2043V8ZM23.1278 24.1992C32.7578 13.7838 45.7413 7.99999 59.2043 8L59.2043 0C43.4067 -1.07803e-05 28.3259 6.79298 17.2538 18.7682L23.1278 24.1992ZM8 63.7111C8.01542 48.8317 13.488 34.6253 23.1278 24.1992L17.2538 18.7682C6.19158 30.7327 0.0174195 46.8993 2.1488e-06 63.7028L8 63.7111ZM8 390.418V63.707H0V390.418H8ZM23.1278 429.926C13.488 419.5 8.01542 405.293 8 390.414L2.14879e-06 390.422C0.0174195 407.226 6.19158 423.392 17.2538 435.357L23.1278 429.926ZM59.2043 446.125C45.7413 446.125 32.7578 440.341 23.1278 429.926L17.2538 435.357C28.3259 447.332 43.4067 454.125 59.2044 454.125L59.2043 446.125ZM426.366 446.125H59.2043V454.125H426.366V446.125ZM462.442 429.926C452.812 440.341 439.829 446.125 426.366 446.125L426.366 454.125C442.163 454.125 457.244 447.332 468.316 435.357L462.442 429.926ZM477.57 390.414C477.555 405.293 472.082 419.5 462.442 429.926L468.316 435.357C479.378 423.392 485.553 407.226 485.57 390.422L477.57 390.414ZM477.57 316.623V390.418H485.57V316.623H477.57ZM498.608 312.623H481.57V320.623H498.608V312.623ZM504.432 309.979C502.829 311.715 500.727 312.623 498.608 312.623V320.623C503.063 320.623 507.264 318.704 510.309 315.407L504.432 309.979ZM507 303.206C507 305.802 506.045 308.233 504.432 309.979L510.309 315.407C513.344 312.121 515 307.727 515 303.206H507ZM507 150.919V303.206H515V150.919H507ZM504.432 144.146C506.045 145.892 507 148.324 507 150.919H515C515 146.398 513.344 142.004 510.309 138.718L504.432 144.146ZM498.608 141.502C500.727 141.502 502.829 142.41 504.432 144.146L510.309 138.718C507.264 135.421 503.063 133.502 498.608 133.502V141.502ZM481.57 141.502H498.608V133.502H481.57V141.502ZM477.57 63.707V137.502H485.57V63.707H477.57ZM462.442 24.1992C472.082 34.6253 477.555 48.8318 477.57 63.7111L485.57 63.7028C485.553 46.8993 479.378 30.7327 468.316 18.7682L462.442 24.1992ZM426.366 8C439.829 7.99999 452.812 13.7838 462.442 24.1992L468.316 18.7682C457.244 6.79299 442.163 -1.07803e-05 426.366 0L426.366 8ZM486.217 160.471H380.889V168.471H486.217V160.471ZM490.217 289.923V164.471H482.217V289.923H490.217ZM380.889 293.923H486.217V285.923H380.889V293.923ZM336.987 274.265C348.572 286.809 364.357 293.923 380.889 293.923V285.923C366.693 285.923 353.007 279.819 342.864 268.837L336.987 274.265ZM318.958 227.197C318.958 244.795 325.412 261.731 336.987 274.265L342.864 268.837C332.711 257.843 326.958 242.87 326.958 227.197H318.958ZM336.987 180.129C325.412 192.662 318.958 209.598 318.958 227.197H326.958C326.958 211.524 332.711 196.55 342.864 185.557L336.987 180.129ZM380.889 160.471C364.357 160.471 348.572 167.585 336.987 180.129L342.864 185.557C353.007 174.574 366.693 168.471 380.889 168.471V160.471ZM24.7212 390.694C24.7302 395.503 25.6135 400.269 27.3273 404.723L34.7937 401.85C33.4348 398.319 32.7284 394.522 32.7211 390.679L24.7212 390.694ZM24.7831 63.9746L24.7211 390.686L32.7211 390.687L32.7831 63.9761L24.7831 63.9746ZM34.7794 38.0101C28.3649 44.9415 24.8013 54.2818 24.7831 63.9678L32.7831 63.9829C32.7977 56.2199 35.6588 48.8382 40.6509 43.4438L34.7794 38.0101ZM59.2044 27.1029C49.9803 27.1029 41.2038 31.0681 34.7794 38.0101L40.6509 43.4438C45.6332 38.0601 52.3134 35.1029 59.2043 35.1029L59.2044 27.1029ZM426.366 27.1029H59.2043V35.1029H426.366V27.1029ZM450.791 38.0101C444.366 31.0681 435.59 27.1029 426.366 27.1029L426.366 35.1029C433.257 35.1029 439.937 38.0601 444.919 43.4438L450.791 38.0101ZM460.787 63.9678C460.769 54.2818 457.205 44.9415 450.791 38.0101L444.919 43.4438C449.911 48.8382 452.772 56.2199 452.787 63.9828L460.787 63.9678ZM460.787 137.77V63.9753H452.787V137.77H460.787ZM380.889 141.77H456.787V133.77H380.889V141.77ZM325.34 166.716C340.131 150.701 360.12 141.77 380.889 141.77V133.77C357.784 133.77 335.696 143.712 319.463 161.288L325.34 166.716ZM302.175 227.331C302.175 204.541 310.539 182.742 325.34 166.716L319.463 161.288C303.24 178.854 294.175 202.615 294.175 227.331H302.175ZM325.34 287.946C310.539 271.92 302.175 250.121 302.175 227.331H294.175C294.175 252.047 303.24 275.808 319.463 293.374L325.34 287.946ZM380.889 312.891C360.12 312.891 340.131 303.961 325.34 287.946L319.463 293.374C335.696 310.95 357.784 320.891 380.889 320.891V312.891ZM456.787 312.891H380.889V320.891H456.787V312.891ZM460.787 390.687V316.891H452.787V390.687H460.787ZM450.791 416.652C457.205 409.72 460.769 400.38 460.787 390.694L452.787 390.679C452.772 398.442 449.911 405.824 444.919 411.218L450.791 416.652ZM426.366 427.559C435.59 427.559 444.366 423.594 450.791 416.652L444.919 411.218C439.937 416.602 433.257 419.559 426.366 419.559L426.366 427.559ZM59.2043 427.559H426.366V419.559H59.2043V427.559ZM45.9288 424.73C50.1316 426.605 54.6467 427.569 59.2132 427.559L59.1955 419.559C55.772 419.566 52.3721 418.844 49.1869 417.424L45.9288 424.73ZM34.7421 416.678C37.9289 420.115 41.7271 422.857 45.9288 424.73L49.1869 417.424C46.0007 416.003 43.0826 413.907 40.6081 411.239L34.7421 416.678ZM27.3273 404.723C29.0411 409.178 31.5559 413.243 34.7421 416.678L40.6081 411.239C38.1331 408.57 36.1525 405.382 34.7937 401.85L27.3273 404.723ZM374.206 236.387C372.448 233.756 371.509 230.662 371.509 227.497H363.509C363.509 232.244 364.917 236.885 367.554 240.832L374.206 236.387ZM381.387 242.281C378.463 241.07 375.964 239.019 374.206 236.387L367.554 240.832C370.191 244.779 373.94 247.855 378.326 249.672L381.387 242.281ZM390.633 243.191C387.529 243.809 384.311 243.492 381.387 242.281L378.326 249.672C382.711 251.488 387.537 251.964 392.193 251.038L390.633 243.191ZM398.826 238.812C396.588 241.05 393.737 242.574 390.633 243.191L392.193 251.038C396.849 250.112 401.126 247.826 404.483 244.469L398.826 238.812ZM403.205 230.619C402.588 233.723 401.064 236.574 398.826 238.812L404.483 244.469C407.839 241.112 410.125 236.836 411.051 232.18L403.205 230.619ZM402.294 221.374C403.506 224.298 403.822 227.515 403.205 230.619L411.051 232.18C411.977 227.524 411.502 222.698 409.685 218.312L402.294 221.374ZM396.401 214.192C399.032 215.951 401.083 218.45 402.294 221.374L409.685 218.312C407.869 213.926 404.793 210.178 400.845 207.54L396.401 214.192ZM387.511 211.495C390.676 211.495 393.769 212.434 396.401 214.192L400.845 207.54C396.898 204.903 392.258 203.495 387.511 203.495V211.495ZM376.196 216.182C379.197 213.181 383.267 211.495 387.511 211.495V203.495C381.145 203.495 375.04 206.024 370.539 210.525L376.196 216.182ZM371.509 227.497C371.509 223.253 373.195 219.183 376.196 216.182L370.539 210.525C366.038 215.027 363.509 221.132 363.509 227.497H371.509Z" fill="#734C9A" mask="url(#path-1-outside-1_65_453)"/>
</svg>
