<?xml version="1.0" encoding="UTF-8"?><svg id="uuid-2fe9f0cd-65fa-4e9b-a7ac-a022cbb38dca" xmlns="http://www.w3.org/2000/svg" xmlns:xlink="http://www.w3.org/1999/xlink" viewBox="0 0 857.41 337.53"><defs><style>.uuid-b414f11c-77ef-4abd-924b-318e4b7961d3{fill:#fff;}.uuid-e559c2bf-a35b-4512-846e-6cf0474367b7{fill:url(#uuid-f637730e-8596-4bdc-9f92-539bb3825146);}.uuid-bc325453-c466-460c-940e-2cee977f8ea3{fill:url(#uuid-7253ba0d-3f30-450e-827e-b6f166b4f53e);}.uuid-2d50c48e-633b-480f-b0fa-c337102b019e{fill:url(#uuid-6045e0e9-d2de-4068-90b3-0c1a243977dd);}.uuid-06ad72d7-da42-47a4-8d58-372914a0d218{fill:url(#uuid-d39223f3-1b22-4161-b05d-d388b89d36db);}.uuid-9242cdcf-97ae-453a-a939-b32b35d2dfbd{fill:url(#uuid-561bd4ee-0d41-4ea5-a0e3-979dab82733c);}</style><linearGradient id="uuid-d39223f3-1b22-4161-b05d-d388b89d36db" x1="71.76" y1="14093.52" x2="201.02" y2="14009.48" gradientTransform="translate(0 14251.62) scale(1 -1)" gradientUnits="userSpaceOnUse"><stop offset=".04" stop-color="#da70ff"/><stop offset=".45" stop-color="#7b0eff"/><stop offset="1" stop-color="#1be7e7"/></linearGradient><linearGradient id="uuid-7253ba0d-3f30-450e-827e-b6f166b4f53e" x1="98.24" y1="14134.25" x2="227.5" y2="14050.21" xlink:href="#uuid-d39223f3-1b22-4161-b05d-d388b89d36db"/><linearGradient id="uuid-6045e0e9-d2de-4068-90b3-0c1a243977dd" x1="90.52" y1="14122.38" x2="219.79" y2="14038.34" xlink:href="#uuid-d39223f3-1b22-4161-b05d-d388b89d36db"/><linearGradient id="uuid-f637730e-8596-4bdc-9f92-539bb3825146" x1="92.06" y1="14124.75" x2="221.33" y2="14040.71" xlink:href="#uuid-d39223f3-1b22-4161-b05d-d388b89d36db"/><linearGradient id="uuid-561bd4ee-0d41-4ea5-a0e3-979dab82733c" x1="118.79" y1="14165.87" x2="248.06" y2="14081.83" xlink:href="#uuid-d39223f3-1b22-4161-b05d-d388b89d36db"/></defs><g><path class="uuid-06ad72d7-da42-47a4-8d58-372914a0d218" d="m85.63,134.26c-8.28,0-14.99,6.62-14.99,14.79v36.15c0,8.17,6.71,14.79,14.99,14.79s14.99-6.62,14.99-14.79v-36.15c0-8.17-6.71-14.79-14.99-14.79Z"/><path class="uuid-bc325453-c466-460c-940e-2cee977f8ea3" d="m123.38,83.88c-7.97,0-14.44,6.38-14.44,14.24v71.2c0,7.87,6.46,14.24,14.44,14.24s14.43-6.38,14.43-14.24v-71.2c0-7.87-6.46-14.24-14.43-14.24Z"/><path class="uuid-2d50c48e-633b-480f-b0fa-c337102b019e" d="m160.58,95.92c-7.97,0-14.43,6.38-14.43,14.24v129.26c0,7.87,6.46,14.24,14.43,14.24s14.43-6.38,14.43-14.24V110.16c0-7.87-6.46-14.24-14.43-14.24Z"/><path class="uuid-e559c2bf-a35b-4512-846e-6cf0474367b7" d="m197.78,155.08c-7.97,0-14.43,6.38-14.43,14.24v52.58c0,7.87,6.46,14.24,14.43,14.24s14.44-6.38,14.44-14.24v-52.58c0-7.87-6.46-14.24-14.44-14.24Z"/><path class="uuid-9242cdcf-97ae-453a-a939-b32b35d2dfbd" d="m235.53,134.26c-8.28,0-14.99,6.62-14.99,14.79v25.2c0,8.17,6.71,14.79,14.99,14.79s14.99-6.62,14.99-14.79v-25.2c0-8.17-6.71-14.79-14.99-14.79Z"/></g><g><path class="uuid-b414f11c-77ef-4abd-924b-318e4b7961d3" d="m373.89,194.29v14.65c0,1.11-.9,2.01-2.01,2.01h-65.83c-1.11,0-2.01-.9-2.01-2.01v-12.54c0-1.21.44-2.38,1.24-3.3l38.44-44.05c1.13-1.3.21-3.32-1.51-3.32h-35.68c-1.11,0-2.01-.9-2.01-2.01v-14.65c0-1.11.9-2.01,2.01-2.01h64.88c1.11,0,2.01.9,2.01,2.01v12.74c0,1.19-.42,2.33-1.19,3.24l-37.16,43.93c-1.1,1.3-.18,3.3,1.53,3.3h35.29c1.11,0,2.01.9,2.01,2.01Z"/><path class="uuid-b414f11c-77ef-4abd-924b-318e4b7961d3" d="m383.55,115.18v-16.72c0-1.11.9-2.01,2.01-2.01h18.79c1.11,0,2.01.9,2.01,2.01v16.72c0,1.11-.9,2.01-2.01,2.01h-18.79c-1.11,0-2.01-.9-2.01-2.01Zm22.64,13.9v79.86c0,1.11-.9,2.01-2.01,2.01h-18.31c-1.11,0-2.01-.9-2.01-2.01v-79.86c0-1.11.9-2.01,2.01-2.01h18.31c1.11,0,2.01.9,2.01,2.01Z"/><path class="uuid-b414f11c-77ef-4abd-924b-318e4b7961d3" d="m497.08,201.7c0,12.23-3.83,21.85-11.48,28.86s-17.97,10.52-30.94,10.52c-10.31,0-18.82-2.1-25.51-6.3-6.12-3.84-10.43-9.3-12.91-16.39-.38-1.09.23-2.28,1.34-2.6l17.08-4.95c1.01-.29,2.05.25,2.43,1.22,1.33,3.42,3.36,6.13,6.1,8.13,3.19,2.34,7.12,3.51,11.8,3.51,6.38,0,11.27-1.67,14.67-5.02,3.4-3.35,5.1-8.21,5.1-14.59v-.75c0-1.68-1.98-2.65-3.26-1.56-1.83,1.55-3.99,2.88-6.47,3.99-4.15,1.86-8.66,2.79-13.55,2.79-5.53,0-10.6-1.06-15.23-3.19-4.62-2.13-8.58-5.26-11.88-9.41-2.98-3.72-5.26-8.08-6.86-13.08s-2.39-10.31-2.39-15.95.8-10.92,2.39-15.87c1.59-4.94,3.88-9.28,6.86-13,3.3-4.15,7.26-7.28,11.88-9.41s9.7-3.19,15.23-3.19c4.89,0,9.41.93,13.55,2.79,2.48,1.11,4.63,2.44,6.47,3.99,1.29,1.09,3.26.12,3.26-1.56v-1.62c0-1.11.9-2.01,2.01-2.01h18.31c1.11,0,2.01.9,2.01,2.01v72.62Zm-22.17-35.72c0-6.7-1.65-11.99-4.94-15.87s-7.71-5.82-13.24-5.82c-5.95,0-10.6,1.99-13.95,5.98-3.35,3.99-5.02,9.54-5.02,16.66s1.67,12.7,5.02,16.74c3.35,4.04,8,6.06,13.95,6.06,5.53,0,9.94-1.94,13.24-5.82s4.94-9.12,4.94-15.71v-2.23Z"/><path class="uuid-b414f11c-77ef-4abd-924b-318e4b7961d3" d="m507.44,208.94v-79.86c0-1.11.9-2.01,2.01-2.01h18.31c1.11,0,2.01.9,2.01,2.01v1.75c0,1.7,1.99,2.64,3.29,1.53,2.02-1.72,4.27-3.14,6.76-4.25,3.93-1.75,8.24-2.63,12.92-2.63,8.61,0,15.47,2.71,20.57,8.13,5.1,5.42,7.65,12.76,7.65,22.01v53.33c0,1.11-.9,2.01-2.01,2.01h-18.31c-1.11,0-2.01-.9-2.01-2.01v-46.95c0-5.21-1.14-9.2-3.43-11.96-2.29-2.76-5.61-4.15-9.97-4.15s-8.16,1.51-11.08,4.54c-2.92,3.03-4.39,7.04-4.39,12.04v46.47c0,1.11-.9,2.01-2.01,2.01h-18.31c-1.11,0-2.01-.9-2.01-2.01Z"/><path class="uuid-b414f11c-77ef-4abd-924b-318e4b7961d3" d="m631.84,209.99c-4.25,1.59-9.04,2.39-14.35,2.39-8.4,0-15.26-2.29-20.57-6.86s-7.97-10.52-7.97-17.86,2.47-13.05,7.42-17.46c4.94-4.41,12.57-7.52,22.88-9.33l20.89-3.99v-1.28c0-3.93-1.06-6.86-3.19-8.77-2.13-1.91-5.37-2.87-9.73-2.87-4.04,0-7.23.9-9.57,2.71-1.98,1.53-3.47,3.79-4.46,6.77-.32.95-1.28,1.54-2.27,1.35l-17.21-3.24c-1.2-.23-1.93-1.47-1.53-2.62,2.31-6.74,6.41-12.23,12.32-16.45,6.54-4.68,14.38-7.02,23.52-7.02,10.95,0,19.35,2.5,25.19,7.49,5.85,5,8.77,12.23,8.77,21.69v34.28c0,2.23.53,3.75,1.59,4.54.74.56,1.82.84,3.24.85,1.11,0,2.02.89,2.02,2v12.84c0,1.03-.78,1.88-1.8,2-6.1.69-11.16.46-15.18-.71-3.58-1.04-6.34-2.84-8.27-5.42-.7-.93-2.05-1.03-2.92-.25-2.46,2.18-5.4,3.91-8.82,5.19Zm3.11-18.5c3.46-2.66,5.18-6.11,5.18-10.36v-6.15c0-1.27-1.16-2.22-2.41-1.97l-14.02,2.86c-4.57.85-7.84,2.13-9.81,3.83s-2.95,3.93-2.95,6.7.98,5.1,2.95,6.7,4.65,2.39,8.05,2.39c5.21,0,9.54-1.33,13-3.99Z"/><path class="uuid-b414f11c-77ef-4abd-924b-318e4b7961d3" d="m699.86,98.46v110.48c0,1.11-.9,2.01-2.01,2.01h-18.31c-1.11,0-2.01-.9-2.01-2.01v-110.48c0-1.11.9-2.01,2.01-2.01h18.31c1.11,0,2.01.9,2.01,2.01Z"/><path class="uuid-b414f11c-77ef-4abd-924b-318e4b7961d3" d="m754.49,215.73c-3.3,8.93-7.39,15.23-12.28,18.9-4.89,3.67-11.32,5.5-19.29,5.5-1.7,0-3.11-.03-4.23-.08-.73-.03-1.64-.1-2.72-.21s-1.82-.96-1.82-2v-14.07c0-1.16.98-2.07,2.13-2,.69.04,1.31.08,1.85.1,1.06.05,1.86.08,2.39.08,3.19,0,5.63-.58,7.34-1.75,1.7-1.17,3.08-3.14,4.15-5.9l1.54-3.8c.75-1.86.78-3.94.08-5.82l-28.03-74.89c-.49-1.31.48-2.71,1.88-2.71h18.8c.86,0,1.62.54,1.9,1.35l16.59,48.23c.62,1.81,3.19,1.8,3.8-.01l16.16-48.2c.27-.82,1.04-1.37,1.9-1.37h18.15c1.4,0,2.37,1.4,1.88,2.71l-32.15,85.95Z"/></g></svg>