<?xml version="1.0" encoding="utf-8"?>
<!-- Generator: Adobe Illustrator 27.2.0, SVG Export Plug-In . SVG Version: 6.00 Build 0)  -->
<svg version="1.1" id="Capa_1" xmlns="http://www.w3.org/2000/svg" xmlns:xlink="http://www.w3.org/1999/xlink" x="0px" y="0px"
	 viewBox="0 0 163.2 126" style="enable-background:new 0 0 163.2 126;" xml:space="preserve">
<style type="text/css">
	.st0{fill:#8A98A5;}
	.st1{fill-rule:evenodd;clip-rule:evenodd;fill:#8A98A5;}
</style>
<path class="st0" d="M86.7,77c-0.9,4.1,2.2,7.7,6.2,7.7l0,0c3.5,0,6.3-2.8,6.3-6.4c0-4-3.6-7.1-7.7-6.2C89.2,72.6,87.3,74.6,86.7,77
	L86.7,77z"/>
<path class="st0" d="M98,119.6c-2,0.4-4.1-0.2-5.6-1.7h0c-1.1-1.1-1.7-2.6-1.8-4.1c-0.1-2.4-0.9-4.6-2.6-6.3l-0.4-0.4
	c-1.9-1.9-4.6-2.5-7.2-2c-3.3,0.7-7-0.2-9.5-2.8c-4.7-4.7-4-12.9,2.4-16.6c3-1.7,6.7-1.8,9.7-0.2c4.4,2.4,6.3,6.9,5.6,11.1
	c-0.5,3,0.3,6,2.4,8.2l0.2,0.2c1.4,1.4,3.4,2.4,5.4,2.3c2.2-0.1,4.5,1,5.8,3.3c0.1,0.1,0.1,0.3,0.2,0.4c0.9,1,2.2,1.6,3.7,1.6h0.3
	c1.2,0,2.3-0.4,3.1-1.3c0.9-1,2.4-1.5,3.9-0.9c0.9,0.3,1.6,1.1,2,2c0.9,2.5-0.9,4.9-3.3,4.8c-0.9,0-1.8-0.4-2.4-0.9
	c-1-0.9-2.2-1.5-3.6-1.5h-0.3c-1.5,0-2.9,0.8-3.7,2.1C101.2,118.4,99.8,119.4,98,119.6L98,119.6z"/>
<path class="st0" d="M69.4,116.1c-1.1,5.7,3.8,10.7,9.6,9.6c3.2-0.6,5.8-3.2,6.4-6.4c1.1-5.7-3.8-10.7-9.6-9.6
	C72.5,110.4,70,112.9,69.4,116.1L69.4,116.1z"/>
<path class="st0" d="M86.8,49c-1-4.6,3-8.7,7.6-7.6c2.3,0.5,4.2,2.4,4.7,4.7c1,4.6-3,8.7-7.6,7.6C89.2,53.2,87.3,51.3,86.8,49z"/>
<path class="st0" d="M102.1,9.1c-2.2-3.6-6.9-3.9-9.7-1.2v0c-1.1,1.1-1.7,2.6-1.8,4.1c-0.1,2.4-0.9,4.6-2.6,6.3l-0.4,0.4
	c-1.9,1.9-4.6,2.5-7.2,2c-3.3-0.7-7,0.2-9.6,2.8c-4.7,4.7-4,12.9,2.4,16.6c3,1.7,6.7,1.8,9.7,0.1c4.4-2.4,6.3-6.9,5.6-11.1
	c-0.5-3,0.3-6,2.4-8.2l0.3-0.3c1.4-1.4,3.4-2.4,5.4-2.3c2.2,0.1,4.5-1,5.8-3.3C103.4,13.3,103.3,10.9,102.1,9.1L102.1,9.1z"/>
<path class="st0" d="M99,31.6c-1.2-7.5,5.1-13.9,12.6-12.6l0,0c4.5,0.7,8.2,4.4,8.9,8.9c1.2,7.5-5.1,13.8-12.6,12.6
	C103.4,39.8,99.8,36.1,99,31.6L99,31.6z"/>
<path class="st0" d="M69.3,9.7C68.3,4,73.2-0.9,78.9,0.2c3.2,0.6,5.8,3.2,6.4,6.4c1.1,5.7-3.8,10.7-9.6,9.6
	C72.5,15.5,70,12.9,69.3,9.7z"/>
<path class="st0" d="M135.9,118.3c-2.1,4.6-7.6,5.3-10.8,2.1c-1.2-1.2-1.9-2.8-1.9-4.4c-0.1-2.5-1-4.9-2.8-6.7l-0.5-0.5
	c-2-2-4.9-2.7-7.7-2.1c-3.6,0.8-7.4-0.3-10.2-3c-5.1-5.1-4.2-13.8,2.5-17.7c3.2-1.8,7.1-1.9,10.4-0.2c4.8,2.6,6.8,7.6,5.9,12.2
	c-0.6,3,0.3,6.1,2.5,8.3l0.3,0.4c1.5,1.5,3.6,2.5,5.8,2.4c2.5-0.1,5.1,1.2,6.4,4C136.6,114.7,136.6,116.7,135.9,118.3L135.9,118.3z"
	/>
<path class="st0" d="M142,95.4c-0.5-3.8-3-6.4-6.1-7.2c-2.6-0.7-4.7-2.7-5.9-5.1l-0.3-0.5c-1.8-3.5-1.7-7.5,0.1-10.8
	c0.4-0.8,0.8-1.6,1.1-2.5c0,0,0,0,0,0c1.6-3.8,1.8-8.3-0.1-12.9c-1.4-3.5-4.2-6.2-7.7-7.7c-8.1-3.3-15.9-0.2-19.7,5.8
	c-2.2,3.4-5.8,5.5-9.8,5.5h-1.7c-3.1,0-6-1.3-8.2-3.6c-2.5-2.6-6.5-3.7-10.6-2c-2,0.8-3.6,2.5-4.5,4.5c-2.8,6.8,2.1,13.3,8.5,13.3
	c2.6,0,4.9-1,6.6-2.7c2.2-2.2,5.2-3.6,8.3-3.6h1.7c3.9,0,7.6,2,9.6,5.3c2.4,3.9,6.5,6.7,11.3,7.3c0,0,0,0,0,0
	c0.5,0.1,1.1,0.2,1.7,0.3c3.5,0.3,6.7,2.3,8.4,5.4l0.4,0.7c1.5,2.8,1.6,6,0.8,9c-0.5,1.9-0.4,4.1,0.6,6c1,2,2.8,3.4,4.8,4.1
	c0.1,0.1,0.3,0.1,0.4,0.1c0.3,0.1,0.6,0.1,0.9,0.2c0.1,0,0.1,0,0.2,0c2.5,0.3,5.3-0.5,7.3-2.8C141.5,99.9,142.3,97.6,142,95.4
	L142,95.4z"/>
<path class="st0" d="M132.5,104.4c-0.3,0-0.6-0.1-0.9-0.2C131.9,104.2,132.2,104.3,132.5,104.4z"/>
<path class="st0" d="M141,108.7c-0.7,6.7,4.5,12.4,11,12.4c6.1,0,11.1-5,11.1-11.1c0-6.6-5.7-11.8-12.4-11
	C145.7,99.5,141.6,103.6,141,108.7L141,108.7z"/>
<path class="st0" d="M137.1,83c-2.2,0-3.9-1.9-3.7-4.1c0.2-1.7,1.6-3.1,3.3-3.3c2.2-0.2,4.1,1.5,4.1,3.7
	C140.8,81.3,139.2,83,137.1,83z"/>
<path class="st0" d="M53,80c1.6,3.4,5.8,4.2,8.6,2l0,0c1.1-0.9,1.8-2.2,2-3.5c0.3-2.1,1.3-4.1,2.9-5.4l0.4-0.3
	c1.9-1.5,4.4-1.8,6.6-1.1c2.9,1,6.3,0.5,8.8-1.6c4.7-3.8,4.8-11.2-0.6-15.1c-2.5-1.8-5.8-2.2-8.7-1.1c-4.2,1.7-6.3,5.6-6,9.4
	c0.2,2.7-0.8,5.4-2.9,7.1L64,70.6c-1.4,1.2-3.3,1.8-5.1,1.5c-2-0.3-4.1,0.5-5.5,2.4C52.3,76.1,52.1,78.3,53,80L53,80z"/>
<path class="st1" d="M60.8,13.4c-27.2,0-49.3,22.2-49.3,49.6c0,27.4,22.1,49.6,49.3,49.6c3.2,0,5.7,2.6,5.7,5.7
	c0,3.2-2.6,5.7-5.7,5.7C27.2,124.1,0,96.7,0,63S27.2,2,60.8,2c3.2,0,5.7,2.6,5.7,5.7C66.5,10.9,63.9,13.4,60.8,13.4z"/>
</svg>
