<svg width="777" height="126" viewBox="0 0 777 126" fill="none" xmlns="http://www.w3.org/2000/svg">
<path d="M272.241 117.211C262.405 117.289 255.848 113.737 252.57 106.555C246.403 106.243 241.055 104.292 236.528 100.701C232.078 97.0319 229.854 91.3724 229.854 83.7223V46.0183C229.854 37.978 232.039 31.8891 236.411 27.7518C240.86 23.6145 246.949 21.5459 254.677 21.5459C262.405 21.5459 268.377 23.7316 272.592 28.1031C276.886 32.4746 279.033 38.4854 279.033 46.1354V83.7223C279.033 90.4356 277.315 95.6267 273.88 99.2957C270.446 102.887 266.191 105.111 261.117 105.97C262.132 107.219 263.537 108.117 265.333 108.663C267.128 109.21 269.587 109.483 272.71 109.483L272.241 117.211ZM270.602 45.3158C270.602 40.554 269.197 36.807 266.387 34.0749C263.576 31.3427 259.595 29.9766 254.443 29.9766C249.291 29.9766 245.31 31.3036 242.5 33.9578C239.689 36.6119 238.284 40.3979 238.284 45.3158V83.6052C238.284 87.5864 239.377 90.9821 241.563 93.7923C243.827 96.5245 246.793 98.0467 250.462 98.3589C250.228 96.9538 250.111 94.729 250.111 91.6846V85.0103H258.541V91.5675C258.541 94.69 258.619 96.9148 258.775 98.2418C262.444 97.8515 265.333 96.3293 267.44 93.6752C269.548 91.0211 270.602 87.6254 270.602 83.4881V45.3158Z" fill="white"/>
<path d="M344.702 23.3023V83.6052C344.702 91.4895 342.282 97.227 337.442 100.818C332.68 104.409 326.904 106.204 320.112 106.204C313.321 106.204 307.505 104.409 302.665 100.818C297.825 97.227 295.405 91.4895 295.405 83.6052V23.3023H303.836V82.6685C303.836 87.5083 305.28 91.3333 308.169 94.1436C311.135 96.9538 315.077 98.3589 319.995 98.3589C324.991 98.3589 328.933 96.9538 331.821 94.1436C334.788 91.3333 336.271 87.5083 336.271 82.6685V23.3023H344.702Z" fill="white"/>
<path d="M393.694 78.9215H369.339L361.611 105.385H352.477L376.599 23.4194H386.317L411.258 105.385H401.774L393.694 78.9215ZM371.564 70.2566H391.586L381.399 37.0022L371.564 70.2566Z" fill="white"/>
<path d="M430.033 39.8124V105.385H421.602V23.4194H430.033L470.664 88.8744V23.4194H479.212V105.385H470.664L430.033 39.8124Z" fill="white"/>
<path d="M507.595 31.3817H488.625V23.4194H535.697V31.3817H516.025V105.385H507.595V31.3817Z" fill="white"/>
<path d="M585.736 43.9107L574.612 105.385H563.137L544.87 23.4194H554.004L568.64 90.865L581.169 23.4194H590.302L602.831 90.865L617 23.4194H626.367L608.335 105.385H596.977L585.736 43.9107Z" fill="white"/>
<path d="M645.64 31.3817L637.912 31.1475V23.4194H654.071V105.385H645.64V31.3817Z" fill="white"/>
<path d="M676.236 83.9565C676.47 86.4545 677.368 88.8354 678.929 91.0992C680.568 93.2849 682.754 95.0803 685.486 96.4854C688.218 97.8125 691.38 98.476 694.971 98.476C700.513 98.476 705.041 97.227 708.554 94.729C712.144 92.153 713.94 88.445 713.94 83.6052C713.94 80.1705 713.003 77.3212 711.13 75.0574C709.256 72.7155 706.953 70.8811 704.221 69.554C701.489 68.1489 697.742 66.5486 692.98 64.7532C687.906 62.8797 683.808 61.1624 680.685 59.6011C677.563 57.9618 674.909 55.7761 672.723 53.0439C670.615 50.2337 669.562 46.6819 669.562 42.3885C669.562 38.9537 670.537 35.7142 672.489 32.6697C674.44 29.5473 677.368 27.0493 681.271 25.1758C685.252 23.2242 690.131 22.2485 695.907 22.2485C699.733 22.2485 702.894 22.5217 705.392 23.0681C707.89 23.6145 710.427 24.5123 713.003 25.7612L710.427 33.7236C705.587 31.6159 700.825 30.5621 696.142 30.5621C690.599 30.5621 686.228 31.694 683.027 33.9578C679.905 36.1435 678.383 39.1489 678.461 42.9739C678.461 45.3158 679.28 47.3454 680.92 49.0628C682.559 50.7021 684.589 52.1072 687.008 53.2781C689.428 54.449 692.707 55.7761 696.844 57.2593C702.387 59.2889 706.914 61.2404 710.427 63.1139C713.94 64.9093 716.906 67.4464 719.326 70.725C721.824 73.9255 723.073 77.9457 723.073 82.7856C723.073 89.9673 720.77 95.7438 716.165 100.115C711.637 104.487 704.611 106.673 695.088 106.673C689.311 106.673 684.354 105.619 680.217 103.511C676.158 101.325 673.035 98.5541 670.85 95.1974C668.742 91.7627 667.61 88.2109 667.454 84.5419L676.236 83.9565Z" fill="white"/>
<path d="M737.891 23.4194H777V31.4988H746.322V57.0251H766.813L764.12 65.2216H746.322V97.7735H776.766V105.385H737.891V23.4194Z" fill="white"/>
<path d="M86.7466 76.9955C85.8883 81.1038 88.9953 84.7258 92.9491 84.7258L92.9606 84.7143C96.4624 84.7143 99.3061 81.8763 99.3061 78.3573C99.3061 74.3978 95.6956 71.2851 91.5873 72.1433C89.1841 72.6469 87.2501 74.5866 86.7466 76.9898V76.9955Z" fill="white"/>
<path d="M98.024 119.636C96.0672 120.019 93.9672 119.453 92.4566 117.937H92.4452C91.3065 116.798 90.7 115.31 90.6428 113.805C90.5512 111.454 89.7159 109.188 88.0393 107.534L87.6045 107.099C85.7163 105.223 83.0041 104.576 80.4006 105.131C77.0648 105.841 73.4428 104.896 70.8508 102.304C66.1016 97.5553 66.8855 89.3558 73.2139 85.7453C76.2007 84.0402 79.9143 83.9658 82.9354 85.5851C87.3527 87.9482 89.2009 92.4857 88.4914 96.6741C87.9993 99.6438 88.766 102.694 90.9232 104.868L91.1463 105.091C92.5768 106.533 94.528 107.454 96.5535 107.363C98.7736 107.26 101.045 108.353 102.315 110.636C102.39 110.767 102.453 110.899 102.516 111.03C103.426 112.066 104.753 112.667 106.189 112.678H106.452C107.608 112.684 108.758 112.283 109.542 111.425C110.458 110.43 111.934 109.966 113.462 110.527C114.36 110.859 115.087 111.585 115.419 112.484C116.346 114.99 114.515 117.336 112.14 117.33C111.219 117.33 110.378 116.975 109.754 116.386C108.775 115.476 107.528 114.904 106.189 114.904H105.84C104.33 114.904 102.973 115.734 102.15 116.998C101.24 118.394 99.7521 119.384 98.024 119.63V119.636Z" fill="white"/>
<path d="M69.3574 116.145C68.2703 121.873 73.2025 126.811 78.9187 125.723C82.1172 125.117 84.6978 122.531 85.3043 119.326C86.3915 113.599 81.4707 108.661 75.7431 109.748C72.5445 110.354 69.9639 112.941 69.3574 116.139V116.145Z" fill="white"/>
<path d="M86.7862 48.9646C85.7562 44.3299 89.7902 40.2902 94.4249 41.3202C96.7537 41.8351 98.6419 43.7234 99.1569 46.0579C100.187 50.6926 96.1529 54.7323 91.5182 53.7023C89.1894 53.1874 87.3011 51.2992 86.7862 48.9646Z" fill="white"/>
<path d="M102.149 9.11137C99.9406 5.55808 95.2201 5.16327 92.4564 7.92694V7.93839C91.3177 9.07704 90.7112 10.5647 90.654 12.0581C90.551 14.4098 89.7156 16.6757 88.0505 18.3408L87.6157 18.7757C85.7389 20.6639 83.0267 21.3104 80.4233 20.7554C77.0817 20.0287 73.454 20.9786 70.862 23.5763C66.1128 28.3255 66.8967 36.525 73.2194 40.1297C76.2062 41.8349 79.9255 41.9093 82.9523 40.2785C87.3582 37.9154 89.2064 33.3665 88.5026 29.1895C87.999 26.2198 88.7772 23.1815 90.8943 21.0358L91.1461 20.784C92.5766 19.3421 94.5277 18.4094 96.5647 18.501C98.7963 18.604 101.062 17.4997 102.332 15.1995C103.374 13.3112 103.288 10.9481 102.149 9.10565V9.11137Z" fill="white"/>
<path d="M99.0022 31.611C97.772 24.1382 104.135 17.7525 111.613 18.9827L111.625 18.9713C116.145 19.7209 119.784 23.3772 120.534 27.9032C121.752 35.376 115.39 41.7502 107.923 40.5314C103.391 39.7933 99.7518 36.137 99.008 31.611H99.0022Z" fill="white"/>
<path d="M69.346 9.72966C68.2588 4.00205 73.1796 -0.935947 78.9073 0.151213C82.1058 0.757733 84.6864 3.34403 85.2929 6.54257C86.3801 12.2702 81.4478 17.2082 75.7316 16.121C72.5331 15.5145 69.9525 12.9282 69.346 9.72966Z" fill="white"/>
<path d="M135.909 118.308C133.82 122.862 128.276 123.56 125.129 120.408C123.91 119.183 123.264 117.598 123.201 115.99C123.098 113.484 122.211 111.07 120.426 109.301L119.962 108.838C117.942 106.841 115.047 106.143 112.278 106.738C108.719 107.493 104.856 106.486 102.087 103.717C97.023 98.6473 97.8584 89.8986 104.61 86.0477C107.786 84.2282 111.751 84.1481 114.978 85.8761C119.808 88.4624 121.759 93.4919 120.837 98.058C120.231 101.039 121.181 104.117 123.378 106.332L123.721 106.687C125.255 108.22 127.32 109.21 129.489 109.113C132.018 109.004 134.604 110.337 135.892 113.112C136.647 114.749 136.647 116.666 135.903 118.302L135.909 118.308Z" fill="white"/>
<path d="M141.991 95.386C141.511 91.5809 138.947 89.0061 135.886 88.1707C133.265 87.4612 131.177 85.4928 129.941 83.0782L129.666 82.5289C127.893 79.05 127.938 75.0161 129.798 71.6974C130.244 70.8963 130.61 70.0552 130.897 69.1797C130.897 69.1797 130.897 69.1759 130.897 69.1683C132.522 65.4147 132.716 60.9002 130.811 56.3112C129.369 52.8552 126.571 50.0743 123.115 48.6439C115.064 45.3194 107.254 48.4894 103.403 54.4687C101.234 57.8332 97.6238 60.0075 93.6185 60.0075H91.9362C88.8292 60.0075 85.8939 58.6858 83.7139 56.4485C81.2019 53.8622 77.1852 52.7522 73.0826 54.4916C71.0742 55.3385 69.4492 56.9635 68.6138 58.9776C65.7814 65.7409 70.6679 72.2467 77.0707 72.2467C79.6284 72.2467 81.9515 71.2053 83.6337 69.5345C85.8596 67.2972 88.7892 65.8954 91.9419 65.8954H93.6185C97.5322 65.8954 101.194 67.898 103.26 71.2167C105.697 75.1362 109.806 77.8942 114.589 78.4892C114.595 78.495 114.601 78.495 114.612 78.495C115.161 78.6151 115.711 78.7067 116.271 78.7639C119.808 79.1129 122.989 81.0527 124.625 84.2054L125.003 84.9378C126.456 87.7244 126.588 90.9401 125.753 93.9612C125.209 95.901 125.375 98.0352 126.359 99.9578C127.395 101.972 129.14 103.379 131.137 104.026C131.28 104.078 131.423 104.123 131.572 104.163C131.881 104.243 132.195 104.312 132.516 104.352C132.567 104.364 132.619 104.369 132.676 104.375C135.205 104.701 137.929 103.854 140.012 101.577C141.528 99.912 142.26 97.6233 141.986 95.386H141.991Z" fill="white"/>
<path d="M132.522 104.353C132.196 104.319 131.881 104.25 131.578 104.164C131.887 104.244 132.201 104.313 132.522 104.353Z" fill="white"/>
<path d="M141.013 108.742C140.274 115.448 145.498 121.124 152.05 121.124C158.184 121.124 163.156 116.146 163.156 110C163.156 103.443 157.486 98.2133 150.791 98.9514C145.704 99.5179 141.579 103.649 141.018 108.742H141.013Z" fill="white"/>
<path d="M137.111 82.9699C134.919 82.9699 133.168 81.0703 133.414 78.8273C133.603 77.1222 134.982 75.7432 136.687 75.5544C138.93 75.3083 140.83 77.0592 140.83 79.2507C140.83 81.3049 139.165 82.9699 137.111 82.9699Z" fill="white"/>
<path d="M52.9873 80.0091C54.633 83.4061 58.8311 84.2066 61.5721 81.9883L61.5732 81.978C62.7025 81.064 63.3873 79.7865 63.5799 78.452C63.8946 76.3517 64.8584 74.3977 66.5098 73.0612L66.9411 72.7121C68.8035 71.1954 71.2981 70.8717 73.5816 71.6158C76.5111 72.5838 79.8557 72.0745 82.427 69.9888C87.1372 66.1767 87.2091 58.7458 81.877 54.9136C79.3583 53.1013 76.0283 52.6829 73.1583 53.8599C68.9818 55.5636 66.8934 59.4703 67.13 63.2846C67.301 65.9967 66.3155 68.6492 64.2131 70.3742L63.9634 70.5763C62.5436 71.7348 60.7047 72.3871 58.8857 72.1124C56.8933 71.809 54.7558 72.5856 53.3986 74.5293C52.2857 76.125 52.1393 78.2535 52.9867 80.0142L52.9873 80.0091Z" fill="white"/>
<path fill-rule="evenodd" clip-rule="evenodd" d="M60.7627 13.4124C33.5505 13.4124 11.4377 35.5998 11.4377 63.0332C11.4377 90.4667 33.5505 112.654 60.7627 112.654C63.9211 112.654 66.4816 115.215 66.4816 118.373C66.4816 121.531 63.9211 124.092 60.7627 124.092C27.1759 124.092 0 96.7256 0 63.0332C0 29.3408 27.1759 1.97461 60.7627 1.97461C63.9211 1.97461 66.4816 4.53504 66.4816 7.69348C66.4816 10.8519 63.9211 13.4124 60.7627 13.4124Z" fill="white"/>
</svg>
