<svg width="23" height="24" viewBox="0 0 23 24" fill="none" xmlns="http://www.w3.org/2000/svg">
<path d="M11.6355 4.28979C7.63796 4.28979 4.39905 7.6948 4.39905 11.8974C4.39905 16.0999 7.63796 19.505 11.6355 19.505C15.6331 19.505 18.872 16.0999 18.872 11.8974C18.872 7.6948 15.6331 4.28979 11.6355 4.28979ZM11.6355 18.0325C8.41121 18.0325 5.79966 15.287 5.79966 11.8974C5.79966 8.50771 8.41121 5.76223 11.6355 5.76223C14.8598 5.76223 17.4714 8.50771 17.4714 11.8974C17.4714 15.287 14.8598 18.0325 11.6355 18.0325ZM13.4388 14.83L10.9615 12.9373C10.871 12.8667 10.8185 12.7563 10.8185 12.6397V7.60277C10.8185 7.40031 10.9761 7.23466 11.1687 7.23466H12.1024C12.295 7.23466 12.4525 7.40031 12.4525 7.60277V11.9495L14.4017 13.4404C14.5593 13.56 14.5914 13.7901 14.4776 13.9557L13.929 14.7502C13.8152 14.9128 13.5964 14.9496 13.4388 14.83Z" fill="#26C496"/>
</svg>
