<?xml version="1.0" encoding="UTF-8"?>
<!-- Generated by Pixelmator Pro 3.0.1 -->
<svg width="100" height="100" viewBox="0 0 100 100" xmlns="http://www.w3.org/2000/svg" xmlns:xlink="http://www.w3.org/1999/xlink">
    <path id="Path" fill="#28cd96" fill-rule="evenodd" stroke="none" d="M 16.35 49.950001 L 49.950001 83.550003 L 83.550003 49.950001 L 49.950001 16.349998 L 16.35 49.950001 Z M 40.549999 49.950001 C 40.549999 44.75 44.75 40.549999 49.950001 40.549999 C 55.150002 40.549999 59.150002 44.75 59.349998 49.950001 C 59.349998 55.150002 55.150002 59.349998 49.950001 59.349998 C 44.75 59.349998 40.549999 55.150002 40.549999 49.950001 Z M 1.95 54.75 C -0.65 52.150002 -0.65 47.75 1.95 45.150002 L 45.150002 1.949997 C 47.75 -0.650002 52.150002 -0.650002 54.75 1.949997 L 97.949997 45.150002 C 100.550003 47.75 100.550003 52.150002 97.949997 54.75 L 54.75 97.949997 C 52.150002 100.550003 47.75 100.550003 45.150002 97.949997 L 1.95 54.75 Z M 286.149994 44.349998 C 286.350006 45.950001 286.350006 47.950001 286.350006 49.950001 C 286.350006 51.950001 286.350006 53.75 286.149994 55.549999 C 286.149994 57.349998 285.950012 58.950001 285.549988 60.549999 C 285.149994 62.150002 284.75 63.549999 284.149994 64.949997 C 283.549988 66.349998 282.549988 67.550003 281.350006 68.75 C 279.75 70.349998 277.75 71.75 275.75 72.550003 C 273.549988 73.349998 271.350006 73.949997 268.549988 73.949997 C 265.75 73.949997 263.549988 73.349998 261.350006 72.550003 C 259.149994 71.75 257.350006 70.349998 255.75 68.75 C 254.550003 67.550003 253.75 66.349998 252.949997 64.949997 C 252.313004 63.8358 252.057007 62.721699 251.776993 61.506699 C 251.705002 61.195 251.632004 60.876701 251.550003 60.549999 C 251.276001 59.454601 251.190002 58.3591 251.098007 57.199402 C 251.056 56.665298 251.013 56.117599 250.949997 55.549999 C 250.75 53.75 250.75 51.950001 250.75 49.950001 C 250.75 47.950001 250.75 46.150002 250.949997 44.349998 C 251.013 43.782398 251.056 43.234699 251.098007 42.7006 C 251.190002 41.541 251.276001 40.445499 251.550003 39.349998 C 251.949997 37.75 252.350006 36.349998 252.949997 34.949997 C 253.550003 33.550003 254.550003 32.349998 255.75 31.150002 C 257.350006 29.550003 259.149994 28.150002 261.350006 27.349998 C 263.549988 26.550003 265.75 25.949997 268.549988 25.949997 C 271.350006 25.949997 273.549988 26.550003 275.75 27.349998 C 277.950012 28.150002 279.75 29.550003 281.350006 31.150002 C 282.549988 32.349998 283.549988 33.550003 284.149994 34.949997 C 284.75 36.349998 285.149994 37.75 285.549988 39.349998 C 285.824005 40.4454 285.910004 41.540798 286.002014 42.700401 L 286.002014 42.700901 C 286.044006 43.234901 286.087006 43.782501 286.149994 44.349998 Z M 276.950012 55.549999 C 277.149994 54.150002 277.149994 52.150002 277.149994 49.950001 C 277.149994 47.75 277.149994 45.75 276.950012 44.349998 C 276.950012 42.950001 276.75 41.75 276.549988 40.75 C 276.549988 39.75 276.350006 38.950001 275.950012 38.349998 C 275.75 37.75 275.549988 37.349998 274.950012 36.75 C 274.286987 36.087299 273.625 35.699097 272.847992 35.244202 C 272.687012 35.150002 272.522003 35.053001 272.350006 34.949997 C 271.350006 34.550003 270.149994 34.349998 268.950012 34.349998 C 267.75 34.349998 266.549988 34.550003 265.549988 34.949997 C 264.549988 35.349998 263.549988 35.949997 262.950012 36.75 C 262.708008 36.992199 262.539001 37.3078 262.355011 37.652302 C 262.234009 37.876701 262.108002 38.1133 261.950012 38.349998 C 261.75 38.950001 261.549988 39.75 261.350006 40.75 C 261.239014 41.192299 261.190002 41.818001 261.134003 42.5257 L 261.134003 42.526199 C 261.088989 43.0984 261.039001 43.724201 260.950012 44.349998 C 260.75 45.75 260.75 47.75 260.75 49.950001 C 260.75 52.150002 260.75 54.150002 260.950012 55.549999 C 260.950012 56.950001 261.149994 58.150002 261.350006 59.150002 C 261.350006 60.150002 261.549988 60.950001 261.950012 61.549999 C 262.149994 62.150002 262.350006 62.549999 262.950012 63.150002 C 263.613007 63.812801 264.276001 64.200996 265.052002 64.6558 C 265.213013 64.75 265.377991 64.847099 265.549988 64.949997 C 266.549988 65.349998 267.75 65.550003 268.950012 65.550003 C 270.149994 65.550003 271.350006 65.550003 272.350006 64.949997 C 273.350006 64.550003 274.350006 63.950001 274.950012 63.150002 C 275.350006 62.75 275.75 62.150002 275.950012 61.549999 C 276.149994 60.950001 276.350006 60.150002 276.549988 59.150002 C 276.661011 58.707699 276.709991 58.081902 276.765991 57.3741 L 276.765991 57.373001 C 276.811005 56.800999 276.860992 56.175499 276.950012 55.549999 Z M 348.149994 26.349998 C 348.549988 26.349998 348.950012 26.550003 348.950012 27.150002 L 348.950012 72.349998 C 348.950012 72.75 348.75 73.150002 348.149994 73.150002 L 341.149994 73.150002 C 340.75 73.150002 340.75 73.150002 340.549988 72.949997 L 322.149994 44.349998 L 322.149994 72.349998 C 322.149994 72.75 321.950012 73.150002 321.350006 73.150002 L 313.75 73.150002 C 313.350006 73.150002 312.950012 72.949997 312.950012 72.349998 L 312.950012 27.150002 C 312.950012 26.75 313.350006 26.349998 313.75 26.349998 L 320.75 26.349998 C 321.149994 26.349998 321.149994 26.349998 321.350006 26.550003 L 339.75 54.950001 L 339.75 27.150002 C 339.75 26.75 339.950012 26.349998 340.549988 26.349998 L 348.149994 26.349998 Z M 303.75 27.150002 C 303.75 26.550003 303.350006 26.349998 302.950012 26.349998 L 295.350006 26.349998 C 294.75 26.349998 294.549988 26.75 294.549988 27.150002 L 294.549988 72.349998 C 294.549988 72.949997 294.950012 73.150002 295.350006 73.150002 L 302.950012 73.150002 C 303.549988 73.150002 303.75 72.75 303.75 72.349998 L 303.75 27.150002 Z M 218.550003 49.949501 L 218.550003 49.950001 L 218.550003 49.9505 C 218.550003 52.150299 218.550003 53.9501 218.75 55.549999 C 218.75 56.950001 218.949997 58.150002 219.149994 59.150002 C 219.949997 63.150002 222.949997 65.550003 226.949997 65.550003 C 229.550003 65.349998 231.949997 64.550003 233.350006 62.349998 C 233.949997 61.549999 234.350006 60.349998 234.75 59.150002 C 234.850006 59.150002 234.899994 59.099998 234.949997 59.049999 C 235 59 235.050003 58.950001 235.149994 58.950001 L 243.949997 58.950001 C 244.149994 58.950001 244.149994 58.950001 244.149994 59.150002 C 243.149994 64.550003 240.350006 69.550003 235.149994 71.949997 C 232.75 73.150002 230.149994 73.75 227.149994 73.75 C 222.149994 73.75 217.949997 71.949997 214.550003 68.550003 C 212.550003 66.75 211.350006 64.349998 210.75 61.549999 C 210.350006 58.950001 209.949997 55.150002 209.949997 49.950001 C 209.949997 44.950001 210.149994 40.950001 210.75 38.349998 C 211.350006 35.75 212.550003 33.349998 214.550003 31.349998 C 217.949997 27.949997 222.149994 26.150002 227.149994 26.150002 C 229.949997 26.150002 232.75 26.75 235.149994 27.949997 C 240.350006 30.349998 243.149994 35.349998 244.149994 40.75 C 244.149994 40.75 244.149994 40.950001 243.949997 40.950001 L 235.149994 40.950001 C 234.949997 40.950001 234.75 40.950001 234.75 40.75 C 234.550003 39.549999 233.949997 38.549999 233.350006 37.549999 C 231.949997 35.349998 229.550003 34.349998 226.949997 34.349998 C 222.949997 34.349998 219.75 36.75 219.149994 40.75 C 219.039001 41.192299 218.990005 41.8181 218.934006 42.525902 L 218.934006 42.5261 C 218.889008 43.098301 218.839005 43.724201 218.75 44.349998 C 218.550003 45.749901 218.550003 47.749699 218.550003 49.949501 Z M 133.550003 27.150002 C 133.550003 26.550003 133.149994 26.349998 132.75 26.349998 L 125.349998 26.349998 C 124.75 26.349998 124.550003 26.75 124.550003 27.150002 L 124.550003 72.349998 C 124.550003 72.949997 124.949997 73.150002 125.349998 73.150002 L 132.949997 73.150002 C 133.550003 73.150002 133.75 72.75 133.75 72.349998 L 133.75 59.150002 L 139.75 51.950001 L 152.149994 73.150002 C 152.350006 73.349998 152.550003 73.349998 152.75 73.349998 L 161.949997 73.349998 C 162.350006 73.349998 162.550003 72.949997 162.350006 72.75 L 145.949997 45.150002 L 160.949997 27.150002 C 161.350006 26.75 161.149994 26.550003 160.550003 26.550003 L 150.550003 26.550003 C 150.350006 26.550003 150.350006 26.550003 150.149994 26.75 L 133.75 46.349998 L 133.550003 27.150002 Z M 176.550003 56.950001 C 176.550003 61.549999 180.350006 65.550003 184.550003 65.550003 C 188.949997 65.550003 192.75 61.75 192.550003 56.950001 L 192.550003 27.150002 C 192.550003 26.75 192.75 26.349998 193.350006 26.349998 L 200.949997 26.349998 C 201.350006 26.349998 201.75 26.550003 201.75 27.150002 L 201.75 56.75 C 201.75 66.949997 193.949997 73.550003 184.550003 73.550003 C 175.149994 73.550003 167.350006 67.150002 167.350006 56.75 L 167.350006 27.150002 C 167.350006 26.75 167.550003 26.349998 168.149994 26.349998 L 175.75 26.349998 C 176.149994 26.349998 176.550003 26.550003 176.550003 27.150002 L 176.550003 56.950001 Z M 427.549988 26.550003 L 422.149994 26.550003 L 412.950012 64.150002 L 402.549988 26.550003 L 398.149994 26.550003 L 387.75 64.150002 L 378.549988 26.550003 L 373.149994 26.550003 L 385.149994 73.349998 L 389.75 73.349998 L 400.149994 35.949997 L 410.549988 73.349998 L 415.149994 73.349998 L 427.549988 26.550003 Z M 463.950012 73.150002 L 458.549988 73.150002 L 454.75 62.549999 L 434.350006 62.549999 L 430.549988 73.150002 L 425.149994 73.150002 L 442.350006 26.349998 L 446.549988 26.349998 L 463.950012 73.150002 Z M 453.549988 58.349998 L 444.950012 33.75 L 436.149994 58.349998 L 453.549988 58.349998 Z M 500.549988 73.150002 L 500.549988 68.75 L 476.75 68.75 L 476.75 26.550003 L 471.75 26.550003 L 471.75 73.349998 L 500.549988 73.349998 L 500.549988 73.150002 Z M 537.549988 73.150002 L 537.549988 68.75 L 513.75 68.75 L 513.75 26.550003 L 508.75 26.550003 L 508.75 73.349998 L 537.549988 73.349998 L 537.549988 73.150002 Z M 574.549988 73.150002 L 574.549988 68.75 L 550.549988 68.75 L 550.549988 51.950001 L 570.950012 51.950001 L 570.950012 47.549999 L 550.549988 47.549999 L 550.549988 31.150002 L 574.549988 31.150002 L 574.549988 26.75 L 545.549988 26.75 L 545.549988 73.550003 L 574.549988 73.550003 L 574.549988 73.150002 Z M 614.75 30.949997 L 614.75 26.550003 L 582.75 26.550003 L 582.75 30.949997 L 596.349976 30.949997 L 596.349976 73.150002 L 601.349976 73.150002 L 601.349976 30.949997 L 614.75 30.949997 Z"/>
</svg>
