<svg width="36" height="36" viewBox="0 0 36 36" fill="none" xmlns="http://www.w3.org/2000/svg">
<g clip-path="url(#clip0_1012_102)">
<path d="M33.06 30.85H33.42C34.0377 30.8538 34.6366 30.6374 35.1094 30.2398C35.5821 29.8422 35.8979 29.2892 36 28.68V28.27V2.59C36 1.90482 35.7285 1.24755 35.245 0.76212C34.7614 0.276687 34.1052 0.00264549 33.42 0L7.68001 0C6.99391 0.00263381 6.33666 0.276354 5.85151 0.761503C5.36636 1.24665 5.09264 1.9039 5.09001 2.59V2.99C5.23157 3.58817 5.57372 4.11981 6.05951 4.49644C6.54531 4.87306 7.14544 5.07195 7.76001 5.06H22.09C22.83 5.06 24.16 5 24.16 5H24.21C24.4254 4.98606 24.6399 5.03885 24.8242 5.15119C25.0086 5.26352 25.1538 5.42994 25.2401 5.62779C25.3265 5.82563 25.3498 6.04528 25.3068 6.25682C25.2638 6.46837 25.1567 6.66153 25 6.81L0.91001 31.4C0.404801 31.8396 0.0802777 32.4508 -0.000971729 33.1155C-0.0822212 33.7803 0.085559 34.4516 0.47001 35C0.886166 35.5339 1.49021 35.889 2.15909 35.9931C2.82796 36.0971 3.51134 35.9422 4.07001 35.56L4.47001 35.21L29.06 10C29.209 9.85133 29.3981 9.74941 29.6042 9.70677C29.8103 9.66414 30.0243 9.68264 30.22 9.76C30.4162 9.84223 30.5831 9.98157 30.699 10.1599C30.8149 10.3383 30.8745 10.5473 30.87 10.76C30.87 10.76 30.87 13.01 30.87 13.85V28.1C30.8506 28.7434 31.0601 29.3728 31.461 29.8763C31.862 30.3799 32.4286 30.7249 33.06 30.85Z" fill="#E1E9F0"/>
</g>
<defs>
<clipPath id="clip0_1012_102">
<rect width="36" height="35.98" fill="white"/>
</clipPath>
</defs>
</svg>
