<?xml version="1.0" encoding="UTF-8"?>
<svg id="Capa_1" data-name="Capa 1"
  xmlns="http://www.w3.org/2000/svg" viewBox="0 0 500 500">
  <defs>
    <style>
      .cls-1 {
        fill: currentColor;
        stroke-width: 0px;
      }
    </style>
  </defs>
  <path class="cls-1" d="m433.04,227.37l-128.16-128.16c-12.28-12.28-32.18-12.28-44.46,0-12.28,12.28-12.28,32.18,0,44.46l74.5,74.5H89.2c-17.36,0-31.44,14.07-31.44,31.44s14.07,31.44,31.44,31.44h246.52l-75.3,75.3c-12.28,12.28-12.28,32.18,0,44.46,6.14,6.14,14.18,9.21,22.23,9.21s16.09-3.07,22.23-9.21l128.16-128.16c6.24-6.24,9.29-14.45,9.19-22.63.1-8.18-2.95-16.39-9.19-22.63Z"/>
</svg>