<svg width="24" height="24" viewBox="0 0 24 24" fill="none"
  xmlns="http://www.w3.org/2000/svg">
  <path d="M8.77629 11.9943L15.6994 5.07137C15.7577 5.01309 15.804 4.94391 15.8355 4.86776C15.8671 4.79162 15.8833 4.71001 15.8833 4.62759C15.8833 4.54518 15.8671 4.46357 15.8355 4.38742C15.804 4.31128 15.7577 4.2421 15.6994 4.18382C15.6411 4.12554 15.5718 4.07931 15.4956 4.04777C15.4194 4.01623 15.3378 4 15.2553 4C15.1728 4 15.0912 4.01623 15.015 4.04777C14.9388 4.07931 14.8695 4.12554 14.8112 4.18382L7.88814 11.1067L7 11.9943L7.88853 12.88L7.88814 12.8818L14.8157 19.8136C14.8739 19.8718 14.9432 19.9179 15.0194 19.9491C15.0957 19.9804 15.1774 19.9961 15.2597 19.9955C15.4258 19.9948 15.585 19.9296 15.7038 19.8136C15.7624 19.7554 15.8088 19.6863 15.8405 19.6101C15.8722 19.534 15.8885 19.4523 15.8885 19.3698C15.8885 19.2873 15.8722 19.2057 15.8405 19.1295C15.8088 19.0533 15.7624 18.9842 15.7038 18.926L12.2401 15.4602L8.77629 11.9943Z" fill="currentColor"/>
</svg>
