<svg width="9" height="16" viewBox="0 0 9 16" fill="none"
  xmlns="http://www.w3.org/2000/svg">
  <path d="M1.88774 7.99427L8.81082 1.07137C8.86914 1.01309 8.9154 0.943907 8.94696 0.867763C8.97852 0.79162 8.99477 0.71001 8.99477 0.627594C8.99477 0.545177 8.97852 0.463567 8.94696 0.387424C8.9154 0.311281 8.86914 0.242095 8.81082 0.183818C8.75251 0.12554 8.68328 0.0793123 8.60708 0.0477727C8.53089 0.0162332 8.44922 0 8.36675 0C8.28428 0 8.20262 0.0162332 8.12642 0.0477727C8.05023 0.0793123 7.981 0.12554 7.92268 0.183818L0.999595 7.10672L0.11145 7.99427L0.999983 8.88L0.999595 8.88182L7.92712 15.8136C7.98538 15.8718 8.05464 15.9179 8.13088 15.9491C8.20711 15.9804 8.2888 15.9961 8.37119 15.9955C8.53724 15.9948 8.69649 15.9296 8.81526 15.8136C8.8738 15.7554 8.92026 15.6863 8.95196 15.6101C8.98366 15.534 8.99998 15.4523 8.99998 15.3698C8.99998 15.2873 8.98366 15.2057 8.95196 15.1295C8.92026 15.0533 8.8738 14.9842 8.81526 14.926L5.3515 11.4602L1.88774 7.99427Z" fill="currentcolor"/>
</svg>
