<svg width="142" height="145" viewBox="0 0 142 145" fill="none"
  xmlns="http://www.w3.org/2000/svg">
  <path d="M136.32 13.0408H106.5V1.44898C106.5 0.652041 105.861 0 105.08 0H95.14C94.359 0 93.72 0.652041 93.72 1.44898V13.0408H48.28V1.44898C48.28 0.652041 47.641 0 46.86 0H36.92C36.139 0 35.5 0.652041 35.5 1.44898V13.0408H5.68C2.53825 13.0408 0 15.6309 0 18.8367V139.102C0 142.308 2.53825 144.898 5.68 144.898H136.32C139.462 144.898 142 142.308 142 139.102V18.8367C142 15.6309 139.462 13.0408 136.32 13.0408ZM129.22 131.857H12.78V63.0306H129.22V131.857ZM12.78 50.7143V26.0816H35.5V34.7755C35.5 35.5724 36.139 36.2245 36.92 36.2245H46.86C47.641 36.2245 48.28 35.5724 48.28 34.7755V26.0816H93.72V34.7755C93.72 35.5724 94.359 36.2245 95.14 36.2245H105.08C105.861 36.2245 106.5 35.5724 106.5 34.7755V26.0816H129.22V50.7143H12.78Z" fill="#C6C6C6" fill-opacity="0.4"/>
  <g>
    <path d="M53.2513 124.611H46.0569V78.7267L36.1182 87.4369L31.8906 82.2263L46.7986 69.5498H53.2513V124.611Z" fill="#D2D2D9" />
    <path d="M93.3787 124.611H85.9618V100.813L66.3071 69.5498H75.3557L89.8928 94.4362L104.504 69.5498H113.033L93.3787 100.813V124.611Z" fill="#D2D2D9"/>
  </g>
</svg>
