<svg width="80" height="82" viewBox="0 0 80 82" fill="none" xmlns="http://www.w3.org/2000/svg">
<path d="M76.5675 7.3247H59.8184V0.813855C59.8184 0.366235 59.4594 0 59.0208 0H53.4377C52.9991 0 52.6402 0.366235 52.6402 0.813855V7.3247H27.1177V0.813855C27.1177 0.366235 26.7587 0 26.3201 0H20.737C20.2984 0 19.9395 0.366235 19.9395 0.813855V7.3247H3.19031C1.42567 7.3247 0 8.77946 0 10.5801V78.1301C0 79.9307 1.42567 81.3855 3.19031 81.3855H76.5675C78.3321 81.3855 79.7578 79.9307 79.7578 78.1301V10.5801C79.7578 8.77946 78.3321 7.3247 76.5675 7.3247ZM72.5796 74.0608H7.1782V35.4027H72.5796V74.0608ZM7.1782 28.4849V14.6494H19.9395V19.5325C19.9395 19.9801 20.2984 20.3464 20.737 20.3464H26.3201C26.7587 20.3464 27.1177 19.9801 27.1177 19.5325V14.6494H52.6402V19.5325C52.6402 19.9801 52.9991 20.3464 53.4377 20.3464H59.0208C59.4594 20.3464 59.8184 19.9801 59.8184 19.5325V14.6494H72.5796V28.4849H7.1782Z" fill="#50536A"/>
<path d="M49.9626 61.7458H50.0395L58.0774 41H64V68H60.1926V45.4237H60.1157L51.0779 68H48.655L39.6557 45.4237H39.5788V68H35.8868V41H41.8094L49.9626 61.7458Z" fill="#E1E9F0"/>
<path d="M26.0761 68H22.3456V45.5L17.1921 49.7712L15 47.2161L22.7302 41H26.0761V68Z" fill="#E1E9F0"/>
</svg>
