<svg width="142" height="145" viewBox="0 0 142 145" fill="none"
  xmlns="http://www.w3.org/2000/svg">
  <path d="M136.32 13.0408H106.5V1.44898C106.5 0.652041 105.861 0 105.08 0H95.14C94.359 0 93.72 0.652041 93.72 1.44898V13.0408H48.28V1.44898C48.28 0.652041 47.641 0 46.86 0H36.92C36.139 0 35.5 0.652041 35.5 1.44898V13.0408H5.68C2.53825 13.0408 0 15.6309 0 18.8367V139.102C0 142.308 2.53825 144.898 5.68 144.898H136.32C139.462 144.898 142 142.308 142 139.102V18.8367C142 15.6309 139.462 13.0408 136.32 13.0408ZM129.22 131.857H12.78V63.0306H129.22V131.857ZM12.78 50.7143V26.0816H35.5V34.7755C35.5 35.5724 36.139 36.2245 36.92 36.2245H46.86C47.641 36.2245 48.28 35.5724 48.28 34.7755V26.0816H93.72V34.7755C93.72 35.5724 94.359 36.2245 95.14 36.2245H105.08C105.861 36.2245 106.5 35.5724 106.5 34.7755V26.0816H129.22V50.7143H12.78Z" fill="#C6C6C6" fill-opacity="0.4"/>
  <g>
    <path d="M35.2335 92.5108H37.4256C38.8399 92.5108 40.207 92.392 41.527 92.1546C42.8942 91.8696 44.0963 91.4185 45.1334 90.8011C46.1706 90.1362 46.9956 89.2576 47.6084 88.1653C48.2684 87.073 48.5984 85.7195 48.5984 84.1048C48.5984 82.8226 48.3627 81.6828 47.8913 80.6855C47.4198 79.6407 46.7598 78.7621 45.9113 78.0497C45.1098 77.3374 44.167 76.7912 43.0827 76.4113C42.0456 75.9839 40.9377 75.7702 39.7592 75.7702C37.6378 75.7702 35.8228 76.3163 34.3142 77.4086C32.8528 78.5009 31.7449 80.0206 30.9907 81.9677L24.7678 79.7594C25.9936 76.72 27.95 74.3454 30.6371 72.6358C33.3714 70.8786 36.5063 70 40.042 70C42.1163 70 44.0727 70.3087 45.9113 70.9261C47.797 71.496 49.447 72.3508 50.8612 73.4906C52.2755 74.6304 53.3834 76.0551 54.1848 77.7648C55.0334 79.4745 55.4576 81.4453 55.4576 83.6774C55.4576 85.1021 55.2219 86.4319 54.7505 87.6667C54.3262 88.9014 53.7134 90.0175 52.9119 91.0148C52.1577 92.0121 51.2384 92.8669 50.1541 93.5793C49.0698 94.2917 47.8913 94.8141 46.6184 95.1465V95.289C48.0798 95.5739 49.4234 96.0726 50.6491 96.7849C51.9219 97.4973 53.0062 98.3996 53.9019 99.4919C54.7976 100.537 55.5048 101.748 56.0233 103.125C56.5419 104.502 56.8012 105.998 56.8012 107.613C56.8012 110.13 56.3298 112.362 55.3869 114.309C54.4441 116.209 53.1948 117.8 51.6391 119.082C50.0834 120.364 48.292 121.338 46.2648 122.003C44.2377 122.668 42.1634 123 40.042 123C36.0821 123 32.5935 122.098 29.5764 120.293C26.5593 118.488 24.3671 115.686 23 111.887L29.3642 109.75C30.1185 111.935 31.3914 113.715 33.1828 115.093C35.0213 116.47 37.2606 117.159 39.9006 117.159C41.1734 117.159 42.3992 116.969 43.5777 116.589C44.8034 116.161 45.8877 115.544 46.8306 114.737C47.7734 113.929 48.5277 112.932 49.0934 111.745C49.6591 110.557 49.942 109.156 49.942 107.542C49.942 105.784 49.5648 104.312 48.8105 103.125C48.0563 101.938 47.0663 100.988 45.8406 100.276C44.662 99.5157 43.3184 98.9933 41.8099 98.7083C40.3013 98.3759 38.8163 98.2097 37.3549 98.2097H35.2335V92.5108Z" fill="#D2D2D9"/>
    <path d="M94.1895 110.035H94.3309L109.11 71.2823H120V121.718H112.999V79.5457H112.858L96.2402 121.718H91.7852L75.2382 79.5457H75.0967V121.718H68.3082V71.2823H79.1981L94.1895 110.035Z" fill="#D2D2D9"/>
  </g>
</svg>
