<svg width="169" height="170" viewBox="0 0 169 170" fill="none"
  xmlns="http://www.w3.org/2000/svg">
  <path fill-rule="evenodd" clip-rule="evenodd" d="M40.5 6C40.5 2.96243 38.0376 0.5 35 0.5C31.9624 0.5 29.5 2.96243 29.5 6V17H20C8.95431 17 0 25.9543 0 37V150C0 161.046 8.9543 170 20 170H149C160.046 170 169 161.046 169 150V37C169 25.9543 160.046 17 149 17H139.5V6C139.5 2.96243 137.038 0.5 134 0.5C130.962 0.5 128.5 2.96243 128.5 6V17H40.5V6ZM128.5 28H40.5V32C40.5 35.0376 38.0376 37.5 35 37.5C31.9624 37.5 29.5 35.0376 29.5 32V28H20C15.0294 28 11 32.0294 11 37V56.5H158V37C158 32.0294 153.971 28 149 28H139.5V32C139.5 35.0376 137.038 37.5 134 37.5C130.962 37.5 128.5 35.0376 128.5 32V28ZM11 67.5H158V150C158 154.971 153.971 159 149 159H20C15.0294 159 11 154.971 11 150V67.5Z" fill="#C6C6C6" fill-opacity="0.4"/>
  <path fill-rule="evenodd" clip-rule="evenodd" d="M50.0512 107.134H46.6121V115.371H49.9725C51.5234 115.371 53.1046 115.544 54.7174 115.894L54.7319 115.897L54.7465 115.9C56.3121 116.191 57.685 116.719 58.8783 117.476L58.8977 117.489L58.9176 117.5C60.1446 118.201 61.1274 119.13 61.8783 120.293C62.5903 121.395 62.9772 122.806 62.9772 124.583C62.9772 126.233 62.6836 127.61 62.1331 128.747C61.5616 129.927 60.8072 130.904 59.8712 131.692C58.9242 132.49 57.8312 133.105 56.5828 133.534C55.3755 133.916 54.1176 134.108 52.8049 134.108C50.049 134.108 47.7757 133.404 45.9287 132.045C44.0973 130.659 42.7998 128.875 42.0254 126.669L41.7003 125.743L32.707 128.713L33.0617 129.682C34.6509 134.026 37.2271 137.291 40.8108 139.4C44.3408 141.476 48.4018 142.5 52.9622 142.5C55.4272 142.5 57.8387 142.12 60.1929 141.36C62.5583 140.597 64.6625 139.475 66.4952 137.989C68.3408 136.493 69.8185 134.639 70.9282 132.44L70.9326 132.431C72.0593 130.142 72.609 127.544 72.609 124.661C72.609 122.784 72.302 121.024 71.6774 119.392C71.0625 117.786 70.2193 116.361 69.1442 115.125C68.0678 113.837 66.768 112.775 65.2533 111.94C64.6132 111.574 63.9473 111.257 63.2561 110.989C63.7715 110.738 64.2716 110.457 64.756 110.144C66.0498 109.308 67.1553 108.299 68.0654 107.119C69.0239 105.943 69.7576 104.628 70.2657 103.179C70.8342 101.709 71.1141 100.135 71.1141 98.4677C71.1141 95.8988 70.6178 93.5866 69.5958 91.557C68.641 89.5573 67.3154 87.8792 65.6212 86.5362C63.9427 85.2058 61.9952 84.2159 59.7919 83.5592C57.6423 82.851 55.3638 82.5 52.9622 82.5C48.8583 82.5 45.1821 83.5054 41.9657 85.5379C38.7959 87.522 36.4837 90.2857 35.0425 93.8007L34.6424 94.7767L43.4696 97.8577L43.8219 96.9632C44.6005 94.9863 45.724 93.4866 47.1756 92.4177C48.6596 91.3628 50.4668 90.8145 52.6475 90.8145C53.837 90.8145 54.9414 91.0261 55.9698 91.4429L55.9944 91.4529L56.0196 91.4616C57.1133 91.8385 58.0473 92.3739 58.8343 93.062L58.845 93.0713L58.8558 93.0802C59.6804 93.7611 60.3232 94.6003 60.7866 95.6105L60.7903 95.6186L60.7942 95.6267C61.2442 96.5631 61.4823 97.6585 61.4823 98.9355C61.4823 100.565 61.1442 101.854 60.5287 102.856L60.5202 102.869L60.5122 102.884C59.9136 103.933 59.1149 104.771 58.1075 105.409C57.0681 106.015 55.8456 106.47 54.4268 106.762C53.0229 107.01 51.5647 107.134 50.0512 107.134ZM59.8851 140.409C62.1405 139.681 64.1337 138.616 65.8646 137.212C67.5956 135.809 68.9855 134.068 70.0346 131.989C71.0836 129.858 71.6082 127.416 71.6082 124.661C71.6082 122.894 71.3197 121.257 70.7427 119.75C70.1657 118.243 69.3789 116.918 68.3824 115.774C67.3858 114.579 66.1794 113.591 64.7632 112.812C63.3994 112.032 61.9045 111.487 60.2785 111.175V111.019C61.6947 110.655 63.006 110.083 64.2124 109.304C63.4624 109.788 62.6726 110.193 61.8415 110.517C61.3457 110.71 60.8355 110.875 60.3108 111.011L60.2785 111.019V111.175L60.3215 111.183C60.8553 111.287 61.375 111.416 61.8805 111.57C62.8992 111.881 63.8596 112.295 64.7632 112.812C66.1794 113.591 67.3858 114.579 68.3824 115.774C69.3789 116.918 70.1657 118.243 70.7427 119.75C71.3197 121.257 71.6082 122.894 71.6082 124.661C71.6082 127.416 71.0836 129.858 70.0346 131.989C68.9855 134.068 67.5956 135.809 65.8646 137.212C64.1337 138.616 62.1405 139.681 59.8851 140.409Z" fill="#D2D2D9"/>
  <path fill-rule="evenodd" clip-rule="evenodd" d="M141.001 83.9032H127.2L111.356 124.764L95.2848 83.9032H81.4871V141.097H91.0402V98.7573L107.931 141.097H114.242L131.212 98.7385V141.097H141.001V83.9032Z" fill="#D2D2D9"/>
</svg>
