<svg width="22" height="37" class="zig-icon" viewBox="0 0 22 37" fill="none" xmlns="http://www.w3.org/2000/svg">
<path d="M21.3753 18.2585C21.3742 18.5279 21.3188 18.7944 21.2123 19.0418C21.1057 19.2893 20.9503 19.5126 20.7553 19.6985L4.03527 35.8185C3.84561 36.0006 3.62191 36.1435 3.37698 36.239C3.13204 36.3346 2.87068 36.3809 2.60783 36.3753C2.34498 36.3697 2.08581 36.3124 1.84515 36.2065C1.60448 36.1007 1.38704 35.9485 1.20527 35.7585C1.02256 35.5695 0.878906 35.3463 0.782524 35.1018C0.686141 34.8572 0.638922 34.596 0.643566 34.3332C0.64821 34.0703 0.704626 33.811 0.809588 33.5699C0.914549 33.3289 1.066 33.111 1.25527 32.9285L16.4853 18.2885L1.25527 3.82853C1.0642 3.64796 0.910558 3.43152 0.80313 3.19158C0.695701 2.95163 0.636585 2.69288 0.629156 2.43009C0.621728 2.1673 0.666132 1.90562 0.759834 1.66C0.853536 1.41437 0.994701 1.1896 1.17527 0.998524C1.35584 0.80745 1.57227 0.653815 1.81221 0.546387C2.05216 0.438958 2.31091 0.379842 2.5737 0.372414C2.83649 0.364985 3.09817 0.409388 3.3438 0.50309C3.58943 0.596792 3.8142 0.737958 4.00527 0.918526L20.7353 16.8185C20.9414 16.9966 21.1056 17.218 21.2163 17.467C21.3269 17.7159 21.3812 17.9862 21.3753 18.2585V18.2585Z" fill="currentColor"/>
</svg>
