<svg width="24" height="24" viewBox="0 0 24 24" fill="none"
  xmlns="http://www.w3.org/2000/svg">
  <path d="M12.8878 11.9943L19.8108 5.07137C19.8692 5.01309 19.9154 4.94391 19.947 4.86776C19.9785 4.79162 19.9948 4.71001 19.9948 4.62759C19.9948 4.54518 19.9785 4.46357 19.947 4.38742C19.9154 4.31128 19.8692 4.2421 19.8108 4.18382C19.7525 4.12554 19.6833 4.07931 19.6071 4.04777C19.5309 4.01623 19.4492 4 19.3668 4C19.2843 4 19.2026 4.01623 19.1264 4.04777C19.0502 4.07931 18.981 4.12554 18.9227 4.18382L11.9996 11.1067L5.07209 4.18826C4.95431 4.07056 4.79457 4.00444 4.62801 4.00444C4.46145 4.00444 4.30172 4.07056 4.18394 4.18826C4.06617 4.30595 4 4.46558 4 4.63203C4 4.79848 4.06617 4.95811 4.18394 5.07581L11.1115 11.9943L4.18838 18.9305C4.12984 18.9886 4.08338 19.0578 4.05168 19.1339C4.01998 19.2101 4.00366 19.2918 4.00366 19.3743C4.00366 19.4567 4.01998 19.5384 4.05168 19.6146C4.08338 19.6907 4.12984 19.7599 4.18838 19.818C4.30715 19.934 4.4664 19.9993 4.63245 20C4.71485 20.0006 4.79653 19.9848 4.87277 19.9536C4.949 19.9223 5.01826 19.8763 5.07653 19.818L11.9996 12.8818L18.9271 19.8136C18.9854 19.8718 19.0547 19.9179 19.1309 19.9491C19.2071 19.9804 19.2888 19.9961 19.3712 19.9955C19.5373 19.9948 19.6965 19.9296 19.8153 19.8136C19.8738 19.7554 19.9203 19.6863 19.952 19.6101C19.9837 19.534 20 19.4523 20 19.3698C20 19.2873 19.9837 19.2057 19.952 19.1295C19.9203 19.0533 19.8738 18.9842 19.8153 18.926L12.8878 11.9943Z" fill="currentcolor"/>
</svg>
