<svg class="zig-icon" width="36" height="8" viewBox="0 0 36 8" fill="none" xmlns="http://www.w3.org/2000/svg">
<g clip-path="url(#clip0_2122_77)">
<path d="M28 4C28 4.79112 28.2346 5.56448 28.6741 6.22228C29.1136 6.88008 29.7384 7.39277 30.4693 7.69552C31.2002 7.99827 32.0044 8.07748 32.7804 7.92314C33.5563 7.7688 34.269 7.38784 34.8284 6.82843C35.3878 6.26902 35.7688 5.55628 35.9231 4.78036C36.0775 4.00444 35.9983 3.20017 35.6955 2.46926C35.3928 1.73836 34.8801 1.11365 34.2223 0.674119C33.5645 0.234594 32.7911 -1.90735e-06 32 -1.90735e-06C30.9391 -1.90735e-06 29.9217 0.421425 29.1716 1.17157C28.4214 1.92172 28 2.93913 28 4V4ZM14 4C14 4.79112 14.2346 5.56448 14.6741 6.22228C15.1136 6.88008 15.7384 7.39277 16.4693 7.69552C17.2002 7.99827 18.0044 8.07748 18.7804 7.92314C19.5563 7.7688 20.269 7.38784 20.8284 6.82843C21.3878 6.26902 21.7688 5.55628 21.9231 4.78036C22.0775 4.00444 21.9983 3.20017 21.6955 2.46926C21.3928 1.73836 20.8801 1.11365 20.2223 0.674119C19.5645 0.234594 18.7911 -1.90735e-06 18 -1.90735e-06C16.9391 -1.90735e-06 15.9217 0.421425 15.1716 1.17157C14.4214 1.92172 14 2.93913 14 4V4ZM8 4C8 3.20887 7.76541 2.43551 7.32588 1.77772C6.88635 1.11992 6.26164 0.607231 5.53074 0.30448C4.79983 0.00172955 3.99556 -0.0774838 3.21964 0.0768571C2.44372 0.231198 1.73098 0.612161 1.17157 1.17157C0.612165 1.73098 0.231202 2.44371 0.0768607 3.21964C-0.0774802 3.99556 0.00173312 4.79983 0.304484 5.53073C0.607234 6.26164 1.11992 6.88635 1.77772 7.32588C2.43552 7.7654 3.20888 8 4 8C5.06087 8 6.07828 7.57857 6.82843 6.82843C7.57857 6.07828 8 5.06086 8 4Z" fill="currentColor"/>
</g>
<defs>
<clipPath id="clip0_2122_77">
<rect width="8" height="36" fill="white" transform="matrix(0 -1 1 0 0 8)"/>
</clipPath>
</defs>
</svg>
