<svg width="8" height="37" class="zig-icon" viewBox="0 0 8 37" fill="none" xmlns="http://www.w3.org/2000/svg">
<g clip-path="url(#clip0_1012_125)">
<path d="M4 28.1499C3.20888 28.1499 2.43552 28.3845 1.77772 28.824C1.11992 29.2636 0.607234 29.8883 0.304484 30.6192C0.00173312 31.3501 -0.0774802 32.1543 0.0768607 32.9303C0.231202 33.7062 0.612165 34.4189 1.17157 34.9783C1.73098 35.5377 2.44372 35.9187 3.21964 36.073C3.99556 36.2274 4.79983 36.1482 5.53074 35.8454C6.26164 35.5427 6.88635 35.03 7.32588 34.3722C7.76541 33.7144 8 32.941 8 32.1499C8 31.089 7.57857 30.0716 6.82843 29.3215C6.07828 28.5713 5.06087 28.1499 4 28.1499ZM4 14.1499C3.20888 14.1499 2.43552 14.3845 1.77772 14.824C1.11992 15.2636 0.607234 15.8883 0.304484 16.6192C0.00173312 17.3501 -0.0774802 18.1543 0.0768607 18.9303C0.231202 19.7062 0.612165 20.4189 1.17157 20.9783C1.73098 21.5377 2.44372 21.9187 3.21964 22.073C3.99556 22.2274 4.79983 22.1482 5.53074 21.8454C6.26164 21.5427 6.88635 21.03 7.32588 20.3722C7.76541 19.7144 8 18.941 8 18.1499C8 17.089 7.57857 16.0716 6.82843 15.3215C6.07828 14.5713 5.06087 14.1499 4 14.1499ZM4 8.1499C4.79113 8.1499 5.56449 7.91531 6.22228 7.47578C6.88008 7.03626 7.39277 6.41154 7.69552 5.68064C7.99827 4.94973 8.07748 4.14547 7.92314 3.36954C7.7688 2.59362 7.38784 1.88089 6.82843 1.32148C6.26902 0.762067 5.55629 0.381104 4.78036 0.226763C4.00444 0.0724221 3.20017 0.151635 2.46927 0.454386C1.73836 0.757137 1.11365 1.26983 0.674123 1.92762C0.234598 2.58542 1.79795e-06 3.35878 1.79795e-06 4.1499C1.79795e-06 5.21077 0.421429 6.22819 1.17157 6.97833C1.92172 7.72848 2.93914 8.1499 4 8.1499Z" fill="currentColor"/>
</g>
<defs>
<clipPath id="clip0_1012_125">
<rect width="8" height="36" fill="white" transform="translate(0 0.149902)"/>
</clipPath>
</defs>
</svg>
