<svg width="24" height="24" viewBox="0 0 24 24" fill="none"
  xmlns="http://www.w3.org/2000/svg">
  <path d="M17.3333 20H6.66667C5.95942 20 5.28115 19.719 4.78105 19.219C4.28095 18.7189 4 18.0406 4 17.3333V6.66667C4 5.95942 4.28095 5.28115 4.78105 4.78105C5.28115 4.28095 5.95942 4 6.66667 4H17.3333C18.0406 4 18.7189 4.28095 19.219 4.78105C19.719 5.28115 20 5.95942 20 6.66667V17.3333C20 18.0406 19.719 18.7189 19.219 19.219C18.7189 19.719 18.0406 20 17.3333 20ZM6.66667 4.76C6.16135 4.76117 5.67706 4.96243 5.31975 5.31975C4.96243 5.67706 4.76117 6.16135 4.76 6.66667V17.3333C4.76117 17.8387 4.96243 18.3229 5.31975 18.6803C5.67706 19.0376 6.16135 19.2388 6.66667 19.24H17.3333C17.8387 19.2388 18.3229 19.0376 18.6803 18.6803C19.0376 18.3229 19.2388 17.8387 19.24 17.3333V6.66667C19.2388 6.16135 19.0376 5.67706 18.6803 5.31975C18.3229 4.96243 17.8387 4.76117 17.3333 4.76H6.66667ZM6.77333 8.52V8.66667C6.77331 8.76857 6.79365 8.86945 6.83318 8.96337C6.8727 9.0573 6.9306 9.14237 7.00348 9.21359C7.07636 9.28482 7.16274 9.34075 7.25755 9.3781C7.35236 9.41546 7.45368 9.43348 7.55556 9.43111H7.70222C7.90109 9.42533 8.08987 9.34224 8.22846 9.1995C8.36705 9.05676 8.44453 8.86562 8.44444 8.66667V8.52C8.44444 8.31844 8.36437 8.12513 8.22185 7.9826C8.07932 7.84007 7.88601 7.76 7.68444 7.76H7.55556C7.4539 7.75703 7.35267 7.77449 7.25789 7.81135C7.1631 7.84821 7.07667 7.90372 7.00373 7.97459C6.93079 8.04546 6.87281 8.13025 6.83324 8.22393C6.79366 8.31762 6.77329 8.4183 6.77333 8.52ZM9.99111 8.59556C9.99111 8.71343 10.0379 8.82648 10.1213 8.90983C10.2046 8.99317 10.3177 9.04 10.4356 9.04H16.7822C16.9001 9.04 17.0131 8.99317 17.0965 8.90983C17.1798 8.82648 17.2267 8.71343 17.2267 8.59556C17.2267 8.47768 17.1798 8.36464 17.0965 8.28129C17.0131 8.19794 16.9001 8.15111 16.7822 8.15111H10.4311C10.314 8.15228 10.2021 8.19962 10.1197 8.28285C10.0373 8.36607 9.99111 8.47845 9.99111 8.59556ZM6.77333 11.9244V12.0756C6.7739 12.1771 6.79468 12.2775 6.83446 12.3709C6.87425 12.4643 6.93225 12.5488 7.00507 12.6196C7.07788 12.6903 7.16407 12.7459 7.25858 12.783C7.3531 12.82 7.45405 12.8379 7.55556 12.8356H7.70222C7.90032 12.8298 8.08844 12.7473 8.22691 12.6055C8.36538 12.4638 8.44338 12.2737 8.44444 12.0756V11.9244C8.44327 11.7225 8.36221 11.5292 8.21898 11.3868C8.07574 11.2444 7.88198 11.1644 7.68 11.1644H7.55556C7.45405 11.1621 7.3531 11.18 7.25858 11.217C7.16407 11.2541 7.07788 11.3097 7.00507 11.3804C6.93225 11.4512 6.87425 11.5357 6.83446 11.6291C6.79468 11.7225 6.7739 11.8229 6.77333 11.9244ZM9.99111 12C9.99111 12.1179 10.0379 12.2309 10.1213 12.3143C10.2046 12.3976 10.3177 12.4444 10.4356 12.4444H16.7822C16.9001 12.4444 17.0131 12.3976 17.0965 12.3143C17.1798 12.2309 17.2267 12.1179 17.2267 12C17.2267 11.8821 17.1798 11.7691 17.0965 11.6857C17.0131 11.6024 16.9001 11.5556 16.7822 11.5556H10.4311C10.314 11.5567 10.2021 11.6041 10.1197 11.6873C10.0373 11.7705 9.99111 11.8829 9.99111 12ZM6.77333 15.3333V15.48C6.77329 15.5817 6.79366 15.6824 6.83324 15.7761C6.87281 15.8698 6.93079 15.9545 7.00373 16.0254C7.07667 16.0963 7.1631 16.1518 7.25789 16.1887C7.35267 16.2255 7.4539 16.243 7.55556 16.24H7.70222C7.90069 16.2354 8.08946 16.1532 8.22817 16.0112C8.36687 15.8692 8.4445 15.6785 8.44444 15.48V15.3333C8.44444 15.1306 8.3639 14.9362 8.22054 14.7928C8.07718 14.6494 7.88274 14.5689 7.68 14.5689H7.55556C7.45368 14.5665 7.35236 14.5845 7.25755 14.6219C7.16274 14.6593 7.07636 14.7152 7.00348 14.7864C6.9306 14.8576 6.8727 14.9427 6.83318 15.0366C6.79365 15.1306 6.77331 15.2314 6.77333 15.3333ZM9.99111 15.4044C9.99111 15.5223 10.0379 15.6354 10.1213 15.7187C10.2046 15.8021 10.3177 15.8489 10.4356 15.8489H16.7822C16.9001 15.8489 17.0131 15.8021 17.0965 15.7187C17.1798 15.6354 17.2267 15.5223 17.2267 15.4044C17.2267 15.2866 17.1798 15.1735 17.0965 15.0902C17.0131 15.0068 16.9001 14.96 16.7822 14.96H10.4311C10.314 14.9612 10.2021 15.0085 10.1197 15.0917C10.0373 15.175 9.99111 15.2873 9.99111 15.4044Z" fill="#65647E"/>
  <rect x="13" y="8.15002" width="0.75" height="0.9" fill="currentColor"/>
</svg>
