<svg width="36" height="44" viewBox="0 0 36 44" fill="none" xmlns="http://www.w3.org/2000/svg">
<path fill-rule="evenodd" clip-rule="evenodd" d="M18 21.6298C20.136 21.6298 22.2241 20.9964 24.0002 19.8097C25.7762 18.6229 27.1605 16.9362 27.9779 14.9628C28.7953 12.9893 29.0092 10.8178 28.5925 8.72281C28.1758 6.62782 27.1472 4.70344 25.6368 3.19304C24.1263 1.68263 22.202 0.654029 20.107 0.237309C18.012 -0.179411 15.8405 0.0344647 13.867 0.851891C11.8936 1.66932 10.2068 3.05358 9.02013 4.82963C7.83341 6.60568 7.2 8.69375 7.2 10.8298C7.19868 12.2484 7.47714 13.6534 8.01942 14.9643C8.56171 16.2752 9.35718 17.4663 10.3603 18.4695C11.3634 19.4726 12.5546 20.2681 13.8655 20.8104C15.1764 21.3527 16.5814 21.6311 18 21.6298ZM32.14 43.2298C33.1637 43.2298 34.1455 42.8231 34.8694 42.0992C35.5933 41.3753 36 40.3935 36 39.3698V36.0298C35.9974 33.1663 34.8586 30.4208 32.8338 28.396C30.809 26.3711 28.0635 25.2324 25.2 25.2298H23.86C22.0225 26.0767 20.0233 26.5152 18 26.5152C15.9767 26.5152 13.9775 26.0767 12.14 25.2298H10.8C7.93647 25.2324 5.19099 26.3711 3.16617 28.396C1.14135 30.4208 0.00264774 33.1663 0 36.0298L0 39.3698C0 40.3935 0.406677 41.3753 1.13057 42.0992C1.85446 42.8231 2.83626 43.2298 3.86 43.2298H32.14Z" fill="#89899A"/>
</svg>
