<svg width="24" height="24" viewBox="0 0 24 24" fill="none"
  xmlns="http://www.w3.org/2000/svg">
  <path d="M12.5911 5.00053C11.1986 4.98878 9.83103 5.35886 8.64543 6.06824C7.45984 6.77762 6.50439 7.79751 5.88889 9.0107L5.05333 7.37037L4 7.84952L5.73333 11.251L9.33333 9.61503L8.82667 8.61788L6.95111 9.48121C7.46969 8.46136 8.27409 7.60436 9.2718 7.00874C10.2695 6.41312 11.42 6.10307 12.5911 6.11423C14.22 6.09922 15.7887 6.71098 16.9546 7.81585C18.1205 8.92072 18.7887 10.4289 18.8133 12.0108C18.7887 13.5923 18.1204 15.1 16.9543 16.2042C15.7883 17.3083 14.2195 17.9191 12.5911 17.903C11.5973 17.9053 10.617 17.6793 9.73027 17.2434C8.84354 16.8075 8.07551 16.1742 7.48889 15.395L6.53333 16.0339C7.23176 16.9561 8.14433 17.7053 9.19691 18.2206C10.2495 18.7359 11.4124 19.0027 12.5911 18.9994C14.5283 19.0236 16.3963 18.3005 17.7853 16.9887C19.1743 15.6769 19.9707 13.8836 20 12.0021C19.9707 10.1203 19.1744 8.32651 17.7856 7.01402C16.3967 5.70154 14.5287 4.97747 12.5911 5.00053Z" fill="currentcolor"/>
</svg>
