<svg width="642" height="641" viewBox="0 0 642 641" fill="none" xmlns="http://www.w3.org/2000/svg">
<path d="M335.701 635.82C466.023 570.069 484.779 459.897 476.5 400L316.5 475L324.394 629.161C324.684 634.824 330.639 638.374 335.701 635.82Z" fill="#D14888"/>
<path d="M57 584L185 456L246 517.5C187.6 577.5 95.6667 586.833 57 584Z" fill="#CE9926"/>
<path d="M255.5 385.5L638.5 2C649.5 297 453 439 345 475L255.5 385.5Z" fill="#80CDED"/>
<path d="M541.5 99.5L638.5 2C644 37 642.5 90 620.5 170L541.5 99.5Z" fill="#D14888"/>
<path d="M255.453 385.41L345.283 475.24L280.251 540.273C277.126 543.397 272.061 543.397 268.937 540.273L184.764 456.1L255.453 385.41Z" fill="#04397B"/>
<path d="M5.18027 305.494C70.9312 175.173 181.103 156.417 241 164.696L166 324.696L11.8391 316.802C6.1765 316.512 2.62625 310.557 5.18027 305.494Z" fill="#D198B7"/>
<path d="M57 584.196L185 456.196L123.5 395.196C63.5 453.596 54.1667 545.529 57 584.196Z" fill="#D1D6BF"/>
<path d="M255.5 385.696L639 2.6958C344 -8.3042 202 188.196 166 296.196L255.5 385.696Z" fill="#A1D5EA"/>
<path d="M541.5 99.6958L639 2.6958C604 -2.8042 551 -1.3042 471 20.6958L541.5 99.6958Z" fill="#D198B7"/>
<path d="M255.59 385.743L165.76 295.913L100.727 360.945C97.603 364.069 97.603 369.135 100.727 372.259L184.9 456.432L255.59 385.743Z" fill="#197DBF"/>
<path fill-rule="evenodd" clip-rule="evenodd" d="M457 181.515C443.2 168.194 424.418 160 403.723 160C361.35 160 327 194.35 327 236.723C327 257.418 335.194 276.2 348.515 290L457 181.515Z" fill="#0D60B9"/>
<path fill-rule="evenodd" clip-rule="evenodd" d="M456.485 181C469.806 194.8 478 213.582 478 234.277C478 276.65 443.65 311 401.277 311C380.582 311 361.8 302.806 348 289.485L456.485 181Z" fill="#043C7E"/>
<path fill-rule="evenodd" clip-rule="evenodd" d="M431.735 206.541C424.332 199.395 414.257 195 403.156 195C380.426 195 362 213.426 362 236.156C362 247.257 366.395 257.332 373.541 264.735L431.735 206.541Z" fill="#06CCAB"/>
<path fill-rule="evenodd" clip-rule="evenodd" d="M431.459 206.265C438.604 213.667 443 223.742 443 234.844C443 257.574 424.574 276 401.844 276C390.742 276 380.667 271.604 373.265 264.459L431.459 206.265Z" fill="#1CADB5"/>
</svg>
