<svg width="14" height="14" viewBox="0 0 14 14" fill="none" xmlns="http://www.w3.org/2000/svg">
<path d="M13.4831 11.8609L10.887 9.26479C10.7699 9.14762 10.611 9.08252 10.4444 9.08252H10.0199C10.7386 8.16334 11.1657 7.0072 11.1657 5.74951C11.1657 2.75762 8.74141 0.333374 5.74951 0.333374C2.75762 0.333374 0.333374 2.75762 0.333374 5.74951C0.333374 8.74141 2.75762 11.1656 5.74951 11.1656C7.0072 11.1656 8.16334 10.7386 9.08252 10.0199V10.4444C9.08252 10.611 9.14762 10.7699 9.26479 10.887L11.8609 13.4831C12.1057 13.7279 12.5015 13.7279 12.7436 13.4831L13.4805 12.7462C13.7253 12.5015 13.7253 12.1057 13.4831 11.8609ZM5.74951 9.08252C3.90855 9.08252 2.4165 7.59308 2.4165 5.74951C2.4165 3.90855 3.90594 2.4165 5.74951 2.4165C7.59048 2.4165 9.08252 3.90594 9.08252 5.74951C9.08252 7.59048 7.59308 9.08252 5.74951 9.08252Z" fill="currentColor" />
</svg>
