<svg width="24" height="24" viewBox="0 0 24 24" fill="none" xmlns="http://www.w3.org/2000/svg">
<path d="M16 13.5403C15.7378 13.3455 15.4178 13.5846 15.4178 13.961V15.8073H8.21778C6.76444 15.8073 5.87556 15.3292 5.87556 14.2001V13.0843C5.87556 12.8365 5.77675 12.5989 5.60089 12.4237C5.42502 12.2485 5.18649 12.15 4.93778 12.15C4.68906 12.15 4.45054 12.2485 4.27467 12.4237C4.0988 12.5989 4 12.8365 4 13.0843V14.1824C4 16.2103 5.61333 17.6537 8.21778 17.6537H15.3956V19.5001C15.3956 19.8764 15.7156 20.1155 15.9778 19.9428L19.7956 17.1755C19.8572 17.124 19.9068 17.0596 19.9408 16.9869C19.9748 16.9143 19.9925 16.8351 19.9925 16.7549C19.9925 16.6747 19.9748 16.5955 19.9408 16.5228C19.9068 16.4501 19.8572 16.3858 19.7956 16.3342L16 13.5403ZM15.7822 6.33199H8.60444V4.49005C8.60444 4.1137 8.28444 3.8746 8.02222 4.06942L4.20444 6.83232C4.14269 6.88428 4.09306 6.94903 4.05902 7.02206C4.02498 7.0951 4.00734 7.17465 4.00734 7.25517C4.00734 7.3357 4.02498 7.41525 4.05902 7.48828C4.09306 7.56131 4.14269 7.62607 4.20444 7.67802L8.02222 10.4454C8.28444 10.6357 8.60444 10.3967 8.60444 10.0026V8.17836H15.7822C17.2356 8.17836 18.1244 8.65655 18.1244 9.7812V10.897C18.1244 11.1448 18.2232 11.3824 18.3991 11.5576C18.575 11.7328 18.8135 11.8312 19.0622 11.8312C19.3109 11.8312 19.5495 11.7328 19.7253 11.5576C19.9012 11.3824 20 11.1448 20 10.897V9.7812C20 7.76658 18.3778 6.33199 15.7822 6.33199Z" fill="#65647E"/>
</svg>
