<svg width="32" height="32" viewBox="0 0 32 32" fill="none" xmlns="http://www.w3.org/2000/svg">
<path d="M16.0001 5.66675C10.2917 5.66675 5.66675 10.2917 5.66675 16.0001C5.66675 21.7084 10.2917 26.3334 16.0001 26.3334C21.7084 26.3334 26.3334 21.7084 26.3334 16.0001C26.3334 10.2917 21.7084 5.66675 16.0001 5.66675ZM16.0001 24.3334C11.3959 24.3334 7.66675 20.6042 7.66675 16.0001C7.66675 11.3959 11.3959 7.66675 16.0001 7.66675C20.6042 7.66675 24.3334 11.3959 24.3334 16.0001C24.3334 20.6042 20.6042 24.3334 16.0001 24.3334ZM18.5751 19.9834L15.0376 17.4126C14.9084 17.3167 14.8334 17.1667 14.8334 17.0084V10.1667C14.8334 9.89175 15.0584 9.66675 15.3334 9.66675H16.6667C16.9417 9.66675 17.1667 9.89175 17.1667 10.1667V16.0709L19.9501 18.0959C20.1751 18.2584 20.2209 18.5709 20.0584 18.7959L19.2751 19.8751C19.1126 20.0959 18.8001 20.1459 18.5751 19.9834Z" fill="#C1C1C8"/>
</svg>
