<svg width="24" height="24" viewBox="0 0 24 24" fill="none" xmlns="http://www.w3.org/2000/svg">
<path d="M9.7777 16.2629L7.2842 19.5361C7.23789 19.5886 7.18032 19.6308 7.11547 19.6598C7.05063 19.6887 6.98005 19.7037 6.90863 19.7037C6.8372 19.7037 6.76662 19.6887 6.70178 19.6598C6.63693 19.6308 6.57936 19.5886 6.53305 19.5361L4.05733 16.2629C3.89288 16.0438 4.10178 15.7646 4.43513 15.7646H6.07968V5.24914C6.07967 5.1838 6.10622 5.12107 6.15361 5.07447C6.201 5.02787 6.26544 5.00113 6.33303 5H7.51089C7.54474 5 7.57826 5.00644 7.60954 5.01896C7.64082 5.03149 7.66924 5.04984 7.69317 5.07297C7.71711 5.09611 7.7361 5.12357 7.74906 5.1538C7.76201 5.18403 7.76868 5.21642 7.76868 5.24914V15.7646H9.38212C9.71992 15.7646 9.92882 16.0438 9.7777 16.2629ZM19.9428 8.73282L17.4671 5.46392C17.4208 5.41137 17.3632 5.36917 17.2983 5.34022C17.2335 5.31128 17.1629 5.29629 17.0915 5.29629C17.0201 5.29629 16.9495 5.31128 16.8846 5.34022C16.8198 5.36917 16.7622 5.41137 16.7159 5.46392L14.2224 8.73282C14.0535 8.95619 14.2624 9.2311 14.6002 9.2311H16.2137V19.7509C16.2137 19.8169 16.2408 19.8803 16.2892 19.927C16.3375 19.9738 16.4031 20 16.4715 20H17.6493C17.7169 19.9989 17.7813 19.9721 17.8287 19.9255C17.8761 19.8789 17.9027 19.8162 17.9027 19.7509V9.2311H19.5561C19.8983 9.2311 20.1072 8.95619 19.9428 8.73282Z" fill="#65647E"/>
</svg>
