<svg width="151" height="154" viewBox="0 0 151 154" fill="none" xmlns="http://www.w3.org/2000/svg">
<path fill-rule="evenodd" clip-rule="evenodd" d="M0.187105 0.178033V36.6482H0.211008H4.25054H125.843C130.647 36.6482 134.041 39.0876 135.093 43.2009C136.169 47.386 134.209 51.3081 129.834 53.5083C123.765 56.5676 117.666 59.6075 111.569 62.6466C108.086 64.3826 104.604 66.1183 101.128 67.8572C75.5757 80.6277 50.0239 93.3983 24.496 106.241C23.8538 106.562 23.3625 107.174 22.8702 107.789C22.6295 108.089 22.3886 108.389 22.1296 108.656C22.4527 108.764 22.7779 108.897 23.1045 109.032C23.8657 109.344 24.635 109.66 25.4043 109.66C32.8619 109.756 40.3195 109.78 47.7771 109.66C49.3307 109.637 51.0039 109.182 52.3903 108.489C66.4265 101.532 80.4482 94.532 94.4667 87.5335C98.4719 85.534 102.477 83.5347 106.482 81.5365C109.686 79.9337 112.899 78.3471 116.112 76.7601C123.256 73.2324 130.403 69.7031 137.459 65.9918C150.247 59.2717 153.928 43.2488 145.467 31.6022C140.615 24.9539 133.85 21.9406 125.675 21.9406H18.4247H14.9828V14.6944H18.3052C27.641 14.6944 36.975 14.6997 46.3082 14.7051C71.194 14.7193 96.074 14.7335 120.967 14.6465C129.117 14.6226 137.029 15.0292 144.296 20.2187C144.271 19.9749 144.25 19.7638 144.233 19.5773C144.183 19.0501 144.151 18.7191 144.08 18.4012C141.642 7.32859 132.249 0.0106288 120.25 0.0106288C94.1807 -0.00531388 68.1226 -3.65069e-07 42.0608 0.0053139C29.0286 0.00797128 15.9955 0.0106288 2.9598 0.0106288C2.40333 0.0106288 1.84686 0.0555104 1.27939 0.101279C0.920618 0.130215 0.557448 0.159506 0.187105 0.178033ZM135.189 131.734V138.98L135.236 139.004H131.579C122.426 139.004 113.275 138.997 104.124 138.99C78.9602 138.972 53.8021 138.953 28.6311 139.076C20.7433 139.124 13.1901 138.382 6.35396 134.101C6.28401 134.066 6.1501 134.147 6.0271 134.22C5.98197 134.247 5.93831 134.274 5.89981 134.293C7.90763 145.891 17.373 153.736 29.6111 153.736H147.475C147.921 153.736 148.368 153.692 148.831 153.647C149.135 153.617 149.447 153.587 149.769 153.568V117.098H145.491C138.797 117.098 132.104 117.099 125.412 117.099C91.9547 117.103 58.5085 117.106 25.0457 117.026C22.775 117.026 20.1457 116.5 18.3291 115.257C12.8555 111.502 13.692 103.61 19.8111 100.453C26.9943 96.7472 34.2402 93.1415 41.4852 89.5362C44.2451 88.1628 47.0049 86.7895 49.761 85.4107C74.9542 72.8076 100.148 60.2044 125.317 47.5534C126.037 47.1934 126.6 46.5311 127.159 45.8729C127.417 45.5692 127.674 45.2664 127.946 44.9945C127.574 44.8829 127.204 44.7434 126.835 44.6042C126.019 44.2963 125.208 43.9901 124.385 43.9901C117.214 43.8945 110.043 43.8466 102.872 43.9901C101.128 44.014 99.2392 44.4206 97.6856 45.1859C79.347 54.2642 61.0463 63.3992 42.7329 72.5406C40.4467 73.6818 38.1603 74.8231 35.8736 75.9643C33.6876 77.0544 31.4995 78.1403 29.3112 79.2264C24.0579 81.8335 18.8033 84.4413 13.5725 87.1087C1.71687 93.1591 -3.23096 106.217 2.19492 117.887C6.64079 127.477 14.5764 131.734 25.0218 131.734H131.986H135.189Z" fill="url(#paint0_linear_835_603)"/>
<defs>
<linearGradient id="paint0_linear_835_603" x1="0.0197849" y1="0.010652" x2="150.008" y2="153.712" gradientUnits="userSpaceOnUse">
<stop stop-color="#E9FCFC"/>
<stop offset="0.322364" stop-color="#5EFFF3"/>
<stop offset="0.576468" stop-color="#33CCFE"/>
<stop offset="0.78125" stop-color="#A3ACFF"/>
<stop offset="1" stop-color="#DDA1FF"/>
</linearGradient>
</defs>
</svg>
