<svg width="111" height="29" viewBox="0 0 111 29" fill="none" xmlns="http://www.w3.org/2000/svg">
<path d="M10.7157 2.7033H13.1465C14.6269 2.4856 16.1388 2.67701 17.5178 3.25674C19.248 4.29582 20.5029 5.96864 21.0149 7.91834C21.3774 8.94006 21.3774 8.94006 22.2516 8.5782H22.934V0.489575H0.0539485V1.91573H0.992179C1.39989 1.91291 1.80306 2.00131 2.17206 2.17443C2.54106 2.34756 2.86652 2.60101 3.12452 2.91616C3.99878 4.32103 4.14805 5.89618 4.14805 14.0912C4.14805 22.7971 3.95613 24.9257 3.12452 26.0113C2.91922 26.2904 2.65341 26.5196 2.34695 26.6818C2.04049 26.8439 1.70129 26.9349 1.35468 26.9479C0.0539486 27.182 0.0539485 27.1607 0.0539485 27.7355C-0.0179828 27.9276 -0.0179828 28.1393 0.0539485 28.3315H14.4899C14.5854 28.1435 14.6352 27.9356 14.6352 27.7248C14.6352 27.514 14.5854 27.3062 14.4899 27.1182C14.1403 27.0211 13.7839 26.9499 13.4237 26.9053C13.0341 26.8591 12.649 26.7807 12.2723 26.6712C11.7328 26.278 11.3055 25.7512 11.0325 25.1427C10.7595 24.5342 10.6503 23.8651 10.7157 23.2016C10.5024 21.7967 10.3958 19.2211 10.3958 17.0925V15.411H11.2487C12.3114 15.3785 13.3735 15.4931 14.4046 15.7515C14.8986 16.0563 15.3191 16.4661 15.6361 16.9518C15.9531 17.4375 16.1588 17.9871 16.2384 18.5613L16.4303 19.2211H17.7311V9.79149H16.537L16.345 10.7068C16.2643 11.294 16.0467 11.8541 15.7097 12.3421C15.3727 12.8301 14.9257 13.2323 14.4046 13.5165C13.9 13.6664 13.3684 13.7028 12.848 13.6229H10.3958V11.3241C10.3958 8.94006 10.5237 3.9166 10.609 3.12902L10.7157 2.7033ZM110.509 19.583C109.501 17.9636 107.929 16.7733 106.095 16.2411C104.689 15.8024 103.39 15.0776 102.278 14.1125C102.028 13.8711 101.841 13.5722 101.733 13.242C101.626 12.9118 101.6 12.5603 101.66 12.2181C101.662 11.5469 101.93 10.9038 102.406 10.4301C102.729 10.0926 103.138 9.84899 103.588 9.72528C104.039 9.60156 104.515 9.60237 104.965 9.72763C105.897 9.99284 106.74 10.5048 107.405 11.2093C108.069 11.9138 108.53 12.7846 108.739 13.7294C109.081 14.6872 109.123 14.6872 109.742 14.4318L110.125 14.2828V8.98263L109.848 8.85491C107.749 8.11891 105.522 7.8148 103.302 7.96091C101.39 8.00927 99.565 8.76834 98.1843 10.0895C97.5582 10.6746 97.0677 11.3893 96.7472 12.1835C96.4268 12.9777 96.2841 13.8322 96.3292 14.6872C96.3412 15.9945 96.861 17.246 97.7792 18.1781C98.7939 19.1743 100.039 19.9054 101.404 20.3067C104.709 21.6051 105.669 22.4353 105.669 23.9466C105.683 24.5839 105.48 25.2071 105.092 25.7138C104.705 26.2205 104.156 26.5806 103.537 26.735C102.792 26.8983 102.021 26.8983 101.276 26.735C100.301 26.3573 99.431 25.7528 98.7374 24.9716C98.0439 24.1904 97.5472 23.2552 97.2887 22.2437L97.0115 21.5626H96.6277C96.4443 21.5762 96.2643 21.6193 96.0946 21.6903H95.8814V27.7355H96.2439C97.6845 28.2138 99.1708 28.542 100.679 28.7146H102.812C103.736 28.7824 104.666 28.696 105.562 28.4592C106.7 28.2496 107.763 27.7463 108.646 26.9995C109.529 26.2527 110.201 25.2882 110.595 24.202C110.849 23.5953 110.98 22.944 110.978 22.2863C111.062 21.3597 110.901 20.4274 110.509 19.583ZM90.4226 8.5782C89.1448 8.04267 87.7681 7.78289 86.3826 7.8159C84.9972 7.84892 83.6344 8.17398 82.3837 8.76977C81.208 9.34381 80.166 10.1576 79.325 11.1585C78.4839 12.1594 77.8624 13.3253 77.5006 14.5808C77.0394 15.9504 76.844 17.3953 76.9249 18.838C76.9096 19.6229 76.9739 20.4074 77.1168 21.1794C77.4611 23.0777 78.3792 24.8253 79.7476 26.1875C81.1161 27.5498 82.8693 28.4613 84.7719 28.7998C86.0109 28.9556 87.2645 28.9556 88.5035 28.7998C89.7892 28.5736 91.0196 28.1039 92.1285 27.4162C93.0457 26.9029 93.822 26.1718 94.3888 25.2876C94.3524 25.1489 94.2883 25.0189 94.2004 24.9055C94.1124 24.7921 94.0024 24.6976 93.877 24.6277C93.6336 24.7157 93.4039 24.8375 93.1946 24.9896C92.134 25.6873 90.8817 26.0371 89.6123 25.99C88.7698 26.0469 87.9252 25.9159 87.1396 25.6067C86.3541 25.2974 85.6473 24.8176 85.0704 24.202C84.6242 23.7883 84.2559 23.298 83.9829 22.7546C83.3203 21.4313 82.9633 19.9766 82.9381 18.4974V17.6673H94.7513V17.2415C94.7773 16.8162 94.7773 16.3897 94.7513 15.9644C94.747 14.4614 94.3443 12.9863 93.584 11.689C92.8237 10.3917 91.733 9.31842 90.4226 8.5782ZM84.4734 15.9431H82.9807V14.6872C83.4712 11.4731 84.6866 9.55735 86.1792 9.55735C87.6719 9.55735 88.3116 11.4518 88.5888 14.9214V15.9005H87.3094L84.4734 15.9431ZM53.8103 7.87576C53.0735 7.84724 52.341 8.00079 51.678 8.32277C50.2368 9.02143 49.0727 10.1834 48.3728 11.6221L48.0956 12.1329V7.87576H47.989C47.7331 7.87576 39.8435 9.45092 39.5876 9.55735C39.3317 9.66378 39.417 9.68506 39.417 10.0682C39.417 10.4514 39.417 10.5152 39.5876 10.5365L40.4192 10.7068C40.6521 10.7125 40.8807 10.771 41.0875 10.878C41.2944 10.9849 41.4742 11.1375 41.6133 11.3241C42.1464 12.0265 42.253 13.2611 42.253 18.5187C42.3583 20.8856 42.2584 23.2572 41.9545 25.6069C41.8829 25.9612 41.7029 26.2846 41.4394 26.5324C41.1758 26.7802 40.8417 26.9403 40.4832 26.9905L39.7582 27.1395H39.481V27.7355C39.4036 27.934 39.4036 28.1542 39.481 28.3528H51.4007V27.7355C51.4421 27.5318 51.4421 27.3219 51.4007 27.1182C50.6831 27.0903 49.9694 26.9976 49.2684 26.8415C48.8867 26.6421 48.5744 26.3321 48.3727 25.9521C48.1709 25.5722 48.0892 25.1401 48.1383 24.7129C47.9677 23.4783 47.8824 19.8597 47.925 17.0925C47.9677 14.3254 47.925 14.1551 48.1596 13.9635C48.8731 13.4174 49.7561 13.1387 50.6544 13.1759C51.5012 13.1944 52.3326 13.4055 53.0853 13.7932C53.3462 13.9379 53.6261 14.0453 53.9169 14.1125C53.9169 14.1125 56.0493 8.96134 56.0493 8.7272C55.7764 8.41067 55.4287 8.16705 55.0378 8.01838C54.6469 7.86972 54.225 7.8207 53.8103 7.87576ZM39.4383 16.8158C39.3639 15.2947 38.9264 13.8134 38.1623 12.4953C37.3983 11.1772 36.3297 10.0604 35.0457 9.23806C33.5198 8.41631 31.8221 7.96322 30.089 7.91516C28.3558 7.8671 26.6356 8.22542 25.0663 8.96134C22.8476 10.1293 21.1724 12.1146 20.3965 14.4957C19.5951 17.1615 19.5951 20.0036 20.3965 22.6694C20.8166 24.1264 21.6019 25.4524 22.6781 26.5222C24.0185 27.8277 25.7468 28.6643 27.6038 28.9062C28.7958 29.0057 29.9941 29.0057 31.1861 28.9062C31.6248 28.8396 32.0591 28.7472 32.4869 28.6295C34.2225 28.1448 35.784 27.1767 36.9886 25.8385C38.1932 24.5003 38.9912 22.8474 39.289 21.073C39.5019 19.6643 39.552 18.2359 39.4383 16.8158ZM30.5678 27.4587C28.4354 28.0973 26.8362 26.0326 26.3031 21.6903C26.1073 19.4169 26.1073 17.1309 26.3031 14.8575C26.7295 11.3666 27.817 9.59992 29.5016 9.59992C29.8415 9.57889 30.1814 9.63942 30.493 9.77644C30.8047 9.91347 31.0789 10.123 31.2928 10.3875C32.7214 11.8136 33.4251 14.6447 33.4251 18.9018C33.6025 21.3112 33.2232 23.729 32.3163 25.9687C31.9158 26.622 31.2963 27.1122 30.5678 27.3523V27.4587ZM68.9499 8.30148C68.3482 8.22419 67.7391 8.22419 67.1374 8.30148C65.9825 8.3005 64.8407 8.54731 63.7897 9.0252L63.1286 9.30192V4.68289C63.2442 3.12405 63.2442 1.55883 63.1286 0C62.8727 0 54.7272 1.55387 54.5993 1.61772C54.5364 1.77488 54.5364 1.95015 54.5993 2.1073C54.5993 2.5543 54.5993 2.53302 55.5588 2.74587C55.8282 2.80619 56.087 2.90665 56.3265 3.04388C56.7427 3.4346 57.0197 3.95031 57.1154 4.5126C57.3582 6.1325 57.4368 7.77271 57.35 9.40835V28.0973L57.9257 28.225C58.7787 28.4166 61.1882 28.821 61.9772 28.9062C63.5526 29.0313 65.1355 29.0313 66.711 28.9062C68.4596 28.7279 70.1264 28.0767 71.5317 27.0226C72.937 25.9686 74.0276 24.5518 74.6859 22.9249C75.0784 21.8806 75.3502 20.7951 75.4962 19.6894C75.6231 18.1916 75.573 16.6842 75.3469 15.1981C75.1182 13.5323 74.3817 11.9771 73.2373 10.7433C72.093 9.50961 70.5962 8.65711 68.9499 8.30148ZM63.3632 27.0969C63.3632 26.8202 63.15 17.497 63.1926 13.7719V10.8558L63.811 10.7068C64.2282 10.6471 64.6518 10.6471 65.0691 10.7068C65.5305 10.6599 65.9946 10.7646 66.3911 11.0048C67.1874 11.5534 67.8487 12.2752 68.3252 13.1158C68.8016 13.9565 69.0809 14.894 69.1418 15.858C69.2972 17.408 69.2972 18.9696 69.1418 20.5196C69.0142 22.7724 68.1447 24.92 66.6683 26.6286C66.2493 27.0259 65.7231 27.2923 65.1544 27.3949C64.724 27.4696 64.284 27.4696 63.8536 27.3949C63.4485 27.3949 63.4485 27.2672 63.4485 27.0969H63.3632Z" fill="#E1E9F0"/>
</svg>
