<svg width="159" height="36" viewBox="0 0 159 36" fill="none" xmlns="http://www.w3.org/2000/svg">
<path opacity="0.6" fill-rule="evenodd" clip-rule="evenodd" d="M13.8462 16.7076H12.6154C12.2756 16.7076 12 16.997 12 17.3538V23.1692C12 25.6672 13.9286 27.6922 16.3077 27.6922H22.4615C24.8407 27.6922 26.7692 25.6672 26.7692 23.1692V17.3538C26.7692 16.997 26.4936 16.7076 26.1538 16.7076H24.9231V14.123C24.9231 10.9113 22.4433 8.30762 19.3846 8.30762C16.3257 8.30762 13.8462 10.9113 13.8462 14.123V16.7076ZM15.6923 16.7076V14.123C15.6923 11.9819 17.3455 10.2461 19.3846 10.2461C21.4238 10.2461 23.0769 11.9819 23.0769 14.123V16.7076H15.6923Z" fill="#E1E9F0"/>
<g opacity="0.6">
<path d="M36.0014 9.19588H40.5199V10.1097H36.9762V12.3639H40.2762V13.2777H36.9762V16.3848H36.0014V9.19588Z" fill="#E1E9F0"/>
<path d="M45.5584 16.3848H44.6445V15.6436H44.6242C44.5092 15.9008 44.3095 16.1107 44.0252 16.2731C43.7408 16.4288 43.4125 16.5067 43.0402 16.5067C42.8033 16.5067 42.5799 16.4694 42.3701 16.395C42.1602 16.3273 41.9741 16.219 41.8116 16.07C41.6559 15.9211 41.5307 15.7316 41.4359 15.5014C41.3412 15.2645 41.2938 14.987 41.2938 14.6688V11.5719H42.2076V14.415C42.2076 14.6383 42.2381 14.8313 42.299 14.9937C42.3599 15.1494 42.4412 15.278 42.5427 15.3796C42.6442 15.4743 42.7593 15.5454 42.8879 15.5928C43.0233 15.6334 43.1621 15.6537 43.3042 15.6537C43.4938 15.6537 43.6698 15.6233 43.8322 15.5623C43.9947 15.5014 44.1368 15.4067 44.2587 15.278C44.3805 15.1427 44.4753 14.9734 44.543 14.7703C44.6107 14.5673 44.6445 14.327 44.6445 14.0494V11.5719H45.5584V16.3848Z" fill="#E1E9F0"/>
<path d="M46.6313 11.5719H47.5451V12.3131H47.5654C47.6805 12.0559 47.8802 11.8494 48.1645 11.6937C48.4488 11.5313 48.7771 11.45 49.1494 11.45C49.3796 11.45 49.5996 11.4873 49.8094 11.5617C50.0261 11.6294 50.2122 11.7377 50.3679 11.8867C50.5304 12.0356 50.659 12.2285 50.7537 12.4654C50.8485 12.6956 50.8959 12.9697 50.8959 13.2879V16.3848H49.9821V13.5417C49.9821 13.3183 49.9516 13.1288 49.8907 12.9731C49.8297 12.8107 49.7485 12.682 49.647 12.5873C49.5454 12.4857 49.427 12.4147 49.2916 12.374C49.163 12.3267 49.0276 12.303 48.8854 12.303C48.6959 12.303 48.5199 12.3334 48.3574 12.3943C48.195 12.4553 48.0528 12.5534 47.931 12.6888C47.8091 12.8174 47.7144 12.9833 47.6467 13.1863C47.579 13.3894 47.5451 13.6297 47.5451 13.9073V16.3848H46.6313V11.5719Z" fill="#E1E9F0"/>
<path d="M56.7919 16.3848H55.878V15.6943H55.8577C55.6817 15.9516 55.438 16.1513 55.1266 16.2934C54.822 16.4356 54.5073 16.5067 54.1823 16.5067C53.81 16.5067 53.4716 16.4423 53.1669 16.3137C52.8691 16.1851 52.6119 16.0057 52.3953 15.7756C52.1854 15.5454 52.0229 15.278 51.9079 14.9734C51.7928 14.6688 51.7353 14.3371 51.7353 13.9783C51.7353 13.6196 51.7928 13.2879 51.9079 12.9833C52.0229 12.6719 52.1854 12.4045 52.3953 12.1811C52.6119 11.951 52.8691 11.7716 53.1669 11.643C53.4716 11.5143 53.81 11.45 54.1823 11.45C54.5276 11.45 54.8525 11.5245 55.1571 11.6734C55.4617 11.8156 55.6953 12.0119 55.8577 12.2623H55.878V8.7085H56.7919V16.3848ZM54.294 15.6537C54.5377 15.6537 54.7577 15.6131 54.954 15.5319C55.1503 15.4439 55.3162 15.3288 55.4516 15.1867C55.5869 15.0377 55.6919 14.8617 55.7663 14.6587C55.8408 14.4488 55.878 14.222 55.878 13.9783C55.878 13.7347 55.8408 13.5113 55.7663 13.3082C55.6919 13.0983 55.5869 12.9223 55.4516 12.7802C55.3162 12.6313 55.1503 12.5162 54.954 12.435C54.7577 12.347 54.5377 12.303 54.294 12.303C54.0503 12.303 53.8303 12.347 53.634 12.435C53.4377 12.5162 53.2719 12.6313 53.1365 12.7802C53.0011 12.9223 52.8962 13.0983 52.8217 13.3082C52.7473 13.5113 52.71 13.7347 52.71 13.9783C52.71 14.222 52.7473 14.4488 52.8217 14.6587C52.8962 14.8617 53.0011 15.0377 53.1365 15.1867C53.2719 15.3288 53.4377 15.4439 53.634 15.5319C53.8303 15.6131 54.0503 15.6537 54.294 15.6537Z" fill="#E1E9F0"/>
<path d="M60.4303 12.7802C60.322 12.6448 60.1866 12.5331 60.0241 12.4451C59.8684 12.3503 59.6755 12.303 59.4454 12.303C59.2287 12.303 59.0392 12.3503 58.8767 12.4451C58.721 12.5331 58.6432 12.6651 58.6432 12.8411C58.6432 12.9833 58.6872 13.0983 58.7752 13.1863C58.87 13.2743 58.9783 13.3454 59.1001 13.3996C59.2287 13.4537 59.3641 13.4943 59.5063 13.5214C59.6484 13.5485 59.7703 13.5722 59.8718 13.5925C60.0681 13.6399 60.2509 13.6974 60.4201 13.7651C60.5961 13.8328 60.7451 13.9208 60.8669 14.0291C60.9955 14.1374 61.0937 14.2694 61.1614 14.4251C61.2358 14.5808 61.2731 14.7703 61.2731 14.9937C61.2731 15.2645 61.2155 15.498 61.1004 15.6943C60.9854 15.8839 60.8364 16.0396 60.6537 16.1614C60.4709 16.2833 60.261 16.3713 60.0241 16.4254C59.794 16.4796 59.5604 16.5067 59.3235 16.5067C58.9241 16.5067 58.5721 16.4457 58.2675 16.3239C57.9697 16.202 57.7023 15.9787 57.4654 15.6537L58.1558 15.0851C58.3047 15.234 58.4706 15.366 58.6534 15.4811C58.8361 15.5962 59.0595 15.6537 59.3235 15.6537C59.4386 15.6537 59.5537 15.6436 59.6687 15.6233C59.7906 15.5962 59.8955 15.559 59.9835 15.5116C60.0783 15.4574 60.1527 15.3931 60.2069 15.3187C60.2678 15.2374 60.2983 15.146 60.2983 15.0445C60.2983 14.9091 60.2543 14.7974 60.1663 14.7094C60.0851 14.6214 59.9835 14.5537 59.8617 14.5063C59.7466 14.4522 59.6214 14.4116 59.486 14.3845C59.3574 14.3507 59.2423 14.3236 59.1407 14.3033C58.9444 14.2559 58.7583 14.2017 58.5823 14.1408C58.4063 14.0799 58.2506 13.9987 58.1152 13.8971C57.9798 13.7956 57.8715 13.667 57.7903 13.5113C57.709 13.3556 57.6684 13.1627 57.6684 12.9325C57.6684 12.682 57.7192 12.4654 57.8207 12.2827C57.929 12.0931 58.0678 11.9374 58.237 11.8156C58.413 11.6937 58.6094 11.6023 58.826 11.5414C59.0494 11.4805 59.2727 11.45 59.4961 11.45C59.821 11.45 60.1324 11.511 60.4303 11.6328C60.7281 11.7547 60.965 11.9577 61.1411 12.242L60.4303 12.7802Z" fill="#E1E9F0"/>
<path d="M64.8336 9.19588H67.3619C67.8222 9.19588 68.2013 9.26019 68.4991 9.3888C68.7969 9.51065 69.0305 9.66973 69.1997 9.86603C69.3757 10.0556 69.4976 10.2722 69.5653 10.5159C69.6329 10.7528 69.6668 10.983 69.6668 11.2063C69.6668 11.4297 69.6329 11.6633 69.5653 11.907C69.4976 12.1439 69.3757 12.3605 69.1997 12.5568C69.0305 12.7463 68.7969 12.9054 68.4991 13.034C68.2013 13.1559 67.8222 13.2168 67.3619 13.2168H65.8083V16.3848H64.8336V9.19588ZM65.8083 12.3639H67.0877C67.2773 12.3639 67.4634 12.3503 67.6462 12.3233C67.8357 12.2894 68.0016 12.2319 68.1437 12.1507C68.2926 12.0694 68.4111 11.9543 68.4991 11.8054C68.5871 11.6497 68.6311 11.45 68.6311 11.2063C68.6311 10.9627 68.5871 10.7663 68.4991 10.6174C68.4111 10.4617 68.2926 10.3433 68.1437 10.262C68.0016 10.1808 67.8357 10.1267 67.6462 10.0996C67.4634 10.0657 67.2773 10.0488 67.0877 10.0488H65.8083V12.3639Z" fill="#E1E9F0"/>
<path d="M70.3143 11.5719H71.2282V12.3131H71.2485C71.3094 12.1845 71.3906 12.0694 71.4922 11.9679C71.5937 11.8596 71.7054 11.7682 71.8273 11.6937C71.9559 11.6193 72.0946 11.5617 72.2436 11.5211C72.3925 11.4737 72.5414 11.45 72.6903 11.45C72.8393 11.45 72.9746 11.4703 73.0965 11.511L73.0559 12.4959C72.9814 12.4756 72.907 12.4587 72.8325 12.4451C72.758 12.4316 72.6836 12.4248 72.6091 12.4248C72.1623 12.4248 71.8205 12.55 71.5836 12.8005C71.3466 13.051 71.2282 13.4402 71.2282 13.9682V16.3848H70.3143V11.5719Z" fill="#E1E9F0"/>
<path d="M74.3306 13.9783C74.3306 14.222 74.3678 14.4488 74.4423 14.6587C74.5167 14.8617 74.6217 15.0377 74.757 15.1867C74.8924 15.3288 75.0583 15.4439 75.2546 15.5319C75.4509 15.6131 75.6709 15.6537 75.9146 15.6537C76.1583 15.6537 76.3783 15.6131 76.5746 15.5319C76.7709 15.4439 76.9367 15.3288 77.0721 15.1867C77.2075 15.0377 77.3124 14.8617 77.3869 14.6587C77.4613 14.4488 77.4986 14.222 77.4986 13.9783C77.4986 13.7347 77.4613 13.5113 77.3869 13.3082C77.3124 13.0983 77.2075 12.9223 77.0721 12.7802C76.9367 12.6313 76.7709 12.5162 76.5746 12.435C76.3783 12.347 76.1583 12.303 75.9146 12.303C75.6709 12.303 75.4509 12.347 75.2546 12.435C75.0583 12.5162 74.8924 12.6313 74.757 12.7802C74.6217 12.9223 74.5167 13.0983 74.4423 13.3082C74.3678 13.5113 74.3306 13.7347 74.3306 13.9783ZM73.3558 13.9783C73.3558 13.6263 73.4201 13.298 73.5487 12.9934C73.6841 12.6888 73.8669 12.4214 74.097 12.1913C74.3272 11.9611 74.598 11.7817 74.9093 11.6531C75.2207 11.5177 75.5558 11.45 75.9146 11.45C76.2733 11.45 76.6084 11.5177 76.9198 11.6531C77.2312 11.7817 77.502 11.9611 77.7321 12.1913C77.9623 12.4214 78.1417 12.6888 78.2703 12.9934C78.4057 13.298 78.4734 13.6263 78.4734 13.9783C78.4734 14.3303 78.4057 14.662 78.2703 14.9734C78.1417 15.278 77.9623 15.5454 77.7321 15.7756C77.502 15.999 77.2312 16.1783 76.9198 16.3137C76.6084 16.4423 76.2733 16.5067 75.9146 16.5067C75.5558 16.5067 75.2207 16.4423 74.9093 16.3137C74.598 16.1783 74.3272 15.999 74.097 15.7756C73.8669 15.5454 73.6841 15.278 73.5487 14.9734C73.4201 14.662 73.3558 14.3303 73.3558 13.9783Z" fill="#E1E9F0"/>
<path d="M81.8927 12.3639H80.5828V14.547C80.5828 14.6823 80.5862 14.8177 80.593 14.9531C80.5997 15.0817 80.6234 15.2002 80.664 15.3085C80.7114 15.41 80.7791 15.4947 80.8671 15.5623C80.9619 15.6233 81.0973 15.6537 81.2733 15.6537C81.3816 15.6537 81.4933 15.6436 81.6083 15.6233C81.7234 15.603 81.8284 15.5657 81.9231 15.5116V16.3442C81.8148 16.4051 81.6727 16.4457 81.4967 16.466C81.3274 16.4931 81.1954 16.5067 81.1007 16.5067C80.7487 16.5067 80.4745 16.4593 80.2782 16.3645C80.0887 16.263 79.9465 16.1343 79.8517 15.9787C79.7637 15.823 79.7096 15.6503 79.6893 15.4608C79.6757 15.2645 79.669 15.0682 79.669 14.8719V12.3639H78.613V11.5719H79.669V10.2214H80.5828V11.5719H81.8927V12.3639Z" fill="#E1E9F0"/>
<path d="M83.4575 14.3134C83.4575 14.5233 83.5015 14.7162 83.5895 14.8922C83.6843 15.0614 83.8062 15.207 83.9551 15.3288C84.104 15.4507 84.2766 15.5454 84.4729 15.6131C84.6692 15.6808 84.8723 15.7147 85.0822 15.7147C85.3665 15.7147 85.6135 15.6503 85.8234 15.5217C86.0332 15.3863 86.2262 15.2103 86.4022 14.9937L87.0926 15.5217C86.5849 16.1783 85.8742 16.5067 84.9603 16.5067C84.5812 16.5067 84.236 16.4423 83.9246 16.3137C83.62 16.1851 83.3594 16.0091 83.1428 15.7857C82.9329 15.5556 82.7705 15.2882 82.6554 14.9836C82.5403 14.6722 82.4828 14.3371 82.4828 13.9783C82.4828 13.6196 82.5437 13.2879 82.6655 12.9833C82.7942 12.6719 82.9668 12.4045 83.1834 12.1811C83.4068 11.951 83.6708 11.7716 83.9754 11.643C84.28 11.5143 84.6117 11.45 84.9705 11.45C85.3969 11.45 85.7557 11.5245 86.0468 11.6734C86.3446 11.8223 86.5883 12.0187 86.7779 12.2623C86.9674 12.4993 87.1028 12.77 87.184 13.0747C87.272 13.3725 87.316 13.6771 87.316 13.9885V14.3134H83.4575ZM86.3412 13.5823C86.3345 13.3793 86.3006 13.1931 86.2397 13.0239C86.1855 12.8547 86.1009 12.7091 85.9859 12.5873C85.8708 12.4587 85.7252 12.3605 85.5492 12.2928C85.38 12.2183 85.1803 12.1811 84.9502 12.1811C84.7268 12.1811 84.5203 12.2251 84.3308 12.3131C84.148 12.3943 83.9923 12.5027 83.8637 12.638C83.7351 12.7734 83.6335 12.9257 83.5591 13.095C83.4914 13.2574 83.4575 13.4199 83.4575 13.5823H86.3412Z" fill="#E1E9F0"/>
<path d="M91.5467 12.8513C91.3775 12.6753 91.1981 12.5433 91.0086 12.4553C90.8258 12.3605 90.6058 12.3131 90.3486 12.3131C90.0981 12.3131 89.8781 12.3605 89.6886 12.4553C89.5058 12.5433 89.3501 12.6685 89.2215 12.831C89.0997 12.9866 89.0049 13.1694 88.9372 13.3793C88.8763 13.5823 88.8458 13.7956 88.8458 14.019C88.8458 14.2423 88.8831 14.4556 88.9575 14.6587C89.032 14.855 89.1369 15.0276 89.2723 15.1765C89.4077 15.3254 89.5701 15.4439 89.7597 15.5319C89.9492 15.6131 90.1624 15.6537 90.3994 15.6537C90.6566 15.6537 90.8766 15.6097 91.0594 15.5217C91.2421 15.427 91.4114 15.2916 91.5671 15.1156L92.2169 15.7654C91.98 16.0294 91.7024 16.219 91.3843 16.334C91.0729 16.4491 90.7412 16.5067 90.3892 16.5067C90.0169 16.5067 89.6751 16.4457 89.3637 16.3239C89.0591 16.202 88.7951 16.0328 88.5717 15.8162C88.3483 15.5928 88.1757 15.3288 88.0538 15.0242C87.932 14.7128 87.8711 14.371 87.8711 13.9987C87.8711 13.6263 87.932 13.2845 88.0538 12.9731C88.1757 12.6617 88.3449 12.3943 88.5615 12.171C88.7849 11.9476 89.0489 11.775 89.3535 11.6531C89.6649 11.5245 90.0101 11.4602 90.3892 11.4602C90.7412 11.4602 91.0763 11.5245 91.3944 11.6531C91.7194 11.775 92.0003 11.9645 92.2372 12.2217L91.5467 12.8513Z" fill="#E1E9F0"/>
<path d="M95.2775 12.3639H93.9676V14.547C93.9676 14.6823 93.971 14.8177 93.9778 14.9531C93.9846 15.0817 94.0083 15.2002 94.0489 15.3085C94.0963 15.41 94.164 15.4947 94.252 15.5623C94.3467 15.6233 94.4821 15.6537 94.6581 15.6537C94.7664 15.6537 94.8781 15.6436 94.9932 15.6233C95.1083 15.603 95.2132 15.5657 95.308 15.5116V16.3442C95.1996 16.4051 95.0575 16.4457 94.8815 16.466C94.7123 16.4931 94.5803 16.5067 94.4855 16.5067C94.1335 16.5067 93.8593 16.4593 93.663 16.3645C93.4735 16.263 93.3313 16.1343 93.2366 15.9787C93.1486 15.823 93.0944 15.6503 93.0741 15.4608C93.0606 15.2645 93.0538 15.0682 93.0538 14.8719V12.3639H91.9978V11.5719H93.0538V10.2214H93.9676V11.5719H95.2775V12.3639Z" fill="#E1E9F0"/>
<path d="M96.8424 14.3134C96.8424 14.5233 96.8864 14.7162 96.9744 14.8922C97.0691 15.0614 97.191 15.207 97.3399 15.3288C97.4888 15.4507 97.6614 15.5454 97.8578 15.6131C98.0541 15.6808 98.2571 15.7147 98.467 15.7147C98.7513 15.7147 98.9984 15.6503 99.2082 15.5217C99.4181 15.3863 99.611 15.2103 99.787 14.9937L100.477 15.5217C99.9698 16.1783 99.259 16.5067 98.3451 16.5067C97.9661 16.5067 97.6208 16.4423 97.3094 16.3137C97.0048 16.1851 96.7442 16.0091 96.5276 15.7857C96.3178 15.5556 96.1553 15.2882 96.0402 14.9836C95.9251 14.6722 95.8676 14.3371 95.8676 13.9783C95.8676 13.6196 95.9285 13.2879 96.0504 12.9833C96.179 12.6719 96.3516 12.4045 96.5682 12.1811C96.7916 11.951 97.0556 11.7716 97.3602 11.643C97.6648 11.5143 97.9965 11.45 98.3553 11.45C98.7818 11.45 99.1405 11.5245 99.4316 11.6734C99.7295 11.8223 99.9731 12.0187 100.163 12.2623C100.352 12.4993 100.488 12.77 100.569 13.0747C100.657 13.3725 100.701 13.6771 100.701 13.9885V14.3134H96.8424ZM99.7261 13.5823C99.7193 13.3793 99.6854 13.1931 99.6245 13.0239C99.5704 12.8547 99.4858 12.7091 99.3707 12.5873C99.2556 12.4587 99.1101 12.3605 98.9341 12.2928C98.7648 12.2183 98.5651 12.1811 98.335 12.1811C98.1116 12.1811 97.9051 12.2251 97.7156 12.3131C97.5328 12.3943 97.3771 12.5027 97.2485 12.638C97.1199 12.7734 97.0184 12.9257 96.9439 13.095C96.8762 13.2574 96.8424 13.4199 96.8424 13.5823H99.7261Z" fill="#E1E9F0"/>
<path d="M106.312 16.3848H105.399V15.6943H105.378C105.202 15.9516 104.959 16.1513 104.647 16.2934C104.343 16.4356 104.028 16.5067 103.703 16.5067C103.331 16.5067 102.992 16.4423 102.688 16.3137C102.39 16.1851 102.132 16.0057 101.916 15.7756C101.706 15.5454 101.544 15.278 101.428 14.9734C101.313 14.6688 101.256 14.3371 101.256 13.9783C101.256 13.6196 101.313 13.2879 101.428 12.9833C101.544 12.6719 101.706 12.4045 101.916 12.1811C102.132 11.951 102.39 11.7716 102.688 11.643C102.992 11.5143 103.331 11.45 103.703 11.45C104.048 11.45 104.373 11.5245 104.678 11.6734C104.982 11.8156 105.216 12.0119 105.378 12.2623H105.399V8.7085H106.312V16.3848ZM103.815 15.6537C104.058 15.6537 104.278 15.6131 104.475 15.5319C104.671 15.4439 104.837 15.3288 104.972 15.1867C105.108 15.0377 105.212 14.8617 105.287 14.6587C105.361 14.4488 105.399 14.222 105.399 13.9783C105.399 13.7347 105.361 13.5113 105.287 13.3082C105.212 13.0983 105.108 12.9223 104.972 12.7802C104.837 12.6313 104.671 12.5162 104.475 12.435C104.278 12.347 104.058 12.303 103.815 12.303C103.571 12.303 103.351 12.347 103.155 12.435C102.958 12.5162 102.792 12.6313 102.657 12.7802C102.522 12.9223 102.417 13.0983 102.342 13.3082C102.268 13.5113 102.231 13.7347 102.231 13.9783C102.231 14.222 102.268 14.4488 102.342 14.6587C102.417 14.8617 102.522 15.0377 102.657 15.1867C102.792 15.3288 102.958 15.4439 103.155 15.5319C103.351 15.6131 103.571 15.6537 103.815 15.6537Z" fill="#E1E9F0"/>
<path d="M109.914 8.7085H110.827V12.2623H110.848C111.01 12.0119 111.244 11.8156 111.548 11.6734C111.853 11.5245 112.178 11.45 112.523 11.45C112.895 11.45 113.23 11.5143 113.528 11.643C113.833 11.7716 114.09 11.951 114.3 12.1811C114.517 12.4045 114.682 12.6719 114.798 12.9833C114.913 13.2879 114.97 13.6196 114.97 13.9783C114.97 14.3371 114.913 14.6688 114.798 14.9734C114.682 15.278 114.517 15.5454 114.3 15.7756C114.09 16.0057 113.833 16.1851 113.528 16.3137C113.23 16.4423 112.895 16.5067 112.523 16.5067C112.198 16.5067 111.88 16.4356 111.569 16.2934C111.264 16.1513 111.024 15.9516 110.848 15.6943H110.827V16.3848H109.914V8.7085ZM112.411 15.6537C112.655 15.6537 112.875 15.6131 113.071 15.5319C113.268 15.4439 113.434 15.3288 113.569 15.1867C113.704 15.0377 113.809 14.8617 113.884 14.6587C113.958 14.4488 113.995 14.222 113.995 13.9783C113.995 13.7347 113.958 13.5113 113.884 13.3082C113.809 13.0983 113.704 12.9223 113.569 12.7802C113.434 12.6313 113.268 12.5162 113.071 12.435C112.875 12.347 112.655 12.303 112.411 12.303C112.168 12.303 111.948 12.347 111.751 12.435C111.555 12.5162 111.389 12.6313 111.254 12.7802C111.118 12.9223 111.014 13.0983 110.939 13.3082C110.865 13.5113 110.827 13.7347 110.827 13.9783C110.827 14.222 110.865 14.4488 110.939 14.6587C111.014 14.8617 111.118 15.0377 111.254 15.1867C111.389 15.3288 111.555 15.4439 111.751 15.5319C111.948 15.6131 112.168 15.6537 112.411 15.6537Z" fill="#E1E9F0"/>
<path d="M115.237 11.5719H116.293L117.725 15.3288H117.745L119.106 11.5719H120.091L117.806 17.4205C117.725 17.6303 117.641 17.8199 117.553 17.9891C117.465 18.1651 117.36 18.314 117.238 18.4359C117.116 18.5577 116.967 18.6525 116.791 18.7202C116.622 18.7879 116.412 18.8217 116.161 18.8217C116.026 18.8217 115.887 18.8116 115.745 18.7913C115.61 18.7777 115.478 18.7439 115.349 18.6897L115.461 17.8571C115.644 17.9316 115.826 17.9688 116.009 17.9688C116.151 17.9688 116.27 17.9485 116.365 17.9079C116.466 17.874 116.551 17.8199 116.618 17.7454C116.693 17.6777 116.754 17.5965 116.801 17.5017C116.849 17.407 116.896 17.2987 116.943 17.1768L117.238 16.4153L115.237 11.5719Z" fill="#E1E9F0"/>
<path d="M35.8085 20.1959H38.4891C38.8005 20.1959 39.1119 20.2196 39.4232 20.267C39.7414 20.3076 40.0257 20.3956 40.2762 20.531C40.5266 20.6596 40.7297 20.8423 40.8854 21.0793C41.0411 21.3162 41.1189 21.631 41.1189 22.0236C41.1189 22.4297 41.0039 22.7682 40.7737 23.039C40.5503 23.303 40.2525 23.4925 39.8802 23.6076V23.6279C40.1171 23.6617 40.3303 23.7294 40.5199 23.831C40.7162 23.9257 40.882 24.051 41.0174 24.2067C41.1595 24.3556 41.2679 24.5316 41.3423 24.7346C41.4168 24.9377 41.454 25.1543 41.454 25.3845C41.454 25.7636 41.3728 26.0817 41.2103 26.339C41.0479 26.5894 40.838 26.7925 40.5808 26.9482C40.3235 27.1039 40.0325 27.2156 39.7075 27.2833C39.3894 27.351 39.0712 27.3848 38.7531 27.3848H35.8085V20.1959ZM37.3925 23.0694H38.5399C38.6617 23.0694 38.7802 23.0559 38.8952 23.0288C39.0171 23.0017 39.1254 22.9577 39.2202 22.8968C39.3149 22.8359 39.3894 22.7547 39.4435 22.6531C39.5045 22.5516 39.5349 22.4297 39.5349 22.2876C39.5349 22.1386 39.5011 22.0168 39.4334 21.922C39.3725 21.8205 39.2912 21.7427 39.1897 21.6885C39.0882 21.6343 38.9731 21.5971 38.8445 21.5768C38.7159 21.5497 38.5906 21.5362 38.4688 21.5362H37.3925V23.0694ZM37.3925 26.0445H38.814C38.9359 26.0445 39.0577 26.031 39.1795 26.0039C39.3082 25.9768 39.4232 25.9294 39.5248 25.8617C39.6263 25.794 39.7075 25.706 39.7685 25.5977C39.8362 25.4894 39.87 25.3574 39.87 25.2017C39.87 25.0325 39.826 24.8971 39.738 24.7956C39.6568 24.6873 39.5519 24.606 39.4232 24.5519C39.2946 24.4977 39.1559 24.4605 39.0069 24.4402C38.858 24.4199 38.7192 24.4097 38.5906 24.4097H37.3925V26.0445Z" fill="#E1E9F0"/>
<path d="M42.0677 20.1959H43.6517V27.3848H42.0677V20.1959Z" fill="#E1E9F0"/>
<path d="M44.7879 20.1959H46.9405L49.9968 25.1916H50.0171V20.1959H51.6011V27.3848H49.5297L46.3922 22.2673H46.3719V27.3848H44.7879V20.1959Z" fill="#E1E9F0"/>
<path d="M55.1289 20.1959H56.4387L59.5661 27.3848H57.779L57.1596 25.8617H54.3673L53.7682 27.3848H52.0218L55.1289 20.1959ZM55.7381 22.2876L54.8649 24.5214H56.6215L55.7381 22.2876Z" fill="#E1E9F0"/>
<path d="M59.9845 20.1959H62.1372L65.1935 25.1916H65.2138V20.1959H66.7978V27.3848H64.7264L61.5889 22.2673H61.5685V27.3848H59.9845V20.1959Z" fill="#E1E9F0"/>
<path d="M72.6609 22.0642C72.5052 21.8747 72.3123 21.7291 72.0821 21.6276C71.8588 21.526 71.5981 21.4753 71.3003 21.4753C71.0024 21.4753 70.7249 21.5328 70.4677 21.6479C70.2172 21.763 69.9972 21.9254 69.8077 22.1353C69.6249 22.3383 69.4794 22.582 69.3711 22.8663C69.2695 23.1507 69.2188 23.4587 69.2188 23.7903C69.2188 24.1288 69.2695 24.4402 69.3711 24.7245C69.4794 25.002 69.6249 25.2457 69.8077 25.4556C69.9904 25.6586 70.2037 25.8177 70.4474 25.9328C70.6978 26.0479 70.9652 26.1054 71.2495 26.1054C71.5744 26.1054 71.8621 26.0377 72.1126 25.9023C72.3631 25.767 72.5695 25.5774 72.732 25.3337L74.052 26.3186C73.7474 26.7451 73.3615 27.0599 72.8944 27.263C72.4274 27.466 71.9468 27.5676 71.4526 27.5676C70.8908 27.5676 70.3729 27.4796 69.8991 27.3036C69.4252 27.1276 69.0157 26.8771 68.6704 26.5522C68.3252 26.2205 68.0544 25.8211 67.8581 25.354C67.6686 24.887 67.5738 24.3657 67.5738 23.7903C67.5738 23.215 67.6686 22.6937 67.8581 22.2267C68.0544 21.7596 68.3252 21.3636 68.6704 21.0387C69.0157 20.707 69.4252 20.4531 69.8991 20.2771C70.3729 20.1011 70.8908 20.0131 71.4526 20.0131C71.6557 20.0131 71.8655 20.0334 72.0821 20.074C72.3055 20.1079 72.5221 20.1654 72.732 20.2467C72.9486 20.3279 73.1551 20.4362 73.3514 20.5716C73.5477 20.707 73.7237 20.8728 73.8794 21.0691L72.6609 22.0642Z" fill="#E1E9F0"/>
<path d="M74.667 20.1959H79.551V21.658H76.251V22.9983H79.3682V24.4605H76.251V25.9226H79.7338V27.3848H74.667V20.1959Z" fill="#E1E9F0"/>
<path d="M81.6618 23.0593H80.3621L81.1135 20.1959H82.5757L81.6618 23.0593Z" fill="#E1E9F0"/>
<path d="M86.9509 21.9525C86.8223 21.79 86.6463 21.6716 86.4229 21.5971C86.2063 21.5159 85.9999 21.4753 85.8036 21.4753C85.6885 21.4753 85.57 21.4888 85.4482 21.5159C85.3263 21.543 85.2112 21.587 85.1029 21.6479C84.9946 21.702 84.9066 21.7765 84.8389 21.8713C84.7712 21.966 84.7374 22.0811 84.7374 22.2165C84.7374 22.4331 84.8186 22.599 84.9811 22.714C85.1436 22.8291 85.3466 22.9273 85.5903 23.0085C85.8408 23.0897 86.1082 23.171 86.3925 23.2522C86.6768 23.3334 86.9408 23.4485 87.1845 23.5974C87.4349 23.7463 87.6414 23.946 87.8039 24.1965C87.9663 24.447 88.0476 24.782 88.0476 25.2017C88.0476 25.6011 87.9731 25.9497 87.8242 26.2476C87.6752 26.5454 87.4722 26.7925 87.2149 26.9888C86.9645 27.1851 86.67 27.3307 86.3316 27.4254C85.9999 27.5202 85.6479 27.5676 85.2756 27.5676C84.8085 27.5676 84.3752 27.4965 83.9759 27.3543C83.5765 27.2122 83.2042 26.982 82.8589 26.6639L83.986 25.4251C84.1485 25.6417 84.3516 25.811 84.5952 25.9328C84.8457 26.0479 85.1029 26.1054 85.3669 26.1054C85.4956 26.1054 85.6242 26.0919 85.7528 26.0648C85.8882 26.031 86.0066 25.9836 86.1082 25.9226C86.2165 25.8617 86.3011 25.7839 86.362 25.6891C86.4297 25.5943 86.4636 25.4826 86.4636 25.354C86.4636 25.1374 86.3789 24.9682 86.2097 24.8463C86.0472 24.7177 85.8408 24.6094 85.5903 24.5214C85.3399 24.4334 85.0691 24.3454 84.778 24.2574C84.4869 24.1694 84.2162 24.051 83.9657 23.902C83.7152 23.7531 83.5054 23.5568 83.3362 23.3131C83.1737 23.0694 83.0925 22.7479 83.0925 22.3485C83.0925 21.9627 83.1669 21.6242 83.3159 21.3331C83.4716 21.042 83.6746 20.7983 83.9251 20.602C84.1823 20.4057 84.4768 20.2602 84.8085 20.1654C85.1402 20.0639 85.482 20.0131 85.834 20.0131C86.2402 20.0131 86.6328 20.0707 87.0119 20.1857C87.3909 20.3008 87.7328 20.4937 88.0374 20.7645L86.9509 21.9525Z" fill="#E1E9F0"/>
<path d="M95.1767 21.9525C95.0481 21.79 94.8721 21.6716 94.6487 21.5971C94.4321 21.5159 94.2257 21.4753 94.0294 21.4753C93.9143 21.4753 93.7958 21.4888 93.674 21.5159C93.5521 21.543 93.4371 21.587 93.3287 21.6479C93.2204 21.702 93.1324 21.7765 93.0647 21.8713C92.9971 21.966 92.9632 22.0811 92.9632 22.2165C92.9632 22.4331 93.0444 22.599 93.2069 22.714C93.3694 22.8291 93.5724 22.9273 93.8161 23.0085C94.0666 23.0897 94.334 23.171 94.6183 23.2522C94.9026 23.3334 95.1666 23.4485 95.4103 23.5974C95.6607 23.7463 95.8672 23.946 96.0297 24.1965C96.1921 24.447 96.2734 24.782 96.2734 25.2017C96.2734 25.6011 96.1989 25.9497 96.05 26.2476C95.9011 26.5454 95.698 26.7925 95.4407 26.9888C95.1903 27.1851 94.8958 27.3307 94.5574 27.4254C94.2257 27.5202 93.8737 27.5676 93.5014 27.5676C93.0343 27.5676 92.6011 27.4965 92.2017 27.3543C91.8023 27.2122 91.43 26.982 91.0847 26.6639L92.2118 25.4251C92.3743 25.6417 92.5774 25.811 92.8211 25.9328C93.0715 26.0479 93.3287 26.1054 93.5927 26.1054C93.7214 26.1054 93.85 26.0919 93.9786 26.0648C94.114 26.031 94.2324 25.9836 94.334 25.9226C94.4423 25.8617 94.5269 25.7839 94.5878 25.6891C94.6555 25.5943 94.6894 25.4826 94.6894 25.354C94.6894 25.1374 94.6047 24.9682 94.4355 24.8463C94.2731 24.7177 94.0666 24.6094 93.8161 24.5214C93.5657 24.4334 93.2949 24.3454 93.0038 24.2574C92.7127 24.1694 92.442 24.051 92.1915 23.902C91.9411 23.7531 91.7312 23.5568 91.562 23.3131C91.3995 23.0694 91.3183 22.7479 91.3183 22.3485C91.3183 21.9627 91.3927 21.6242 91.5417 21.3331C91.6974 21.042 91.9004 20.7983 92.1509 20.602C92.4081 20.4057 92.7026 20.2602 93.0343 20.1654C93.366 20.0639 93.7078 20.0131 94.0598 20.0131C94.466 20.0131 94.8586 20.0707 95.2377 20.1857C95.6167 20.3008 95.9586 20.4937 96.2632 20.7645L95.1767 21.9525Z" fill="#E1E9F0"/>
<path d="M99.5147 20.1959H100.825L103.952 27.3848H102.165L101.545 25.8617H98.7531L98.154 27.3848H96.4076L99.5147 20.1959ZM100.124 22.2876L99.2507 24.5214H101.007L100.124 22.2876Z" fill="#E1E9F0"/>
<path d="M104.431 20.1959H109.254V21.658H106.015V23.1202H109.011V24.5823H106.015V27.3848H104.431V20.1959Z" fill="#E1E9F0"/>
<path d="M116.146 24.6128C116.146 25.0393 116.082 25.4319 115.954 25.7906C115.825 26.1494 115.632 26.4608 115.375 26.7248C115.124 26.9888 114.81 27.1953 114.43 27.3442C114.051 27.4931 113.615 27.5676 113.121 27.5676C112.62 27.5676 112.18 27.4931 111.801 27.3442C111.422 27.1953 111.103 26.9888 110.846 26.7248C110.596 26.4608 110.406 26.1494 110.278 25.7906C110.149 25.4319 110.085 25.0393 110.085 24.6128V20.1959H111.669V24.5519C111.669 24.7753 111.702 24.9817 111.77 25.1713C111.845 25.3608 111.946 25.5266 112.075 25.6688C112.203 25.8042 112.356 25.9125 112.532 25.9937C112.715 26.0682 112.911 26.1054 113.121 26.1054C113.33 26.1054 113.523 26.0682 113.699 25.9937C113.875 25.9125 114.028 25.8042 114.156 25.6688C114.285 25.5266 114.383 25.3608 114.451 25.1713C114.525 24.9817 114.562 24.7753 114.562 24.5519V20.1959H116.146V24.6128Z" fill="#E1E9F0"/>
</g>
<path opacity="0.6" fill-rule="evenodd" clip-rule="evenodd" d="M156.001 0.923077H3.69281C2.67321 0.923077 1.84666 1.74963 1.84666 2.76923V33.2308C1.84666 34.2504 2.67321 35.0769 3.69281 35.0769H156.001C157.02 35.0769 157.847 34.2504 157.847 33.2308V2.76923C157.847 1.74963 157.02 0.923077 156.001 0.923077ZM3.69281 0C2.16341 0 0.923584 1.23983 0.923584 2.76923V33.2308C0.923584 34.7602 2.16341 36 3.69281 36H156.001C157.53 36 158.77 34.7602 158.77 33.2308V2.76923C158.77 1.23983 157.53 0 156.001 0H3.69281Z" fill="#E1E9F0"/>
<path opacity="0.6" d="M132.896 17.9999L130.601 20.1891L128.307 17.9999L130.601 15.8107L132.896 17.9999ZM138.461 12.6841L142.392 16.4376L144.685 14.2484L138.461 8.30762L132.238 14.2484L134.531 16.4376L138.461 12.6841ZM146.324 15.8107L144.03 17.9999L146.324 20.1891L148.615 17.9999L146.324 15.8107ZM138.461 23.3157L134.531 19.5642L132.238 21.7515L138.461 27.6922L144.685 21.7515L142.392 19.5642L138.461 23.3157ZM138.461 20.1891L140.755 17.9999L138.461 15.8107L136.168 17.9999L138.461 20.1891Z" fill="#EFB80A"/>
</svg>
