<svg width="163" height="44" viewBox="0 0 163 44" fill="none" xmlns="http://www.w3.org/2000/svg">
<path d="M120.792 33.3281C115.198 33.3281 111.722 30.2621 111.722 25.3201C111.722 20.1911 114.93 17.0001 120.094 17.0001H120.528C121.175 17.0001 122.067 17.0201 123.286 17.1641V10.9731H126.934V32.7701C126.934 32.7701 123.468 33.3281 120.792 33.3281ZM120.759 19.7181C117.225 19.7181 115.507 21.5231 115.507 25.2341C115.507 28.5661 117.58 30.6371 120.911 30.6371C121.552 30.6371 122.285 30.5971 123.285 30.5161V19.9401C122.286 19.7881 121.481 19.7181 120.759 19.7181ZM70.8198 32.8281L60.965 16.5551L60.9618 32.8281H57.5271V12.2271H62.3357L72.1905 28.3551L72.1863 12.2271H75.6664V32.8281H70.8198ZM102.211 33.1451C100.551 33.1451 98.8214 32.9691 96.7617 32.5941L96.5387 32.5541V29.6761L96.8642 29.7421C98.6809 30.1091 100.249 30.4221 101.819 30.4221C103.086 30.4221 106.037 30.2341 106.037 28.4691C106.037 26.9891 103.998 26.6171 102.36 26.3201L102.256 26.3001C101.95 26.2461 101.661 26.1911 101.418 26.1331C99.0148 25.5431 96.451 24.6561 96.451 21.6091C96.451 18.6371 98.9366 16.9341 103.272 16.9341C105.353 16.9341 106.863 17.1441 108.077 17.3161L108.667 17.3981V20.1911L108.353 20.1371C106.979 19.8981 105.368 19.6521 103.82 19.6521C102.099 19.6521 100.056 19.9571 100.056 21.4061C100.056 22.6091 101.728 22.9531 103.664 23.3521C106.371 23.9061 109.728 24.6021 109.728 28.0981C109.728 31.3051 106.991 33.1451 102.211 33.1451ZM137.176 33.1451C133.4 33.1451 129.903 32.5151 129.903 27.9531C129.903 22.9881 135.31 22.9881 138.543 22.9881C138.864 22.9881 140.384 23.0551 140.85 23.0741C140.846 20.2891 140.809 19.6251 136.541 19.6251C134.849 19.6251 132.97 19.9411 131.31 20.2231L130.993 20.2771V17.5271L131.207 17.4841C133.13 17.1141 134.985 16.9341 136.876 16.9341C141.012 16.9341 144.516 17.3281 144.516 22.1841V32.7741L144.265 32.8011C141.4 33.1051 139.124 33.1451 137.176 33.1451ZM138.452 25.4451C135.335 25.4451 133.403 25.8791 133.403 28.0391C133.403 30.5391 135.867 30.7461 138.18 30.7461C139.042 30.7461 140.595 30.6411 141.069 30.6091V25.5311C140.401 25.5041 138.663 25.4451 138.452 25.4451ZM85.9863 33.1451C82.205 33.1451 78.709 32.5151 78.709 27.9531C78.709 22.9881 84.1168 22.9881 87.3486 22.9881C87.6709 22.9881 89.1938 23.0551 89.6609 23.0741C89.6567 20.2891 89.6155 19.6251 85.3469 19.6251C83.6539 19.6251 81.7749 19.9411 80.1157 20.2231L79.7986 20.2771V17.5271L80.0174 17.4841C81.881 17.1195 83.7789 16.9352 85.6819 16.9341C89.8173 16.9341 93.3228 17.3281 93.3228 22.1841V32.7741L93.0702 32.8011C90.2062 33.1051 87.9309 33.1451 85.9863 33.1451ZM87.2577 25.4451C84.1411 25.4451 82.2135 25.8791 82.2135 28.0391C82.2135 30.5391 84.6737 30.7461 86.9861 30.7461C87.8527 30.7461 89.4051 30.6411 89.8797 30.6091V25.5311C89.2065 25.5041 87.468 25.4451 87.2577 25.4451Z" fill="#E1E9F0"/>
<mask id="mask0_147_260" style="mask-type:luminance" maskUnits="userSpaceOnUse" x="146" y="16" width="17" height="24">
<path d="M146.898 16H162.779V40H146.898V16Z" fill="#231F20"/>
</mask>
<g mask="url(#mask0_147_260)">
<path d="M159.043 39.8279V33.0699C157.62 33.2579 156.864 33.2579 156.253 33.2579C154.808 33.2579 153.202 32.9609 151.96 32.4649C149.177 31.3699 147.518 28.5899 147.518 25.0229C147.518 23.2429 147.976 19.9879 151.043 18.2339C152.583 17.3639 154.4 16.9919 157.133 16.9919C158.11 16.9919 159.431 17.0619 160.707 17.1319L162.779 17.2339V38.2619L159.043 39.8279ZM156.86 19.7109C153.153 19.7099 151.274 21.4999 151.274 25.0229C151.274 29.5589 154.076 30.5119 156.433 30.5119C157.007 30.5119 157.652 30.5119 159.079 30.3399V19.8089C157.961 19.7389 157.446 19.7109 156.86 19.7109Z" fill="#E1E9F0"/>
</g>
<mask id="mask1_147_260" style="mask-type:luminance" maskUnits="userSpaceOnUse" x="26" y="0" width="29" height="33">
<path d="M26.4205 0.0161133H54.9548V33.0001H26.4205V0.0161133Z" fill="#0996C7"/>
</mask>
<g mask="url(#mask1_147_260)">
<path d="M41.2287 0.0161133L29.1619 31.3861C29.0127 31.7724 28.7516 32.1111 28.4084 32.3634C28.0653 32.6158 27.654 32.7716 27.2216 32.8131V32.8281H39.9774C40.9761 32.8281 41.8311 32.2271 42.1492 31.3871L54.2202 0.0161133H41.2287Z" fill="#E1E9F0"/>
</g>
<path d="M26.1807 32.3521C26.9204 32.3521 27.5683 32.0041 27.9646 31.4771C28.0058 31.4221 28.1506 31.2301 28.2531 30.9691L32.6791 19.4571L30.0899 12.7341C29.939 12.3937 29.6948 12.0976 29.3823 11.8765C29.0699 11.6555 28.7007 11.5175 28.3129 11.4769C27.9252 11.4363 27.533 11.4946 27.177 11.6456C26.8211 11.7967 26.5143 12.0351 26.2885 12.3361C26.2462 12.3911 26.0739 12.6361 26 12.8441L21.574 24.3521L24.1748 31.1021C24.3435 31.4731 24.6234 31.7892 24.9799 32.0114C25.3364 32.2335 25.7538 32.352 26.1807 32.3521Z" fill="#E1E9F0"/>
<mask id="mask2_147_260" style="mask-type:luminance" maskUnits="userSpaceOnUse" x="-2" y="10" width="30" height="34">
<path d="M-1.05688 10H27.4774V43.797H-1.05688V10Z" fill="#0996C7"/>
</mask>
<g mask="url(#mask2_147_260)">
<path d="M27.1265 10.9839H14.2301C13.2314 10.9839 12.3765 11.5819 12.0541 12.4259L-0.0126953 43.7959H12.9788L25.0467 12.4269C25.2033 12.0188 25.4847 11.664 25.8551 11.4077C26.2255 11.1515 26.6681 11.0053 27.1265 10.9879V10.9839Z" fill="#E1E9F0"/>
</g>
</svg>
