<svg width="133" height="36" viewBox="0 0 133 36" fill="none" xmlns="http://www.w3.org/2000/svg">
<g opacity="0.6">
<path d="M38.4793 10.7391C38.3439 10.5428 38.1611 10.4006 37.931 10.3126C37.7076 10.2179 37.4707 10.1705 37.2202 10.1705C37.0713 10.1705 36.9257 10.1874 36.7836 10.2212C36.6482 10.2551 36.523 10.3092 36.4079 10.3837C36.2996 10.4582 36.2116 10.5563 36.1439 10.6782C36.0762 10.7932 36.0424 10.932 36.0424 11.0945C36.0424 11.3382 36.127 11.5243 36.2962 11.6529C36.4654 11.7816 36.6753 11.8932 36.9257 11.988C37.1762 12.0828 37.4504 12.1742 37.7482 12.2622C38.046 12.3502 38.3202 12.472 38.5707 12.6277C38.8211 12.7834 39.031 12.9899 39.2002 13.2471C39.3694 13.5043 39.454 13.8462 39.454 14.2726C39.454 14.6585 39.383 14.9969 39.2408 15.288C39.0987 15.5723 38.9057 15.8092 38.662 15.9988C38.4251 16.1883 38.1476 16.3305 37.8294 16.4252C37.5113 16.52 37.1762 16.5674 36.8242 16.5674C36.3774 16.5674 35.9476 16.4929 35.5347 16.344C35.1217 16.1951 34.7664 15.9446 34.4685 15.5926L35.4331 14.6585C35.5888 14.8954 35.7919 15.0816 36.0424 15.2169C36.2996 15.3456 36.5704 15.4099 36.8547 15.4099C37.0036 15.4099 37.1525 15.3896 37.3014 15.3489C37.4504 15.3083 37.5857 15.2474 37.7076 15.1662C37.8294 15.0849 37.9276 14.9834 38.002 14.8616C38.0765 14.7329 38.1137 14.5874 38.1137 14.4249C38.1137 14.1609 38.0291 13.9579 37.8599 13.8157C37.6907 13.6736 37.4808 13.5551 37.2304 13.4603C36.9799 13.3588 36.7057 13.264 36.4079 13.176C36.11 13.088 35.8359 12.9696 35.5854 12.8206C35.335 12.6649 35.1251 12.4619 34.9559 12.2114C34.7867 11.9542 34.702 11.6123 34.702 11.1859C34.702 10.8136 34.7765 10.492 34.9254 10.2212C35.0811 9.95048 35.2808 9.72709 35.5245 9.55109C35.775 9.36832 36.0593 9.23294 36.3774 9.14494C36.6956 9.05694 37.0205 9.01294 37.3522 9.01294C37.7313 9.01294 38.0968 9.07048 38.4488 9.18555C38.8076 9.30063 39.1291 9.49017 39.4134 9.75417L38.4793 10.7391Z" fill="#E1E9F0"/>
<path d="M40.4818 9.19571H45.244V10.3532H41.7612V12.12H45.0612V13.2776H41.7612V15.2271H45.4267V16.3846H40.4818V9.19571Z" fill="#E1E9F0"/>
<path d="M51.3193 10.8812C51.0553 10.5969 50.7981 10.4074 50.5476 10.3126C50.3039 10.2179 50.0568 10.1705 49.8064 10.1705C49.4341 10.1705 49.0956 10.2382 48.791 10.3736C48.4931 10.5022 48.2359 10.6849 48.0193 10.9219C47.8027 11.152 47.6334 11.4228 47.5116 11.7342C47.3965 12.0456 47.339 12.3806 47.339 12.7394C47.339 13.1252 47.3965 13.4806 47.5116 13.8056C47.6334 14.1305 47.8027 14.4114 48.0193 14.6483C48.2359 14.8852 48.4931 15.0714 48.791 15.2068C49.0956 15.3422 49.4341 15.4099 49.8064 15.4099C50.0974 15.4099 50.3784 15.3422 50.6491 15.2068C50.9267 15.0646 51.1839 14.8412 51.4208 14.5366L52.4768 15.288C52.1519 15.7348 51.7559 16.0597 51.2888 16.2628C50.8218 16.4659 50.3242 16.5674 49.7962 16.5674C49.2411 16.5674 48.7301 16.4794 48.263 16.3034C47.8027 16.1206 47.4033 15.8668 47.0648 15.5419C46.7331 15.2102 46.4725 14.8142 46.283 14.3539C46.0934 13.8936 45.9987 13.3825 45.9987 12.8206C45.9987 12.2452 46.0934 11.724 46.283 11.2569C46.4725 10.7831 46.7331 10.3803 47.0648 10.0486C47.4033 9.71694 47.8027 9.46309 48.263 9.28709C48.7301 9.10432 49.2411 9.01294 49.7962 9.01294C50.2836 9.01294 50.7338 9.10094 51.1467 9.27694C51.5664 9.44617 51.9556 9.73725 52.3144 10.1502L51.3193 10.8812Z" fill="#E1E9F0"/>
<path d="M58.7882 13.7446C58.7882 14.1779 58.7137 14.5705 58.5648 14.9225C58.4159 15.2677 58.2128 15.5622 57.9555 15.8059C57.6983 16.0496 57.3937 16.2391 57.0417 16.3745C56.6897 16.5031 56.3072 16.5674 55.8943 16.5674C55.4814 16.5674 55.0989 16.5031 54.7469 16.3745C54.3949 16.2391 54.0869 16.0496 53.8229 15.8059C53.5657 15.5622 53.3626 15.2677 53.2137 14.9225C53.0715 14.5705 53.0005 14.1779 53.0005 13.7446V9.19571H54.2799V13.704C54.2799 13.88 54.3069 14.0662 54.3611 14.2625C54.4152 14.452 54.5032 14.628 54.6251 14.7905C54.7537 14.9529 54.9195 15.0883 55.1226 15.1966C55.3325 15.2982 55.5897 15.3489 55.8943 15.3489C56.1989 15.3489 56.4528 15.2982 56.6559 15.1966C56.8657 15.0883 57.0315 14.9529 57.1534 14.7905C57.282 14.628 57.3734 14.452 57.4275 14.2625C57.4817 14.0662 57.5088 13.88 57.5088 13.704V9.19571H58.7882V13.7446Z" fill="#E1E9F0"/>
<path d="M60.0541 9.19571H62.552C62.8972 9.19571 63.2289 9.22955 63.5471 9.29725C63.872 9.35817 64.1597 9.46648 64.4101 9.62217C64.6606 9.77786 64.8603 9.98771 65.0092 10.2517C65.1581 10.5157 65.2326 10.8508 65.2326 11.2569C65.2326 11.7782 65.0871 12.2148 64.796 12.5668C64.5117 12.9188 64.1021 13.132 63.5674 13.2065L65.4763 16.3846H63.9329L62.2677 13.3385H61.3335V16.3846H60.0541V9.19571ZM62.3286 12.2419C62.5114 12.2419 62.6941 12.2351 62.8769 12.2216C63.0597 12.2012 63.2255 12.1606 63.3744 12.0997C63.5301 12.032 63.6554 11.9339 63.7501 11.8052C63.8449 11.6699 63.8923 11.4837 63.8923 11.2468C63.8923 11.0369 63.8483 10.8677 63.7603 10.7391C63.6723 10.6105 63.5572 10.5157 63.4151 10.4548C63.2729 10.3871 63.1138 10.3431 62.9378 10.3228C62.7686 10.3025 62.6028 10.2923 62.4403 10.2923H61.3335V12.2419H62.3286Z" fill="#E1E9F0"/>
<path d="M66.1453 9.19571H70.9074V10.3532H67.4246V12.12H70.7246V13.2776H67.4246V15.2271H71.0902V16.3846H66.1453V9.19571Z" fill="#E1E9F0"/>
<path d="M38.4793 21.7391C38.3439 21.5428 38.1611 21.4006 37.931 21.3126C37.7076 21.2179 37.4707 21.1705 37.2202 21.1705C37.0713 21.1705 36.9257 21.1874 36.7836 21.2212C36.6482 21.2551 36.523 21.3092 36.4079 21.3837C36.2996 21.4582 36.2116 21.5563 36.1439 21.6782C36.0762 21.7932 36.0424 21.932 36.0424 22.0945C36.0424 22.3382 36.127 22.5243 36.2962 22.6529C36.4654 22.7816 36.6753 22.8932 36.9257 22.988C37.1762 23.0828 37.4504 23.1742 37.7482 23.2622C38.046 23.3502 38.3202 23.472 38.5707 23.6277C38.8211 23.7834 39.031 23.9899 39.2002 24.2471C39.3694 24.5043 39.454 24.8462 39.454 25.2726C39.454 25.6585 39.383 25.9969 39.2408 26.288C39.0987 26.5723 38.9057 26.8092 38.662 26.9988C38.4251 27.1883 38.1476 27.3305 37.8294 27.4252C37.5113 27.52 37.1762 27.5674 36.8242 27.5674C36.3774 27.5674 35.9476 27.4929 35.5347 27.344C35.1217 27.1951 34.7664 26.9446 34.4685 26.5926L35.4331 25.6585C35.5888 25.8954 35.7919 26.0816 36.0424 26.2169C36.2996 26.3456 36.5704 26.4099 36.8547 26.4099C37.0036 26.4099 37.1525 26.3896 37.3014 26.3489C37.4504 26.3083 37.5857 26.2474 37.7076 26.1662C37.8294 26.0849 37.9276 25.9834 38.002 25.8616C38.0765 25.7329 38.1137 25.5874 38.1137 25.4249C38.1137 25.1609 38.0291 24.9579 37.8599 24.8157C37.6907 24.6736 37.4808 24.5551 37.2304 24.4603C36.9799 24.3588 36.7057 24.264 36.4079 24.176C36.11 24.088 35.8359 23.9696 35.5854 23.8206C35.335 23.6649 35.1251 23.4619 34.9559 23.2114C34.7867 22.9542 34.702 22.6123 34.702 22.1859C34.702 21.8136 34.7765 21.492 34.9254 21.2212C35.0811 20.9505 35.2808 20.7271 35.5245 20.5511C35.775 20.3683 36.0593 20.2329 36.3774 20.1449C36.6956 20.0569 37.0205 20.0129 37.3522 20.0129C37.7313 20.0129 38.0968 20.0705 38.4488 20.1856C38.8076 20.3006 39.1291 20.4902 39.4134 20.7542L38.4793 21.7391Z" fill="#E1E9F0"/>
<path d="M44.0052 21.7391C43.8698 21.5428 43.687 21.4006 43.4569 21.3126C43.2335 21.2179 42.9966 21.1705 42.7461 21.1705C42.5972 21.1705 42.4517 21.1874 42.3095 21.2212C42.1741 21.2551 42.0489 21.3092 41.9338 21.3837C41.8255 21.4582 41.7375 21.5563 41.6698 21.6782C41.6021 21.7932 41.5683 21.932 41.5683 22.0945C41.5683 22.3382 41.6529 22.5243 41.8221 22.6529C41.9913 22.7816 42.2012 22.8932 42.4517 22.988C42.7021 23.0828 42.9763 23.1742 43.2741 23.2622C43.572 23.3502 43.8461 23.472 44.0966 23.6277C44.347 23.7834 44.5569 23.9899 44.7261 24.2471C44.8953 24.5043 44.98 24.8462 44.98 25.2726C44.98 25.6585 44.9089 25.9969 44.7667 26.288C44.6246 26.5723 44.4317 26.8092 44.188 26.9988C43.951 27.1883 43.6735 27.3305 43.3553 27.4252C43.0372 27.52 42.7021 27.5674 42.3501 27.5674C41.9033 27.5674 41.4735 27.4929 41.0606 27.344C40.6477 27.1951 40.2923 26.9446 39.9944 26.5926L40.959 25.6585C41.1147 25.8954 41.3178 26.0816 41.5683 26.2169C41.8255 26.3456 42.0963 26.4099 42.3806 26.4099C42.5295 26.4099 42.6784 26.3896 42.8273 26.3489C42.9763 26.3083 43.1117 26.2474 43.2335 26.1662C43.3553 26.0849 43.4535 25.9834 43.528 25.8616C43.6024 25.7329 43.6397 25.5874 43.6397 25.4249C43.6397 25.1609 43.555 24.9579 43.3858 24.8157C43.2166 24.6736 43.0067 24.5551 42.7563 24.4603C42.5058 24.3588 42.2317 24.264 41.9338 24.176C41.636 24.088 41.3618 23.9696 41.1113 23.8206C40.8609 23.6649 40.651 23.4619 40.4818 23.2114C40.3126 22.9542 40.228 22.6123 40.228 22.1859C40.228 21.8136 40.3024 21.492 40.4513 21.2212C40.607 20.9505 40.8067 20.7271 41.0504 20.5511C41.3009 20.3683 41.5852 20.2329 41.9033 20.1449C42.2215 20.0569 42.5464 20.0129 42.8781 20.0129C43.2572 20.0129 43.6227 20.0705 43.9747 20.1856C44.3335 20.3006 44.655 20.4902 44.9393 20.7542L44.0052 21.7391Z" fill="#E1E9F0"/>
<path d="M46.0077 20.1957H47.2871V26.2271H50.3434V27.3846H46.0077V20.1957Z" fill="#E1E9F0"/>
<path d="M53.6683 20.1957H58.4305V21.3532H54.9477V23.12H58.2477V24.2776H54.9477V26.2271H58.6132V27.3846H53.6683V20.1957Z" fill="#E1E9F0"/>
<path d="M59.571 20.1957H61.2667L64.7495 25.5366H64.7698V20.1957H66.0492V27.3846H64.4246L60.8707 21.8711H60.8504V27.3846H59.571V20.1957Z" fill="#E1E9F0"/>
<path d="M72.2826 21.8812C72.0186 21.5969 71.7614 21.4074 71.5109 21.3126C71.2672 21.2179 71.0202 21.1705 70.7697 21.1705C70.3974 21.1705 70.0589 21.2382 69.7543 21.3736C69.4565 21.5022 69.1992 21.6849 68.9826 21.9219C68.766 22.152 68.5968 22.4228 68.4749 22.7342C68.3598 23.0456 68.3023 23.3806 68.3023 23.7394C68.3023 24.1252 68.3598 24.4806 68.4749 24.8056C68.5968 25.1305 68.766 25.4114 68.9826 25.6483C69.1992 25.8852 69.4565 26.0714 69.7543 26.2068C70.0589 26.3422 70.3974 26.4099 70.7697 26.4099C71.0608 26.4099 71.3417 26.3422 71.6125 26.2068C71.89 26.0646 72.1472 25.8412 72.3842 25.5366L73.4402 26.288C73.1152 26.7348 72.7192 27.0597 72.2522 27.2628C71.7851 27.4659 71.2875 27.5674 70.7595 27.5674C70.2045 27.5674 69.6934 27.4794 69.2263 27.3034C68.766 27.1206 68.3666 26.8668 68.0282 26.5419C67.6965 26.2102 67.4358 25.8142 67.2463 25.3539C67.0568 24.8936 66.962 24.3825 66.962 23.8206C66.962 23.2452 67.0568 22.724 67.2463 22.2569C67.4358 21.7831 67.6965 21.3803 68.0282 21.0486C68.3666 20.7169 68.766 20.4631 69.2263 20.2871C69.6934 20.1043 70.2045 20.0129 70.7595 20.0129C71.2469 20.0129 71.6971 20.1009 72.11 20.2769C72.5297 20.4462 72.9189 20.7372 73.2777 21.1502L72.2826 21.8812Z" fill="#E1E9F0"/>
<path d="M73.9943 20.1957H76.4921C76.8373 20.1957 77.169 20.2296 77.4872 20.2972C77.8121 20.3582 78.0998 20.4665 78.3503 20.6222C78.6007 20.7779 78.8004 20.9877 78.9493 21.2517C79.0983 21.5157 79.1727 21.8508 79.1727 22.2569C79.1727 22.7782 79.0272 23.2148 78.7361 23.5668C78.4518 23.9188 78.0423 24.132 77.5075 24.2065L79.4164 27.3846H77.873L76.2078 24.3385H75.2736V27.3846H73.9943V20.1957ZM76.2687 23.2419C76.4515 23.2419 76.6343 23.2351 76.817 23.2216C76.9998 23.2012 77.1656 23.1606 77.3146 23.0997C77.4703 23.032 77.5955 22.9339 77.6903 22.8052C77.785 22.6699 77.8324 22.4837 77.8324 22.2468C77.8324 22.0369 77.7884 21.8677 77.7004 21.7391C77.6124 21.6105 77.4973 21.5157 77.3552 21.4548C77.213 21.3871 77.054 21.3431 76.878 21.3228C76.7087 21.3025 76.5429 21.2923 76.3804 21.2923H75.2736V23.2419H76.2687Z" fill="#E1E9F0"/>
<path d="M81.4652 24.308L78.7643 20.1957H80.3686L82.1353 23.0591L83.9224 20.1957H85.4455L82.7446 24.308V27.3846H81.4652V24.308Z" fill="#E1E9F0"/>
<path d="M85.7997 20.1957H88.2163C88.5615 20.1957 88.8932 20.2296 89.2114 20.2972C89.5363 20.3649 89.8206 20.48 90.0643 20.6425C90.308 20.7982 90.5009 21.0114 90.6431 21.2822C90.792 21.5462 90.8665 21.8779 90.8665 22.2772C90.8665 22.7308 90.7886 23.0963 90.6329 23.3739C90.4772 23.6514 90.2674 23.868 90.0034 24.0237C89.7394 24.1726 89.4314 24.2742 89.0794 24.3283C88.7342 24.3825 88.372 24.4096 87.9929 24.4096H87.0791V27.3846H85.7997V20.1957ZM87.8508 23.3129C88.0335 23.3129 88.2231 23.3062 88.4194 23.2926C88.6157 23.2791 88.7951 23.2385 88.9575 23.1708C89.1268 23.1031 89.2621 23.0016 89.3637 22.8662C89.472 22.7308 89.5261 22.5412 89.5261 22.2976C89.5261 22.0742 89.4788 21.8982 89.384 21.7696C89.2892 21.6342 89.1674 21.5326 89.0185 21.4649C88.8695 21.3905 88.7037 21.3431 88.5209 21.3228C88.3382 21.3025 88.1622 21.2923 87.9929 21.2923H87.0791V23.3129H87.8508Z" fill="#E1E9F0"/>
<path d="M93.1747 21.3532H90.9713V20.1957H96.6575V21.3532H94.4541V27.3846H93.1747V21.3532Z" fill="#E1E9F0"/>
<path d="M97.1979 20.1957H98.4772V27.3846H97.1979V20.1957Z" fill="#E1E9F0"/>
<path d="M99.3639 23.8206C99.3639 23.2452 99.4587 22.724 99.6482 22.2569C99.8377 21.7831 100.098 21.3803 100.43 21.0486C100.769 20.7169 101.168 20.4631 101.628 20.2871C102.095 20.1043 102.606 20.0129 103.161 20.0129C103.723 20.0062 104.238 20.0908 104.705 20.2668C105.172 20.436 105.575 20.6865 105.913 21.0182C106.252 21.3499 106.516 21.7492 106.705 22.2163C106.895 22.6834 106.989 23.2046 106.989 23.78C106.989 24.3419 106.895 24.8529 106.705 25.3132C106.516 25.7736 106.252 26.1696 105.913 26.5012C105.575 26.8329 105.172 27.0936 104.705 27.2831C104.238 27.4659 103.723 27.5606 103.161 27.5674C102.606 27.5674 102.095 27.4794 101.628 27.3034C101.168 27.1206 100.769 26.8668 100.43 26.5419C100.098 26.2102 99.8377 25.8142 99.6482 25.3539C99.4587 24.8936 99.3639 24.3825 99.3639 23.8206ZM100.704 23.7394C100.704 24.1252 100.762 24.4806 100.877 24.8056C100.999 25.1305 101.168 25.4114 101.384 25.6483C101.601 25.8852 101.858 26.0714 102.156 26.2068C102.461 26.3422 102.799 26.4099 103.172 26.4099C103.544 26.4099 103.882 26.3422 104.187 26.2068C104.492 26.0714 104.752 25.8852 104.969 25.6483C105.185 25.4114 105.351 25.1305 105.466 24.8056C105.588 24.4806 105.649 24.1252 105.649 23.7394C105.649 23.3806 105.588 23.0456 105.466 22.7342C105.351 22.4228 105.185 22.152 104.969 21.9219C104.752 21.6849 104.492 21.5022 104.187 21.3736C103.882 21.2382 103.544 21.1705 103.172 21.1705C102.799 21.1705 102.461 21.2382 102.156 21.3736C101.858 21.5022 101.601 21.6849 101.384 21.9219C101.168 22.152 100.999 22.4228 100.877 22.7342C100.762 23.0456 100.704 23.3806 100.704 23.7394Z" fill="#E1E9F0"/>
<path d="M107.903 20.1957H109.599L113.082 25.5366H113.102V20.1957H114.382V27.3846H112.757L109.203 21.8711H109.183V27.3846H107.903V20.1957Z" fill="#E1E9F0"/>
</g>
<path opacity="0.6" fill-rule="evenodd" clip-rule="evenodd" d="M130.154 0.923077H2.76923C1.74963 0.923077 0.923077 1.74963 0.923077 2.76923V33.2308C0.923077 34.2504 1.74963 35.0769 2.76923 35.0769H130.154C131.173 35.0769 132 34.2504 132 33.2308V2.76923C132 1.74963 131.173 0.923077 130.154 0.923077ZM2.76923 0C1.23983 0 0 1.23983 0 2.76923V33.2308C0 34.7602 1.23982 36 2.76923 36H130.154C131.683 36 132.923 34.7602 132.923 33.2308V2.76923C132.923 1.23983 131.683 0 130.154 0H2.76923Z" fill="#E1E9F0"/>
<path opacity="0.6" fill-rule="evenodd" clip-rule="evenodd" d="M12.9235 16.7076H11.6928C11.353 16.7076 11.0774 16.997 11.0774 17.3538V23.1692C11.0774 25.6672 13.006 27.6922 15.3851 27.6922H21.5389C23.9181 27.6922 25.8466 25.6672 25.8466 23.1692V17.3538C25.8466 16.997 25.571 16.7076 25.2312 16.7076H24.0005V14.123C24.0005 10.9113 21.5207 8.30762 18.462 8.30762C15.4031 8.30762 12.9235 10.9113 12.9235 14.123V16.7076ZM14.7697 16.7076V14.123C14.7697 11.9819 16.4228 10.2461 18.462 10.2461C20.5012 10.2461 22.1543 11.9819 22.1543 14.123V16.7076H14.7697Z" fill="#E1E9F0"/>
</svg>
