<svg width="112" height="41" viewBox="0 0 112 41" fill="none" xmlns="http://www.w3.org/2000/svg">
<path fill-rule="evenodd" clip-rule="evenodd" d="M40.1492 12.338V24.6759H43.1864H46.2237V19.9306C46.2237 16.7986 46.2237 15.0903 46.2237 14.9005C46.3186 14.4259 46.4136 13.9514 46.6983 13.5718C47.078 12.9074 47.7424 12.6227 48.5017 12.7176C49.5458 12.8125 50.2102 13.3819 50.4 14.6157C50.4 14.8056 50.4 16.7037 50.4 19.7407V24.581H53.4373H56.4746V18.8866C56.4746 14.0463 56.4746 13.0972 56.3797 12.6227C56.1898 10.9144 55.6203 9.58565 54.5763 8.63657C53.722 7.78241 52.678 7.30787 51.4441 7.11806C50.9695 7.02315 49.6407 7.11805 49.261 7.21296C48.122 7.49768 47.2678 7.87732 46.5085 8.73148L46.0339 9.11111V4.55556V0H42.9966H39.9593V12.338H40.1492ZM104.692 0.189816C104.502 0.569445 98.3322 15.4699 98.3322 15.4699C98.3322 15.4699 99.9458 15.4699 101.939 15.4699H105.546L108.773 7.78241C110.576 3.51157 112 0 112 0C112 0 110.386 0 108.393 0H104.786L104.692 0.189816ZM26.861 7.21296C25.5322 7.40278 24.4881 7.78241 23.4441 8.44676C21.3559 9.77547 20.0271 12.0532 19.6475 14.7106C19.4576 15.9444 19.5525 17.463 19.8373 18.6019C20.5966 21.544 22.5898 23.8218 25.1525 24.6759C26.1017 24.9606 26.4814 25.0556 27.6203 25.0556C28.4746 25.0556 28.7593 25.0556 29.0441 24.9606C30.278 24.6759 31.1322 24.2014 31.8915 23.4421L32.2712 23.0625V23.8218V24.581H35.2136H38.1559V16.0394V7.49769H35.2136H32.2712V8.25695V9.0162L31.9864 8.73148C31.322 7.97222 30.3729 7.49768 29.139 7.21296C28.7593 7.11805 28.5695 7.11806 27.8102 7.11806C27.3356 7.21296 26.9559 7.21296 26.861 7.21296ZM65.5864 7.21296C63.9729 7.40278 62.2644 8.16204 61.0305 9.11111C58.6576 11.1042 57.4237 14.2361 57.8983 17.463C58.3729 21.0694 60.9356 23.8218 64.5424 24.7708C65.3017 24.9606 66.061 25.0556 67.0102 25.0556C68.7186 25.0556 69.9525 24.7708 71.2814 24.1065C73.939 22.7778 75.6475 20.4051 76.0271 17.463C76.122 16.7037 76.122 15.4699 76.0271 14.8056C75.8373 13.3819 75.2678 11.9583 74.4136 10.8194C74.0339 10.3449 73.2746 9.49074 72.8 9.11111C71.4712 8.06713 69.9525 7.40278 68.2441 7.21296C67.5797 7.11805 66.2508 7.11805 65.5864 7.21296ZM84.9492 7.21296C83.3356 7.40278 81.722 8.06713 80.4881 9.11111C80.0136 9.49074 79.1593 10.3449 78.8746 10.8194C78.0203 11.9583 77.5458 13.3819 77.261 14.8056C77.1661 15.4699 77.1661 16.7986 77.261 17.463C77.8305 21.2593 80.5831 24.2014 84.3797 24.9606C85.139 25.1505 85.5186 25.1505 86.3729 25.1505C87.9864 25.1505 89.4102 24.8657 90.739 24.1065C94.2508 22.3032 96.1492 18.3171 95.2949 14.2361C94.5356 10.4398 91.4983 7.6875 87.6068 7.21296C86.9424 7.11805 85.6136 7.11805 84.9492 7.21296ZM0 7.59259C0 7.59259 1.61356 11.4838 3.60678 16.2292C5.6 20.9745 7.21356 24.8657 7.21356 24.8657C7.21356 24.8657 6.64407 26.2894 5.88475 27.9977C5.12542 29.706 4.55593 31.0347 4.55593 31.1296C4.55593 31.2245 5.97966 31.1296 7.78305 31.1296H11.0102L15.8508 19.456C18.5085 13.0023 20.6915 7.78241 20.6915 7.6875C20.6915 7.6875 20.0271 7.59259 17.4644 7.6875H14.2373L12.2441 12.6227C11.3898 15.2801 10.5356 17.5579 10.5356 17.5579C10.5356 17.5579 9.68136 15.2801 8.54237 12.6227L6.64407 7.6875H3.32203C1.51864 7.59259 0 7.59259 0 7.59259ZM29.8034 12.7176C31.0373 13.0023 31.9864 13.9514 32.3661 15.1852C32.461 15.6597 32.461 16.5139 32.3661 16.9884C32.0814 18.2222 31.1322 19.1713 29.8983 19.456C29.4237 19.5509 28.5695 19.5509 28.0949 19.456C27.0508 19.1713 26.1017 18.412 25.722 17.463C25.2475 16.419 25.4373 15.0903 26.0068 14.1412C26.861 12.9074 28.2847 12.4329 29.8034 12.7176ZM67.6746 12.8125C69.0034 13.0023 70.0475 14.0463 70.3322 15.375C70.4271 15.8495 70.4271 16.6088 70.3322 17.0833C70.0475 18.3171 69.0983 19.1713 67.9593 19.5509C67.5797 19.6458 66.5356 19.6458 66.1559 19.5509C65.2068 19.2662 64.4475 18.6019 63.9729 17.7477C63.6881 17.1782 63.6881 16.8935 63.6881 16.2292C63.6881 15.6597 63.7831 15.375 63.9729 14.9005C64.2576 14.331 64.6373 13.7616 65.2068 13.3819C65.7763 12.8125 66.7254 12.6227 67.6746 12.8125ZM86.9424 12.8125C88.0814 13.0023 89.0305 13.7616 89.4102 14.8056C89.6 15.2801 89.6949 15.5648 89.6949 16.1343C89.6949 16.7986 89.6 17.0833 89.4102 17.6528C89.0305 18.5069 88.1763 19.1713 87.2271 19.456C86.8475 19.5509 85.8034 19.5509 85.4237 19.456C84.2847 19.1713 83.3356 18.2222 83.0508 16.9884C82.9559 16.5139 82.9559 15.6597 83.0508 15.1852C83.4305 13.6667 84.7593 12.6227 86.278 12.6227C86.4678 12.7176 86.7525 12.7176 86.9424 12.8125ZM99.8508 16.9884C98.0475 17.1782 96.7186 18.5069 96.339 20.2153C96.2441 20.6898 96.2441 21.544 96.339 22.0185C96.7186 23.537 97.8576 24.581 99.3763 24.9606C99.5661 24.9606 99.9458 25.0556 100.231 25.0556C101.369 25.0556 102.319 24.6759 103.078 23.9167C103.932 23.0625 104.217 22.2083 104.217 21.0694C104.217 19.6458 103.553 18.412 102.414 17.7477C101.654 17.0833 100.61 16.8935 99.8508 16.9884ZM49.8305 26.2894C48.5966 26.669 48.0271 28.0926 48.6915 29.1366C48.8814 29.4213 49.261 29.8009 49.5458 29.8958C49.8305 29.9907 49.8305 29.9907 50.4 29.9907C50.8746 29.9907 50.9695 29.9907 51.2542 29.8958C51.6339 29.706 52.0136 29.3264 52.2034 28.9468C52.678 27.9977 52.2034 26.8588 51.2542 26.3843C50.9695 26.1944 50.8746 26.1944 50.4949 26.1944C50.1152 26.1944 50.0203 26.1944 49.8305 26.2894ZM44.7051 26.3843C43.0915 26.669 42.0475 27.713 41.5729 29.4213C41.478 29.706 41.478 29.9907 41.478 30.3704V31.0347H40.8136H40.1492V32.4583V33.8819H40.8136H41.478V37.2986V40.7153H43.2814H45.0847V37.2986V33.8819H46.3186H47.5525V32.4583V31.0347H46.3186H45.0847V30.75C45.1797 30.0857 45.4644 29.6111 46.0339 29.5162C46.4136 29.4213 46.9831 29.4213 47.3627 29.6111C47.5525 29.706 47.6475 29.706 47.6475 29.706C47.6475 29.706 47.6475 29.0417 47.6475 28.1875V26.669L47.3627 26.5741C46.9831 26.3843 46.5085 26.3843 45.8441 26.3843C45.3695 26.2894 44.9898 26.3843 44.7051 26.3843ZM59.1322 30.8449C58.3729 31.0347 57.8034 31.4144 57.4237 31.8889L57.2339 32.1736V31.6042V31.0347H55.4305H53.6271V35.875V40.7153H55.4305H57.2339V38.0579C57.2339 36.5394 57.2339 35.3056 57.2339 35.1157C57.3288 34.7361 57.5186 34.3565 57.7085 34.1667C58.1831 33.787 59.0373 33.8819 59.4169 34.3565C59.7017 34.7361 59.7017 34.7361 59.7017 37.7732V40.6204H61.5051H63.3085V37.3935C63.3085 33.9769 63.3085 33.5972 63.1186 32.9329C62.9288 32.3634 62.739 31.8889 62.2644 31.5093C61.8847 31.1296 61.5051 30.8449 60.9356 30.75C60.461 30.75 59.5119 30.75 59.1322 30.8449ZM68.1492 30.75C67.5797 30.8449 66.7254 31.1296 66.2508 31.5093C65.2068 32.2685 64.5424 33.4074 64.2576 34.831C64.1627 35.4005 64.1627 36.4444 64.2576 37.0139C64.4475 37.8681 64.7322 38.7222 65.2068 39.2917C65.8712 40.1458 66.7254 40.7153 67.7695 40.9051C68.339 41 69.2881 41 69.7627 40.8102C70.3322 40.6204 70.7119 40.4306 71.1864 40.0509L71.5661 39.6713V40.1458V40.6204H73.3695H75.1729V35.7801V30.9398H73.3695H71.5661V31.4144V31.8889L71.2814 31.794C70.8068 31.3194 70.1424 30.9398 69.383 30.8449C69.0983 30.75 68.4339 30.75 68.1492 30.75ZM81.9119 30.8449C81.2475 30.9398 80.583 31.4144 80.2034 31.8889L80.0136 32.0787V31.5093V30.9398H78.2102H76.4068V35.7801V40.6204H78.2102H80.0136V37.8681C80.0136 34.9259 80.0136 34.9259 80.2034 34.4514C80.3932 34.0718 80.7729 33.8819 81.1525 33.8819C81.5322 33.8819 81.722 33.9769 82.0068 34.1667C82.3864 34.5463 82.3864 34.4514 82.3864 37.6782V40.5255H84.1898H85.9932V37.0139C85.9932 33.5023 85.9932 33.5023 85.8983 33.1227C85.8034 32.9329 85.7085 32.5532 85.6136 32.2685C85.4237 31.8889 85.3288 31.794 85.0441 31.5093C84.6644 31.1296 84.3797 30.9398 84 30.75C83.3356 30.75 82.5763 30.6551 81.9119 30.8449ZM91.3085 30.8449C89.6949 31.1296 88.461 31.8889 87.7017 33.2176C87.5119 33.5972 87.322 34.0718 87.1322 34.5463C87.0373 35.0208 87.0373 35.1157 87.0373 35.875C87.0373 36.7292 87.0373 37.0139 87.322 37.6782C87.8915 39.2917 89.2203 40.5255 91.0237 40.9051C91.3085 41 91.5932 41 92.2576 41C93.2068 41 93.5864 40.9051 94.2508 40.6204L94.6305 40.4306V38.8171V37.2037L94.3458 37.3935C93.8712 37.6782 93.5864 37.7732 93.0169 37.7732C92.4475 37.7732 92.1627 37.7732 91.783 37.5833C91.4034 37.3935 91.1186 37.1088 90.9288 36.7292C90.8339 36.4444 90.8339 36.4445 90.8339 35.9699C90.8339 35.5903 90.8339 35.4954 90.9288 35.2106C91.2136 34.4514 91.878 34.0718 92.8271 33.9769C93.4915 33.9769 93.7763 33.9769 94.7254 34.4514C94.7254 34.4514 94.7254 33.6921 94.7254 32.838V31.2245L94.4407 31.1296C93.3966 30.75 92.2576 30.6551 91.3085 30.8449ZM99.4712 30.8449C96.7186 31.3194 95.0102 33.6921 95.2 36.4445C95.2949 37.3935 95.5797 38.2477 96.0542 38.912C96.7186 39.956 97.7627 40.6204 99.0915 40.9051C99.661 41 101.18 41 101.844 40.9051C102.793 40.7153 103.647 40.2407 104.312 39.5764C104.597 39.2917 105.071 38.6273 105.071 38.6273C105.071 38.6273 104.407 38.3426 103.553 38.0579L102.034 37.4884L101.844 37.6782C101.559 37.963 101.369 38.0579 100.99 38.1528C99.9458 38.4375 98.9017 37.8681 98.7119 36.919V36.7292H102.034H105.356V35.875C105.356 35.3056 105.356 34.9259 105.261 34.7361C105.071 33.5972 104.597 32.838 103.932 32.0787C103.268 31.4144 102.508 31.0347 101.464 30.8449C101.085 30.75 99.9458 30.75 99.4712 30.8449ZM48.5966 35.875V40.7153H50.4H52.2034V35.875V31.0347H50.4H48.5966V35.875ZM100.895 33.5023C101.18 33.5972 101.275 33.6921 101.559 33.8819C101.749 34.0718 101.939 34.2616 101.939 34.5463V34.7361H100.325C98.522 34.7361 98.6169 34.7361 98.8068 34.3565C99.0915 33.6921 99.9458 33.3125 100.895 33.5023ZM70.2373 33.9769C70.7119 34.0718 71.2814 34.5463 71.4712 35.0208C71.9458 36.0648 71.4712 37.2986 70.3322 37.6782C69.9525 37.7731 69.383 37.7731 69.0034 37.6782C68.4339 37.4884 67.8644 37.0139 67.7695 36.4445C67.6746 36.1597 67.6746 36.0648 67.6746 35.7801C67.6746 35.4005 67.6746 35.3056 67.8644 35.0208C68.2441 34.1667 69.1932 33.787 70.2373 33.9769Z" fill="#E1E9F0"/>
</svg>
